<svg width="514" height="187" viewBox="0 0 514 187" fill="none" xmlns="http://www.w3.org/2000/svg">
<g clip-path="url(#clip0_2225_203)">
<path d="M34.6278 111.39L114.815 89.9034L93.3291 170.091L76.9767 128.168L76.8571 127.862L76.5505 127.742L34.6278 111.39Z" stroke="url(#paint0_linear_2225_203)" stroke-width="1.5"/>
<path d="M101.734 102.985L79.3195 186.637L62.1359 142.583L18.0822 125.399L101.734 102.985Z" fill="url(#paint1_linear_2225_203)"/>
</g>
<g clip-path="url(#clip1_2225_203)">
<path d="M112.148 79.3858L31.9603 100.872L53.4465 20.6845L69.7989 62.6072L69.9185 62.9138L70.2251 63.0334L112.148 79.3858Z" stroke="url(#paint2_linear_2225_203)" stroke-width="1.5"/>
<path d="M45.0418 87.7905L67.4562 4.13892L84.6398 48.1926L128.693 65.3762L45.0418 87.7905Z" fill="url(#paint3_linear_2225_203)"/>
</g>
<mask id="path-5-outside-1_2225_203" maskUnits="userSpaceOnUse" x="257" y="133" width="202" height="38" fill="black">
<rect fill="white" x="257" y="133" width="202" height="38"/>
<path d="M263.064 164.776H277.56V169H258.6V135.4H263.064V164.776ZM311.343 169L308.607 161.464H293.487L290.751 169H285.999L298.527 135.4H303.567L316.095 169H311.343ZM295.023 157.288H307.071L301.023 140.728L295.023 157.288ZM347.179 135.4H351.643V169H348.043L330.763 143.896V169H326.299V135.4H329.899L347.179 160.456V135.4ZM389.502 169H384.03L369.534 152.872V169H365.07V135.4H369.534V150.568L383.55 135.4H389.022L374.19 151.72L389.502 169ZM404.18 164.776H419.78V169H399.716V135.4H419.54V139.624H404.18V149.944H418.34V154.12H404.18V164.776ZM451.329 169L443.793 156.136H435.873V169H431.409V135.4H444.849C447.729 135.4 450.193 136.424 452.241 138.472C454.289 140.488 455.313 142.936 455.313 145.816C455.313 147.992 454.657 149.976 453.345 151.768C452.065 153.56 450.401 154.824 448.353 155.56L456.273 169H451.329ZM435.873 139.576V152.104H444.849C446.513 152.104 447.921 151.496 449.073 150.28C450.257 149.032 450.849 147.544 450.849 145.816C450.849 144.088 450.257 142.616 449.073 141.4C447.921 140.184 446.513 139.576 444.849 139.576H435.873Z"/>
</mask>
<path d="M263.064 164.776H277.56V169H258.6V135.4H263.064V164.776ZM311.343 169L308.607 161.464H293.487L290.751 169H285.999L298.527 135.4H303.567L316.095 169H311.343ZM295.023 157.288H307.071L301.023 140.728L295.023 157.288ZM347.179 135.4H351.643V169H348.043L330.763 143.896V169H326.299V135.4H329.899L347.179 160.456V135.4ZM389.502 169H384.03L369.534 152.872V169H365.07V135.4H369.534V150.568L383.55 135.4H389.022L374.19 151.72L389.502 169ZM404.18 164.776H419.78V169H399.716V135.4H419.54V139.624H404.18V149.944H418.34V154.12H404.18V164.776ZM451.329 169L443.793 156.136H435.873V169H431.409V135.4H444.849C447.729 135.4 450.193 136.424 452.241 138.472C454.289 140.488 455.313 142.936 455.313 145.816C455.313 147.992 454.657 149.976 453.345 151.768C452.065 153.56 450.401 154.824 448.353 155.56L456.273 169H451.329ZM435.873 139.576V152.104H444.849C446.513 152.104 447.921 151.496 449.073 150.28C450.257 149.032 450.849 147.544 450.849 145.816C450.849 144.088 450.257 142.616 449.073 141.4C447.921 140.184 446.513 139.576 444.849 139.576H435.873Z" fill="url(#paint4_linear_2225_203)"/>
<path d="M263.064 164.776H261.564V166.276H263.064V164.776ZM277.56 164.776H279.06V163.276H277.56V164.776ZM277.56 169V170.5H279.06V169H277.56ZM258.6 169H257.1V170.5H258.6V169ZM258.6 135.4V133.9H257.1V135.4H258.6ZM263.064 135.4H264.564V133.9H263.064V135.4ZM263.064 166.276H277.56V163.276H263.064V166.276ZM276.06 164.776V169H279.06V164.776H276.06ZM277.56 167.5H258.6V170.5H277.56V167.5ZM260.1 169V135.4H257.1V169H260.1ZM258.6 136.9H263.064V133.9H258.6V136.9ZM261.564 135.4V164.776H264.564V135.4H261.564ZM311.343 169L309.933 169.512L310.292 170.5H311.343V169ZM308.607 161.464L310.017 160.952L309.658 159.964H308.607V161.464ZM293.487 161.464V159.964H292.436L292.077 160.952L293.487 161.464ZM290.751 169V170.5H291.802L292.161 169.512L290.751 169ZM285.999 169L284.594 168.476L283.839 170.5H285.999V169ZM298.527 135.4V133.9H297.485L297.122 134.876L298.527 135.4ZM303.567 135.4L304.972 134.876L304.609 133.9H303.567V135.4ZM316.095 169V170.5H318.255L317.5 168.476L316.095 169ZM295.023 157.288L293.613 156.777L292.884 158.788H295.023V157.288ZM307.071 157.288V158.788H309.216L308.48 156.773L307.071 157.288ZM301.023 140.728L302.432 140.213L301.017 136.34L299.613 140.217L301.023 140.728ZM312.753 168.488L310.017 160.952L307.197 161.976L309.933 169.512L312.753 168.488ZM308.607 159.964H293.487V162.964H308.607V159.964ZM292.077 160.952L289.341 168.488L292.161 169.512L294.897 161.976L292.077 160.952ZM290.751 167.5H285.999V170.5H290.751V167.5ZM287.404 169.524L299.932 135.924L297.122 134.876L284.594 168.476L287.404 169.524ZM298.527 136.9H303.567V133.9H298.527V136.9ZM302.162 135.924L314.69 169.524L317.5 168.476L304.972 134.876L302.162 135.924ZM316.095 167.5H311.343V170.5H316.095V167.5ZM295.023 158.788H307.071V155.788H295.023V158.788ZM308.48 156.773L302.432 140.213L299.614 141.243L305.662 157.803L308.48 156.773ZM299.613 140.217L293.613 156.777L296.433 157.799L302.433 141.239L299.613 140.217ZM347.179 135.4V133.9H345.679V135.4H347.179ZM351.643 135.4H353.143V133.9H351.643V135.4ZM351.643 169V170.5H353.143V169H351.643ZM348.043 169L346.807 169.85L347.254 170.5H348.043V169ZM330.763 143.896L331.998 143.046L329.263 139.071V143.896H330.763ZM330.763 169V170.5H332.263V169H330.763ZM326.299 169H324.799V170.5H326.299V169ZM326.299 135.4V133.9H324.799V135.4H326.299ZM329.899 135.4L331.134 134.548L330.686 133.9H329.899V135.4ZM347.179 160.456L345.944 161.308L348.679 165.273V160.456H347.179ZM347.179 136.9H351.643V133.9H347.179V136.9ZM350.143 135.4V169H353.143V135.4H350.143ZM351.643 167.5H348.043V170.5H351.643V167.5ZM349.278 168.15L331.998 143.046L329.527 144.746L346.807 169.85L349.278 168.15ZM329.263 143.896V169H332.263V143.896H329.263ZM330.763 167.5H326.299V170.5H330.763V167.5ZM327.799 169V135.4H324.799V169H327.799ZM326.299 136.9H329.899V133.9H326.299V136.9ZM328.664 136.252L345.944 161.308L348.414 159.604L331.134 134.548L328.664 136.252ZM348.679 160.456V135.4H345.679V160.456H348.679ZM389.502 169V170.5H392.835L390.625 168.005L389.502 169ZM384.03 169L382.914 170.003L383.361 170.5H384.03V169ZM369.534 152.872L370.65 151.869L368.034 148.959V152.872H369.534ZM369.534 169V170.5H371.034V169H369.534ZM365.07 169H363.57V170.5H365.07V169ZM365.07 135.4V133.9H363.57V135.4H365.07ZM369.534 135.4H371.034V133.9H369.534V135.4ZM369.534 150.568H368.034V154.402L370.636 151.586L369.534 150.568ZM383.55 135.4V133.9H382.894L382.448 134.382L383.55 135.4ZM389.022 135.4L390.132 136.409L392.412 133.9H389.022V135.4ZM374.19 151.72L373.08 150.711L372.175 151.707L373.067 152.715L374.19 151.72ZM389.502 167.5H384.03V170.5H389.502V167.5ZM385.146 167.997L370.65 151.869L368.418 153.875L382.914 170.003L385.146 167.997ZM368.034 152.872V169H371.034V152.872H368.034ZM369.534 167.5H365.07V170.5H369.534V167.5ZM366.57 169V135.4H363.57V169H366.57ZM365.07 136.9H369.534V133.9H365.07V136.9ZM368.034 135.4V150.568H371.034V135.4H368.034ZM370.636 151.586L384.652 136.418L382.448 134.382L368.432 149.55L370.636 151.586ZM383.55 136.9H389.022V133.9H383.55V136.9ZM387.912 134.391L373.08 150.711L375.3 152.729L390.132 136.409L387.912 134.391ZM373.067 152.715L388.379 169.995L390.625 168.005L375.313 150.725L373.067 152.715ZM404.18 164.776H402.68V166.276H404.18V164.776ZM419.78 164.776H421.28V163.276H419.78V164.776ZM419.78 169V170.5H421.28V169H419.78ZM399.716 169H398.216V170.5H399.716V169ZM399.716 135.4V133.9H398.216V135.4H399.716ZM419.54 135.4H421.04V133.9H419.54V135.4ZM419.54 139.624V141.124H421.04V139.624H419.54ZM404.18 139.624V138.124H402.68V139.624H404.18ZM404.18 149.944H402.68V151.444H404.18V149.944ZM418.34 149.944H419.84V148.444H418.34V149.944ZM418.34 154.12V155.62H419.84V154.12H418.34ZM404.18 154.12V152.62H402.68V154.12H404.18ZM404.18 166.276H419.78V163.276H404.18V166.276ZM418.28 164.776V169H421.28V164.776H418.28ZM419.78 167.5H399.716V170.5H419.78V167.5ZM401.216 169V135.4H398.216V169H401.216ZM399.716 136.9H419.54V133.9H399.716V136.9ZM418.04 135.4V139.624H421.04V135.4H418.04ZM419.54 138.124H404.18V141.124H419.54V138.124ZM402.68 139.624V149.944H405.68V139.624H402.68ZM404.18 151.444H418.34V148.444H404.18V151.444ZM416.84 149.944V154.12H419.84V149.944H416.84ZM418.34 152.62H404.18V155.62H418.34V152.62ZM402.68 154.12V164.776H405.68V154.12H402.68ZM451.329 169L450.035 169.758L450.47 170.5H451.329V169ZM443.793 156.136L445.088 155.378L444.653 154.636H443.793V156.136ZM435.873 156.136V154.636H434.373V156.136H435.873ZM435.873 169V170.5H437.373V169H435.873ZM431.409 169H429.909V170.5H431.409V169ZM431.409 135.4V133.9H429.909V135.4H431.409ZM452.241 138.472L451.181 139.533L451.189 139.541L452.241 138.472ZM453.345 151.768L452.135 150.882L452.13 150.889L452.125 150.896L453.345 151.768ZM448.353 155.56L447.846 154.148L446.141 154.761L447.061 156.322L448.353 155.56ZM456.273 169V170.5H458.898L457.566 168.238L456.273 169ZM435.873 139.576V138.076H434.373V139.576H435.873ZM435.873 152.104H434.373V153.604H435.873V152.104ZM449.073 150.28L447.985 149.248L447.984 149.248L449.073 150.28ZM449.073 141.4L447.984 142.432L447.992 142.439L447.999 142.446L449.073 141.4ZM452.624 168.242L445.088 155.378L442.499 156.894L450.035 169.758L452.624 168.242ZM443.793 154.636H435.873V157.636H443.793V154.636ZM434.373 156.136V169H437.373V156.136H434.373ZM435.873 167.5H431.409V170.5H435.873V167.5ZM432.909 169V135.4H429.909V169H432.909ZM431.409 136.9H444.849V133.9H431.409V136.9ZM444.849 136.9C447.329 136.9 449.412 137.764 451.181 139.533L453.302 137.411C450.975 135.084 448.13 133.9 444.849 133.9V136.9ZM451.189 139.541C452.95 141.274 453.813 143.337 453.813 145.816H456.813C456.813 142.535 455.629 139.702 453.294 137.403L451.189 139.541ZM453.813 145.816C453.813 147.666 453.263 149.341 452.135 150.882L454.556 152.654C456.052 150.611 456.813 148.318 456.813 145.816H453.813ZM452.125 150.896C451.02 152.443 449.603 153.517 447.846 154.148L448.861 156.972C451.199 156.131 453.111 154.677 454.566 152.64L452.125 150.896ZM447.061 156.322L454.981 169.762L457.566 168.238L449.646 154.798L447.061 156.322ZM456.273 167.5H451.329V170.5H456.273V167.5ZM434.373 139.576V152.104H437.373V139.576H434.373ZM435.873 153.604H444.849V150.604H435.873V153.604ZM444.849 153.604C446.928 153.604 448.729 152.824 450.162 151.312L447.984 149.248C447.114 150.168 446.098 150.604 444.849 150.604V153.604ZM450.162 151.312C451.611 149.784 452.349 147.926 452.349 145.816H449.349C449.349 147.162 448.903 148.28 447.985 149.248L450.162 151.312ZM452.349 145.816C452.349 143.705 451.61 141.855 450.148 140.354L447.999 142.446C448.904 143.377 449.349 144.471 449.349 145.816H452.349ZM450.162 140.368C448.729 138.856 446.928 138.076 444.849 138.076V141.076C446.098 141.076 447.114 141.512 447.984 142.432L450.162 140.368ZM444.849 138.076H435.873V141.076H444.849V138.076Z" fill="url(#paint5_linear_2225_203)" mask="url(#path-5-outside-1_2225_203)"/>
<mask id="path-7-outside-2_2225_203" maskUnits="userSpaceOnUse" x="142.5" y="62" width="368" height="60" fill="black">
<rect fill="white" x="142.5" y="62" width="368" height="60"/>
<path d="M193.06 112.56C187.46 118.213 180.607 121.04 172.5 121.04C164.393 121.04 157.54 118.213 151.94 112.56C146.34 106.907 143.54 100.053 143.54 92C143.54 83.8933 146.34 77.04 151.94 71.44C157.54 65.7867 164.393 62.96 172.5 62.96C180.607 62.96 187.46 65.7867 193.06 71.44C198.713 77.04 201.54 83.8933 201.54 92C201.54 100.053 198.713 106.907 193.06 112.56ZM157.06 107.52C161.22 111.68 166.367 113.76 172.5 113.76C178.633 113.76 183.753 111.68 187.86 107.52C192.02 103.307 194.1 98.1333 194.1 92C194.1 85.8133 192.02 80.64 187.86 76.48C183.753 72.2667 178.633 70.16 172.5 70.16C166.367 70.16 161.22 72.2667 157.06 76.48C152.953 80.64 150.9 85.8133 150.9 92C150.9 98.1333 152.953 103.307 157.06 107.52ZM230.804 64C235.978 64 240.271 65.7333 243.684 69.2C247.151 72.6133 248.884 76.88 248.884 82C248.884 87.0667 247.151 91.3333 243.684 94.8C240.271 98.2667 235.978 100 230.804 100H217.924V120H210.484V64H230.804ZM230.804 93.04C233.898 93.04 236.458 92 238.484 89.92C240.511 87.7867 241.524 85.1467 241.524 82C241.524 78.8 240.511 76.16 238.484 74.08C236.458 72 233.898 70.96 230.804 70.96H217.924V93.04H230.804ZM265.112 112.96H291.112V120H257.672V64H290.712V71.04H265.112V88.24H288.712V95.2H265.112V112.96ZM334.894 64H342.334V120H336.334L307.534 78.16V120H300.094V64H306.094L334.894 105.76V64ZM371.533 121.04C366.306 121.04 361.826 119.813 358.093 117.36C354.413 114.907 351.826 111.547 350.333 107.28L356.733 103.6C358.92 110.373 363.906 113.76 371.693 113.76C375.533 113.76 378.466 112.987 380.493 111.44C382.52 109.84 383.533 107.733 383.533 105.12C383.533 102.453 382.52 100.453 380.493 99.12C378.466 97.7867 375.08 96.3733 370.333 94.88C367.986 94.1333 366.2 93.5467 364.973 93.12C363.746 92.64 362.2 91.9467 360.333 91.04C358.52 90.08 357.16 89.12 356.253 88.16C355.346 87.1467 354.52 85.84 353.773 84.24C353.08 82.64 352.733 80.8267 352.733 78.8C352.733 73.9467 354.44 70.1067 357.853 67.28C361.266 64.4 365.426 62.96 370.333 62.96C374.76 62.96 378.6 64.08 381.853 66.32C385.16 68.56 387.64 71.52 389.293 75.2L383.053 78.8C380.653 73.04 376.413 70.16 370.333 70.16C367.293 70.16 364.84 70.9067 362.973 72.4C361.106 73.8933 360.173 75.92 360.173 78.48C360.173 80.9333 361.053 82.8 362.813 84.08C364.573 85.36 367.613 86.6933 371.933 88.08C373.48 88.56 374.573 88.9067 375.213 89.12C375.853 89.3333 376.84 89.7067 378.173 90.24C379.56 90.7733 380.573 91.2 381.213 91.52C381.853 91.84 382.706 92.2933 383.773 92.88C384.893 93.4667 385.72 94.0267 386.253 94.56C386.786 95.0933 387.4 95.76 388.093 96.56C388.84 97.3067 389.373 98.08 389.693 98.88C390.013 99.68 390.28 100.613 390.493 101.68C390.76 102.693 390.893 103.787 390.893 104.96C390.893 109.867 389.106 113.787 385.533 116.72C381.96 119.6 377.293 121.04 371.533 121.04ZM399.313 64H406.753V120H399.313V64ZM440.606 64C448.232 64 454.552 66.72 459.566 72.16C464.632 77.5467 467.166 84.16 467.166 92C467.166 99.84 464.632 106.48 459.566 111.92C454.552 117.307 448.232 120 440.606 120H418.766V64H440.606ZM440.606 112.96C446.312 112.96 450.979 110.96 454.606 106.96C458.232 102.96 460.046 97.9733 460.046 92C460.046 86.0267 458.232 81.04 454.606 77.04C450.979 73.04 446.312 71.04 440.606 71.04H426.206V112.96H440.606ZM483.628 112.96H509.628V120H476.188V64H509.228V71.04H483.628V88.24H507.228V95.2H483.628V112.96Z"/>
</mask>
<path d="M193.06 112.56C187.46 118.213 180.607 121.04 172.5 121.04C164.393 121.04 157.54 118.213 151.94 112.56C146.34 106.907 143.54 100.053 143.54 92C143.54 83.8933 146.34 77.04 151.94 71.44C157.54 65.7867 164.393 62.96 172.5 62.96C180.607 62.96 187.46 65.7867 193.06 71.44C198.713 77.04 201.54 83.8933 201.54 92C201.54 100.053 198.713 106.907 193.06 112.56ZM157.06 107.52C161.22 111.68 166.367 113.76 172.5 113.76C178.633 113.76 183.753 111.68 187.86 107.52C192.02 103.307 194.1 98.1333 194.1 92C194.1 85.8133 192.02 80.64 187.86 76.48C183.753 72.2667 178.633 70.16 172.5 70.16C166.367 70.16 161.22 72.2667 157.06 76.48C152.953 80.64 150.9 85.8133 150.9 92C150.9 98.1333 152.953 103.307 157.06 107.52ZM230.804 64C235.978 64 240.271 65.7333 243.684 69.2C247.151 72.6133 248.884 76.88 248.884 82C248.884 87.0667 247.151 91.3333 243.684 94.8C240.271 98.2667 235.978 100 230.804 100H217.924V120H210.484V64H230.804ZM230.804 93.04C233.898 93.04 236.458 92 238.484 89.92C240.511 87.7867 241.524 85.1467 241.524 82C241.524 78.8 240.511 76.16 238.484 74.08C236.458 72 233.898 70.96 230.804 70.96H217.924V93.04H230.804ZM265.112 112.96H291.112V120H257.672V64H290.712V71.04H265.112V88.24H288.712V95.2H265.112V112.96ZM334.894 64H342.334V120H336.334L307.534 78.16V120H300.094V64H306.094L334.894 105.76V64ZM371.533 121.04C366.306 121.04 361.826 119.813 358.093 117.36C354.413 114.907 351.826 111.547 350.333 107.28L356.733 103.6C358.92 110.373 363.906 113.76 371.693 113.76C375.533 113.76 378.466 112.987 380.493 111.44C382.52 109.84 383.533 107.733 383.533 105.12C383.533 102.453 382.52 100.453 380.493 99.12C378.466 97.7867 375.08 96.3733 370.333 94.88C367.986 94.1333 366.2 93.5467 364.973 93.12C363.746 92.64 362.2 91.9467 360.333 91.04C358.52 90.08 357.16 89.12 356.253 88.16C355.346 87.1467 354.52 85.84 353.773 84.24C353.08 82.64 352.733 80.8267 352.733 78.8C352.733 73.9467 354.44 70.1067 357.853 67.28C361.266 64.4 365.426 62.96 370.333 62.96C374.76 62.96 378.6 64.08 381.853 66.32C385.16 68.56 387.64 71.52 389.293 75.2L383.053 78.8C380.653 73.04 376.413 70.16 370.333 70.16C367.293 70.16 364.84 70.9067 362.973 72.4C361.106 73.8933 360.173 75.92 360.173 78.48C360.173 80.9333 361.053 82.8 362.813 84.08C364.573 85.36 367.613 86.6933 371.933 88.08C373.48 88.56 374.573 88.9067 375.213 89.12C375.853 89.3333 376.84 89.7067 378.173 90.24C379.56 90.7733 380.573 91.2 381.213 91.52C381.853 91.84 382.706 92.2933 383.773 92.88C384.893 93.4667 385.72 94.0267 386.253 94.56C386.786 95.0933 387.4 95.76 388.093 96.56C388.84 97.3067 389.373 98.08 389.693 98.88C390.013 99.68 390.28 100.613 390.493 101.68C390.76 102.693 390.893 103.787 390.893 104.96C390.893 109.867 389.106 113.787 385.533 116.72C381.96 119.6 377.293 121.04 371.533 121.04ZM399.313 64H406.753V120H399.313V64ZM440.606 64C448.232 64 454.552 66.72 459.566 72.16C464.632 77.5467 467.166 84.16 467.166 92C467.166 99.84 464.632 106.48 459.566 111.92C454.552 117.307 448.232 120 440.606 120H418.766V64H440.606ZM440.606 112.96C446.312 112.96 450.979 110.96 454.606 106.96C458.232 102.96 460.046 97.9733 460.046 92C460.046 86.0267 458.232 81.04 454.606 77.04C450.979 73.04 446.312 71.04 440.606 71.04H426.206V112.96H440.606ZM483.628 112.96H509.628V120H476.188V64H509.228V71.04H483.628V88.24H507.228V95.2H483.628V112.96Z" fill="url(#paint6_linear_2225_203)"/>
<path d="M193.06 112.56L192.706 112.206L192.705 112.208L193.06 112.56ZM151.94 112.56L151.585 112.912L151.585 112.912L151.94 112.56ZM151.94 71.44L152.294 71.7936L152.295 71.7919L151.94 71.44ZM193.06 71.44L192.705 71.7919L192.708 71.7952L193.06 71.44ZM157.06 107.52L156.702 107.869L156.706 107.874L157.06 107.52ZM187.86 107.52L187.504 107.169L187.504 107.169L187.86 107.52ZM187.86 76.48L187.502 76.829L187.506 76.8336L187.86 76.48ZM157.06 76.48L156.704 76.1287L156.704 76.1287L157.06 76.48ZM192.705 112.208C187.201 117.765 180.476 120.54 172.5 120.54V121.54C180.737 121.54 187.719 118.662 193.415 112.912L192.705 112.208ZM172.5 120.54C164.524 120.54 157.799 117.765 152.295 112.208L151.585 112.912C157.281 118.662 164.263 121.54 172.5 121.54V120.54ZM152.295 112.208C146.789 106.65 144.04 99.9233 144.04 92H143.04C143.04 100.183 145.891 107.164 151.585 112.912L152.295 112.208ZM144.04 92C144.04 84.0224 146.79 77.2973 152.294 71.7935L151.586 71.0864C145.89 76.7827 143.04 83.7642 143.04 92H144.04ZM152.295 71.7919C157.799 66.2353 164.524 63.46 172.5 63.46V62.46C164.263 62.46 157.281 65.338 151.585 71.0881L152.295 71.7919ZM172.5 63.46C180.476 63.46 187.201 66.2353 192.705 71.7919L193.415 71.0881C187.719 65.338 180.737 62.46 172.5 62.46V63.46ZM192.708 71.7952C198.265 77.2994 201.04 84.0239 201.04 92H202.04C202.04 83.7627 199.162 76.7806 193.412 71.0848L192.708 71.7952ZM201.04 92C201.04 99.9218 198.265 106.648 192.706 112.206L193.414 112.914C199.161 107.166 202.04 100.185 202.04 92H201.04ZM156.706 107.874C160.965 112.132 166.24 114.26 172.5 114.26V113.26C166.493 113.26 161.475 111.228 157.414 107.166L156.706 107.874ZM172.5 114.26C178.76 114.26 184.01 112.132 188.216 107.871L187.504 107.169C183.496 111.228 178.507 113.26 172.5 113.26V114.26ZM188.216 107.871C192.472 103.561 194.6 98.2596 194.6 92H193.6C193.6 98.0071 191.568 103.053 187.504 107.169L188.216 107.871ZM194.6 92C194.6 85.6883 192.473 80.3855 188.214 76.1264L187.506 76.8336C191.567 80.8945 193.6 85.9383 193.6 92H194.6ZM188.218 76.131C184.013 71.8166 178.762 69.66 172.5 69.66V70.66C178.505 70.66 183.494 72.7167 187.502 76.829L188.218 76.131ZM172.5 69.66C166.238 69.66 160.962 71.8165 156.704 76.1287L157.416 76.8313C161.478 72.7169 166.495 70.66 172.5 70.66V69.66ZM156.704 76.1287C152.499 80.3882 150.4 85.6903 150.4 92H151.4C151.4 85.9363 153.407 80.8918 157.416 76.8313L156.704 76.1287ZM150.4 92C150.4 98.2576 152.5 103.558 156.702 107.869L157.418 107.171C153.407 103.055 151.4 98.0091 151.4 92H150.4ZM243.684 69.2L243.328 69.5508L243.334 69.5563L243.684 69.2ZM243.684 94.8L243.331 94.4464L243.328 94.4492L243.684 94.8ZM217.924 100V99.5H217.424V100H217.924ZM217.924 120V120.5H218.424V120H217.924ZM210.484 120H209.984V120.5H210.484V120ZM210.484 64V63.5H209.984V64H210.484ZM238.484 89.92L238.843 90.269L238.847 90.2644L238.484 89.92ZM238.484 74.08L238.126 74.4289L238.126 74.4289L238.484 74.08ZM217.924 70.96V70.46H217.424V70.96H217.924ZM217.924 93.04H217.424V93.54H217.924V93.04ZM230.804 64.5C235.853 64.5 240.015 66.1861 243.328 69.5508L244.041 68.8492C240.527 65.2806 236.102 63.5 230.804 63.5V64.5ZM243.334 69.5563C246.699 72.8703 248.384 77.0061 248.384 82H249.384C249.384 76.7539 247.603 72.3564 244.035 68.8437L243.334 69.5563ZM248.384 82C248.384 86.939 246.7 91.077 243.331 94.4464L244.038 95.1536C247.602 91.5897 249.384 87.1943 249.384 82H248.384ZM243.328 94.4492C240.015 97.8139 235.853 99.5 230.804 99.5V100.5C236.102 100.5 240.527 98.7194 244.041 95.1508L243.328 94.4492ZM230.804 99.5H217.924V100.5H230.804V99.5ZM217.424 100V120H218.424V100H217.424ZM217.924 119.5H210.484V120.5H217.924V119.5ZM210.984 120V64H209.984V120H210.984ZM210.484 64.5H230.804V63.5H210.484V64.5ZM230.804 93.54C234.023 93.54 236.715 92.4523 238.842 90.2689L238.126 89.5711C236.2 91.5477 233.773 92.54 230.804 92.54V93.54ZM238.847 90.2644C240.968 88.0313 242.024 85.2651 242.024 82H241.024C241.024 85.0283 240.054 87.5421 238.122 89.5756L238.847 90.2644ZM242.024 82C242.024 78.6842 240.97 75.9143 238.842 73.7311L238.126 74.4289C240.052 76.4057 241.024 78.9158 241.024 82H242.024ZM238.842 73.7311C236.715 71.5477 234.023 70.46 230.804 70.46V71.46C233.773 71.46 236.2 72.4523 238.126 74.4289L238.842 73.7311ZM230.804 70.46H217.924V71.46H230.804V70.46ZM217.424 70.96V93.04H218.424V70.96H217.424ZM217.924 93.54H230.804V92.54H217.924V93.54ZM265.112 112.96H264.612V113.46H265.112V112.96ZM291.112 112.96H291.612V112.46H291.112V112.96ZM291.112 120V120.5H291.612V120H291.112ZM257.672 120H257.172V120.5H257.672V120ZM257.672 64V63.5H257.172V64H257.672ZM290.712 64H291.212V63.5H290.712V64ZM290.712 71.04V71.54H291.212V71.04H290.712ZM265.112 71.04V70.54H264.612V71.04H265.112ZM265.112 88.24H264.612V88.74H265.112V88.24ZM288.712 88.24H289.212V87.74H288.712V88.24ZM288.712 95.2V95.7H289.212V95.2H288.712ZM265.112 95.2V94.7H264.612V95.2H265.112ZM265.112 113.46H291.112V112.46H265.112V113.46ZM290.612 112.96V120H291.612V112.96H290.612ZM291.112 119.5H257.672V120.5H291.112V119.5ZM258.172 120V64H257.172V120H258.172ZM257.672 64.5H290.712V63.5H257.672V64.5ZM290.212 64V71.04H291.212V64H290.212ZM290.712 70.54H265.112V71.54H290.712V70.54ZM264.612 71.04V88.24H265.612V71.04H264.612ZM265.112 88.74H288.712V87.74H265.112V88.74ZM288.212 88.24V95.2H289.212V88.24H288.212ZM288.712 94.7H265.112V95.7H288.712V94.7ZM264.612 95.2V112.96H265.612V95.2H264.612ZM334.894 64V63.5H334.394V64H334.894ZM342.334 64H342.834V63.5H342.334V64ZM342.334 120V120.5H342.834V120H342.334ZM336.334 120L335.922 120.283L336.071 120.5H336.334V120ZM307.534 78.16L307.946 77.8765L307.034 76.5518V78.16H307.534ZM307.534 120V120.5H308.034V120H307.534ZM300.094 120H299.594V120.5H300.094V120ZM300.094 64V63.5H299.594V64H300.094ZM306.094 64L306.505 63.7161L306.356 63.5H306.094V64ZM334.894 105.76L334.482 106.044L335.394 107.366V105.76H334.894ZM334.894 64.5H342.334V63.5H334.894V64.5ZM341.834 64V120H342.834V64H341.834ZM342.334 119.5H336.334V120.5H342.334V119.5ZM336.746 119.717L307.946 77.8765L307.122 78.4435L335.922 120.283L336.746 119.717ZM307.034 78.16V120H308.034V78.16H307.034ZM307.534 119.5H300.094V120.5H307.534V119.5ZM300.594 120V64H299.594V120H300.594ZM300.094 64.5H306.094V63.5H300.094V64.5ZM305.682 64.2839L334.482 106.044L335.305 105.476L306.505 63.7161L305.682 64.2839ZM335.394 105.76V64H334.394V105.76H335.394ZM358.093 117.36L357.816 117.776L357.819 117.778L358.093 117.36ZM350.333 107.28L350.084 106.847L349.724 107.053L349.861 107.445L350.333 107.28ZM356.733 103.6L357.209 103.446L357.019 102.859L356.484 103.167L356.733 103.6ZM380.493 111.44L380.797 111.838L380.803 111.832L380.493 111.44ZM380.493 99.12L380.218 99.5377L380.218 99.5377L380.493 99.12ZM370.333 94.88L370.182 95.3565L370.183 95.357L370.333 94.88ZM364.973 93.12L364.791 93.5856L364.8 93.5891L364.809 93.5922L364.973 93.12ZM360.333 91.04L360.099 91.4819L360.107 91.486L360.115 91.4898L360.333 91.04ZM356.253 88.16L355.88 88.4935L355.89 88.5033L356.253 88.16ZM353.773 84.24L353.314 84.4389L353.32 84.4514L353.773 84.24ZM357.853 67.28L358.172 67.6651L358.176 67.6621L357.853 67.28ZM381.853 66.32L381.57 66.7318L381.573 66.734L381.853 66.32ZM389.293 75.2L389.543 75.6331L389.934 75.4073L389.749 74.9951L389.293 75.2ZM383.053 78.8L382.592 78.9923L382.81 79.5173L383.303 79.2331L383.053 78.8ZM362.973 72.4L362.661 72.0096L362.661 72.0096L362.973 72.4ZM362.813 84.08L363.107 83.6756L363.107 83.6756L362.813 84.08ZM371.933 88.08L371.78 88.5561L371.785 88.5575L371.933 88.08ZM375.213 89.12L375.055 89.5943L375.055 89.5943L375.213 89.12ZM378.173 90.24L377.987 90.7043L377.994 90.7067L378.173 90.24ZM381.213 91.52L380.99 91.9672L380.99 91.9672L381.213 91.52ZM383.773 92.88L383.532 93.3182L383.541 93.3229L383.773 92.88ZM386.253 94.56L385.9 94.9136L385.9 94.9136L386.253 94.56ZM388.093 96.56L387.715 96.8875L387.727 96.9009L387.74 96.9136L388.093 96.56ZM389.693 98.88L389.229 99.0657L389.229 99.0657L389.693 98.88ZM390.493 101.68L390.003 101.778L390.006 101.793L390.01 101.807L390.493 101.68ZM385.533 116.72L385.847 117.109L385.85 117.106L385.533 116.72ZM371.533 120.54C366.387 120.54 362.006 119.333 358.368 116.942L357.819 117.778C361.647 120.293 366.226 121.54 371.533 121.54V120.54ZM358.37 116.944C354.783 114.552 352.263 111.281 350.805 107.115L349.861 107.445C351.39 111.812 354.043 115.261 357.816 117.776L358.37 116.944ZM350.582 107.713L356.982 104.033L356.484 103.167L350.084 106.847L350.582 107.713ZM356.257 103.754C357.378 107.226 359.231 109.867 361.832 111.634C364.43 113.398 367.729 114.26 371.693 114.26V113.26C367.871 113.26 364.783 112.429 362.394 110.806C360.009 109.186 358.274 106.747 357.209 103.446L356.257 103.754ZM371.693 114.26C375.59 114.26 378.648 113.477 380.796 111.837L380.19 111.043C378.285 112.497 375.476 113.26 371.693 113.26V114.26ZM380.803 111.832C382.951 110.136 384.033 107.884 384.033 105.12H383.033C383.033 107.582 382.088 109.544 380.183 111.048L380.803 111.832ZM384.033 105.12C384.033 102.305 382.951 100.138 380.768 98.7023L380.218 99.5377C382.089 100.768 383.033 102.602 383.033 105.12H384.033ZM380.768 98.7023C378.68 97.3288 375.238 95.8989 370.483 94.403L370.183 95.357C374.922 96.8478 378.253 98.2445 380.218 99.5377L380.768 98.7023ZM370.485 94.4035C368.139 93.6573 366.358 93.0722 365.137 92.6477L364.809 93.5922C366.042 94.0211 367.834 94.6094 370.182 95.3565L370.485 94.4035ZM365.155 92.6544C363.946 92.1811 362.412 91.494 360.552 90.5902L360.115 91.4898C361.987 92.3993 363.547 93.0989 364.791 93.5856L365.155 92.6544ZM360.567 90.5981C358.778 89.6511 357.471 88.7213 356.617 87.8167L355.89 88.5033C356.849 89.5187 358.261 90.5089 360.099 91.4819L360.567 90.5981ZM356.626 87.8266C355.76 86.8588 354.958 85.5967 354.226 84.0286L353.32 84.4514C354.082 86.0833 354.933 87.4346 355.881 88.4934L356.626 87.8266ZM354.232 84.0412C353.57 82.5133 353.233 80.7693 353.233 78.8H352.233C352.233 80.8841 352.59 82.7667 353.314 84.4388L354.232 84.0412ZM353.233 78.8C353.233 74.0795 354.885 70.387 358.172 67.6651L357.534 66.8949C353.994 69.8264 352.233 73.8138 352.233 78.8H353.233ZM358.176 67.6621C361.49 64.8659 365.532 63.46 370.333 63.46V62.46C365.321 62.46 361.043 63.9341 357.531 66.8979L358.176 67.6621ZM370.333 63.46C374.671 63.46 378.41 64.5561 381.57 66.7318L382.137 65.9082C378.79 63.6039 374.848 62.46 370.333 62.46V63.46ZM381.573 66.734C384.802 68.9214 387.221 71.8086 388.837 75.4049L389.749 74.9951C388.058 71.2314 385.518 68.1986 382.134 65.906L381.573 66.734ZM389.043 74.7669L382.803 78.3669L383.303 79.2331L389.543 75.6331L389.043 74.7669ZM383.515 78.6077C382.285 75.6576 380.57 73.4119 378.354 71.9064C376.137 70.4003 373.454 69.66 370.333 69.66V70.66C373.292 70.66 375.77 71.3597 377.792 72.7336C379.816 74.1081 381.421 76.1824 382.592 78.9923L383.515 78.6077ZM370.333 69.66C367.211 69.66 364.638 70.4279 362.661 72.0096L363.285 72.7904C365.042 71.3854 367.375 70.66 370.333 70.66V69.66ZM362.661 72.0096C360.666 73.6053 359.673 75.7805 359.673 78.48H360.673C360.673 76.0595 361.547 74.1814 363.285 72.7904L362.661 72.0096ZM359.673 78.48C359.673 81.0698 360.612 83.0973 362.519 84.4844L363.107 83.6756C361.494 82.5027 360.673 80.7968 360.673 78.48H359.673ZM362.519 84.4844C364.347 85.8141 367.452 87.1668 371.78 88.5561L372.086 87.6039C367.774 86.2198 364.799 84.9059 363.107 83.6756L362.519 84.4844ZM371.785 88.5575C373.332 89.0375 374.42 89.3828 375.055 89.5943L375.371 88.6457C374.726 88.4305 373.628 88.0825 372.081 87.6025L371.785 88.5575ZM375.055 89.5943C375.68 89.8027 376.655 90.1714 377.987 90.7042L378.359 89.7758C377.024 89.2419 376.026 88.8639 375.371 88.6457L375.055 89.5943ZM377.994 90.7067C379.378 91.239 380.372 91.6586 380.99 91.9672L381.437 91.0728C380.774 90.7414 379.742 90.3077 378.353 89.7733L377.994 90.7067ZM380.99 91.9672C381.621 92.283 382.468 92.7327 383.532 93.3181L384.014 92.4419C382.945 91.8539 382.085 91.397 381.437 91.0728L380.99 91.9672ZM383.541 93.3229C384.642 93.8997 385.418 94.432 385.9 94.9136L386.607 94.2064C386.022 93.6213 385.144 93.0336 384.005 92.4371L383.541 93.3229ZM385.9 94.9136C386.422 95.4359 387.027 96.0932 387.715 96.8875L388.471 96.2325C387.773 95.4268 387.151 94.7508 386.607 94.2064L385.9 94.9136ZM387.74 96.9136C388.449 97.6229 388.939 98.341 389.229 99.0657L390.157 98.6943C389.807 97.819 389.231 96.9905 388.447 96.2064L387.74 96.9136ZM389.229 99.0657C389.535 99.8311 389.794 100.734 390.003 101.778L390.983 101.582C390.766 100.493 390.491 99.5289 390.157 98.6943L389.229 99.0657ZM390.01 101.807C390.264 102.774 390.393 103.825 390.393 104.96H391.393C391.393 103.749 391.255 102.612 390.977 101.553L390.01 101.807ZM390.393 104.96C390.393 109.728 388.666 113.502 385.216 116.334L385.85 117.106C389.547 114.072 391.393 110.006 391.393 104.96H390.393ZM385.219 116.331C381.756 119.122 377.209 120.54 371.533 120.54V121.54C377.378 121.54 382.164 120.078 385.847 117.109L385.219 116.331ZM399.313 64V63.5H398.813V64H399.313ZM406.753 64H407.253V63.5H406.753V64ZM406.753 120V120.5H407.253V120H406.753ZM399.313 120H398.813V120.5H399.313V120ZM399.313 64.5H406.753V63.5H399.313V64.5ZM406.253 64V120H407.253V64H406.253ZM406.753 119.5H399.313V120.5H406.753V119.5ZM399.813 120V64H398.813V120H399.813ZM459.566 72.16L459.198 72.4989L459.201 72.5026L459.566 72.16ZM459.566 111.92L459.2 111.579L459.2 111.579L459.566 111.92ZM418.766 120H418.266V120.5H418.766V120ZM418.766 64V63.5H418.266V64H418.766ZM454.606 106.96L454.235 106.624L454.235 106.624L454.606 106.96ZM454.606 77.04L454.235 77.3758L454.235 77.3758L454.606 77.04ZM426.206 71.04V70.54H425.706V71.04H426.206ZM426.206 112.96H425.706V113.46H426.206V112.96ZM440.606 64.5C448.098 64.5 454.283 67.1651 459.198 72.4988L459.933 71.8212C454.822 66.2749 448.367 63.5 440.606 63.5V64.5ZM459.201 72.5026C464.175 77.7905 466.666 84.2789 466.666 92H467.666C467.666 84.0411 465.089 77.3028 459.93 71.8174L459.201 72.5026ZM466.666 92C466.666 99.7211 464.175 106.237 459.2 111.579L459.932 112.261C465.089 106.723 467.666 99.9589 467.666 92H466.666ZM459.2 111.579C454.285 116.86 448.099 119.5 440.606 119.5V120.5C448.365 120.5 454.82 117.753 459.932 112.261L459.2 111.579ZM440.606 119.5H418.766V120.5H440.606V119.5ZM419.266 120V64H418.266V120H419.266ZM418.766 64.5H440.606V63.5H418.766V64.5ZM440.606 113.46C446.444 113.46 451.249 111.407 454.976 107.296L454.235 106.624C450.709 110.513 446.18 112.46 440.606 112.46V113.46ZM454.976 107.296C458.695 103.194 460.546 98.0832 460.546 92H459.546C459.546 97.8634 457.769 102.726 454.235 106.624L454.976 107.296ZM460.546 92C460.546 85.9168 458.695 80.8062 454.976 76.7042L454.235 77.3758C457.769 81.2738 459.546 86.1366 459.546 92H460.546ZM454.976 76.7042C451.249 72.5931 446.444 70.54 440.606 70.54V71.54C446.18 71.54 450.709 73.4869 454.235 77.3758L454.976 76.7042ZM440.606 70.54H426.206V71.54H440.606V70.54ZM425.706 71.04V112.96H426.706V71.04H425.706ZM426.206 113.46H440.606V112.46H426.206V113.46ZM483.628 112.96H483.128V113.46H483.628V112.96ZM509.628 112.96H510.128V112.46H509.628V112.96ZM509.628 120V120.5H510.128V120H509.628ZM476.188 120H475.688V120.5H476.188V120ZM476.188 64V63.5H475.688V64H476.188ZM509.228 64H509.728V63.5H509.228V64ZM509.228 71.04V71.54H509.728V71.04H509.228ZM483.628 71.04V70.54H483.128V71.04H483.628ZM483.628 88.24H483.128V88.74H483.628V88.24ZM507.228 88.24H507.728V87.74H507.228V88.24ZM507.228 95.2V95.7H507.728V95.2H507.228ZM483.628 95.2V94.7H483.128V95.2H483.628ZM483.628 113.46H509.628V112.46H483.628V113.46ZM509.128 112.96V120H510.128V112.96H509.128ZM509.628 119.5H476.188V120.5H509.628V119.5ZM476.688 120V64H475.688V120H476.688ZM476.188 64.5H509.228V63.5H476.188V64.5ZM508.728 64V71.04H509.728V64H508.728ZM509.228 70.54H483.628V71.54H509.228V70.54ZM483.128 71.04V88.24H484.128V71.04H483.128ZM483.628 88.74H507.228V87.74H483.628V88.74ZM506.728 88.24V95.2H507.728V88.24H506.728ZM507.228 94.7H483.628V95.7H507.228V94.7ZM483.128 95.2V112.96H484.128V95.2H483.128Z" fill="url(#paint7_linear_2225_203)" mask="url(#path-7-outside-2_2225_203)"/>
<mask id="path-9-outside-3_2225_203" maskUnits="userSpaceOnUse" x="209" y="110" width="41" height="70" fill="black">
<rect fill="white" x="209" y="110" width="41" height="70"/>
<path d="M248.888 120.248H219.128V142.04H247.64V150.488H219.128V179H210.2V111.8H248.888V120.248Z"/>
</mask>
<path d="M248.888 120.248H219.128V142.04H247.64V150.488H219.128V179H210.2V111.8H248.888V120.248Z" fill="#DDDDDD"/>
<path d="M248.888 120.248V121.248H249.888V120.248H248.888ZM219.128 120.248V119.248H218.128V120.248H219.128ZM219.128 142.04H218.128V143.04H219.128V142.04ZM247.64 142.04H248.64V141.04H247.64V142.04ZM247.64 150.488V151.488H248.64V150.488H247.64ZM219.128 150.488V149.488H218.128V150.488H219.128ZM219.128 179V180H220.128V179H219.128ZM210.2 179H209.2V180H210.2V179ZM210.2 111.8V110.8H209.2V111.8H210.2ZM248.888 111.8H249.888V110.8H248.888V111.8ZM248.888 119.248H219.128V121.248H248.888V119.248ZM218.128 120.248V142.04H220.128V120.248H218.128ZM219.128 143.04H247.64V141.04H219.128V143.04ZM246.64 142.04V150.488H248.64V142.04H246.64ZM247.64 149.488H219.128V151.488H247.64V149.488ZM218.128 150.488V179H220.128V150.488H218.128ZM219.128 178H210.2V180H219.128V178ZM211.2 179V111.8H209.2V179H211.2ZM210.2 112.8H248.888V110.8H210.2V112.8ZM247.888 111.8V120.248H249.888V111.8H247.888Z" fill="#DDDDDD" mask="url(#path-9-outside-3_2225_203)"/>
<mask id="path-11-outside-4_2225_203" maskUnits="userSpaceOnUse" x="135" y="8" width="84" height="36" fill="black">
<rect fill="white" x="135" y="8" width="84" height="36"/>
<path d="M161.344 9.4V15.736H152.272V43H145.648V15.736H136.624V9.4H161.344ZM184.146 9.4H190.722V43H184.146V29.08H171.666V43H165.042V9.4H171.666V22.744H184.146V9.4ZM203.588 36.664H217.748V43H196.964V9.4H217.508V15.736H203.588V22.888H216.308V29.128H203.588V36.664Z"/>
</mask>
<path d="M161.344 9.4V15.736H152.272V43H145.648V15.736H136.624V9.4H161.344ZM184.146 9.4H190.722V43H184.146V29.08H171.666V43H165.042V9.4H171.666V22.744H184.146V9.4ZM203.588 36.664H217.748V43H196.964V9.4H217.508V15.736H203.588V22.888H216.308V29.128H203.588V36.664Z" fill="url(#paint8_linear_2225_203)"/>
<path d="M161.344 9.4H162.344V8.4H161.344V9.4ZM161.344 15.736V16.736H162.344V15.736H161.344ZM152.272 15.736V14.736H151.272V15.736H152.272ZM152.272 43V44H153.272V43H152.272ZM145.648 43H144.648V44H145.648V43ZM145.648 15.736H146.648V14.736H145.648V15.736ZM136.624 15.736H135.624V16.736H136.624V15.736ZM136.624 9.4V8.4H135.624V9.4H136.624ZM160.344 9.4V15.736H162.344V9.4H160.344ZM161.344 14.736H152.272V16.736H161.344V14.736ZM151.272 15.736V43H153.272V15.736H151.272ZM152.272 42H145.648V44H152.272V42ZM146.648 43V15.736H144.648V43H146.648ZM145.648 14.736H136.624V16.736H145.648V14.736ZM137.624 15.736V9.4H135.624V15.736H137.624ZM136.624 10.4H161.344V8.4H136.624V10.4ZM184.146 9.4V8.4H183.146V9.4H184.146ZM190.722 9.4H191.722V8.4H190.722V9.4ZM190.722 43V44H191.722V43H190.722ZM184.146 43H183.146V44H184.146V43ZM184.146 29.08H185.146V28.08H184.146V29.08ZM171.666 29.08V28.08H170.666V29.08H171.666ZM171.666 43V44H172.666V43H171.666ZM165.042 43H164.042V44H165.042V43ZM165.042 9.4V8.4H164.042V9.4H165.042ZM171.666 9.4H172.666V8.4H171.666V9.4ZM171.666 22.744H170.666V23.744H171.666V22.744ZM184.146 22.744V23.744H185.146V22.744H184.146ZM184.146 10.4H190.722V8.4H184.146V10.4ZM189.722 9.4V43H191.722V9.4H189.722ZM190.722 42H184.146V44H190.722V42ZM185.146 43V29.08H183.146V43H185.146ZM184.146 28.08H171.666V30.08H184.146V28.08ZM170.666 29.08V43H172.666V29.08H170.666ZM171.666 42H165.042V44H171.666V42ZM166.042 43V9.4H164.042V43H166.042ZM165.042 10.4H171.666V8.4H165.042V10.4ZM170.666 9.4V22.744H172.666V9.4H170.666ZM171.666 23.744H184.146V21.744H171.666V23.744ZM185.146 22.744V9.4H183.146V22.744H185.146ZM203.588 36.664H202.588V37.664H203.588V36.664ZM217.748 36.664H218.748V35.664H217.748V36.664ZM217.748 43V44H218.748V43H217.748ZM196.964 43H195.964V44H196.964V43ZM196.964 9.4V8.4H195.964V9.4H196.964ZM217.508 9.4H218.508V8.4H217.508V9.4ZM217.508 15.736V16.736H218.508V15.736H217.508ZM203.588 15.736V14.736H202.588V15.736H203.588ZM203.588 22.888H202.588V23.888H203.588V22.888ZM216.308 22.888H217.308V21.888H216.308V22.888ZM216.308 29.128V30.128H217.308V29.128H216.308ZM203.588 29.128V28.128H202.588V29.128H203.588ZM203.588 37.664H217.748V35.664H203.588V37.664ZM216.748 36.664V43H218.748V36.664H216.748ZM217.748 42H196.964V44H217.748V42ZM197.964 43V9.4H195.964V43H197.964ZM196.964 10.4H217.508V8.4H196.964V10.4ZM216.508 9.4V15.736H218.508V9.4H216.508ZM217.508 14.736H203.588V16.736H217.508V14.736ZM202.588 15.736V22.888H204.588V15.736H202.588ZM203.588 23.888H216.308V21.888H203.588V23.888ZM215.308 22.888V29.128H217.308V22.888H215.308ZM216.308 28.128H203.588V30.128H216.308V28.128ZM202.588 29.128V36.664H204.588V29.128H202.588Z" fill="url(#paint9_linear_2225_203)" mask="url(#path-11-outside-4_2225_203)"/>
<defs>
<linearGradient id="paint0_linear_2225_203" x1="158.918" y1="144.633" x2="49.9177" y2="21.1333" gradientUnits="userSpaceOnUse">
<stop stop-color="#424446"/>
<stop offset="0.41" stop-color="white"/>
<stop offset="0.43" stop-color="#DDDDDD"/>
<stop offset="1" stop-color="#DDDDDD"/>
</linearGradient>
<linearGradient id="paint1_linear_2225_203" x1="144.776" y1="158.775" x2="35.7756" y2="35.2754" gradientUnits="userSpaceOnUse">
<stop stop-color="#424446"/>
<stop offset="0.41" stop-color="white"/>
<stop offset="0.43" stop-color="#DDDDDD"/>
<stop offset="1" stop-color="#DDDDDD"/>
</linearGradient>
<linearGradient id="paint2_linear_2225_203" x1="-12.1421" y1="46.1421" x2="96.8579" y2="169.642" gradientUnits="userSpaceOnUse">
<stop stop-color="#424446"/>
<stop offset="0.41" stop-color="white"/>
<stop offset="0.43" stop-color="#DDDDDD"/>
<stop offset="1" stop-color="#DDDDDD"/>
</linearGradient>
<linearGradient id="paint3_linear_2225_203" x1="2" y1="32" x2="111" y2="155.5" gradientUnits="userSpaceOnUse">
<stop stop-color="#424446"/>
<stop offset="0.41" stop-color="white"/>
<stop offset="0.43" stop-color="#DDDDDD"/>
<stop offset="1" stop-color="#DDDDDD"/>
</linearGradient>
<linearGradient id="paint4_linear_2225_203" x1="520.313" y1="133.971" x2="146.796" y2="63.3632" gradientUnits="userSpaceOnUse">
<stop stop-color="#424446"/>
<stop offset="0.41" stop-color="white"/>
<stop offset="0.43" stop-color="#DDDDDD"/>
<stop offset="1" stop-color="#DDDDDD"/>
</linearGradient>
<linearGradient id="paint5_linear_2225_203" x1="520.313" y1="133.971" x2="146.796" y2="63.3632" gradientUnits="userSpaceOnUse">
<stop stop-color="#424446"/>
<stop offset="0.41" stop-color="white"/>
<stop offset="0.43" stop-color="#DDDDDD"/>
<stop offset="1" stop-color="#DDDDDD"/>
</linearGradient>
<linearGradient id="paint6_linear_2225_203" x1="627.997" y1="61.6591" x2="-53.4493" y2="-79.8698" gradientUnits="userSpaceOnUse">
<stop stop-color="#424446"/>
<stop offset="0.41" stop-color="white"/>
<stop offset="0.43" stop-color="#DDDDDD"/>
<stop offset="1" stop-color="#DDDDDD"/>
</linearGradient>
<linearGradient id="paint7_linear_2225_203" x1="627.997" y1="61.6591" x2="-53.4493" y2="-79.8698" gradientUnits="userSpaceOnUse">
<stop stop-color="#424446"/>
<stop offset="0.41" stop-color="white"/>
<stop offset="0.43" stop-color="#DDDDDD"/>
<stop offset="1" stop-color="#DDDDDD"/>
</linearGradient>
<linearGradient id="paint8_linear_2225_203" x1="245.785" y1="7.0916" x2="86.6438" y2="-5.1457" gradientUnits="userSpaceOnUse">
<stop stop-color="#424446"/>
<stop offset="0.41" stop-color="white"/>
<stop offset="0.43" stop-color="#DDDDDD"/>
<stop offset="1" stop-color="#DDDDDD"/>
</linearGradient>
<linearGradient id="paint9_linear_2225_203" x1="245.785" y1="7.0916" x2="86.6438" y2="-5.1457" gradientUnits="userSpaceOnUse">
<stop stop-color="#424446"/>
<stop offset="0.41" stop-color="white"/>
<stop offset="0.43" stop-color="#DDDDDD"/>
<stop offset="1" stop-color="#DDDDDD"/>
</linearGradient>
<clipPath id="clip0_2225_203">
<rect width="87" height="95" fill="white" transform="translate(85.2573 58.2242) rotate(45)"/>
</clipPath>
<clipPath id="clip1_2225_203">
<rect width="87" height="95" fill="white" transform="translate(61.5183 132.551) rotate(-135)"/>
</clipPath>
</defs>
</svg>
