<svg width="151" height="55" viewBox="0 0 151 55" fill="none" xmlns="http://www.w3.org/2000/svg">
<path d="M1.55859 36.0002V1.87736H5.84832V32.7829H15.8414V36.0002H1.55859Z" fill="black"/>
<path d="M25.3913 36.0002V1.87736H40.2591V5.19215H29.681V16.1115H38.2605V19.4263H29.681V32.6854H40.7466V36.0002H25.3913Z" fill="black"/>
<path d="M72.1457 36.3414C69.1234 36.3414 66.816 35.5777 65.2236 34.0503C63.6312 32.4904 62.835 30.3293 62.835 27.567V10.3106C62.835 7.54825 63.6312 5.40339 65.2236 3.87598C66.816 2.31608 69.1234 1.53613 72.1457 1.53613C75.2005 1.53613 77.5241 2.31608 79.1165 3.87598C80.7089 5.40339 81.5051 7.54825 81.5051 10.3106V27.567C81.5051 30.3293 80.7089 32.4904 79.1165 34.0503C77.5241 35.5777 75.2005 36.3414 72.1457 36.3414ZM72.1457 33.1241C73.5756 33.1241 74.778 32.7179 75.7529 31.9055C76.7279 31.0605 77.2153 29.8906 77.2153 28.3957V9.48188C77.2153 7.98698 76.7279 6.8333 75.7529 6.02085C74.778 5.1759 73.5756 4.75343 72.1457 4.75343C70.7158 4.75343 69.5133 5.1759 68.5384 6.02085C67.596 6.8333 67.1247 7.98698 67.1247 9.48188V28.3957C67.1247 29.8906 67.596 31.0605 68.5384 31.9055C69.5133 32.7179 70.7158 33.1241 72.1457 33.1241Z" fill="black"/>
<path d="M99.6755 36.3414C93.9234 36.3414 91.0473 33.4166 91.0473 27.567V1.87736H95.337V28.3957C95.337 29.9556 95.7107 31.1418 96.4582 31.9542C97.2381 32.7342 98.3106 33.1241 99.6755 33.1241C101.04 33.1241 102.113 32.7342 102.893 31.9542C103.673 31.1418 104.063 29.9556 104.063 28.3957V1.87736H108.352V27.567C108.352 33.4166 105.46 36.3414 99.6755 36.3414Z" fill="black"/>
<path d="M144.776 36.0002V1.87736H149.065V36.0002H144.776Z" fill="black"/>
<path fill-rule="evenodd" clip-rule="evenodd" d="M0.416016 37.1426V0.734782H6.99076V31.6403H16.9839V37.1426H0.416016ZM24.2487 37.1426V0.734782H41.4015V6.33459H30.8234V14.9689H39.4029V20.5687H30.8234V31.5428H41.889V37.1426H24.2487ZM64.424 34.8664C62.5621 33.0425 61.6924 30.5583 61.6924 27.5669V10.3105C61.6924 7.32259 62.5605 4.84972 64.4283 3.05562C66.3008 1.22391 68.9357 0.393555 72.1456 0.393555C75.3839 0.393555 78.0368 1.22179 79.9115 3.05541C81.7794 4.84952 82.6475 7.32247 82.6475 10.3105V27.5669C82.6475 30.5583 81.7778 33.0425 79.9159 34.8664C78.0403 36.6655 75.3804 37.4839 72.1456 37.4839C68.9393 37.4839 66.2976 36.6635 64.424 34.8664ZM75.0046 6.88416C74.2603 6.23912 73.3326 5.89586 72.1456 5.89586C70.9586 5.89586 70.0309 6.23912 69.2866 6.88416C68.6466 7.43584 68.2672 8.24591 68.2672 9.48181V28.3956C68.2672 29.6207 68.6386 30.4531 69.2859 31.0411C70.0268 31.6521 70.9557 31.9816 72.1456 31.9816C73.3401 31.9816 74.2714 31.6496 75.0137 31.0341C75.6917 30.4421 76.0728 29.612 76.0728 28.3956V9.48181C76.0728 8.25902 75.6717 7.44004 75.0046 6.88416ZM89.9047 0.734782H96.4795V28.3956C96.4795 29.772 96.8057 30.6334 97.2831 31.1632C97.7998 31.6704 98.5497 31.9816 99.6754 31.9816C100.808 31.9816 101.56 31.6669 102.077 31.1545C102.58 30.6247 102.92 29.7683 102.92 28.3956V0.734782H109.495V27.5669C109.495 30.6647 108.729 33.1984 106.996 34.9511C105.26 36.7061 102.747 37.4839 99.6754 37.4839C96.6183 37.4839 94.1168 36.7052 92.3896 34.9488C90.666 33.196 89.9047 30.6631 89.9047 27.5669V0.734782ZM143.633 37.1426V0.734782H150.208V37.1426H143.633Z" fill="black"/>
<path d="M120.324 7.46939V11.784H131.978V7.4694L120.324 7.46939Z" fill="#D50016"/>
<path fill-rule="evenodd" clip-rule="evenodd" d="M133.578 7.01523V4.42932C135.003 6.10898 135.863 8.27904 135.863 10.6485V11.784H133.578V7.4694V7.01523ZM131.978 2.92705V7.01523L120.324 7.01523V2.92705C121.948 1.71549 123.965 0.997559 126.151 0.997559C128.337 0.997559 130.355 1.71549 131.978 2.92705ZM133.578 13.3735H135.863V18.937H133.578V13.3735ZM135.863 24.9547V19.3912H133.578V24.9547H135.863ZM135.863 30.9724H133.578V25.4089H135.863V30.9724ZM133.578 31.4265H135.863V37.5578H133.578V31.4265ZM131.978 13.3735V18.937H120.324V13.3735L131.978 13.3735ZM120.324 19.3912V24.9547L131.978 24.9547V19.3912H120.324ZM118.725 13.3735V18.937H116.44V13.3735H118.725ZM116.44 19.3912V24.9547H118.725V19.3912H116.44ZM116.44 30.9724V25.4089H118.725V30.9724H116.44ZM116.44 31.4265H118.725V37.5578H116.44V31.4265ZM118.725 11.784H116.44V10.6485C116.44 8.27904 117.299 6.10898 118.725 4.42932V7.01523V7.46939V11.784ZM120.324 25.4089V30.9724L131.978 30.9724V25.4089L120.324 25.4089ZM120.324 37.5578V31.4265H131.978V37.5578H120.324Z" fill="#D50016"/>
<rect x="70.2227" y="29.1885" width="4.82029" height="15.4954" transform="rotate(-42 70.2227 29.1885)" fill="black"/>
<path d="M95.799 45.9V47.044H93.108V55H91.912V47.044H89.234V45.9H95.799ZM104.055 45.9H105.251V55H104.055V50.905H99.6345V55H98.4255V45.9H99.6345V49.761H104.055V45.9ZM112.944 43.3L111.631 45.016H110.539L111.579 43.3H112.944ZM109.837 53.856H114.062V55H108.628V45.9H113.997V47.044H109.837V49.839H113.672V50.97H109.837V53.856ZM120.276 44.002L119.483 45.055H118.274L119.652 43.3H120.9L122.278 45.055H121.069L120.276 44.002ZM123.084 55L122.343 52.959H118.248L117.507 55H116.22L119.613 45.9H120.978L124.371 55H123.084ZM118.664 51.828H121.927L120.289 47.343L118.664 51.828ZM132.039 45.9V47.044H129.348V55H128.152V47.044H125.474V45.9H132.039ZM140.06 55L138.019 51.516H135.874V55H134.665V45.9H138.305C139.085 45.9 139.752 46.1773 140.307 46.732C140.862 47.278 141.139 47.941 141.139 48.721C141.139 49.3103 140.961 49.8477 140.606 50.333C140.259 50.8183 139.809 51.1607 139.254 51.36L141.399 55H140.06ZM135.874 47.031V50.424H138.305C138.756 50.424 139.137 50.2593 139.449 49.93C139.77 49.592 139.93 49.189 139.93 48.721C139.93 48.253 139.77 47.8543 139.449 47.525C139.137 47.1957 138.756 47.031 138.305 47.031H135.874ZM145.251 53.856H149.476V55H144.042V45.9H149.411V47.044H145.251V49.839H149.086V50.97H145.251V53.856Z" fill="#90000F"/>
</svg>
