<svg width="173" height="25" viewBox="0 0 173 25" fill="none" xmlns="http://www.w3.org/2000/svg">
<path d="M8.0185 17.0805H7.97106C7.57572 17.7008 7.04595 18.1461 6.38177 18.4165C5.73339 18.6869 5.04549 18.8221 4.31806 18.8221C3.78039 18.8221 3.25853 18.7425 2.75248 18.5835C2.26226 18.4404 1.82737 18.2177 1.44784 17.9155C1.0683 17.6133 0.767842 17.2396 0.546447 16.7942C0.325052 16.3489 0.214355 15.832 0.214355 15.2435C0.214355 14.5755 0.33296 14.0109 0.570168 13.5497C0.823189 13.0885 1.15528 12.7068 1.56644 12.4046C1.99342 12.1024 2.47575 11.8718 3.01341 11.7127C3.55108 11.5378 4.10457 11.4105 4.67387 11.331C5.25898 11.2515 5.83619 11.2038 6.40549 11.1879C6.9906 11.172 7.52828 11.164 8.0185 11.164C8.0185 10.5278 7.78921 10.0268 7.3306 9.66103C6.88782 9.27932 6.35805 9.08847 5.74131 9.08847C5.1562 9.08847 4.61851 9.21571 4.12829 9.47018C3.65387 9.70875 3.2269 10.0427 2.84737 10.4722L0.949701 8.51591C1.61388 7.89563 2.38876 7.43439 3.27434 7.13221C4.15992 6.81411 5.07712 6.65507 6.02596 6.65507C7.06967 6.65507 7.92362 6.79025 8.5878 7.06064C9.26779 7.3151 9.80548 7.69681 10.2008 8.20577C10.612 8.71472 10.8966 9.34294 11.0548 10.0905C11.2129 10.8221 11.292 11.673 11.292 12.6431V18.5358H8.0185V17.0805ZM7.14083 13.4543C6.87199 13.4543 6.53201 13.4702 6.12084 13.502C5.7255 13.5179 5.33805 13.5815 4.95852 13.6928C4.59479 13.8042 4.27853 13.9712 4.00969 14.1938C3.75667 14.4165 3.63015 14.7266 3.63015 15.1243C3.63015 15.5537 3.81201 15.8718 4.17573 16.0785C4.53946 16.2853 4.91899 16.3887 5.31433 16.3887C5.66223 16.3887 5.99432 16.341 6.31061 16.2455C6.6427 16.1501 6.93526 16.0149 7.18828 15.84C7.44129 15.665 7.63897 15.4424 7.7813 15.172C7.93943 14.9016 8.0185 14.5835 8.0185 14.2177V13.4543H7.14083ZM24.6257 18.5358H21.2099V16.9612H21.1624C21.0359 17.1839 20.8698 17.4066 20.6643 17.6292C20.4745 17.8519 20.2373 18.0507 19.9527 18.2256C19.668 18.4006 19.3439 18.5437 18.9801 18.6551C18.6163 18.7664 18.2211 18.8221 17.7941 18.8221C16.8927 18.8221 16.1573 18.6869 15.588 18.4165C15.0345 18.1302 14.5997 17.7405 14.2834 17.2475C13.9829 16.7545 13.7773 16.174 13.6667 15.506C13.5718 14.838 13.5243 14.1143 13.5243 13.335V6.94135H17.0825V12.6193C17.0825 12.9533 17.0904 13.3032 17.1062 13.669C17.1378 14.0189 17.209 14.3449 17.3197 14.6471C17.4462 14.9493 17.628 15.1958 17.8652 15.3867C18.1183 15.5775 18.4741 15.673 18.9327 15.673C19.3913 15.673 19.7629 15.5934 20.0476 15.4344C20.3322 15.2594 20.5457 15.0368 20.688 14.7664C20.8461 14.4801 20.9489 14.162 20.9964 13.8121C21.0438 13.4622 21.0675 13.0964 21.0675 12.7147V6.94135H24.6257V18.5358ZM34.9969 9.80418H31.8657V13.669C31.8657 13.9871 31.8815 14.2813 31.9131 14.5517C31.9448 14.8062 32.016 15.0288 32.1266 15.2197C32.2373 15.4105 32.4033 15.5616 32.6248 15.673C32.862 15.7684 33.1704 15.8161 33.5499 15.8161C33.7397 15.8161 33.9848 15.8002 34.2852 15.7684C34.6016 15.7207 34.8388 15.6252 34.9969 15.4821V18.4642C34.6016 18.6074 34.1903 18.7028 33.7634 18.7505C33.3364 18.7982 32.9174 18.8221 32.5062 18.8221C31.9052 18.8221 31.3518 18.7585 30.8457 18.6312C30.3396 18.504 29.8969 18.3052 29.5173 18.0348C29.1378 17.7485 28.8374 17.3827 28.616 16.9374C28.4104 16.4921 28.3076 15.9513 28.3076 15.3151V9.80418H26.0304V6.94135H28.3076V3.50597H31.8657V6.94135H34.9969V9.80418ZM36.378 12.7386C36.378 11.8161 36.5441 10.9811 36.8762 10.2336C37.2083 9.48608 37.659 8.8499 38.2283 8.32505C38.8133 7.7843 39.4934 7.37078 40.2682 7.08449C41.059 6.79821 41.897 6.65507 42.7827 6.65507C43.6683 6.65507 44.4985 6.79821 45.2733 7.08449C46.0641 7.37078 46.744 7.7843 47.3133 8.32505C47.8984 8.8499 48.357 9.48608 48.6891 10.2336C49.0212 10.9811 49.1873 11.8161 49.1873 12.7386C49.1873 13.661 49.0212 14.496 48.6891 15.2435C48.357 15.9911 47.8984 16.6352 47.3133 17.1759C46.744 17.7008 46.0641 18.1064 45.2733 18.3926C44.4985 18.6789 43.6683 18.8221 42.7827 18.8221C41.897 18.8221 41.059 18.6789 40.2682 18.3926C39.4934 18.1064 38.8133 17.7008 38.2283 17.1759C37.659 16.6352 37.2083 15.9911 36.8762 15.2435C36.5441 14.496 36.378 13.661 36.378 12.7386ZM39.9362 12.7386C39.9362 13.6133 40.1813 14.3211 40.6715 14.8618C41.1776 15.4026 41.8813 15.673 42.7827 15.673C43.684 15.673 44.3799 15.4026 44.8701 14.8618C45.3762 14.3211 45.6292 13.6133 45.6292 12.7386C45.6292 11.8638 45.3762 11.1561 44.8701 10.6153C44.3799 10.0746 43.684 9.80418 42.7827 9.80418C41.8813 9.80418 41.1776 10.0746 40.6715 10.6153C40.1813 11.1561 39.9362 11.8638 39.9362 12.7386ZM86.1825 17.0805H86.135C85.7398 17.7008 85.2099 18.1461 84.5458 18.4165C83.8975 18.6869 83.2096 18.8221 82.482 18.8221C81.9444 18.8221 81.4226 18.7425 80.9165 18.5835C80.4263 18.4404 79.9913 18.2177 79.6118 17.9155C79.2323 17.6133 78.9319 17.2396 78.7104 16.7942C78.4892 16.3489 78.3783 15.832 78.3783 15.2435C78.3783 14.5755 78.4969 14.0109 78.7341 13.5497C78.9873 13.0885 79.3194 12.7068 79.7304 12.4046C80.1574 12.1024 80.6398 11.8718 81.1774 11.7127C81.7152 11.5378 82.2686 11.4105 82.8379 11.331C83.4231 11.2515 84.0002 11.2038 84.5695 11.1879C85.1547 11.172 85.6923 11.164 86.1825 11.164C86.1825 10.5278 85.9532 10.0268 85.4946 9.66103C85.0519 9.27932 84.522 9.08847 83.9053 9.08847C83.3202 9.08847 82.7826 9.21571 82.2923 9.47018C81.8179 9.70875 81.3909 10.0427 81.0113 10.4722L79.1137 8.51591C79.7779 7.89563 80.5529 7.43439 81.4383 7.13221C82.324 6.81411 83.2411 6.65507 84.1899 6.65507C85.2337 6.65507 86.0876 6.79025 86.7518 7.06064C87.4319 7.3151 87.9695 7.69681 88.3648 8.20577C88.776 8.71472 89.0607 9.34294 89.2188 10.0905C89.377 10.8221 89.456 11.673 89.456 12.6431V18.5358H86.1825V17.0805ZM85.3048 13.4543C85.0361 13.4543 84.696 13.4702 84.2848 13.502C83.8895 13.5179 83.502 13.5815 83.1225 13.6928C82.7589 13.8042 82.4426 13.9712 82.1737 14.1938C81.9207 14.4165 81.7941 14.7266 81.7941 15.1243C81.7941 15.5537 81.9761 15.8718 82.3397 16.0785C82.7035 16.2853 83.083 16.3887 83.4783 16.3887C83.8263 16.3887 84.1584 16.341 84.4746 16.2455C84.8067 16.1501 85.0993 16.0149 85.3523 15.84C85.6054 15.665 85.803 15.4424 85.9453 15.172C86.1035 14.9016 86.1825 14.5835 86.1825 14.2177V13.4543H85.3048ZM91.6883 6.94135H95.2464V8.80219H95.2939C95.6734 8.08648 96.1241 7.55367 96.646 7.20378C97.1678 6.83797 97.8242 6.65507 98.6148 6.65507C98.8205 6.65507 99.026 6.66303 99.2315 6.67893C99.4372 6.69482 99.627 6.72664 99.8008 6.77435V10.0427C99.5479 9.96321 99.2949 9.90756 99.0418 9.87575C98.8046 9.82803 98.5516 9.80418 98.2827 9.80418C97.6028 9.80418 97.0652 9.8996 96.6697 10.0905C96.2744 10.2813 95.966 10.5517 95.7446 10.9016C95.5391 11.2356 95.4047 11.6412 95.3413 12.1183C95.2781 12.5954 95.2464 13.1203 95.2464 13.6928V18.5358H91.6883V6.94135ZM101.348 0.5H104.906V11.5219L108.844 6.94135H113.208L108.63 12.166L113.327 18.5358H108.844L104.954 12.667H104.906V18.5358H101.348V0.5ZM125.44 16.5318C124.871 17.2634 124.152 17.828 123.282 18.2256C122.412 18.6233 121.511 18.8221 120.578 18.8221C119.692 18.8221 118.854 18.6789 118.063 18.3926C117.288 18.1064 116.609 17.7008 116.023 17.1759C115.454 16.6352 115.003 15.9911 114.671 15.2435C114.339 14.496 114.173 13.661 114.173 12.7386C114.173 11.8161 114.339 10.9811 114.671 10.2336C115.003 9.48608 115.454 8.8499 116.023 8.32505C116.609 7.7843 117.288 7.37078 118.063 7.08449C118.854 6.79821 119.692 6.65507 120.578 6.65507C121.4 6.65507 122.143 6.79821 122.807 7.08449C123.488 7.37078 124.057 7.7843 124.515 8.32505C124.99 8.8499 125.354 9.48608 125.606 10.2336C125.86 10.9811 125.986 11.8161 125.986 12.7386V13.8598H117.731C117.873 14.5437 118.182 15.0924 118.656 15.506C119.131 15.9036 119.716 16.1024 120.412 16.1024C120.997 16.1024 121.487 15.9751 121.882 15.7207C122.294 15.4503 122.649 15.1084 122.95 14.6948L125.44 16.5318ZM122.428 11.4264C122.444 10.8221 122.246 10.3052 121.835 9.87575C121.424 9.44632 120.894 9.23161 120.246 9.23161C119.85 9.23161 119.502 9.29522 119.202 9.42247C118.901 9.54971 118.641 9.71671 118.419 9.92346C118.214 10.1143 118.048 10.3449 117.921 10.6153C117.81 10.8698 117.747 11.1402 117.731 11.4264H122.428ZM136.001 9.80418H132.87V13.669C132.87 13.9871 132.886 14.2813 132.918 14.5517C132.949 14.8062 133.021 15.0288 133.131 15.2197C133.242 15.4105 133.408 15.5616 133.629 15.673C133.867 15.7684 134.175 15.8161 134.554 15.8161C134.744 15.8161 134.989 15.8002 135.29 15.7684C135.606 15.7207 135.843 15.6252 136.001 15.4821V18.4642C135.606 18.6074 135.195 18.7028 134.768 18.7505C134.341 18.7982 133.922 18.8221 133.511 18.8221C132.91 18.8221 132.356 18.7585 131.85 18.6312C131.344 18.504 130.901 18.3052 130.522 18.0348C130.142 17.7485 129.842 17.3827 129.62 16.9374C129.415 16.4921 129.312 15.9513 129.312 15.3151V9.80418H127.035V6.94135H129.312V3.50597H132.87V6.94135H136.001V9.80418ZM148.721 16.5318C148.152 17.2634 147.432 17.828 146.563 18.2256C145.693 18.6233 144.791 18.8221 143.858 18.8221C142.973 18.8221 142.135 18.6789 141.344 18.3926C140.569 18.1064 139.889 17.7008 139.304 17.1759C138.735 16.6352 138.284 15.9911 137.952 15.2435C137.62 14.496 137.454 13.661 137.454 12.7386C137.454 11.8161 137.62 10.9811 137.952 10.2336C138.284 9.48608 138.735 8.8499 139.304 8.32505C139.889 7.7843 140.569 7.37078 141.344 7.08449C142.135 6.79821 142.973 6.65507 143.858 6.65507C144.681 6.65507 145.424 6.79821 146.088 7.08449C146.768 7.37078 147.338 7.7843 147.796 8.32505C148.27 8.8499 148.634 9.48608 148.887 10.2336C149.14 10.9811 149.267 11.8161 149.267 12.7386V13.8598H141.012C141.154 14.5437 141.463 15.0924 141.937 15.506C142.411 15.9036 142.997 16.1024 143.692 16.1024C144.278 16.1024 144.768 15.9751 145.163 15.7207C145.574 15.4503 145.93 15.1084 146.23 14.6948L148.721 16.5318ZM145.709 11.4264C145.725 10.8221 145.527 10.3052 145.116 9.87575C144.705 9.44632 144.175 9.23161 143.526 9.23161C143.131 9.23161 142.783 9.29522 142.483 9.42247C142.182 9.54971 141.921 9.71671 141.7 9.92346C141.494 10.1143 141.328 10.3449 141.202 10.6153C141.091 10.8698 141.028 11.1402 141.012 11.4264H145.709ZM151.43 6.94135H154.989V8.80219H155.036C155.416 8.08648 155.866 7.55367 156.388 7.20378C156.91 6.83797 157.566 6.65507 158.357 6.65507C158.563 6.65507 158.768 6.66303 158.974 6.67893C159.179 6.69482 159.369 6.72664 159.543 6.77435V10.0427C159.29 9.96321 159.037 9.90756 158.784 9.87575C158.547 9.82803 158.294 9.80418 158.025 9.80418C157.345 9.80418 156.807 9.8996 156.412 10.0905C156.017 10.2813 155.708 10.5517 155.487 10.9016C155.281 11.2356 155.147 11.6412 155.083 12.1183C155.02 12.5954 154.989 13.1203 154.989 13.6928V18.5358H151.43V6.94135Z" fill="url(#paint0_linear_2331_693)"/>
<path d="M8.0185 17.0805H7.97106C7.57572 17.7008 7.04595 18.1461 6.38177 18.4165C5.73339 18.6869 5.04549 18.8221 4.31806 18.8221C3.78039 18.8221 3.25853 18.7425 2.75248 18.5835C2.26226 18.4404 1.82737 18.2177 1.44784 17.9155C1.0683 17.6133 0.767842 17.2396 0.546447 16.7942C0.325052 16.3489 0.214355 15.832 0.214355 15.2435C0.214355 14.5755 0.33296 14.0109 0.570168 13.5497C0.823189 13.0885 1.15528 12.7068 1.56644 12.4046C1.99342 12.1024 2.47575 11.8718 3.01341 11.7127C3.55108 11.5378 4.10457 11.4105 4.67387 11.331C5.25898 11.2515 5.83619 11.2038 6.40549 11.1879C6.9906 11.172 7.52828 11.164 8.0185 11.164C8.0185 10.5278 7.78921 10.0268 7.3306 9.66103C6.88782 9.27932 6.35805 9.08847 5.74131 9.08847C5.1562 9.08847 4.61851 9.21571 4.12829 9.47018C3.65387 9.70875 3.2269 10.0427 2.84737 10.4722L0.949701 8.51591C1.61388 7.89563 2.38876 7.43439 3.27434 7.13221C4.15992 6.81411 5.07712 6.65507 6.02596 6.65507C7.06967 6.65507 7.92362 6.79025 8.5878 7.06064C9.26779 7.3151 9.80548 7.69681 10.2008 8.20577C10.612 8.71472 10.8966 9.34294 11.0548 10.0905C11.2129 10.8221 11.292 11.673 11.292 12.6431V18.5358H8.0185V17.0805ZM7.14083 13.4543C6.87199 13.4543 6.53201 13.4702 6.12084 13.502C5.7255 13.5179 5.33805 13.5815 4.95852 13.6928C4.59479 13.8042 4.27853 13.9712 4.00969 14.1938C3.75667 14.4165 3.63015 14.7266 3.63015 15.1243C3.63015 15.5537 3.81201 15.8718 4.17573 16.0785C4.53946 16.2853 4.91899 16.3887 5.31433 16.3887C5.66223 16.3887 5.99432 16.341 6.31061 16.2455C6.6427 16.1501 6.93526 16.0149 7.18828 15.84C7.44129 15.665 7.63897 15.4424 7.7813 15.172C7.93943 14.9016 8.0185 14.5835 8.0185 14.2177V13.4543H7.14083ZM24.6257 18.5358H21.2099V16.9612H21.1624C21.0359 17.1839 20.8698 17.4066 20.6643 17.6292C20.4745 17.8519 20.2373 18.0507 19.9527 18.2256C19.668 18.4006 19.3439 18.5437 18.9801 18.6551C18.6163 18.7664 18.2211 18.8221 17.7941 18.8221C16.8927 18.8221 16.1573 18.6869 15.588 18.4165C15.0345 18.1302 14.5997 17.7405 14.2834 17.2475C13.9829 16.7545 13.7773 16.174 13.6667 15.506C13.5718 14.838 13.5243 14.1143 13.5243 13.335V6.94135H17.0825V12.6193C17.0825 12.9533 17.0904 13.3032 17.1062 13.669C17.1378 14.0189 17.209 14.3449 17.3197 14.6471C17.4462 14.9493 17.628 15.1958 17.8652 15.3867C18.1183 15.5775 18.4741 15.673 18.9327 15.673C19.3913 15.673 19.7629 15.5934 20.0476 15.4344C20.3322 15.2594 20.5457 15.0368 20.688 14.7664C20.8461 14.4801 20.9489 14.162 20.9964 13.8121C21.0438 13.4622 21.0675 13.0964 21.0675 12.7147V6.94135H24.6257V18.5358ZM34.9969 9.80418H31.8657V13.669C31.8657 13.9871 31.8815 14.2813 31.9131 14.5517C31.9448 14.8062 32.016 15.0288 32.1266 15.2197C32.2373 15.4105 32.4033 15.5616 32.6248 15.673C32.862 15.7684 33.1704 15.8161 33.5499 15.8161C33.7397 15.8161 33.9848 15.8002 34.2852 15.7684C34.6016 15.7207 34.8388 15.6252 34.9969 15.4821V18.4642C34.6016 18.6074 34.1903 18.7028 33.7634 18.7505C33.3364 18.7982 32.9174 18.8221 32.5062 18.8221C31.9052 18.8221 31.3518 18.7585 30.8457 18.6312C30.3396 18.504 29.8969 18.3052 29.5173 18.0348C29.1378 17.7485 28.8374 17.3827 28.616 16.9374C28.4104 16.4921 28.3076 15.9513 28.3076 15.3151V9.80418H26.0304V6.94135H28.3076V3.50597H31.8657V6.94135H34.9969V9.80418ZM36.378 12.7386C36.378 11.8161 36.5441 10.9811 36.8762 10.2336C37.2083 9.48608 37.659 8.8499 38.2283 8.32505C38.8133 7.7843 39.4934 7.37078 40.2682 7.08449C41.059 6.79821 41.897 6.65507 42.7827 6.65507C43.6683 6.65507 44.4985 6.79821 45.2733 7.08449C46.0641 7.37078 46.744 7.7843 47.3133 8.32505C47.8984 8.8499 48.357 9.48608 48.6891 10.2336C49.0212 10.9811 49.1873 11.8161 49.1873 12.7386C49.1873 13.661 49.0212 14.496 48.6891 15.2435C48.357 15.9911 47.8984 16.6352 47.3133 17.1759C46.744 17.7008 46.0641 18.1064 45.2733 18.3926C44.4985 18.6789 43.6683 18.8221 42.7827 18.8221C41.897 18.8221 41.059 18.6789 40.2682 18.3926C39.4934 18.1064 38.8133 17.7008 38.2283 17.1759C37.659 16.6352 37.2083 15.9911 36.8762 15.2435C36.5441 14.496 36.378 13.661 36.378 12.7386ZM39.9362 12.7386C39.9362 13.6133 40.1813 14.3211 40.6715 14.8618C41.1776 15.4026 41.8813 15.673 42.7827 15.673C43.684 15.673 44.3799 15.4026 44.8701 14.8618C45.3762 14.3211 45.6292 13.6133 45.6292 12.7386C45.6292 11.8638 45.3762 11.1561 44.8701 10.6153C44.3799 10.0746 43.684 9.80418 42.7827 9.80418C41.8813 9.80418 41.1776 10.0746 40.6715 10.6153C40.1813 11.1561 39.9362 11.8638 39.9362 12.7386ZM86.1825 17.0805H86.135C85.7398 17.7008 85.2099 18.1461 84.5458 18.4165C83.8975 18.6869 83.2096 18.8221 82.482 18.8221C81.9444 18.8221 81.4226 18.7425 80.9165 18.5835C80.4263 18.4404 79.9913 18.2177 79.6118 17.9155C79.2323 17.6133 78.9319 17.2396 78.7104 16.7942C78.4892 16.3489 78.3783 15.832 78.3783 15.2435C78.3783 14.5755 78.4969 14.0109 78.7341 13.5497C78.9873 13.0885 79.3194 12.7068 79.7304 12.4046C80.1574 12.1024 80.6398 11.8718 81.1774 11.7127C81.7152 11.5378 82.2686 11.4105 82.8379 11.331C83.4231 11.2515 84.0002 11.2038 84.5695 11.1879C85.1547 11.172 85.6923 11.164 86.1825 11.164C86.1825 10.5278 85.9532 10.0268 85.4946 9.66103C85.0519 9.27932 84.522 9.08847 83.9053 9.08847C83.3202 9.08847 82.7826 9.21571 82.2923 9.47018C81.8179 9.70875 81.3909 10.0427 81.0113 10.4722L79.1137 8.51591C79.7779 7.89563 80.5529 7.43439 81.4383 7.13221C82.324 6.81411 83.2411 6.65507 84.1899 6.65507C85.2337 6.65507 86.0876 6.79025 86.7518 7.06064C87.4319 7.3151 87.9695 7.69681 88.3648 8.20577C88.776 8.71472 89.0607 9.34294 89.2188 10.0905C89.377 10.8221 89.456 11.673 89.456 12.6431V18.5358H86.1825V17.0805ZM85.3048 13.4543C85.0361 13.4543 84.696 13.4702 84.2848 13.502C83.8895 13.5179 83.502 13.5815 83.1225 13.6928C82.7589 13.8042 82.4426 13.9712 82.1737 14.1938C81.9207 14.4165 81.7941 14.7266 81.7941 15.1243C81.7941 15.5537 81.9761 15.8718 82.3397 16.0785C82.7035 16.2853 83.083 16.3887 83.4783 16.3887C83.8263 16.3887 84.1584 16.341 84.4746 16.2455C84.8067 16.1501 85.0993 16.0149 85.3523 15.84C85.6054 15.665 85.803 15.4424 85.9453 15.172C86.1035 14.9016 86.1825 14.5835 86.1825 14.2177V13.4543H85.3048ZM91.6883 6.94135H95.2464V8.80219H95.2939C95.6734 8.08648 96.1241 7.55367 96.646 7.20378C97.1678 6.83797 97.8242 6.65507 98.6148 6.65507C98.8205 6.65507 99.026 6.66303 99.2315 6.67893C99.4372 6.69482 99.627 6.72664 99.8008 6.77435V10.0427C99.5479 9.96321 99.2949 9.90756 99.0418 9.87575C98.8046 9.82803 98.5516 9.80418 98.2827 9.80418C97.6028 9.80418 97.0652 9.8996 96.6697 10.0905C96.2744 10.2813 95.966 10.5517 95.7446 10.9016C95.5391 11.2356 95.4047 11.6412 95.3413 12.1183C95.2781 12.5954 95.2464 13.1203 95.2464 13.6928V18.5358H91.6883V6.94135ZM101.348 0.5H104.906V11.5219L108.844 6.94135H113.208L108.63 12.166L113.327 18.5358H108.844L104.954 12.667H104.906V18.5358H101.348V0.5ZM125.44 16.5318C124.871 17.2634 124.152 17.828 123.282 18.2256C122.412 18.6233 121.511 18.8221 120.578 18.8221C119.692 18.8221 118.854 18.6789 118.063 18.3926C117.288 18.1064 116.609 17.7008 116.023 17.1759C115.454 16.6352 115.003 15.9911 114.671 15.2435C114.339 14.496 114.173 13.661 114.173 12.7386C114.173 11.8161 114.339 10.9811 114.671 10.2336C115.003 9.48608 115.454 8.8499 116.023 8.32505C116.609 7.7843 117.288 7.37078 118.063 7.08449C118.854 6.79821 119.692 6.65507 120.578 6.65507C121.4 6.65507 122.143 6.79821 122.807 7.08449C123.488 7.37078 124.057 7.7843 124.515 8.32505C124.99 8.8499 125.354 9.48608 125.606 10.2336C125.86 10.9811 125.986 11.8161 125.986 12.7386V13.8598H117.731C117.873 14.5437 118.182 15.0924 118.656 15.506C119.131 15.9036 119.716 16.1024 120.412 16.1024C120.997 16.1024 121.487 15.9751 121.882 15.7207C122.294 15.4503 122.649 15.1084 122.95 14.6948L125.44 16.5318ZM122.428 11.4264C122.444 10.8221 122.246 10.3052 121.835 9.87575C121.424 9.44632 120.894 9.23161 120.246 9.23161C119.85 9.23161 119.502 9.29522 119.202 9.42247C118.901 9.54971 118.641 9.71671 118.419 9.92346C118.214 10.1143 118.048 10.3449 117.921 10.6153C117.81 10.8698 117.747 11.1402 117.731 11.4264H122.428ZM136.001 9.80418H132.87V13.669C132.87 13.9871 132.886 14.2813 132.918 14.5517C132.949 14.8062 133.021 15.0288 133.131 15.2197C133.242 15.4105 133.408 15.5616 133.629 15.673C133.867 15.7684 134.175 15.8161 134.554 15.8161C134.744 15.8161 134.989 15.8002 135.29 15.7684C135.606 15.7207 135.843 15.6252 136.001 15.4821V18.4642C135.606 18.6074 135.195 18.7028 134.768 18.7505C134.341 18.7982 133.922 18.8221 133.511 18.8221C132.91 18.8221 132.356 18.7585 131.85 18.6312C131.344 18.504 130.901 18.3052 130.522 18.0348C130.142 17.7485 129.842 17.3827 129.62 16.9374C129.415 16.4921 129.312 15.9513 129.312 15.3151V9.80418H127.035V6.94135H129.312V3.50597H132.87V6.94135H136.001V9.80418ZM148.721 16.5318C148.152 17.2634 147.432 17.828 146.563 18.2256C145.693 18.6233 144.791 18.8221 143.858 18.8221C142.973 18.8221 142.135 18.6789 141.344 18.3926C140.569 18.1064 139.889 17.7008 139.304 17.1759C138.735 16.6352 138.284 15.9911 137.952 15.2435C137.62 14.496 137.454 13.661 137.454 12.7386C137.454 11.8161 137.62 10.9811 137.952 10.2336C138.284 9.48608 138.735 8.8499 139.304 8.32505C139.889 7.7843 140.569 7.37078 141.344 7.08449C142.135 6.79821 142.973 6.65507 143.858 6.65507C144.681 6.65507 145.424 6.79821 146.088 7.08449C146.768 7.37078 147.338 7.7843 147.796 8.32505C148.27 8.8499 148.634 9.48608 148.887 10.2336C149.14 10.9811 149.267 11.8161 149.267 12.7386V13.8598H141.012C141.154 14.5437 141.463 15.0924 141.937 15.506C142.411 15.9036 142.997 16.1024 143.692 16.1024C144.278 16.1024 144.768 15.9751 145.163 15.7207C145.574 15.4503 145.93 15.1084 146.23 14.6948L148.721 16.5318ZM145.709 11.4264C145.725 10.8221 145.527 10.3052 145.116 9.87575C144.705 9.44632 144.175 9.23161 143.526 9.23161C143.131 9.23161 142.783 9.29522 142.483 9.42247C142.182 9.54971 141.921 9.71671 141.7 9.92346C141.494 10.1143 141.328 10.3449 141.202 10.6153C141.091 10.8698 141.028 11.1402 141.012 11.4264H145.709ZM151.43 6.94135H154.989V8.80219H155.036C155.416 8.08648 155.866 7.55367 156.388 7.20378C156.91 6.83797 157.566 6.65507 158.357 6.65507C158.563 6.65507 158.768 6.66303 158.974 6.67893C159.179 6.69482 159.369 6.72664 159.543 6.77435V10.0427C159.29 9.96321 159.037 9.90756 158.784 9.87575C158.547 9.82803 158.294 9.80418 158.025 9.80418C157.345 9.80418 156.807 9.8996 156.412 10.0905C156.017 10.2813 155.708 10.5517 155.487 10.9016C155.281 11.2356 155.147 11.6412 155.083 12.1183C155.02 12.5954 154.989 13.1203 154.989 13.6928V18.5358H151.43V6.94135Z" fill="white" fill-opacity="0.5"/>
<path fill-rule="evenodd" clip-rule="evenodd" d="M55.1221 3.62525H72.5421C74.5891 3.62525 76.2485 5.29417 76.2485 7.35288V17.2393C76.2485 19.2979 74.5891 20.9669 72.5421 20.9669H59.1991L60.311 24.5L53.7608 21.8983C52.3457 21.3362 51.4157 19.9614 51.4157 18.4312V7.35288C51.4157 5.29417 53.0751 3.62525 55.1221 3.62525ZM58.3126 6.94135H54.8968V18.5358H58.4549V12.7624C58.4549 12.3807 58.4786 12.0149 58.5261 11.665C58.5735 11.3151 58.6684 11.005 58.8107 10.7346C58.9688 10.4483 59.1902 10.2256 59.4749 10.0666C59.7595 9.89165 60.1311 9.80418 60.5898 9.80418C61.001 9.80418 61.3094 9.8996 61.5149 10.0905C61.7363 10.2813 61.8944 10.5119 61.9893 10.7823C62.0842 11.0527 62.1396 11.339 62.1553 11.6412C62.1711 11.9433 62.1791 12.1978 62.1791 12.4046V18.5358H65.7372V12.4046C65.7372 12.0547 65.7689 11.7207 65.8321 11.4026C65.9112 11.0845 66.0298 10.8062 66.1879 10.5676C66.3619 10.329 66.5832 10.1461 66.8521 10.0189C67.1367 9.87575 67.4846 9.80418 67.8958 9.80418C68.4808 9.80418 68.8841 10.003 69.1055 10.4006C69.3427 10.7823 69.4613 11.2435 69.4613 11.7843V18.5358H73.0195V11.6889C73.0195 10.9891 72.9483 10.337 72.806 9.7326C72.6794 9.11233 72.4581 8.57952 72.1418 8.1342C71.8414 7.67296 71.4222 7.3151 70.8846 7.06064C70.3627 6.79025 69.7143 6.65507 68.9395 6.65507C68.0855 6.65507 67.3659 6.81411 66.7809 7.13221C66.1958 7.45031 65.6977 7.9831 65.2865 8.73062C64.9701 8.01491 64.4957 7.49006 63.8632 7.15606C63.2465 6.82207 62.5349 6.65507 61.7284 6.65507C61.3014 6.65507 60.9061 6.71074 60.5423 6.82207C60.1785 6.93339 59.8544 7.07654 59.5698 7.25149C59.2851 7.42645 59.0399 7.62524 58.8344 7.84791C58.6289 8.07058 58.4706 8.29323 58.36 8.51591H58.3126V6.94135Z" fill="url(#paint1_linear_2331_693)"/>
<path fill-rule="evenodd" clip-rule="evenodd" d="M55.1221 3.62525H72.5421C74.5891 3.62525 76.2485 5.29417 76.2485 7.35288V17.2393C76.2485 19.2979 74.5891 20.9669 72.5421 20.9669H59.1991L60.311 24.5L53.7608 21.8983C52.3457 21.3362 51.4157 19.9614 51.4157 18.4312V7.35288C51.4157 5.29417 53.0751 3.62525 55.1221 3.62525ZM58.3126 6.94135H54.8968V18.5358H58.4549V12.7624C58.4549 12.3807 58.4786 12.0149 58.5261 11.665C58.5735 11.3151 58.6684 11.005 58.8107 10.7346C58.9688 10.4483 59.1902 10.2256 59.4749 10.0666C59.7595 9.89165 60.1311 9.80418 60.5898 9.80418C61.001 9.80418 61.3094 9.8996 61.5149 10.0905C61.7363 10.2813 61.8944 10.5119 61.9893 10.7823C62.0842 11.0527 62.1396 11.339 62.1553 11.6412C62.1711 11.9433 62.1791 12.1978 62.1791 12.4046V18.5358H65.7372V12.4046C65.7372 12.0547 65.7689 11.7207 65.8321 11.4026C65.9112 11.0845 66.0298 10.8062 66.1879 10.5676C66.3619 10.329 66.5832 10.1461 66.8521 10.0189C67.1367 9.87575 67.4846 9.80418 67.8958 9.80418C68.4808 9.80418 68.8841 10.003 69.1055 10.4006C69.3427 10.7823 69.4613 11.2435 69.4613 11.7843V18.5358H73.0195V11.6889C73.0195 10.9891 72.9483 10.337 72.806 9.7326C72.6794 9.11233 72.4581 8.57952 72.1418 8.1342C71.8414 7.67296 71.4222 7.3151 70.8846 7.06064C70.3627 6.79025 69.7143 6.65507 68.9395 6.65507C68.0855 6.65507 67.3659 6.81411 66.7809 7.13221C66.1958 7.45031 65.6977 7.9831 65.2865 8.73062C64.9701 8.01491 64.4957 7.49006 63.8632 7.15606C63.2465 6.82207 62.5349 6.65507 61.7284 6.65507C61.3014 6.65507 60.9061 6.71074 60.5423 6.82207C60.1785 6.93339 59.8544 7.07654 59.5698 7.25149C59.2851 7.42645 59.0399 7.62524 58.8344 7.84791C58.6289 8.07058 58.4706 8.29323 58.36 8.51591H58.3126V6.94135Z" fill="white" fill-opacity="0.5"/>
<path d="M162.619 17.6725C162.619 18.0065 162.5 18.2848 162.263 18.5075C162.034 18.7301 161.757 18.8415 161.433 18.8415C161.267 18.8415 161.109 18.8096 160.958 18.746C160.816 18.6904 160.69 18.6108 160.579 18.5075C160.468 18.4041 160.381 18.2848 160.318 18.1496C160.255 18.0065 160.223 17.8514 160.223 17.6844C160.223 17.5253 160.255 17.3743 160.318 17.2311C160.381 17.088 160.468 16.9647 160.579 16.8613C160.69 16.75 160.816 16.6625 160.958 16.5989C161.109 16.5353 161.267 16.5035 161.433 16.5035C161.757 16.5035 162.034 16.6148 162.263 16.8375C162.5 17.0601 162.619 17.3385 162.619 17.6725Z" fill="url(#paint2_linear_2331_693)"/>
<path d="M162.619 17.6725C162.619 18.0065 162.5 18.2848 162.263 18.5075C162.034 18.7301 161.757 18.8415 161.433 18.8415C161.267 18.8415 161.109 18.8096 160.958 18.746C160.816 18.6904 160.69 18.6108 160.579 18.5075C160.468 18.4041 160.381 18.2848 160.318 18.1496C160.255 18.0065 160.223 17.8514 160.223 17.6844C160.223 17.5253 160.255 17.3743 160.318 17.2311C160.381 17.088 160.468 16.9647 160.579 16.8613C160.69 16.75 160.816 16.6625 160.958 16.5989C161.109 16.5353 161.267 16.5035 161.433 16.5035C161.757 16.5035 162.034 16.6148 162.263 16.8375C162.5 17.0601 162.619 17.3385 162.619 17.6725Z" fill="white" fill-opacity="0.5"/>
<path d="M167.444 16.1337H167.195C166.981 16.1337 166.764 16.1456 166.542 16.1695C166.329 16.1854 166.135 16.2212 165.961 16.2768C165.795 16.3325 165.657 16.416 165.546 16.5273C165.435 16.6307 165.38 16.7699 165.38 16.9448C165.38 17.0562 165.404 17.1516 165.451 17.2311C165.507 17.3106 165.574 17.3743 165.653 17.422C165.732 17.4697 165.823 17.5055 165.926 17.5293C166.028 17.5452 166.127 17.5532 166.222 17.5532C166.618 17.5532 166.918 17.4458 167.124 17.2311C167.337 17.0084 167.444 16.7102 167.444 16.3365V16.1337ZM163.874 13.5929C164.222 13.2589 164.625 13.0084 165.084 12.8415C165.55 12.6745 166.025 12.591 166.507 12.591C167.005 12.591 167.424 12.6546 167.764 12.7818C168.112 12.9011 168.393 13.0919 168.606 13.3544C168.82 13.6088 168.974 13.9349 169.069 14.3325C169.171 14.7222 169.223 15.1874 169.223 15.7281V18.7222H167.444V18.09H167.408C167.258 18.3365 167.029 18.5273 166.72 18.6625C166.42 18.7977 166.092 18.8653 165.736 18.8653C165.499 18.8653 165.254 18.8335 165.001 18.7699C164.748 18.7063 164.514 18.6029 164.301 18.4597C164.095 18.3166 163.925 18.1257 163.791 17.8872C163.656 17.6486 163.589 17.3544 163.589 17.0045C163.589 16.575 163.704 16.2291 163.933 15.9667C164.17 15.7043 164.471 15.5015 164.835 15.3583C165.206 15.2152 165.617 15.1198 166.068 15.0721C166.519 15.0244 166.958 15.0005 167.384 15.0005V14.9051C167.384 14.6108 167.282 14.3961 167.076 14.2609C166.871 14.1178 166.618 14.0462 166.317 14.0462C166.04 14.0462 165.771 14.1059 165.511 14.2251C165.258 14.3444 165.04 14.4876 164.858 14.6546L163.874 13.5929Z" fill="url(#paint3_linear_2331_693)"/>
<path d="M167.444 16.1337H167.195C166.981 16.1337 166.764 16.1456 166.542 16.1695C166.329 16.1854 166.135 16.2212 165.961 16.2768C165.795 16.3325 165.657 16.416 165.546 16.5273C165.435 16.6307 165.38 16.7699 165.38 16.9448C165.38 17.0562 165.404 17.1516 165.451 17.2311C165.507 17.3106 165.574 17.3743 165.653 17.422C165.732 17.4697 165.823 17.5055 165.926 17.5293C166.028 17.5452 166.127 17.5532 166.222 17.5532C166.618 17.5532 166.918 17.4458 167.124 17.2311C167.337 17.0084 167.444 16.7102 167.444 16.3365V16.1337ZM163.874 13.5929C164.222 13.2589 164.625 13.0084 165.084 12.8415C165.55 12.6745 166.025 12.591 166.507 12.591C167.005 12.591 167.424 12.6546 167.764 12.7818C168.112 12.9011 168.393 13.0919 168.606 13.3544C168.82 13.6088 168.974 13.9349 169.069 14.3325C169.171 14.7222 169.223 15.1874 169.223 15.7281V18.7222H167.444V18.09H167.408C167.258 18.3365 167.029 18.5273 166.72 18.6625C166.42 18.7977 166.092 18.8653 165.736 18.8653C165.499 18.8653 165.254 18.8335 165.001 18.7699C164.748 18.7063 164.514 18.6029 164.301 18.4597C164.095 18.3166 163.925 18.1257 163.791 17.8872C163.656 17.6486 163.589 17.3544 163.589 17.0045C163.589 16.575 163.704 16.2291 163.933 15.9667C164.17 15.7043 164.471 15.5015 164.835 15.3583C165.206 15.2152 165.617 15.1198 166.068 15.0721C166.519 15.0244 166.958 15.0005 167.384 15.0005V14.9051C167.384 14.6108 167.282 14.3961 167.076 14.2609C166.871 14.1178 166.618 14.0462 166.317 14.0462C166.04 14.0462 165.771 14.1059 165.511 14.2251C165.258 14.3444 165.04 14.4876 164.858 14.6546L163.874 13.5929Z" fill="white" fill-opacity="0.5"/>
<path d="M172.786 10.8852C172.786 11.0363 172.754 11.1794 172.691 11.3146C172.636 11.4418 172.557 11.5532 172.454 11.6486C172.359 11.744 172.24 11.8196 172.098 11.8752C171.963 11.9309 171.821 11.9587 171.671 11.9587C171.355 11.9587 171.09 11.8554 170.876 11.6486C170.663 11.4339 170.556 11.1794 170.556 10.8852C170.556 10.742 170.584 10.6069 170.639 10.4796C170.694 10.3444 170.773 10.2291 170.876 10.1337C170.979 10.0383 171.098 9.96272 171.232 9.90706C171.367 9.84344 171.513 9.81163 171.671 9.81163C171.821 9.81163 171.963 9.83946 172.098 9.89513C172.24 9.9508 172.359 10.0263 172.454 10.1218C172.557 10.2172 172.636 10.3325 172.691 10.4677C172.754 10.5949 172.786 10.7341 172.786 10.8852ZM170.698 18.7222V12.7818H172.643V18.7222H170.698Z" fill="url(#paint4_linear_2331_693)"/>
<path d="M172.786 10.8852C172.786 11.0363 172.754 11.1794 172.691 11.3146C172.636 11.4418 172.557 11.5532 172.454 11.6486C172.359 11.744 172.24 11.8196 172.098 11.8752C171.963 11.9309 171.821 11.9587 171.671 11.9587C171.355 11.9587 171.09 11.8554 170.876 11.6486C170.663 11.4339 170.556 11.1794 170.556 10.8852C170.556 10.742 170.584 10.6069 170.639 10.4796C170.694 10.3444 170.773 10.2291 170.876 10.1337C170.979 10.0383 171.098 9.96272 171.232 9.90706C171.367 9.84344 171.513 9.81163 171.671 9.81163C171.821 9.81163 171.963 9.83946 172.098 9.89513C172.24 9.9508 172.359 10.0263 172.454 10.1218C172.557 10.2172 172.636 10.3325 172.691 10.4677C172.754 10.5949 172.786 10.7341 172.786 10.8852ZM170.698 18.7222V12.7818H172.643V18.7222H170.698Z" fill="white" fill-opacity="0.5"/>
<defs>
<linearGradient id="paint0_linear_2331_693" x1="75.4782" y1="3.97368" x2="75.4782" y2="27.3421" gradientUnits="userSpaceOnUse">
<stop stop-color="#424446"/>
<stop offset="0.413557" stop-color="white"/>
<stop offset="0.429587" stop-color="#DDDDDD"/>
<stop offset="1" stop-color="#DDDDDD"/>
</linearGradient>
<linearGradient id="paint1_linear_2331_693" x1="75.4782" y1="3.97368" x2="75.4782" y2="27.3421" gradientUnits="userSpaceOnUse">
<stop stop-color="#424446"/>
<stop offset="0.413557" stop-color="white"/>
<stop offset="0.429587" stop-color="#DDDDDD"/>
<stop offset="1" stop-color="#DDDDDD"/>
</linearGradient>
<linearGradient id="paint2_linear_2331_693" x1="75.4782" y1="3.97368" x2="75.4782" y2="27.3421" gradientUnits="userSpaceOnUse">
<stop stop-color="#424446"/>
<stop offset="0.413557" stop-color="white"/>
<stop offset="0.429587" stop-color="#DDDDDD"/>
<stop offset="1" stop-color="#DDDDDD"/>
</linearGradient>
<linearGradient id="paint3_linear_2331_693" x1="75.4782" y1="3.97368" x2="75.4782" y2="27.3421" gradientUnits="userSpaceOnUse">
<stop stop-color="#424446"/>
<stop offset="0.413557" stop-color="white"/>
<stop offset="0.429587" stop-color="#DDDDDD"/>
<stop offset="1" stop-color="#DDDDDD"/>
</linearGradient>
<linearGradient id="paint4_linear_2331_693" x1="75.4782" y1="3.97368" x2="75.4782" y2="27.3421" gradientUnits="userSpaceOnUse">
<stop stop-color="#424446"/>
<stop offset="0.413557" stop-color="white"/>
<stop offset="0.429587" stop-color="#DDDDDD"/>
<stop offset="1" stop-color="#DDDDDD"/>
</linearGradient>
</defs>
</svg>
