<svg width="20" height="20" viewBox="0 0 20 20" fill="none" xmlns="http://www.w3.org/2000/svg">
<path d="M9.9995 0C8.0217 0 6.0883 0.586489 4.44381 1.6853C2.79932 2.78412 1.5176 4.3459 0.760722 6.17316C0.00384247 8.00039 -0.194187 10.0111 0.191662 11.9509C0.577512 13.8907 1.52992 15.6725 2.92845 17.0711C4.32697 18.4696 6.1088 19.422 8.0486 19.8079C9.9884 20.1937 11.9991 19.9957 13.8263 19.2388C15.6536 18.4819 17.2154 17.2002 18.3142 15.5557C19.413 13.9112 19.9995 11.9778 19.9995 9.99999C19.9995 8.68679 19.7408 7.38641 19.2383 6.17316C18.7358 4.9599 17.9992 3.85752 17.0706 2.92893C16.142 2.00035 15.0396 1.26375 13.8263 0.761199C12.6131 0.25866 11.3127 0 9.9995 0ZM8.4295 19.87V17.87C8.4192 17.5322 8.3119 17.2046 8.1204 16.9262C7.92885 16.6478 7.66124 16.4304 7.3495 16.3C6.21131 15.8208 5.22431 15.0421 4.49356 14.0465C3.76282 13.051 3.31566 11.8759 3.1997 10.6464C3.08373 9.41689 3.30329 8.17899 3.835 7.06436C4.36671 5.94973 5.19068 5.00013 6.21923 4.3166C7.24776 3.63309 8.4424 3.24122 9.6759 3.18272C10.9095 3.12421 12.1359 3.40126 13.2245 3.98438C14.3131 4.56748 15.2232 5.43484 15.858 6.49414C16.4929 7.55344 16.8286 8.76499 16.8295 9.99999C16.8295 14.43 13.3895 18.61 8.4295 19.87Z" fill="white" fill-opacity="0.94902"/>
</svg>
