<svg width="40" height="20" viewBox="0 0 40 20" fill="none" xmlns="http://www.w3.org/2000/svg">
<g clip-path="url(#clip0_2403_762)">
<path d="M23.9676 17.0334C22.3627 17.1068 22.526 16.2685 23.4643 14.9769C25.6642 12.0303 29.8308 7.91714 29.9741 5.00726C30.2257 1.20241 26.4026 -0.0358782 22.4727 0.00078702C19.7312 0.0374522 16.8996 0.820755 14.9713 1.51073C8.3166 3.85897 4.13176 7.62715 1.49853 11.7937C-1.29636 15.9235 -0.376394 19.8717 5.52004 20C10.0465 19.8183 12.9864 18.5634 16.053 16.9968C16.0696 16.9968 7.57663 19.4184 4.45675 17.6351L4.44342 17.6318C4.12176 17.4484 3.77011 17.1918 3.68178 16.4935C3.66178 15.0185 6.11502 13.4903 7.48663 12.9986V10.4437C8.52528 10.848 9.63027 11.0549 10.7448 11.0537C12.8621 11.0564 14.912 10.3096 16.5313 8.94543C16.5929 9.16209 16.6246 9.40875 16.6046 9.69041H17.2229C17.3029 9.03376 16.9363 8.51378 16.9363 8.51378C16.3813 7.63215 15.4113 7.64715 15.4113 7.64715C15.4113 7.64715 15.9363 7.87548 16.293 8.42379C15.2315 9.31439 13.963 9.92348 12.6043 10.1949C11.2456 10.4664 9.8404 10.3915 8.51826 9.97706L10.5348 7.97714L9.97487 6.52053C14.033 5.10059 17.4412 4.00896 22.9944 3.04567L21.7511 2.00571L22.3994 1.60572C25.7492 2.55235 27.9408 3.24733 27.8208 5.02392C27.75 5.37568 27.637 5.71759 27.4842 6.04222C26.5109 7.97214 23.6077 11.192 22.436 12.5386C21.6611 13.4303 20.9028 14.3052 20.3611 15.1419C19.8028 15.9802 19.4612 16.7601 19.4428 17.5084C19.5145 23.3482 36.6655 14.7752 39.982 12.5036C35.0772 14.6135 29.7941 16.6518 23.9676 17.0334Z" fill="white" fill-opacity="0.94902"/>
</g>
<defs>
<clipPath id="clip0_2403_762">
<rect width="40" height="20" fill="white" transform="translate(-0.00927734)"/>
</clipPath>
</defs>
</svg>
