<svg width="20" height="15" viewBox="0 0 20 15" fill="none" xmlns="http://www.w3.org/2000/svg">
<g clip-path="url(#clip0_466_20)">
<mask id="mask0_466_20" style="mask-type:luminance" maskUnits="userSpaceOnUse" x="-1" y="2" width="21" height="11">
<path d="M19.9954 2.5H-0.00463867V12.5H19.9954V2.5Z" fill="white"/>
</mask>
<g mask="url(#mask0_466_20)">
<path d="M11.9838 11.0167C11.1814 11.0534 11.263 10.6343 11.7322 9.98845C12.8321 8.51515 14.9154 6.45857 14.9871 5.00363C15.1129 3.1012 13.2013 2.48206 11.2364 2.50039C9.8656 2.51873 8.4498 2.91038 7.48565 3.25537C4.1583 4.42948 2.06588 6.31358 0.749266 8.39685C-0.648179 10.4618 -0.188196 12.4359 2.76002 12.5C5.02325 12.4091 6.4932 11.7817 8.0265 10.9984C8.0348 10.9984 3.78832 12.2092 2.22838 11.3175L2.22171 11.3159C2.06088 11.2242 1.88506 11.0959 1.84089 10.7467C1.83089 10.0092 3.05751 9.24515 3.74332 8.9993V7.72185C4.26264 7.924 4.81514 8.02745 5.3724 8.02685C6.43105 8.0282 7.456 7.6548 8.26565 6.97271C8.29645 7.08104 8.3123 7.20437 8.3023 7.3452H8.61145C8.65145 7.01688 8.46815 6.75689 8.46815 6.75689C8.19065 6.31607 7.70565 6.32358 7.70565 6.32358C7.70565 6.32358 7.96815 6.43774 8.1465 6.71189C7.61575 7.1572 6.9815 7.46174 6.30215 7.59745C5.6228 7.7332 4.9202 7.69575 4.25913 7.48853L5.2674 6.48857L4.98744 5.76027C7.0165 5.0503 8.7206 4.50448 11.4972 4.02284L10.8756 3.50285L11.1997 3.30286C12.8746 3.77618 13.9704 4.12367 13.9104 5.01196C13.875 5.18784 13.8185 5.3588 13.7421 5.52111C13.2555 6.48607 11.8039 8.096 11.218 8.7693C10.8306 9.21515 10.4514 9.6526 10.1806 10.071C9.9014 10.4901 9.7306 10.88 9.7214 11.2542C9.75725 14.1741 18.3327 9.8876 19.991 8.7518C17.5386 9.80675 14.8971 10.8259 11.9838 11.0167Z" fill="white" fill-opacity="0.94902"/>
</g>
</g>
<defs>
<clipPath id="clip0_466_20">
<rect width="20" height="10" fill="white" transform="translate(0 2.5)"/>
</clipPath>
</defs>
</svg>
