<svg width="20" height="20" viewBox="0 0 20 20" fill="none" xmlns="http://www.w3.org/2000/svg">
<path fill-rule="evenodd" clip-rule="evenodd" d="M17.0929 16.1939C16.9913 16.1939 16.8897 16.2173 16.7959 16.2642C16.6865 16.3111 16.577 16.358 16.4754 16.3971L16.3269 16.4596L16.1316 16.5378C13.9823 17.4053 11.7314 17.9211 9.64464 17.9602C9.56649 17.9602 9.48833 17.9602 9.41799 17.9602C6.13546 17.9602 3.46254 16.4362 0.758359 14.9434C0.664572 14.8965 0.570786 14.8652 0.476999 14.8652C0.35195 14.8652 0.234717 14.9121 0.14093 14.9981C0.0471432 15.0841 -0.0075653 15.2091 0.000250258 15.3342C0.000250258 15.4983 0.0862211 15.6468 0.21127 15.7484C2.74351 17.9524 5.52585 19.9922 9.26168 20.0001C9.33202 20.0001 9.41018 20.0001 9.48052 20.0001C11.8564 19.9453 14.545 19.1403 16.6317 17.8351L16.6474 17.8273C16.9209 17.6632 17.1945 17.4756 17.4524 17.2724C17.6087 17.1552 17.7259 16.9676 17.7259 16.7722C17.6947 16.4283 17.4055 16.1939 17.0929 16.1939Z" fill="white" fill-opacity="0.94902"/>
<path fill-rule="evenodd" clip-rule="evenodd" d="M19.9846 14.9824C19.9768 14.7714 19.9299 14.6151 19.8439 14.4822L19.8361 14.4666L19.8283 14.4509C19.7423 14.3571 19.6563 14.3181 19.5625 14.279C19.289 14.1774 18.8904 14.1149 18.4136 14.1149C18.0698 14.1149 17.6868 14.1461 17.3038 14.2321V14.2087L16.9209 14.3337H16.9131L16.6942 14.404V14.4119C16.4363 14.5213 16.2097 14.6463 15.9908 14.8026C15.858 14.9042 15.7485 15.0371 15.7407 15.2403C15.7407 15.3497 15.7954 15.4748 15.8892 15.5529C15.983 15.6311 16.0924 15.6545 16.1862 15.6545C16.2097 15.6545 16.2331 15.6545 16.2487 15.6467H16.2644H16.28C16.4676 15.6076 16.7411 15.5842 17.0616 15.5373C17.3351 15.506 17.6321 15.4826 17.8822 15.4826C18.0619 15.4826 18.2261 15.4904 18.3355 15.5217C18.3902 15.5295 18.4293 15.5451 18.4527 15.5607C18.4605 15.5607 18.4684 15.5686 18.4684 15.5686C18.4762 15.5842 18.4762 15.6233 18.4762 15.678C18.4762 15.889 18.3902 16.2798 18.2651 16.6627C18.1479 17.0457 17.9994 17.4287 17.9056 17.6866C17.8822 17.7491 17.8666 17.8116 17.8666 17.882C17.8666 17.9836 17.9056 18.1086 17.9916 18.1946C18.0776 18.2806 18.1948 18.3118 18.2886 18.3118H18.2964C18.4371 18.3118 18.5621 18.2571 18.6637 18.1711C19.6407 17.2958 19.9768 15.889 19.9924 15.0996L19.9846 14.9824Z" fill="white" fill-opacity="0.94902"/>
<path fill-rule="evenodd" clip-rule="evenodd" d="M11.0513 5.56468C10.4807 5.61157 9.81641 5.65065 9.15209 5.73662C8.13607 5.86948 7.12005 6.04924 6.28378 6.44783C4.65033 7.11215 3.54834 8.51895 3.54834 10.5979C3.54834 13.2005 5.22868 14.5291 7.3467 14.5291C8.0501 14.5291 8.62845 14.4431 9.15209 14.3103C9.99617 14.0446 10.6996 13.56 11.5358 12.6768C12.0204 13.3412 12.1533 13.646 12.9895 14.3572C13.2084 14.4431 13.435 14.4431 13.607 14.3103C14.1384 13.8648 15.0685 13.0754 15.553 12.6299C15.7719 12.4502 15.7328 12.1844 15.5999 11.9656C15.1154 11.3482 14.6308 10.8167 14.6308 9.62095V5.65065C14.6308 3.9703 14.7637 2.43064 13.5288 1.28175C12.5128 0.351699 10.9262 0 9.68355 0H9.15209C6.90121 0.132864 4.51747 1.10199 3.98601 3.88433C3.90004 4.23603 4.16577 4.36889 4.33771 4.41579L6.80743 4.72841C7.07315 4.68152 7.20602 4.46268 7.2451 4.24385C7.46393 3.27472 8.26112 2.78234 9.14428 2.69637H9.32403C9.85549 2.69637 10.426 2.9152 10.7386 3.36069C11.0903 3.89215 11.0513 4.59555 11.0513 5.21298V5.56468ZM10.5667 10.8167C10.2541 11.4342 9.73044 11.8327 9.15209 11.9656C9.06612 11.9656 8.93326 12.0125 8.80039 12.0125C7.83126 12.0125 7.25291 11.2622 7.25291 10.1602C7.25291 8.7456 8.08918 8.08128 9.15209 7.77648C9.72263 7.64361 10.3869 7.59672 11.0513 7.59672V8.12818C11.0513 9.1442 11.0982 9.93357 10.5667 10.8167Z" fill="white" fill-opacity="0.94902"/>
</svg>
