<svg width="20" height="20" viewBox="0 0 20 20" fill="none" xmlns="http://www.w3.org/2000/svg">
<path d="M8.07119 9.68907C8.07119 9.68907 9.96305 9.5458 9.96305 7.28947C9.96305 5.03502 8.67993 3.92368 6.7187 3.92368L0 3.91309V16.3721H6.87495C6.87495 16.3721 10.3124 16.4805 10.3124 12.6344C10.3124 12.6344 10.5649 9.68907 8.07119 9.68907ZM2.49998 5.78193H5.93745C5.93745 5.78193 7.11369 5.80125 7.11369 7.32124C7.11369 8.89668 5.93745 8.89668 5.93745 8.89668H2.49998V5.78193ZM6.24995 14.5032H2.49998V10.7655H6.24995C6.24995 10.7655 8.12494 10.7848 8.12494 12.6344C8.12494 14.4839 6.51995 14.5032 6.24995 14.5032Z" fill="white" fill-opacity="0.94902"/>
<path d="M15.6249 7.02808C10.9293 7.02808 10.9375 11.7002 10.9375 11.7002C10.9375 11.7002 10.625 16.3723 15.6249 16.3723C15.6249 16.3723 19.9999 16.3723 19.9999 12.6346H17.4999C17.4999 12.6346 17.4999 14.5035 15.6249 14.5035C15.6249 14.5035 13.7499 14.5035 13.7499 12.0117C13.7499 12.0117 18.7499 12.0117 19.9999 12.0117C19.9999 10.7658 19.9999 7.02808 15.6249 7.02808ZM13.7499 10.7658C13.7499 10.7658 13.7087 8.89692 15.6249 8.89692C17.5405 8.89692 17.4999 10.7658 17.4999 10.7658H13.7499Z" fill="white" fill-opacity="0.94902"/>
<path d="M18.125 5.15906H13.125V6.40496H18.125V5.15906Z" fill="white" fill-opacity="0.94902"/>
</svg>
