<svg width="20" height="20" viewBox="0 0 20 20" fill="none" xmlns="http://www.w3.org/2000/svg">
<g clip-path="url(#clip0_2446_726)">
<path fill-rule="evenodd" clip-rule="evenodd" d="M10 20C15.5228 20 20 15.5228 20 10C20 4.47715 15.5228 0 10 0C4.47715 0 0 4.47715 0 10C0 15.5228 4.47715 20 10 20ZM8.61618 8.47327L14.4634 4.96494C14.8353 4.74177 15.2582 5.16465 15.0351 5.5366L11.5267 11.3838C11.4915 11.4425 11.4425 11.4915 11.3838 11.5267L5.53659 15.0351C5.16464 15.2582 4.74176 14.8354 4.96493 14.4634L8.47326 8.61619C8.50845 8.55754 8.55753 8.50846 8.61618 8.47327ZM10.8333 10C10.8333 10.4603 10.4602 10.8333 9.99998 10.8333C9.53974 10.8333 9.16665 10.4603 9.16665 10C9.16665 9.53978 9.53974 9.16668 9.99998 9.16668C10.4602 9.16668 10.8333 9.53978 10.8333 10Z" fill="white" fill-opacity="0.94902"/>
</g>
<defs>
<clipPath id="clip0_2446_726">
<rect width="20" height="20" fill="white"/>
</clipPath>
</defs>
</svg>
