<svg width="20" height="20" viewBox="0 0 20 20" fill="none" xmlns="http://www.w3.org/2000/svg">
<g clip-path="url(#clip0_2421_812)">
<path d="M13.7085 12.965C13.0618 13.5283 12.256 14.2283 10.7885 14.2283H9.91347C8.85263 14.2283 7.88847 13.8516 7.19847 13.1658C6.5243 12.4958 6.15263 11.5808 6.15263 10.5858V9.40995C6.15263 8.41495 6.5243 7.49829 7.19847 6.82912C7.88847 6.14412 8.85263 5.76579 9.91263 5.76579H10.7885C12.256 5.76579 13.0618 6.46745 13.7085 7.02912C14.3801 7.61329 14.961 8.11829 16.506 8.11829C16.7451 8.11829 16.981 8.09912 17.2101 8.06245L17.2043 8.04912C17.1115 7.82368 17.0029 7.60508 16.8793 7.39495L15.846 5.63912C14.8985 4.02829 13.146 3.03662 11.251 3.03662H9.1843C7.28847 3.03662 5.5368 4.02912 4.58847 5.63912L3.55513 7.39495C3.08973 8.18328 2.84424 9.082 2.84424 9.99745C2.84424 10.9129 3.08973 11.8116 3.55513 12.6L4.58847 14.3558C5.53597 15.9666 7.28847 16.9583 9.1843 16.9583H11.251C13.146 16.9583 14.8976 15.9658 15.846 14.3558L16.8793 12.6C17.0043 12.3875 17.1126 12.1691 17.2043 11.9458L17.2093 11.9325C16.9767 11.8958 16.7415 11.8774 16.506 11.8775C14.961 11.8775 14.381 12.3808 13.7085 12.965Z" fill="white"/>
<path d="M10.7881 6.83179H9.9123C8.29897 6.83179 7.2373 7.96262 7.2373 9.40929V10.586C7.2373 12.0326 8.29814 13.1635 9.9123 13.1635H10.7873C13.139 13.1635 12.9548 10.8118 16.504 10.8118C16.8448 10.8118 17.1806 10.8418 17.5081 10.9018C17.6159 10.3038 17.6159 9.69142 17.5081 9.09345C17.1771 9.15362 16.8413 9.18374 16.5048 9.18345C12.9548 9.18345 13.139 6.83179 10.7881 6.83179Z" fill="white"/>
<path d="M19.5475 11.7608C18.9405 11.3257 18.2437 11.0321 17.5083 10.9017L17.505 10.9183C17.4414 11.2654 17.3419 11.605 17.2083 11.9317C17.816 12.0234 18.3937 12.2563 18.895 12.6117C18.8925 12.6167 18.8917 12.6225 18.89 12.6283C18.6058 13.5314 18.1781 14.3829 17.6233 15.15C17.0713 15.9136 16.4036 16.5864 15.6442 17.1442C14.0641 18.3086 12.1511 18.9333 10.1883 18.9258C8.96 18.9258 7.7675 18.6892 6.64583 18.2242C5.56717 17.7782 4.58453 17.1286 3.75167 16.3108C2.92256 15.5006 2.25985 14.5362 1.80083 13.4717C1.32719 12.3745 1.08383 11.1917 1.08583 9.99667C1.08583 8.79 1.32667 7.62083 1.80083 6.52083C2.25987 5.45636 2.92258 4.49188 3.75167 3.68167C4.58453 2.86391 5.56717 2.21429 6.64583 1.76833C7.76872 1.30273 8.97274 1.06425 10.1883 1.06667C12.1742 1.06667 14.0608 1.6825 15.6442 2.8475C16.4042 3.40511 17.0725 4.07793 17.625 4.84167C18.1795 5.60885 18.6069 6.4603 18.8908 7.36333L18.8958 7.38C18.3949 7.73563 17.8175 7.96856 17.21 8.06C17.3433 8.39 17.4433 8.73 17.5058 9.07417L17.5083 9.09083C18.2441 8.9602 18.9411 8.66633 19.5483 8.23083C20.1292 7.80917 20.0175 7.3325 19.9292 7.05C18.6475 2.96667 14.7708 0 10.1892 0C4.56167 0.000833333 0 4.47583 0 9.99583C0 15.515 4.56167 19.99 10.1883 19.99C14.7717 19.99 18.6467 17.0233 19.9283 12.94C20.0167 12.6592 20.1292 12.1833 19.5475 11.7608Z" fill="white"/>
</g>
<defs>
<clipPath id="clip0_2421_812">
<rect width="20" height="20" fill="white"/>
</clipPath>
</defs>
</svg>
