<svg width="20" height="20" viewBox="0 0 20 20" fill="none" xmlns="http://www.w3.org/2000/svg">
<path d="M12.9167 10.8333C12.9167 12.4442 11.6108 13.75 10 13.75C8.38917 13.75 7.08333 12.4442 7.08333 10.8333C7.08333 9.22251 8.38917 7.91668 10 7.91668C11.6108 7.91668 12.9167 9.22251 12.9167 10.8333Z" fill="white" fill-opacity="0.94902"/>
<path fill-rule="evenodd" clip-rule="evenodd" d="M20 7.50001V15C20 17.3012 18.1345 19.1667 15.8333 19.1667H4.16667C1.86548 19.1667 0 17.3012 0 15V7.50001C0 5.19882 1.86548 3.33334 4.16667 3.33334H5.12739C5.53476 3.33334 5.88242 3.03883 5.94939 2.63701L6.01789 2.22601C6.15183 1.42236 6.84715 0.833344 7.66188 0.833344H12.3381C13.1529 0.833344 13.8482 1.42236 13.9821 2.22601L14.0506 2.63701C14.1176 3.03883 14.4652 3.33334 14.8726 3.33334H15.8333C18.1345 3.33334 20 5.19882 20 7.50001ZM10 15C12.3012 15 14.1667 13.1345 14.1667 10.8333C14.1667 8.53216 12.3012 6.66668 10 6.66668C7.69881 6.66668 5.83333 8.53216 5.83333 10.8333C5.83333 13.1345 7.69881 15 10 15ZM16.25 7.50001C16.5952 7.50001 16.875 7.22019 16.875 6.87501C16.875 6.52983 16.5952 6.25001 16.25 6.25001C15.9048 6.25001 15.625 6.52983 15.625 6.87501C15.625 7.22019 15.9048 7.50001 16.25 7.50001Z" fill="white" fill-opacity="0.94902"/>
</svg>
