<svg width="20" height="20" viewBox="0 0 20 20" fill="none" xmlns="http://www.w3.org/2000/svg">
<path fill-rule="evenodd" clip-rule="evenodd" d="M9.99951 0C4.47891 0 -0.000488281 4.47939 -0.000488281 10C-0.000488281 15.5206 4.47891 20 9.99951 20C15.5093 20 19.9995 15.5206 19.9995 10C19.9995 4.47939 15.5093 0 9.99951 0ZM16.6047 4.60954C17.7978 6.06291 18.5136 7.91756 18.5353 9.92406C18.2533 9.86987 15.4333 9.295 12.5917 9.65294C12.5266 9.51194 12.4724 9.36006 12.4073 9.20825C12.2338 8.79613 12.0386 8.37312 11.8433 7.97181C14.9886 6.692 16.4203 4.84816 16.6047 4.60954ZM9.99951 1.47506C12.1687 1.47506 14.1535 2.28851 15.6611 3.62256C15.5093 3.83948 14.2186 5.56399 11.1817 6.70281C9.78257 4.13232 8.23164 2.0282 7.99301 1.70282C8.63289 1.55097 9.30539 1.47506 9.99951 1.47506ZM6.36614 2.27766C6.59389 2.58134 8.11232 4.69631 9.53314 7.21256C5.54181 8.2755 2.01687 8.25381 1.63726 8.25381C2.1904 5.60738 3.97999 3.40564 6.36614 2.27766ZM1.45287 10.0109C1.45287 9.92406 1.45287 9.83731 1.45287 9.75056C1.82164 9.76137 5.96481 9.81562 10.2273 8.53581C10.4768 9.013 10.7045 9.50106 10.9214 9.98913C10.8129 10.0217 10.6936 10.0542 10.5852 10.0867C6.18172 11.5076 3.83899 15.3904 3.64376 15.7158C2.28801 14.2082 1.45287 12.2018 1.45287 10.0109ZM9.99951 18.5466C8.02551 18.5466 6.20342 17.8742 4.7609 16.7462C4.91274 16.4317 6.64807 13.0911 11.4637 11.41C11.4854 11.3991 11.4963 11.3991 11.5179 11.3883C12.7218 14.5011 13.2099 17.1149 13.3401 17.8633C12.3097 18.308 11.1817 18.5466 9.99951 18.5466ZM14.7609 17.0824C14.6741 16.5618 14.2186 14.0673 13.1014 10.9978C15.7804 10.5748 18.1231 11.269 18.416 11.3666C18.0473 13.7419 16.6806 15.7917 14.7609 17.0824Z" fill="white" fill-opacity="0.94902"/>
</svg>
