<svg width="24" height="20" viewBox="0 0 24 20" fill="none" xmlns="http://www.w3.org/2000/svg">
<path d="M0.370117 13.861C0.838275 13.8113 1.14071 13.7284 1.27743 13.6124C1.41829 13.4923 1.48873 13.1919 1.48873 12.7113V7.0499C1.48873 6.59832 1.42037 6.30417 1.28365 6.16745C1.14693 6.02659 0.842418 5.93958 0.370117 5.90644V5.67029H7.13148L7.17498 7.49735H6.85183C6.74411 6.9339 6.58253 6.56932 6.3671 6.4036C6.15166 6.23788 5.67108 6.15502 4.92534 6.15502H3.19771C3.01127 6.15502 2.89527 6.18609 2.8497 6.24824C2.80827 6.30624 2.78755 6.4181 2.78755 6.58382V9.42384H4.74512C5.28785 9.42384 5.63379 9.34305 5.78294 9.18147C5.93208 9.0199 6.05223 8.6926 6.14338 8.19959H6.44167V11.1453H6.14338C6.04809 10.6522 5.92587 10.327 5.77672 10.1696C5.62757 10.008 5.28371 9.92721 4.74512 9.92721H2.78755V13.078C2.78755 13.3307 2.86627 13.4798 3.0237 13.5254C3.18528 13.571 3.6638 13.5938 4.45925 13.5938C5.32099 13.5938 5.95694 13.5005 6.3671 13.3141C6.77726 13.1235 7.14598 12.6657 7.47328 11.9407H7.8275L7.24956 14.0909H0.370117V13.861Z" fill="white" fill-opacity="0.94902"/>
<path d="M11.2455 8.36116V8.8086H9.97772L9.96529 12.3882C9.96529 12.703 9.99222 12.9412 10.0461 13.1028C10.1455 13.3887 10.3402 13.5316 10.6302 13.5316C10.7794 13.5316 10.9078 13.4964 11.0155 13.426C11.1274 13.3555 11.2538 13.2437 11.3946 13.0904L11.5562 13.2271L11.4195 13.4135C11.204 13.7036 10.9762 13.9086 10.7359 14.0288C10.4956 14.1489 10.2636 14.209 10.0399 14.209C9.55099 14.209 9.21955 13.9915 9.04554 13.5565C8.95025 13.3203 8.90261 12.993 8.90261 12.5746V8.8086H8.22523C8.20452 8.79618 8.18794 8.78375 8.17552 8.77132C8.16723 8.75889 8.16309 8.74232 8.16309 8.7216C8.16309 8.68017 8.17137 8.6491 8.18794 8.62838C8.20866 8.60353 8.26873 8.54967 8.36816 8.46681C8.65403 8.23066 8.85911 8.04008 8.9834 7.89508C9.11183 7.74593 9.41013 7.35649 9.87829 6.72675C9.93214 6.72675 9.96322 6.73089 9.9715 6.73918C9.98393 6.74747 9.99015 6.77854 9.99015 6.8324V8.36116H11.2455Z" fill="white" fill-opacity="0.94902"/>
<path d="M12.2087 12.1334H12.4138C12.5091 12.6057 12.6375 12.9682 12.7991 13.2209C13.0891 13.6849 13.5138 13.9169 14.0731 13.9169C14.3838 13.9169 14.6282 13.832 14.8064 13.6621C14.9887 13.4881 15.0798 13.2644 15.0798 12.991C15.0798 12.817 15.028 12.6492 14.9245 12.4876C14.8209 12.326 14.6386 12.1686 14.3776 12.0153L13.6816 11.6176C13.172 11.3441 12.797 11.0686 12.5567 10.791C12.3164 10.5134 12.1963 10.1861 12.1963 9.80914C12.1963 9.34512 12.362 8.96397 12.6934 8.66567C13.0249 8.36738 13.4413 8.21823 13.9426 8.21823C14.1621 8.21823 14.4024 8.25966 14.6634 8.34252C14.9286 8.42538 15.0777 8.46681 15.1109 8.46681C15.1855 8.46681 15.2393 8.45645 15.2725 8.43574C15.3056 8.41502 15.3346 8.38188 15.3595 8.3363H15.5086L15.5521 10.0701H15.3595C15.2766 9.66828 15.1647 9.35548 15.0239 9.13176C14.767 8.71746 14.3962 8.51031 13.9115 8.51031C13.6215 8.51031 13.3936 8.59938 13.2279 8.77753C13.0622 8.95568 12.9793 9.1649 12.9793 9.4052C12.9793 9.78635 13.2652 10.1261 13.8369 10.4244L14.6572 10.8656C15.5397 11.3462 15.9809 11.9055 15.9809 12.5435C15.9809 13.0324 15.7965 13.4322 15.4278 13.7429C15.0632 14.0536 14.5847 14.209 13.9923 14.209C13.7437 14.209 13.462 14.1676 13.1471 14.0847C12.8322 14.0018 12.6458 13.9604 12.5878 13.9604C12.5381 13.9604 12.4946 13.9791 12.4573 14.0163C12.42 14.0495 12.391 14.0909 12.3703 14.1406H12.2087V12.1334Z" fill="white" fill-opacity="0.94902"/>
<path d="M16.6832 8.37981H19.3057V8.57245C19.0985 8.5766 18.9452 8.59524 18.8458 8.62838C18.6552 8.68224 18.5599 8.78789 18.5599 8.94532C18.5599 9.00333 18.5703 9.0634 18.591 9.12554C18.6117 9.18355 18.649 9.27262 18.7029 9.39277L20.157 12.6181L21.3254 9.36791C21.3378 9.33476 21.3564 9.26019 21.3813 9.14419C21.4103 9.02818 21.4248 8.94947 21.4248 8.90804C21.4248 8.80032 21.3875 8.7216 21.3129 8.67189C21.2384 8.62217 21.1431 8.59317 21.0271 8.58488L20.8344 8.57245V8.37981H22.5434V8.57245C22.3736 8.59317 22.2451 8.65117 22.1581 8.74646C22.0753 8.84175 22.0028 8.97432 21.9406 9.14419L19.983 14.3271C19.6433 15.222 19.3181 15.8703 19.0074 16.2722C18.6966 16.6741 18.3031 16.875 17.8266 16.875C17.5946 16.875 17.3771 16.817 17.1741 16.701C16.9711 16.585 16.8696 16.4006 16.8696 16.1479C16.8696 15.9822 16.9297 15.8455 17.0498 15.7378C17.1741 15.6342 17.3295 15.5824 17.5159 15.5824C17.6236 15.5824 17.7831 15.6218 17.9944 15.7005C18.2098 15.7792 18.3631 15.8185 18.4543 15.8185C18.6863 15.8185 18.9307 15.5493 19.1876 15.0107C19.4445 14.4721 19.5729 14.1116 19.5729 13.9293C19.5729 13.8921 19.5667 13.8465 19.5542 13.7926C19.5418 13.7388 19.5273 13.6911 19.5107 13.6497L17.5221 9.34927C17.3812 9.04268 17.257 8.84175 17.1492 8.74646C17.0457 8.64703 16.8903 8.58281 16.6832 8.55381V8.37981Z" fill="white" fill-opacity="0.94902"/>
</svg>
