<svg width="20" height="20" viewBox="0 0 20 20" fill="none" xmlns="http://www.w3.org/2000/svg">
<g clip-path="url(#clip0_2403_766)">
<path d="M17.9891 3.62906C17.9891 2.34939 16.0871 2.20372 16.0871 2.20372L11.6216 1.91679C11.6216 1.91679 11.5288 0.68139 10.6242 0.253323C10.1169 0.0105896 8.54165 -0.015877 7.06331 0.00625629C6.72351 0.0105896 6.44998 0.288523 6.44998 0.62839V3.47006C6.44998 3.93339 6.07498 4.30846 5.61158 4.30846H2.91525C2.20938 4.30846 1.65771 4.58212 1.65771 5.16459C1.65771 5.74706 2.48725 11.9955 3.63445 13.1382C4.29638 13.8002 8.35171 14.3121 9.20785 14.3121C10.0639 14.3121 9.77698 11.7702 10.0154 11.7702C10.2535 11.7702 10.514 13.231 11.8598 13.5708C13.2056 13.9105 15.0016 13.8531 15.0943 14.8283C15.2179 16.1124 15.3326 17.7761 14.4986 17.8907L12.6186 17.9701C12.0628 17.9701 12.1288 16.4433 12.2436 16.4433C12.4335 16.4433 12.5922 16.439 12.7202 16.439C12.9321 16.4346 13.1042 16.2626 13.113 16.0506L13.1484 15.2563C13.1571 15.027 12.9762 14.8328 12.7468 14.8328C11.926 14.8195 10.1829 14.9827 10.0904 16.5273C9.97558 18.3806 10.289 19.25 10.5184 19.4396C10.7478 19.6295 11.145 20.0001 14.759 20.0001C19.86 20 17.9891 4.90872 17.9891 3.62906ZM15.5134 9.78466C15.3856 9.90379 14.8339 9.43606 14.3972 9.43606C13.9602 9.43606 13.5852 9.79339 13.4704 9.65679C13.36 9.52426 13.5719 8.43872 14.3972 8.43872C15.2222 8.43872 15.6414 9.66546 15.5134 9.78466Z" fill="white" fill-opacity="0.94902"/>
<path d="M4.8967 0.52252L2.6639 2.81705C2.48737 2.99792 2.6153 3.29792 2.86677 3.29792H5.0997C5.25863 3.29792 5.38217 3.17005 5.38217 3.01565V0.721054C5.3863 0.46512 5.07757 0.33712 4.8967 0.52252Z" fill="white" fill-opacity="0.94902"/>
</g>
<defs>
<clipPath id="clip0_2403_766">
<rect width="20" height="20" fill="white" transform="translate(-0.00927734)"/>
</clipPath>
</defs>
</svg>
