<svg width="20" height="20" viewBox="0 0 20 20" fill="none" xmlns="http://www.w3.org/2000/svg">
<g clip-path="url(#clip0_2443_874)">
<path d="M10.7212 9.91123C10.7212 12.4389 12.7985 14.4885 15.3608 14.4885C17.9227 14.4885 19.9996 12.4389 19.9996 9.91123C19.9996 7.38353 17.9227 5.33435 15.3608 5.33435C12.7985 5.33435 10.7212 7.38353 10.7212 9.91123V9.91123Z" fill="white" fill-opacity="0.94902"/>
<path d="M0 9.91123C0 12.4389 2.07689 14.4885 4.63919 14.4885C7.20149 14.4885 9.27839 12.4389 9.27839 9.91123C9.27839 7.38353 7.20149 5.33435 4.63919 5.33435C2.07689 5.33435 0 7.38353 0 9.91123V9.91123Z" fill="white" fill-opacity="0.94902"/>
</g>
<defs>
<clipPath id="clip0_2443_874">
<rect width="20" height="9.15618" fill="white" transform="translate(0 5.33337)"/>
</clipPath>
</defs>
</svg>
