<svg width="20" height="20" viewBox="0 0 20 20" fill="none" xmlns="http://www.w3.org/2000/svg">
<path fill-rule="evenodd" clip-rule="evenodd" d="M11.6954 0.893935C11.6411 0.385591 11.2122 0 10.701 0H9.29901C8.78778 0 8.35887 0.385591 8.30465 0.893935L8.16141 2.23682C8.1176 2.6475 7.82332 2.98285 7.43637 3.12725C7.27254 3.18838 7.11149 3.25521 6.95345 3.32748C6.57775 3.4993 6.13241 3.4703 5.81095 3.21082L4.75982 2.36231C4.36202 2.0412 3.78608 2.07183 3.42459 2.43332L2.43324 3.42468C2.07174 3.78617 2.04111 4.36211 2.36222 4.7599L3.21076 5.81107C3.47024 6.13252 3.49924 6.57786 3.32744 6.95355C3.25518 7.11156 3.18837 7.27258 3.12725 7.43637C2.98285 7.82332 2.6475 8.1176 2.23682 8.16141L0.893935 8.30465C0.385591 8.35887 1.69504e-08 8.78778 3.92969e-08 9.29901L1.0058e-07 10.701C1.22926e-07 11.2122 0.385591 11.6411 0.893935 11.6954L2.23682 11.8386C2.6475 11.8824 2.98285 12.1767 3.12725 12.5636C3.18837 12.7274 3.25518 12.8884 3.32743 13.0464C3.49924 13.4221 3.47024 13.8675 3.21076 14.1889L2.36215 15.2402C2.04103 15.638 2.07167 16.2139 2.43316 16.5754L3.42451 17.5668C3.78601 17.9283 4.36194 17.9589 4.75974 17.6378L5.81097 16.7892C6.13242 16.5297 6.57777 16.5007 6.95346 16.6725C7.1115 16.7448 7.27255 16.8116 7.43637 16.8728C7.82332 17.0172 8.1176 17.3525 8.16141 17.7632L8.30465 19.1061C8.35887 19.6144 8.78778 20 9.29901 20H10.701C11.2122 20 11.6411 19.6144 11.6954 19.1061L11.8386 17.7632C11.8824 17.3525 12.1767 17.0172 12.5636 16.8728C12.7274 16.8116 12.8884 16.7448 13.0464 16.6726C13.4221 16.5008 13.8675 16.5298 14.1889 16.7892L15.2401 17.6378C15.6379 17.9589 16.2139 17.9283 16.5754 17.5668L17.5667 16.5755C17.9282 16.214 17.9588 15.638 17.6377 15.2402L16.7892 14.189C16.5297 13.8676 16.5007 13.4222 16.6725 13.0465C16.7448 12.8885 16.8116 12.7275 16.8728 12.5636C17.0172 12.1767 17.3525 11.8824 17.7632 11.8386L19.1061 11.6954C19.6144 11.6411 20 11.2122 20 10.701V9.29901C20 8.78778 19.6144 8.35887 19.1061 8.30465L17.7632 8.16141C17.3525 8.1176 17.0172 7.82331 16.8728 7.43637C16.8116 7.27254 16.7448 7.11148 16.6725 6.95344C16.5007 6.57775 16.5297 6.13241 16.7892 5.81095L17.6377 4.75985C17.9588 4.36206 17.9281 3.78612 17.5666 3.42463L16.5753 2.43327C16.2138 2.07178 15.6379 2.04115 15.2401 2.36226L14.1889 3.21076C13.8675 3.47025 13.4222 3.49925 13.0465 3.32744C12.8884 3.25518 12.7274 3.18837 12.5636 3.12725C12.1767 2.98285 11.8824 2.6475 11.8386 2.23682L11.6954 0.893935ZM10 14C12.2091 14 14 12.2091 14 10C14 7.79086 12.2091 6 10 6C7.79086 6 6 7.79086 6 10C6 12.2091 7.79086 14 10 14Z" fill="white" fill-opacity="0.94902"/>
</svg>
