<svg width="25" height="20" viewBox="0 0 25 20" fill="none" xmlns="http://www.w3.org/2000/svg">
<path d="M15.1571 5.98959C15.1571 8.85418 12.8654 11.7188 10.0008 11.7188C7.13622 11.7188 4.84455 8.85418 4.84455 5.98959C4.84455 3.12501 7.13622 0.833344 10.0008 0.833344C12.8654 0.833344 15.1571 3.12501 15.1571 5.98959Z" fill="white" fill-opacity="0.94902"/>
<path d="M1.12163 19.1667C0.969449 19.1667 0.858461 19.0334 0.908504 18.8897C1.22449 17.9823 2.78758 15.1563 10.0008 15.1563C17.2142 15.1563 18.776 17.9824 19.0915 18.8898C19.1415 19.0335 19.0305 19.1667 18.8784 19.1667H1.12163Z" fill="white" fill-opacity="0.94902"/>
<path d="M15.1571 5.98959C15.1571 8.85418 12.8654 11.7188 10.0008 11.7188C7.13622 11.7188 4.84455 8.85418 4.84455 5.98959C4.84455 3.12501 7.13622 0.833344 10.0008 0.833344C12.8654 0.833344 15.1571 3.12501 15.1571 5.98959Z" stroke="white" stroke-opacity="0.94902" stroke-width="1.5" stroke-linecap="round"/>
<path d="M1.12163 19.1667C0.969449 19.1667 0.858461 19.0334 0.908504 18.8897C1.22449 17.9823 2.78758 15.1563 10.0008 15.1563C17.2142 15.1563 18.776 17.9824 19.0915 18.8898C19.1415 19.0335 19.0305 19.1667 18.8784 19.1667H1.12163Z" stroke="white" stroke-opacity="0.94902" stroke-width="1.5" stroke-linecap="round"/>
<path fill-rule="evenodd" clip-rule="evenodd" d="M16.0187 10.8174C17.505 9.74668 18.3335 7.98966 18.3335 6.11111C18.3335 4.08278 17.3416 2.22016 15.6538 1.37647C16.1437 1.20451 16.6717 1.11111 17.2231 1.11111C19.8272 1.11111 21.9106 3.19445 21.9106 5.79861C21.9106 8.40278 19.8272 11.0069 17.2231 11.0069C16.8061 11.0069 16.4025 10.9402 16.0187 10.8174Z" fill="white" fill-opacity="0.94902"/>
<path d="M17.2231 14.1319C22.286 14.1319 23.56 16.3449 23.889 17.2222C23.9484 17.3805 23.889 17.7778 23.3335 17.7778H22.5151C22.072 17.7778 21.671 17.4853 21.4307 17.113C20.9348 16.3446 19.775 15.0663 17.2231 14.1319Z" fill="white" fill-opacity="0.94902"/>
</svg>
