<svg width="20" height="20" viewBox="0 0 20 20" fill="none" xmlns="http://www.w3.org/2000/svg">
<path d="M7.70825 1.91826L1.97909 7.64715V15.6682C1.97909 17.5544 3.51811 19.1055 5.41658 19.1055H7.13533V16.8139C7.13533 16.8139 7.70825 14.5222 9.99992 14.5222C12.2916 14.5222 12.8645 16.8139 12.8645 16.8139V19.1055L14.5833 19.1056C16.4817 19.1056 18.0208 17.5544 18.0208 15.6682V7.64715L12.2916 1.91807C10.9326 0.47144 9.06722 0.471622 7.70825 1.91826Z" fill="white" fill-opacity="0.94902"/>
<path d="M1.97909 7.64715L7.70825 1.91826C9.06722 0.471622 10.9326 0.47144 12.2916 1.91807L18.0208 7.64715M1.97909 7.64715L0.833252 8.79287M1.97909 7.64715V15.6682C1.97909 17.5544 3.51811 19.1055 5.41658 19.1055H7.13533V16.8139C7.13533 16.8139 7.70825 14.5222 9.99992 14.5222C12.2916 14.5222 12.8645 16.8139 12.8645 16.8139V19.1055L14.5833 19.1056C16.4817 19.1056 18.0208 17.5544 18.0208 15.6682V7.64715M19.1666 8.79287L18.0208 7.64715" stroke="white" stroke-opacity="0.94902" stroke-width="1.5" stroke-miterlimit="16" stroke-linecap="round"/>
</svg>
