<svg width="20" height="20" viewBox="0 0 20 20" fill="none" xmlns="http://www.w3.org/2000/svg">
<path fill-rule="evenodd" clip-rule="evenodd" d="M0 3.75001C0 2.48436 1.02601 1.45834 2.29167 1.45834H17.7083C18.974 1.45834 20 2.48436 20 3.75001V16.25C20 17.5157 18.974 18.5417 17.7083 18.5417H2.29167C1.02601 18.5417 0 17.5157 0 16.25L0 3.75001ZM7.91702 5.00001C6.38311 5.00001 5.18265 6.26185 5.18265 7.79606C5.18265 8.55471 5.47452 9.29858 5.9448 9.85707C6.41605 10.4167 7.1068 10.8333 7.91702 10.8333C8.72724 10.8333 9.41799 10.4167 9.88924 9.85707C10.3595 9.29858 10.6514 8.55471 10.6514 7.79606C10.6514 6.26185 9.45093 5.00001 7.91702 5.00001ZM4.8374 12.7206C5.50946 12.3473 6.4885 12.0833 7.91667 12.0833C9.34489 12.0833 10.3246 12.3474 10.9966 12.7207C11.6769 13.0986 12.0082 13.5702 12.1629 13.9149C12.2847 14.1861 12.2417 14.4853 12.0745 14.7053C11.9164 14.9134 11.6725 15.0219 11.4274 15.0219H4.40601C4.1609 15.0219 3.91692 14.9133 3.75881 14.7052C3.59162 14.4851 3.54871 14.1858 3.67063 13.9146C3.8255 13.57 4.157 13.0985 4.8374 12.7206Z" fill="white" fill-opacity="0.94902"/>
</svg>
