<svg width="22" height="21" viewBox="0 0 22 21" fill="none" xmlns="http://www.w3.org/2000/svg">
<path d="M5.29629 20.2388V6.74435H0.814928V20.2388H5.29676H5.29629ZM3.05655 4.90222C4.61896 4.90222 5.59167 3.86601 5.59167 2.57103C5.56243 1.24655 4.61896 0.239258 3.08626 0.239258C1.5525 0.239258 0.550781 1.24655 0.550781 2.57092C0.550781 3.86589 1.52314 4.90211 3.02718 4.90211H3.05619L3.05655 4.90222ZM7.77679 20.2388H12.2578V12.7037C12.2578 12.3009 12.287 11.8971 12.4054 11.6094C12.7292 10.8033 13.4666 9.96879 14.7048 9.96879C16.326 9.96879 16.9749 11.2062 16.9749 13.0204V20.2388H21.4558V12.5015C21.4558 8.35674 19.2453 6.42798 16.297 6.42798C13.8798 6.42798 12.8181 7.78021 12.2283 8.70121H12.2581V6.74481H7.77702C7.83551 8.01075 7.77667 20.2393 7.77667 20.2393L7.77679 20.2388Z" fill="white" fill-opacity="0.94902"/>
</svg>
