<svg width="24" height="25" viewBox="0 0 24 25" fill="none" xmlns="http://www.w3.org/2000/svg">
<g clip-path="url(#clip0_148_562)">
<path d="M14.8284 9.45337L9.17158 15.1102" stroke="black" stroke-opacity="0.85098" stroke-width="3" stroke-linecap="round"/>
<path d="M21.8995 2.38233C24.4379 4.92073 24.5551 8.91912 22.2531 11.2212L18.7854 14.6889C18.7425 14.7317 18.6832 14.753 18.6235 14.7425C18.2756 14.6817 17.0927 14.3959 17.3033 13.3425C17.6569 11.5747 22.7834 8.92306 19.0711 5.21075C15.3588 1.49844 12.7072 6.62497 10.9394 6.97852C9.88601 7.1892 9.60013 6.00626 9.53933 5.65838C9.52889 5.59863 9.55012 5.53936 9.59301 5.49647L13.0607 2.02877C15.3627 -0.273264 19.3611 -0.156081 21.8995 2.38233Z" fill="black" fill-opacity="0.85098"/>
<path d="M2.10055 22.1813C-0.437859 19.6429 -0.555042 15.6445 1.747 13.3425L5.21469 9.87479C5.25758 9.8319 5.31686 9.81067 5.3766 9.82111C5.72448 9.88191 6.90742 10.1678 6.69674 11.2212C6.34319 12.9889 1.21667 15.6406 4.92898 19.3529C8.64129 23.0652 11.2929 17.9387 13.0607 17.5851C14.1141 17.3744 14.4 18.5574 14.4608 18.9053C14.4712 18.965 14.45 19.0243 14.4071 19.0672L10.9394 22.5349C8.63735 24.8369 4.63896 24.7197 2.10055 22.1813Z" fill="black" fill-opacity="0.85098"/>
</g>
<defs>
<clipPath id="clip0_148_562">
<rect width="24" height="24" fill="white" transform="translate(0 0.281799)"/>
</clipPath>
</defs>
</svg>
