<svg width="20" height="21" viewBox="0 0 20 21" fill="none" xmlns="http://www.w3.org/2000/svg">
<path d="M12.3571 7.9248L7.64301 12.6389" stroke="white" stroke-opacity="0.94902" stroke-width="2.5" stroke-linecap="round"/>
<path d="M18.2496 2.03225C20.3649 4.14759 20.4626 7.47958 18.5442 9.39794L15.6658 12.2764C15.6229 12.3193 15.5631 12.3405 15.5035 12.3295C15.195 12.2731 14.247 12.0279 14.4194 11.1657C14.7141 9.69257 18.9862 7.48286 15.8926 4.38927C12.799 1.29568 10.5893 5.56778 9.11613 5.86241C8.25391 6.03486 8.00875 5.08684 7.9523 4.77838C7.94138 4.71872 7.96257 4.65895 8.00546 4.61606L10.8839 1.73762C12.8023 -0.180744 16.1343 -0.0830909 18.2496 2.03225Z" fill="white" fill-opacity="0.94902"/>
<path d="M1.75044 18.5314C-0.364902 16.4161 -0.462555 13.0841 1.45581 11.1657L4.33425 8.28727C4.37714 8.24439 4.43691 8.22319 4.49657 8.23411C4.80502 8.29056 5.75304 8.53572 5.5806 9.39794C5.28597 10.8711 1.01387 13.0808 4.10746 16.1744C7.20105 19.268 9.41076 14.9959 10.8839 14.7012C11.7461 14.5288 11.9913 15.4768 12.0477 15.7853C12.0587 15.8449 12.0375 15.9047 11.9946 15.9476L9.11613 18.826C7.19777 20.7444 3.86578 20.6467 1.75044 18.5314Z" fill="white" fill-opacity="0.94902"/>
</svg>
