<svg width="20" height="20" viewBox="0 0 20 20" fill="none" xmlns="http://www.w3.org/2000/svg">
<g clip-path="url(#clip0_2383_1552)">
<path d="M18.2496 1.75045C20.3649 3.86579 20.4626 7.19778 18.5442 9.11614L15.6658 11.9946C15.6229 12.0375 15.5631 12.0587 15.5035 12.0477C15.195 11.9913 14.247 11.7461 14.4194 10.8839C14.7141 9.41077 16.6291 7.20106 14.7141 5.28598C12.799 3.3709 10.5893 5.28598 9.11613 5.58061C8.25391 5.75306 8.00875 4.80504 7.9523 4.49658C7.94138 4.43692 7.96257 4.37715 8.00546 4.33426L10.8839 1.45582C12.8023 -0.462543 16.1343 -0.36489 18.2496 1.75045Z" fill="white" fill-opacity="0.94902"/>
<path d="M1.75044 18.2496C-0.364902 16.1343 -0.462555 12.8023 1.45581 10.8839L4.33425 8.00547C4.37714 7.96259 4.43691 7.94139 4.49657 7.95231C4.80502 8.00876 5.75304 8.25392 5.5806 9.11614C5.28597 10.5893 3.37089 12.799 5.28597 14.7141C7.20105 16.6292 9.41076 14.7141 10.8839 14.4194C11.7461 14.247 11.9913 15.195 12.0477 15.5035C12.0587 15.5631 12.0375 15.6229 11.9946 15.6658L9.11613 18.5442C7.19777 20.4626 3.86578 20.3649 1.75044 18.2496Z" fill="white" fill-opacity="0.94902"/>
<path d="M12.3569 7.64301L7.64289 12.3571" stroke="white" stroke-opacity="0.94902" stroke-width="3" stroke-linecap="round"/>
</g>
<defs>
<clipPath id="clip0_2383_1552">
<rect width="20" height="20" fill="white"/>
</clipPath>
</defs>
</svg>
