<svg width="17" height="21" viewBox="0 0 17 21" fill="none" xmlns="http://www.w3.org/2000/svg">
<path d="M8.33336 0.563477C3.73107 0.563477 0 4.21257 0 8.71375C0 14.0737 5.41819 16.6396 6.09699 17.2367C6.79017 17.8466 7.47728 18.9023 7.70833 19.6772C7.82046 20.0537 8.125 20.5554 8.33336 20.5635C8.54167 20.5635 8.84622 20.0529 8.95833 19.6772C9.1894 18.9023 9.87654 17.8472 10.5697 17.2367C11.2485 16.6396 16.6667 14.0737 16.6667 8.71375C16.6667 4.21257 12.9356 0.563477 8.33336 0.563477ZM8.33336 10.9365C7.07805 10.9365 6.06063 9.94148 6.06063 8.71375C6.06063 7.48603 7.07805 6.49094 8.33336 6.49094C9.58865 6.49094 10.6061 7.48603 10.6061 8.71375C10.6061 9.94148 9.58865 10.9365 8.33336 10.9365Z" fill="white" fill-opacity="0.94902"/>
</svg>
