<svg width="20" height="20" viewBox="0 0 20 20" fill="none" xmlns="http://www.w3.org/2000/svg">
<path fill-rule="evenodd" clip-rule="evenodd" d="M0 9.69973C0 4.12739 4.36738 0 9.99973 0C15.6321 0 19.9995 4.12989 19.9995 9.70223C19.9995 15.2746 15.6321 19.402 9.99973 19.402C8.98725 19.402 8.01728 19.267 7.1048 19.017C6.92731 18.9695 6.73731 18.982 6.56982 19.057L4.58487 19.932C4.46499 19.9848 4.33396 20.0075 4.20328 19.9978C4.07261 19.9882 3.9463 19.9467 3.83545 19.8768C3.7246 19.8069 3.63261 19.7109 3.56757 19.5972C3.50252 19.4834 3.46641 19.3554 3.4624 19.2245L3.40741 17.4445C3.40241 17.2245 3.30241 17.0195 3.13991 16.8745C1.19497 15.1346 0 12.6147 0 9.69973ZM6.93232 7.87729L3.9949 12.5372C3.71241 12.9846 4.26239 13.4871 4.68238 13.1671L7.83729 10.7722C7.9411 10.6934 8.06776 10.6505 8.19812 10.65C8.32847 10.6496 8.45542 10.6916 8.55977 10.7697L10.8972 12.5222C11.063 12.6467 11.2528 12.7355 11.4546 12.7829C11.6565 12.8304 11.866 12.8355 12.0699 12.7979C12.2738 12.7603 12.4677 12.6808 12.6393 12.5645C12.811 12.4482 12.9566 12.2976 13.0672 12.1222L16.0071 7.4648C16.2871 7.01731 15.7371 6.51232 15.3171 6.83231L12.1622 9.22725C12.0584 9.30609 11.9317 9.34899 11.8014 9.34944C11.671 9.34989 11.544 9.30787 11.4397 9.22975L9.10226 7.4773C8.93647 7.35278 8.74666 7.264 8.54482 7.21654C8.34299 7.16908 8.1335 7.16399 7.9296 7.20157C7.72569 7.23916 7.5318 7.31861 7.36014 7.43491C7.18849 7.55122 7.04282 7.70184 6.93232 7.87729Z" fill="white" fill-opacity="0.94902"/>
</svg>
