<svg width="20" height="20" viewBox="0 0 20 20" fill="none" xmlns="http://www.w3.org/2000/svg">
<path fill-rule="evenodd" clip-rule="evenodd" d="M10 20C15.5228 20 20 15.5228 20 10C20 4.47715 15.5228 0 10 0C4.47715 0 0 4.47715 0 10C0 11.8978 0.528673 13.6722 1.44678 15.1838L0 20L5.02253 18.6752C6.48829 19.518 8.18785 20 10 20ZM11.6154 11.6445C11.7848 11.5682 11.9811 11.5885 12.13 11.7001C12.5834 12.0397 13.5612 12.772 14.0146 13.1113C14.1962 13.2473 14.2649 13.4835 14.187 13.6968C14.1104 13.9046 13.9528 14.1677 13.6286 14.4258C12.6157 15.2321 11.0277 15.5405 7.99672 11.733C4.96573 7.92558 5.62277 6.44682 6.63524 5.64084C6.95862 5.38304 7.25 5.28798 7.46925 5.26034C7.69501 5.23144 7.91123 5.35311 8.00344 5.56098L8.95421 7.70983C9.02962 7.87998 9.00639 8.07753 8.89367 8.22552L8.32341 8.97506C8.19571 9.14284 8.18276 9.36902 8.2929 9.54868C8.4833 9.85924 8.806 10.3611 9.16023 10.8061C9.51446 11.2511 9.93122 11.6781 10.1912 11.9333C10.3416 12.0809 10.5649 12.119 10.757 12.0321L11.6154 11.6445Z" fill="white" fill-opacity="0.94902"/>
</svg>
