<svg width="20" height="20" viewBox="0 0 20 20" fill="none" xmlns="http://www.w3.org/2000/svg">
<path fill-rule="evenodd" clip-rule="evenodd" d="M11.9829 4.16785L15.8322 8.01718L4.6466 19.2028C4.13612 19.7132 3.44376 20 2.7219 20H0V17.2781C0 16.5562 0.286799 15.8639 0.797226 15.3535L11.9829 4.16785ZM15.8744 0.276281L14.4785 1.67217L18.2941 5.5215L19.7237 4.12561C19.8466 4.00269 20 3.70128 20 3.25843C20 2.81558 19.8467 2.51419 19.7237 2.39127L17.6088 0.276276C17.4859 0.153331 17.1845 -5.60983e-07 16.7416 0C16.2988 5.60986e-07 15.9974 0.153339 15.8744 0.276281Z" fill="white" fill-opacity="0.94902"/>
</svg>
