<svg width="18" height="20" viewBox="0 0 18 20" fill="none" xmlns="http://www.w3.org/2000/svg">
<path d="M13.1059 13.3164C12.7982 13.0857 12.3925 13.0438 12.0424 13.2014L10.2687 14.0025C9.87163 14.182 9.41013 14.1033 9.09934 13.7982C8.56213 13.2709 7.70089 12.3885 6.96888 11.469C6.23687 10.5494 5.57003 9.51227 5.17657 8.8705C4.94897 8.49923 4.97572 8.03183 5.23962 7.68512L6.41804 6.13621C6.65098 5.8304 6.69897 5.42216 6.54316 5.07056L4.5784 0.629989C4.38785 0.200422 3.94103 -0.0509884 3.47451 0.0087138C3.02143 0.0658313 2.41931 0.262287 1.75104 0.795013C-0.341209 2.46057 -1.69897 5.51639 4.56451 13.3845C10.828 21.2525 14.1095 20.6152 16.2027 18.9489C16.8727 18.4156 17.1984 17.8719 17.3565 17.4424C17.5176 17.0018 17.3756 16.5136 17.0005 16.2325C16.0635 15.5315 14.0427 14.0182 13.1059 13.3164Z" fill="white" fill-opacity="0.94902"/>
</svg>
