<svg width="20" height="20" viewBox="0 0 20 20" fill="none" xmlns="http://www.w3.org/2000/svg">
<path d="M16.4286 5C16.4286 5.78898 15.789 6.42857 15 6.42857C14.211 6.42857 13.5714 5.78898 13.5714 5C13.5714 4.21102 14.211 3.57143 15 3.57143C15.789 3.57143 16.4286 4.21102 16.4286 5Z" fill="white" fill-opacity="0.94902"/>
<path fill-rule="evenodd" clip-rule="evenodd" d="M16.4286 0C18.401 0 20 1.59898 20 3.57143V16.4286C20 18.401 18.401 20 16.4286 20H3.57143C1.59898 20 0 18.401 0 16.4286V3.57143C0 1.59898 1.59898 0 3.57143 0H16.4286ZM15 1.42857H5C2.14286 1.42857 1.42857 2.14286 1.42857 5V11.4286L6.42857 7.14286L11.4286 12.8571L14.2857 10L18.5714 14.2857V5C18.5714 2.14286 17.8571 1.42857 15 1.42857ZM16.4286 5C16.4286 5.78898 15.789 6.42857 15 6.42857C14.211 6.42857 13.5714 5.78898 13.5714 5C13.5714 4.21102 14.211 3.57143 15 3.57143C15.789 3.57143 16.4286 4.21102 16.4286 5Z" fill="white" fill-opacity="0.94902"/>
</svg>
