<svg width="20" height="20" viewBox="0 0 20 20" fill="none" xmlns="http://www.w3.org/2000/svg">
<path fill-rule="evenodd" clip-rule="evenodd" d="M15.2085 4.37501H4.79183H3.54183H2.50016C1.23451 4.37501 0.208496 5.40102 0.208496 6.66668V13.3333C0.208496 14.599 1.23451 15.625 2.50016 15.625H3.54183V13.75C3.54183 12.4844 4.56784 11.4583 5.8335 11.4583H14.1668C15.4325 11.4583 16.4585 12.4844 16.4585 13.75V15.625H17.5002C18.7658 15.625 19.7918 14.599 19.7918 13.3333V6.66668C19.7918 5.40102 18.7658 4.37501 17.5002 4.37501H16.4585H15.2085ZM4.79183 13.75C4.79183 13.1747 5.2582 12.7083 5.8335 12.7083H14.1668C14.7421 12.7083 15.2085 13.1747 15.2085 13.75V17.5C15.2085 18.0753 14.7421 18.5417 14.1668 18.5417H5.8335C5.2582 18.5417 4.79183 18.0753 4.79183 17.5V13.75ZM4.16683 7.29168C3.82165 7.29168 3.54183 7.5715 3.54183 7.91668C3.54183 8.26185 3.82165 8.54168 4.16683 8.54168H5.8335C6.17867 8.54168 6.4585 8.26185 6.4585 7.91668C6.4585 7.5715 6.17867 7.29168 5.8335 7.29168H4.16683Z" fill="white" fill-opacity="0.94902"/>
<path d="M5.8335 0.208344C5.2582 0.208344 4.79183 0.674714 4.79183 1.25001V3.12501H15.2085V1.25001C15.2085 0.674714 14.7421 0.208344 14.1668 0.208344H5.8335Z" fill="white" fill-opacity="0.94902"/>
</svg>
