<svg width="21" height="21" viewBox="0 0 21 21" fill="none" xmlns="http://www.w3.org/2000/svg">
<path d="M11.1336 16.1234C10.4379 14.7595 9.62177 13.3819 8.02977 13.3819C7.72545 13.3819 7.42149 13.4321 7.14255 13.5589L6.60173 12.4808C7.2608 11.9175 8.32576 11.4709 9.69467 11.4709C11.8242 11.4709 12.9171 12.4927 13.7847 13.797C14.2998 12.6835 14.5446 11.1797 14.5446 9.31581C14.5446 4.66121 13.0832 2.27122 9.66965 2.27122C6.30575 2.27122 4.85232 4.66121 4.85232 9.31581C4.85232 13.9458 6.30575 16.3113 9.66965 16.3113C10.2043 16.3113 10.6885 16.2527 11.1336 16.1234ZM11.9675 17.7478C11.2181 17.9485 10.4457 18.0513 9.66965 18.0534C5.19038 18.0534 0.804688 14.4932 0.804688 9.31581C0.804688 4.08927 5.19038 0.52832 9.66965 0.52832C14.224 0.52832 18.5676 4.06362 18.5676 9.31581C18.5676 12.2373 17.1991 14.6113 15.2099 16.1458C15.8526 17.105 16.5142 17.742 17.4356 17.742C18.441 17.742 18.8465 16.9681 18.9144 16.3611H20.2238C20.3003 17.1693 19.8945 20.5283 16.2349 20.5283C14.0183 20.5283 12.8464 19.2486 11.9675 17.7478Z" fill="white" fill-opacity="0.94902"/>
</svg>
