<svg width="21" height="20" viewBox="0 0 21 20" fill="none" xmlns="http://www.w3.org/2000/svg">
<g clip-path="url(#clip0_2445_704)">
<path d="M19.2376 5.95775L10.0479 1.36288C9.94931 1.31361 9.83334 1.31361 9.7348 1.36288L0.54505 5.95775C0.303441 6.07857 0.28395 6.41591 0.510037 6.56374L1.1637 6.99114V15.9781C1.1637 16.07 1.19987 16.1583 1.26439 16.2238L2.06374 17.0351C2.28347 17.2581 2.66306 17.1025 2.66306 16.7894V7.97149L9.69978 12.5724C9.81615 12.6485 9.9665 12.6485 10.0829 12.5724L19.2726 6.56374C19.4987 6.41591 19.4793 6.07855 19.2376 5.95775Z" fill="white" fill-opacity="0.94902"/>
<path d="M9.69913 13.9032L3.8042 10.0346V14.0444C3.8042 14.1546 3.85607 14.2583 3.9442 14.3244L9.68115 18.6271C9.80561 18.7204 9.97671 18.7204 10.1012 18.6271L15.8381 14.3244C15.9263 14.2583 15.9781 14.1546 15.9781 14.0444V10.0346L10.0832 13.9032C9.9666 13.9797 9.81571 13.9797 9.69913 13.9032Z" fill="white" fill-opacity="0.94902"/>
</g>
<defs>
<clipPath id="clip0_2445_704">
<rect width="21" height="17.7692" fill="white" transform="translate(0 1.14999)"/>
</clipPath>
</defs>
</svg>
