<svg width="20" height="21" viewBox="0 0 20 21" fill="none" xmlns="http://www.w3.org/2000/svg">
<path d="M17.2047 0.64785L1.98187 4.99723C0.808778 5.3324 0 6.40462 0 7.62466C0 8.65968 0.584778 9.60587 1.51053 10.0687L5.625 12.126C6.1845 12.4057 6.86036 12.2949 7.30126 11.8512L10 9.13491L10.7143 8.42062C11.1088 8.02613 11.7484 8.02613 12.1429 8.42062C12.5373 8.81511 12.5373 9.4547 12.1429 9.84919L11.4286 10.5635L8.7123 13.2622C8.26855 13.7031 8.15775 14.379 8.4375 14.9385L10.4947 19.053C10.9576 19.9787 11.9038 20.5635 12.9388 20.5635C14.1589 20.5635 15.2311 19.7547 15.5663 18.5816L19.9156 3.35878C19.9716 3.16287 20 2.96011 20 2.75635C20 1.54526 19.0182 0.563477 17.8071 0.563477C17.6034 0.563477 17.4006 0.591874 17.2047 0.64785Z" fill="white" fill-opacity="0.94902"/>
</svg>
