<svg width="22" height="22" viewBox="0 0 22 22" fill="none" xmlns="http://www.w3.org/2000/svg">
<path d="M7.4286 7.41509C7.4286 7.41509 6.71431 9.67925 3.85718 9.67925C3.16437 9.67925 2.55555 9.41299 2.07147 9.00961V21H8.49999V17.8396C8.49999 16.4589 9.61927 15.3396 11 15.3396V15.3396C12.3807 15.3396 13.5 16.4589 13.5 17.8396V21H19.9286V9.00959C19.4445 9.41298 18.8357 9.67925 18.1429 9.67925C15.2857 9.67925 14.5714 7.41509 14.5714 7.41509C14.5714 7.41509 13.5 9.67925 11 9.67925C8.50006 9.67925 7.4286 7.41509 7.4286 7.41509Z" fill="white" fill-opacity="0.94902"/>
<path d="M5.64289 1L1.00004 5.15094H21L16.3572 1H5.64289Z" fill="white" fill-opacity="0.94902"/>
<path d="M1.00004 5.15094L0.500156 4.59182C0.341012 4.7341 0.250041 4.93746 0.250039 5.15094L1.00004 5.15094ZM21 5.15094L21.75 5.15099C21.75 4.9375 21.659 4.73412 21.4999 4.59182L21 5.15094ZM21 21.75C21.4142 21.75 21.75 21.4142 21.75 21C21.75 20.5858 21.4142 20.25 21 20.25V21.75ZM1.00004 20.25C0.585825 20.25 0.250039 20.5858 0.250039 21C0.250039 21.4142 0.585825 21.75 1.00004 21.75V20.25ZM5.64289 1V0.25C5.45846 0.25 5.2805 0.317955 5.143 0.440878L5.64289 1ZM16.3572 1L16.857 0.440879C16.7195 0.317955 16.5416 0.25 16.3572 0.25V1ZM7.4286 7.41509L8.10652 7.09428C7.97455 6.81542 7.68528 6.64581 7.37748 6.66684C7.06969 6.68786 6.80617 6.89523 6.71335 7.18945L7.4286 7.41509ZM14.5714 7.41509L15.2867 7.18945C15.1939 6.89523 14.9304 6.68786 14.6226 6.66684C14.3148 6.64581 14.0255 6.81542 13.8935 7.09428L14.5714 7.41509ZM21 7.41509L21.7153 7.64074C21.7383 7.56772 21.75 7.49161 21.75 7.41505L21 7.41509ZM1 7.41509L0.25 7.41508C0.249998 7.49163 0.261717 7.56773 0.284749 7.64074L1 7.41509ZM19.9286 9.00959L19.4484 8.43342L19.4484 8.43342L19.9286 9.00959ZM19.9286 21.75H21V20.25H19.9286V21.75ZM2.07147 20.25H1.00004V21.75H2.07147V20.25ZM1.49992 5.71006L6.14277 1.55912L5.143 0.440878L0.500156 4.59182L1.49992 5.71006ZM5.64289 1.75H16.3572V0.25H5.64289V1.75ZM15.8573 1.55912L20.5001 5.71006L21.4999 4.59182L16.857 0.440879L15.8573 1.55912ZM1.00004 5.90094H21V4.40094H1.00004V5.90094ZM3.85718 10.4292C5.51178 10.4292 6.596 9.76327 7.25903 9.06271C7.5834 8.71998 7.79971 8.37746 7.93618 8.11791C8.00468 7.98762 8.05397 7.87653 8.08733 7.79428C8.10404 7.7531 8.11683 7.71895 8.1261 7.69302C8.13073 7.68005 8.1345 7.66911 8.13744 7.66036C8.13891 7.65598 8.14018 7.65214 8.14124 7.64887C8.14177 7.64723 8.14226 7.64573 8.14269 7.64438C8.14291 7.6437 8.14311 7.64306 8.14331 7.64245C8.1434 7.64215 8.14354 7.64172 8.14359 7.64157C8.14372 7.64115 8.14385 7.64074 7.4286 7.41509C6.71335 7.18945 6.71347 7.18906 6.71359 7.18867C6.71363 7.18856 6.71375 7.18818 6.71382 7.18795C6.71397 7.18748 6.71411 7.18704 6.71424 7.18664C6.7145 7.18583 6.71472 7.18515 6.7149 7.1846C6.71525 7.18351 6.71545 7.18292 6.71548 7.18282C6.71555 7.18263 6.71495 7.18441 6.71366 7.18802C6.71107 7.19526 6.70573 7.20975 6.69732 7.23048C6.68046 7.27206 6.65162 7.33785 6.60852 7.41983C6.52177 7.58481 6.38094 7.80832 6.16959 8.03163C5.7612 8.46315 5.05971 8.92925 3.85718 8.92925V10.4292ZM7.4286 7.41509C6.75068 7.73591 6.75082 7.73622 6.75097 7.73653C6.75103 7.73665 6.75118 7.73697 6.75129 7.73721C6.75152 7.73768 6.75176 7.73818 6.75201 7.73872C6.75253 7.7398 6.75311 7.74102 6.75377 7.74238C6.75508 7.74509 6.75666 7.74836 6.75853 7.75216C6.76227 7.75977 6.76713 7.76953 6.77312 7.78129C6.78511 7.80479 6.80168 7.83638 6.82294 7.87488C6.8654 7.95178 6.92689 8.05689 7.00833 8.1808C7.17046 8.42748 7.41591 8.75515 7.75316 9.08408C8.43035 9.74456 9.5013 10.4292 11 10.4292V8.92925C9.99879 8.92925 9.28402 8.48186 8.80049 8.01026C8.55738 7.77315 8.37871 7.53478 8.26182 7.35694C8.20375 7.26858 8.162 7.1968 8.1361 7.14989C8.12318 7.12648 8.11428 7.10942 8.10936 7.09976C8.1069 7.09493 8.10544 7.09198 8.10496 7.09101C8.10473 7.09053 8.10474 7.09055 8.105 7.09109C8.10513 7.09136 8.10532 7.09176 8.10557 7.09229C8.1057 7.09256 8.10584 7.09285 8.106 7.09319C8.10608 7.09335 8.10621 7.09363 8.10625 7.09371C8.10638 7.09399 8.10652 7.09428 7.4286 7.41509ZM11 10.4292C12.4987 10.4292 13.5697 9.74456 14.2469 9.08408C14.5841 8.75515 14.8296 8.42748 14.9917 8.1808C15.0731 8.05689 15.1346 7.95178 15.1771 7.87488C15.1984 7.83638 15.2149 7.80479 15.2269 7.78129C15.2329 7.76953 15.2378 7.75977 15.2415 7.75216C15.2434 7.74836 15.245 7.74509 15.2463 7.74238C15.2469 7.74102 15.2475 7.7398 15.248 7.73872C15.2483 7.73818 15.2485 7.73768 15.2487 7.73721C15.2489 7.73697 15.249 7.73665 15.2491 7.73653C15.2492 7.73622 15.2494 7.73591 14.5714 7.41509C13.8935 7.09428 13.8937 7.09399 13.8938 7.09371C13.8938 7.09363 13.894 7.09335 13.894 7.09319C13.8942 7.09285 13.8943 7.09256 13.8945 7.09229C13.8947 7.09176 13.8949 7.09136 13.895 7.09109C13.8953 7.09055 13.8953 7.09053 13.8951 7.09101C13.8946 7.09198 13.8931 7.09493 13.8907 7.09976C13.8858 7.10942 13.8769 7.12648 13.8639 7.14989C13.838 7.1968 13.7963 7.26858 13.7382 7.35694C13.6213 7.53478 13.4427 7.77315 13.1996 8.01026C12.716 8.48186 12.0013 8.92925 11 8.92925V10.4292ZM14.5714 7.41509C13.8562 7.64074 13.8563 7.64115 13.8565 7.64157C13.8565 7.64172 13.8566 7.64215 13.8567 7.64245C13.8569 7.64306 13.8571 7.6437 13.8573 7.64438C13.8578 7.64573 13.8583 7.64723 13.8588 7.64887C13.8599 7.65214 13.8611 7.65598 13.8626 7.66036C13.8655 7.66911 13.8693 7.68005 13.8739 7.69302C13.8832 7.71895 13.896 7.7531 13.9127 7.79428C13.9461 7.87653 13.9954 7.98762 14.0639 8.11791C14.2003 8.37746 14.4166 8.71998 14.741 9.06271C15.404 9.76327 16.4883 10.4292 18.1429 10.4292V8.92925C16.9403 8.92925 16.2388 8.46315 15.8304 8.03163C15.6191 7.80832 15.4783 7.58481 15.3915 7.41983C15.3484 7.33785 15.3196 7.27206 15.3027 7.23048C15.2943 7.20975 15.289 7.19526 15.2864 7.18802C15.2851 7.18441 15.2845 7.18263 15.2846 7.18282C15.2846 7.18292 15.2848 7.18351 15.2851 7.1846C15.2853 7.18515 15.2855 7.18583 15.2858 7.18664C15.2859 7.18704 15.2861 7.18748 15.2862 7.18795C15.2863 7.18818 15.2864 7.18856 15.2864 7.18867C15.2866 7.18906 15.2867 7.18945 14.5714 7.41509ZM21.75 7.41505C21.75 6.84904 21.75 6.28302 21.75 5.85851C21.75 5.64625 21.75 5.46937 21.75 5.34555C21.75 5.28364 21.75 5.235 21.75 5.20184C21.75 5.18525 21.75 5.17254 21.75 5.16397C21.75 5.15969 21.75 5.15644 21.75 5.15427C21.75 5.15318 21.75 5.15236 21.75 5.15181C21.75 5.15154 21.75 5.15133 21.75 5.15119C21.75 5.15113 21.75 5.15107 21.75 5.15104C21.75 5.15102 21.75 5.15101 21.75 5.151C21.75 5.15099 21.75 5.15099 21 5.15094C20.25 5.1509 20.25 5.1509 20.25 5.15091C20.25 5.15092 20.25 5.15093 20.25 5.15095C20.25 5.15099 20.25 5.15104 20.25 5.15111C20.25 5.15124 20.25 5.15145 20.25 5.15172C20.25 5.15227 20.25 5.15309 20.25 5.15418C20.25 5.15636 20.25 5.15961 20.25 5.16389C20.25 5.17246 20.25 5.18518 20.25 5.20176C20.25 5.23493 20.25 5.28357 20.25 5.34549C20.25 5.46931 20.25 5.64621 20.25 5.85848C20.25 6.28302 20.25 6.84907 20.25 7.41514L21.75 7.41505ZM1.00004 5.15094C0.250039 5.15094 0.250039 5.15094 0.250039 5.15095C0.250039 5.15096 0.250039 5.15097 0.250039 5.15099C0.250039 5.15102 0.250039 5.15107 0.250039 5.15114C0.250039 5.15128 0.250039 5.15149 0.250039 5.15176C0.250039 5.15231 0.250039 5.15313 0.250039 5.15422C0.250039 5.1564 0.250039 5.15964 0.250039 5.16393C0.250039 5.17249 0.250038 5.18521 0.250038 5.20179C0.250038 5.23496 0.250037 5.2836 0.250037 5.34551C0.250035 5.46933 0.250033 5.64622 0.25003 5.85848C0.250024 6.28301 0.250014 6.84904 0.25 7.41508L1.75 7.41511C1.75001 6.84907 1.75002 6.28303 1.75003 5.8585C1.75003 5.64624 1.75004 5.46935 1.75004 5.34553C1.75004 5.28362 1.75004 5.23497 1.75004 5.20181C1.75004 5.18522 1.75004 5.17251 1.75004 5.16394C1.75004 5.15966 1.75004 5.15641 1.75004 5.15423C1.75004 5.15314 1.75004 5.15232 1.75004 5.15177C1.75004 5.1515 1.75004 5.15129 1.75004 5.15116C1.75004 5.15109 1.75004 5.15104 1.75004 5.151C1.75004 5.15098 1.75004 5.15097 1.75004 5.15096C1.75004 5.15095 1.75004 5.15095 1.00004 5.15094ZM18.1429 10.4292C19.037 10.4292 19.8112 10.0837 20.4087 9.58576L19.4484 8.43342C19.0778 8.74227 18.6343 8.92925 18.1429 8.92925V10.4292ZM20.4087 9.58576C21.0371 9.06213 21.4897 8.3557 21.7153 7.64074L20.2847 7.18945C20.1424 7.64059 19.8482 8.10027 19.4484 8.43342L20.4087 9.58576ZM20.6786 21V9.00959H19.1786V21H20.6786ZM0.284749 7.64074C0.510308 8.35572 0.962947 9.06215 1.59134 9.58578L2.55159 8.43343C2.15178 8.10027 1.85757 7.64058 1.71525 7.18945L0.284749 7.64074ZM1.59134 9.58578C2.18888 10.0837 2.96303 10.4292 3.85718 10.4292V8.92925C3.36572 8.92925 2.92222 8.74228 2.55159 8.43343L1.59134 9.58578ZM2.82147 21V9.00961H1.32147V21H2.82147ZM9.24999 21V17.8396H7.74999V21H9.24999ZM12.75 17.8396V21H14.25V17.8396H12.75ZM2.07147 21.75H8.49999V20.25H2.07147V21.75ZM13.5 21.75H19.9286V20.25H13.5V21.75ZM8.49999 21.75H13.5V20.25H8.49999V21.75ZM11 16.0896C11.9665 16.0896 12.75 16.8731 12.75 17.8396H14.25C14.25 16.0447 12.7949 14.5896 11 14.5896V16.0896ZM9.24999 17.8396C9.24999 16.8731 10.0335 16.0896 11 16.0896V14.5896C9.20506 14.5896 7.74999 16.0447 7.74999 17.8396H9.24999Z" fill="white" fill-opacity="0.94902"/>
</svg>
