<svg width="20" height="20" viewBox="0 0 20 20" fill="none" xmlns="http://www.w3.org/2000/svg">
<path d="M16.6014 3.92415C16.6014 3.92415 16.5848 3.83399 16.5336 3.80133C16.4824 3.76868 16.4269 3.76235 16.4269 3.76235L14.8221 3.64294L13.6414 2.46899C13.5966 2.43485 13.5448 2.41489 13.4923 2.40415C13.3665 2.37977 13.1974 2.40903 13.1662 2.41633L12.5536 2.6059C12.2875 1.82036 11.924 1.2609 11.4679 0.93731C11.1306 0.69899 10.7591 0.597662 10.36 0.627857C10.2761 0.516255 10.1838 0.418794 10.0827 0.336919C9.63992 -0.0207759 9.06879 -0.0763227 8.38555 0.171255C6.33656 0.915396 5.46672 3.57083 5.15313 4.89731L3.36734 5.45044C3.36734 5.45044 2.94676 5.57032 2.84809 5.68825C2.73969 5.81786 2.71895 6.16876 2.71895 6.16876L1.2041 17.8518L12.6165 19.9805L18.7777 18.6472L16.6014 3.92415ZM10.2771 3.3111L8.30391 3.92172C8.56535 2.89786 9.06777 1.85157 10.0283 1.44368C10.2279 1.9661 10.2829 2.68098 10.2771 3.3111ZM8.61969 0.81649C9.03707 0.664927 9.35773 0.671724 9.59895 0.834498C8.31145 1.42172 7.7493 2.90126 7.50664 4.16876L5.92676 4.65801C6.27957 3.38223 7.06684 1.38032 8.61969 0.81649ZM9.72543 9.42653C9.63504 9.38266 9.52832 9.33586 9.4077 9.29153C9.28805 9.24672 9.15477 9.2043 9.01027 9.16922C8.86723 9.13415 8.71324 9.10586 8.55098 9.0893C8.39016 9.07223 8.22129 9.06688 8.04637 9.07712C7.88582 9.08688 7.74035 9.11559 7.61242 9.16141C7.48523 9.20626 7.37512 9.26864 7.28445 9.34614C7.19383 9.42313 7.12242 9.51524 7.07199 9.62149C7.02203 9.72723 6.99254 9.84614 6.98695 9.97821C6.98258 10.0762 6.99793 10.1697 7.03227 10.2608C7.0666 10.3525 7.12047 10.4421 7.19355 10.5308C7.26715 10.6205 7.36023 10.7091 7.47352 10.7998C7.5873 10.8919 7.7216 10.9845 7.87652 11.0815C8.09387 11.2209 8.31609 11.3778 8.52734 11.5576C8.74176 11.7404 8.94449 11.9465 9.11871 12.1814C9.29516 12.4187 9.4418 12.6848 9.54074 12.983C9.64016 13.2842 9.69109 13.6161 9.67504 13.9815C9.64898 14.5795 9.51789 15.095 9.30125 15.5224C9.0873 15.9445 8.79199 16.2758 8.43625 16.5166C8.08832 16.7515 7.68527 16.8972 7.24695 16.9556C6.82129 17.0126 6.36488 16.9873 5.89414 16.8835C5.8907 16.883 5.8868 16.8815 5.88293 16.8806C5.87926 16.8801 5.87559 16.8791 5.87195 16.8786C5.86832 16.8777 5.86465 16.8766 5.86074 16.8757C5.85707 16.8752 5.8534 16.8742 5.84953 16.8733C5.62879 16.8197 5.41578 16.7505 5.21574 16.6691C5.01863 16.5897 4.83367 16.499 4.66508 16.4011C4.49891 16.3041 4.34832 16.2003 4.21797 16.0926C4.08906 15.9859 3.97941 15.8763 3.8934 15.7656L4.41262 14.0425C4.50035 14.1165 4.60754 14.2009 4.72961 14.2861C4.85289 14.3733 4.99156 14.462 5.13992 14.5454C5.29 14.6292 5.45035 14.7067 5.61531 14.77C5.78246 14.8339 5.95449 14.8836 6.12504 14.9084C6.27562 14.9304 6.41012 14.9259 6.52781 14.8997C6.64648 14.8728 6.74758 14.8236 6.83047 14.7559C6.91379 14.6891 6.97836 14.6038 7.02344 14.5059C7.06852 14.407 7.0941 14.2963 7.09898 14.1779C7.10434 14.059 7.09359 13.9474 7.06363 13.8392C7.03391 13.7306 6.9852 13.6257 6.91523 13.5205C6.84527 13.4157 6.75465 13.3105 6.63992 13.2018C6.52637 13.0941 6.39016 12.983 6.22887 12.8651C6.03027 12.7169 5.8441 12.5566 5.67723 12.3822C5.5125 12.2096 5.36633 12.023 5.24668 11.8207C5.12828 11.62 5.03496 11.4031 4.97453 11.1673C4.91434 10.9329 4.8866 10.679 4.89824 10.4022C4.91871 9.93969 5.01109 9.51329 5.16582 9.12977C5.32223 8.74184 5.54371 8.39391 5.82148 8.09419C6.10488 7.78864 6.44941 7.53083 6.84656 7.33251C7.2552 7.12829 7.7223 6.98504 8.24008 6.91731C8.48031 6.88559 8.71086 6.87098 8.92867 6.87004C9.14992 6.86907 9.35777 6.88223 9.54902 6.90661C9.74297 6.93145 9.91965 6.96751 10.0763 7.01184C10.2342 7.05665 10.3712 7.1093 10.484 7.1668L9.72543 9.42653ZM10.9611 3.09961C10.9601 3.02215 10.9581 2.94368 10.9552 2.86376C10.9323 2.24973 10.8489 1.73266 10.7071 1.31356C10.8616 1.32915 11.002 1.38032 11.1302 1.47098C11.4874 1.72391 11.7446 2.23313 11.9259 2.80086L10.9611 3.09961Z" fill="white" fill-opacity="0.94902"/>
</svg>
