<svg width="20" height="20" viewBox="0 0 20 20" fill="none" xmlns="http://www.w3.org/2000/svg">
<g clip-path="url(#clip0_2403_729)">
<path d="M19.1929 11.525C18.8756 11.0865 18.7285 10.5508 18.7291 10.0095C18.7292 10.0063 18.7292 10.0032 18.7292 10C18.7292 5.17878 14.8208 1.27039 9.99954 1.27039C8.94485 1.27039 7.93426 1.4581 6.99844 1.80115C6.49217 1.98672 5.93756 2.02238 5.41852 1.87617C4.96004 1.74703 4.47028 1.69255 3.96291 1.72747C1.83163 1.87413 0.115824 3.62081 0.00538105 5.75429C-0.0473461 6.77262 0.258042 7.71726 0.806165 8.4749C1.12348 8.91348 1.27053 9.44913 1.26988 9.99047C1.26988 9.99361 1.26988 9.99675 1.26988 9.99995C1.26988 14.8212 5.17823 18.7296 9.9995 18.7296C11.0542 18.7296 12.0648 18.5418 13.0006 18.1988C13.5069 18.0132 14.0615 17.9776 14.5805 18.1238C15.039 18.2529 15.5287 18.3074 16.0361 18.2725C18.1674 18.1258 19.8832 16.3792 19.9937 14.2458C20.0464 13.2274 19.741 12.2827 19.1929 11.525ZM10.3191 8.43494C12.0793 8.85352 14.7392 9.48604 14.7392 12.416C14.7392 13.8593 14.0284 14.9603 12.7377 15.5162C11.8166 15.9129 10.7742 15.9664 9.87593 15.9664C7.11556 15.9664 5.37213 13.82 5.29925 13.7286C4.8472 13.1616 4.94023 12.3355 5.50726 11.8834C6.07414 11.4312 6.90032 11.5244 7.35246 12.0913C7.3565 12.0961 8.39912 13.2935 9.87593 13.3404C11.6543 13.3968 12.0606 12.8677 12.1131 12.416C12.1773 11.8644 11.6866 11.4594 9.71142 10.9897C8.03722 10.5916 5.50686 9.98987 5.50686 7.29151C5.50686 6.45121 5.84862 3.7095 10.2465 3.7095C13.0234 3.7095 14.6625 5.89586 14.731 5.98894C15.1605 6.57323 15.0351 7.39511 14.4508 7.82456C13.869 8.25217 13.0523 8.1298 12.6212 7.5526C12.5903 7.51284 11.652 6.46897 10.2465 6.33553C9.18295 6.23452 8.13289 6.61803 8.13289 7.18456C8.13289 7.78481 8.43444 7.98674 10.3191 8.43494Z" fill="white" fill-opacity="0.94902"/>
</g>
<defs>
<clipPath id="clip0_2403_729">
<rect width="20" height="20" fill="white" transform="translate(-0.000488281)"/>
</clipPath>
</defs>
</svg>
