<svg width="20" height="20" viewBox="0 0 20 20" fill="none" xmlns="http://www.w3.org/2000/svg">
<g clip-path="url(#clip0_2403_728)">
<path d="M12.6362 14.7386C11.4762 14.7386 10.5355 13.798 10.5355 12.638C10.5355 11.478 11.4762 10.5373 12.6362 10.5373H17.8955C19.0555 10.5373 19.9962 11.478 19.9962 12.638C19.9962 13.798 19.0555 14.7386 17.8955 14.7386H12.6362ZM12.6362 15.7953C13.7955 15.7953 14.7355 16.7353 14.7355 17.8946C14.7355 19.054 13.7955 19.994 12.6362 19.994C11.4775 19.994 10.5375 19.0553 10.5368 17.8966V15.7953H12.6362ZM14.7382 7.36263C14.7382 8.52263 13.7975 9.4633 12.6375 9.4633C11.4775 9.4633 10.5368 8.52263 10.5368 7.36263V2.10396C10.5368 0.943963 11.4775 0.0032959 12.6375 0.0032959C13.7975 0.0032959 14.7382 0.943963 14.7382 2.10396V7.36263ZM15.7948 7.36263C15.7955 6.20396 16.7348 5.26463 17.8935 5.26463C19.0522 5.26463 19.9922 6.20463 19.9922 7.36396C19.9922 8.52263 19.0535 9.46196 17.8955 9.4633H15.7942L15.7948 7.36263ZM7.36217 5.26196C8.5195 5.2653 9.45684 6.20396 9.45684 7.36196C9.45684 8.51996 8.5195 9.4593 7.36217 9.46196H2.1035C0.946169 9.45863 0.00883595 8.51996 0.00883595 7.36196C0.00883595 6.20396 0.946169 5.26463 2.1035 5.26196H7.36217ZM7.36217 4.2033C6.20484 4.20196 5.26684 3.2633 5.26684 2.1053C5.26684 0.946629 6.20617 0.00729593 7.36484 0.00729593C8.5235 0.00729593 9.4615 0.945963 9.46284 2.1033V4.20263L7.36217 4.2033ZM5.2615 12.6366C5.26484 11.4793 6.2035 10.542 7.3615 10.542C8.5195 10.542 9.45884 11.4793 9.4615 12.6366V17.896C9.45817 19.0533 8.5195 19.9906 7.3615 19.9906C6.2035 19.9906 5.26417 19.0533 5.2615 17.896V12.6366ZM4.20284 12.6366C4.20217 13.7946 3.26284 14.7333 2.10484 14.7333C0.946836 14.7333 0.00683594 13.794 0.00683594 12.6353C0.00683594 11.4766 0.945503 10.538 2.1035 10.5373H4.20284V12.6366Z" fill="white" fill-opacity="0.94902"/>
</g>
<defs>
<clipPath id="clip0_2403_728">
<rect width="20" height="20" fill="white" transform="translate(-0.000488281)"/>
</clipPath>
</defs>
</svg>
