<svg width="20" height="20" viewBox="0 0 20 20" fill="none" xmlns="http://www.w3.org/2000/svg">
<path d="M4.21715 12.6434C4.21715 13.8058 3.2785 14.7453 2.11712 14.7453C0.95574 14.7453 0.0170898 13.8058 0.0170898 12.6434C0.0170898 11.481 0.95574 10.5415 2.11712 10.5415H4.21715V12.6434ZM5.26717 12.6434C5.26717 11.481 6.20582 10.5415 7.3672 10.5415C8.52858 10.5415 9.46723 11.481 9.46723 12.6434V17.8981C9.46723 19.0606 8.52858 20 7.3672 20C6.20582 20 5.26717 19.0606 5.26717 17.8981V12.6434Z" fill="white"/>
<path d="M7.36602 4.2038C6.20464 4.2038 5.26599 3.26431 5.26599 2.1019C5.26599 0.939485 6.20464 0 7.36602 0C8.5274 0 9.46605 0.939485 9.46605 2.1019V4.2038H7.36602ZM7.36602 5.27067C8.5274 5.27067 9.46605 6.21015 9.46605 7.37257C9.46605 8.53498 8.5274 9.47446 7.36602 9.47446H2.10003C0.93865 9.47446 0 8.53498 0 7.37257C0 6.21015 0.93865 5.27067 2.10003 5.27067H7.36602Z" fill="white"/>
<path d="M15.7828 7.37257C15.7828 6.21015 16.7214 5.27067 17.8828 5.27067C19.0442 5.27067 19.9829 6.21015 19.9829 7.37257C19.9829 8.53498 19.0442 9.47446 17.8828 9.47446H15.7828V7.37257ZM14.7328 7.37257C14.7328 8.53498 13.7941 9.47446 12.6327 9.47446C11.4714 9.47446 10.5327 8.53498 10.5327 7.37257V2.1019C10.5327 0.939485 11.4714 0 12.6327 0C13.7941 0 14.7328 0.939485 14.7328 2.1019V7.37257V7.37257Z" fill="white"/>
<path d="M12.6327 15.7962C13.7941 15.7962 14.7328 16.7357 14.7328 17.8981C14.7328 19.0606 13.7941 20 12.6327 20C11.4714 20 10.5327 19.0606 10.5327 17.8981V15.7962H12.6327ZM12.6327 14.7453C11.4714 14.7453 10.5327 13.8058 10.5327 12.6434C10.5327 11.481 11.4714 10.5415 12.6327 10.5415H17.8987C19.0601 10.5415 19.9988 11.481 19.9988 12.6434C19.9988 13.8058 19.0601 14.7453 17.8987 14.7453H12.6327Z" fill="white"/>
</svg>
