<svg width="20" height="21" viewBox="0 0 20 21" fill="none" xmlns="http://www.w3.org/2000/svg">
<path fill-rule="evenodd" clip-rule="evenodd" d="M20 10.5635C20 16.0863 15.5228 20.5635 10 20.5635C8.18785 20.5635 6.48829 20.0815 5.02253 19.2386L0 20.5635L1.44678 15.7473C0.528673 14.2356 0 12.4613 0 10.5635C0 5.04063 4.47715 0.563477 10 0.563477C15.5228 0.563477 20 5.04063 20 10.5635ZM4.58333 12.2301C5.50381 12.2301 6.25 11.484 6.25 10.5635C6.25 9.643 5.50381 8.89681 4.58333 8.89681C3.66286 8.89681 2.91667 9.643 2.91667 10.5635C2.91667 11.484 3.66286 12.2301 4.58333 12.2301ZM11.6667 10.5635C11.6667 11.484 10.9205 12.2301 10 12.2301C9.07953 12.2301 8.33333 11.484 8.33333 10.5635C8.33333 9.643 9.07953 8.89681 10 8.89681C10.9205 8.89681 11.6667 9.643 11.6667 10.5635ZM15.4167 12.2301C16.3371 12.2301 17.0833 11.484 17.0833 10.5635C17.0833 9.643 16.3371 8.89681 15.4167 8.89681C14.4962 8.89681 13.75 9.643 13.75 10.5635C13.75 11.484 14.4962 12.2301 15.4167 12.2301Z" fill="white" fill-opacity="0.94902"/>
</svg>
