<svg width="23" height="20" viewBox="0 0 23 20" fill="none" xmlns="http://www.w3.org/2000/svg">
<path d="M8.50866 1.15858L11.5876 0.478939H12.7719L16.0877 2.06477L17.7456 5.46298V7.955L19.8772 7.72845V8.4081V9.54083L18.4562 9.99393L17.9825 10.6736L19.1667 12.939L22.2457 14.5249L21.5351 15.4311L19.4035 16.1107L18.9298 17.0169L18.4562 17.6965H15.8509L14.6666 18.1496L12.0613 19.5089L10.4034 19.0558L8.50866 18.1496L7.0876 17.6965H5.19284L4.4823 17.2434L3.77177 16.1107L2.58754 15.8842L1.64016 15.2045V14.5249L2.82439 13.8452L4.95599 12.2594L5.42968 10.6736L3.53492 9.54083L3.77177 8.4081L4.4823 7.72845L5.90337 7.955L6.61391 3.87715L8.50866 1.15858Z" fill="white" fill-opacity="0.94902"/>
<path d="M11.7696 1.10013C14.6818 1.10106 17.1077 3.42225 17.1112 6.21712C17.1121 6.87174 17.1331 7.47454 17.1717 8.02985C17.1956 8.37246 17.4932 8.62635 17.8345 8.62635C17.8848 8.62635 17.936 8.62085 17.9874 8.60932L18.8997 8.40457C18.9386 8.39583 18.9775 8.39166 19.016 8.39166C19.2477 8.39166 19.4611 8.54323 19.5131 8.76772C19.5866 9.08496 19.401 9.40548 19.0799 9.51327L17.6951 10.0485C17.3454 10.1836 17.1577 10.5479 17.2561 10.8964C18.3672 14.8288 21.4704 14.4198 21.4704 14.9321C21.4704 15.5755 19.1313 15.6663 18.92 15.8687C18.7087 16.071 18.9109 17.053 18.4387 17.2431C18.3497 17.279 18.2232 17.2914 18.069 17.2914C17.7134 17.2914 17.2104 17.225 16.6803 17.225C16.2204 17.225 15.7401 17.275 15.3179 17.4617C14.1978 17.9571 13.1179 18.8824 11.7792 18.8824C10.4405 18.8824 9.36058 17.9571 8.24047 17.4617C7.81815 17.2749 7.33802 17.225 6.87813 17.225C6.34805 17.225 5.84498 17.2914 5.48938 17.2914C5.33523 17.2914 5.20866 17.2789 5.1197 17.2431C4.64753 17.053 4.84968 16.071 4.63836 15.8687C4.42704 15.6663 2.08798 15.5754 2.08798 14.9321C2.08798 14.4197 5.19124 14.8287 6.30227 10.8963C6.40073 10.5479 6.21294 10.1836 5.86328 10.0484L4.47842 9.51322C4.1573 9.40544 3.97164 9.08491 4.04522 8.76767C4.09725 8.54314 4.31061 8.39157 4.54231 8.39162C4.58077 8.39162 4.61978 8.39579 4.65861 8.40453L5.57092 8.60928C5.62235 8.62081 5.67355 8.62631 5.72382 8.62631C6.0651 8.62631 6.36278 8.37237 6.38659 8.0298C6.42519 7.4745 6.44632 6.87169 6.44715 6.21707C6.45067 3.42225 8.85723 1.1011 11.7696 1.10013ZM11.7699 -0.00878906H11.7691C10.8998 -0.00852292 10.053 0.158702 9.25231 0.488272C8.48371 0.80458 7.79197 1.2556 7.19633 1.82882C6.60148 2.40129 6.13334 3.06589 5.80494 3.80416C5.46348 4.57184 5.28983 5.38321 5.28876 6.21574C5.28825 6.62449 5.2794 7.02117 5.26235 7.40104L4.92293 7.32484C4.79839 7.2969 4.67033 7.2827 4.54241 7.28266C4.173 7.28261 3.8086 7.40215 3.51634 7.61923C3.21143 7.84572 2.99761 8.16824 2.91435 8.52739C2.71619 9.38228 3.20926 10.2453 4.06371 10.5488L5.08009 10.9416C4.40707 12.9193 3.16607 13.2983 2.33039 13.5535C2.10865 13.6213 1.91711 13.6798 1.73475 13.7664C1.00813 14.1117 0.929688 14.6966 0.929688 14.9321C0.929688 15.383 1.15264 15.7946 1.55753 16.0908C1.75912 16.2384 2.00885 16.3601 2.32094 16.4629C2.74631 16.6032 3.23942 16.6921 3.64019 16.7635C3.65955 16.9056 3.68796 17.0583 3.73582 17.2123C3.93453 17.8515 4.35388 18.1377 4.6707 18.2652C4.9713 18.3863 5.28191 18.4003 5.48938 18.4003C5.69231 18.4003 5.90683 18.3851 6.13395 18.369C6.37761 18.3517 6.62956 18.3338 6.87813 18.3338C7.26333 18.3338 7.55008 18.3778 7.75472 18.4683C8.03573 18.5926 8.33373 18.7602 8.64925 18.9376C9.52761 19.4314 10.5231 19.9912 11.7792 19.9912C13.0352 19.9912 14.0307 19.4314 14.9091 18.9376C15.2246 18.7601 15.5226 18.5926 15.8037 18.4683C16.0083 18.3778 16.2951 18.3338 16.6803 18.3338C16.9288 18.3338 17.1808 18.3517 17.4244 18.369C17.6515 18.3851 17.866 18.4003 18.069 18.4003C18.2764 18.4003 18.587 18.3863 18.8876 18.2652C19.2045 18.1377 19.6238 17.8515 19.8225 17.2123C19.8704 17.0583 19.8988 16.9056 19.9182 16.7635C20.3189 16.6921 20.8121 16.6032 21.2374 16.4629C21.5495 16.3601 21.7992 16.2384 22.0008 16.0908C22.4057 15.7946 22.6286 15.383 22.6286 14.9321C22.6286 14.6966 22.5502 14.1117 21.8235 13.7665C21.6411 13.6798 21.4496 13.6213 21.2279 13.5536C20.3922 13.2984 19.1512 12.9193 18.4782 10.9416L19.4945 10.5489C20.3489 10.2454 20.8421 9.38228 20.6439 8.52739C20.5606 8.16824 20.3468 7.84572 20.0419 7.61923C19.7496 7.4022 19.3853 7.28266 19.016 7.28266C18.8881 7.28266 18.76 7.29685 18.6354 7.32479L18.2959 7.401C18.2789 7.02117 18.27 6.62449 18.2695 6.2157C18.2685 5.3825 18.0934 4.57033 17.7492 3.80163C17.4188 3.06371 16.9481 2.39929 16.3503 1.82678C15.7525 1.25431 15.0588 0.803781 14.2886 0.48774C13.4864 0.158569 12.639 -0.00847857 11.7699 -0.00878906Z" fill="black" fill-opacity="0.85098"/>
</svg>
