<svg width="20" height="16" viewBox="0 0 20 16" fill="none" xmlns="http://www.w3.org/2000/svg">
<g clip-path="url(#clip0_2444_842)">
<path d="M0.966102 11.6556C1.00737 11.6556 1.0423 11.6217 1.04824 11.5739L1.27257 9.7958L1.0489 7.97726C1.04224 7.92946 1.00737 7.89526 0.966102 7.89526C0.923768 7.89526 0.887702 7.9302 0.882102 7.97726L0.686035 9.7958L0.882102 11.5733C0.887702 11.621 0.923768 11.6556 0.966102 11.6556Z" fill="white" fill-opacity="0.94902"/>
<path d="M0.226467 10.9794C0.267 10.9794 0.299867 10.9479 0.3058 10.9008L0.479667 9.79582L0.3058 8.67022C0.2998 8.62455 0.267 8.59155 0.226467 8.59155C0.184133 8.59155 0.151333 8.62455 0.145333 8.67089L0 9.79589L0.145333 10.9005C0.151333 10.9472 0.184133 10.9794 0.226467 10.9794Z" fill="white" fill-opacity="0.94902"/>
<path d="M1.85087 7.63882C1.84553 7.58102 1.8032 7.53882 1.75067 7.53882C1.69853 7.53882 1.65613 7.58102 1.65127 7.63882L1.46387 9.79582L1.65127 11.8741C1.65613 11.9316 1.69853 11.9732 1.75067 11.9732C1.8032 11.9732 1.84553 11.9316 1.85087 11.8741L2.06287 9.79582L1.85087 7.63882Z" fill="white" fill-opacity="0.94902"/>
<path d="M2.54364 12.057C2.60511 12.057 2.65484 12.0064 2.66084 11.9403L2.86118 9.79657L2.66084 7.57937C2.65484 7.51277 2.60511 7.46277 2.54364 7.46277C2.48131 7.46277 2.43084 7.51284 2.42658 7.5797L2.24951 9.79657L2.42658 11.9403C2.43084 12.0065 2.48131 12.057 2.54364 12.057Z" fill="white" fill-opacity="0.94902"/>
<path d="M3.34202 12.0918C3.41362 12.0918 3.47108 12.0344 3.47702 11.9577L3.47635 11.9582L3.66502 9.79651L3.47635 7.73938C3.47102 7.66391 3.41362 7.60571 3.34195 7.60571C3.26928 7.60571 3.21215 7.66391 3.20782 7.73998L3.04102 9.79658L3.20782 11.9578C3.21222 12.0344 3.26935 12.0918 3.34202 12.0918Z" fill="white" fill-opacity="0.94902"/>
<path d="M4.47538 9.797L4.29838 6.4522C4.29345 6.3674 4.22738 6.2998 4.14631 6.2998C4.06585 6.2998 3.99998 6.36734 3.99505 6.4522L3.83838 9.797L3.99505 11.9582C3.99998 12.0434 4.06591 12.1101 4.14631 12.1101C4.22745 12.1101 4.29345 12.0434 4.29838 11.9582V11.9588L4.47538 9.797Z" fill="white" fill-opacity="0.94902"/>
<path d="M4.95889 12.1136C5.04815 12.1136 5.12222 12.0396 5.12642 11.945V11.9464L5.29189 9.79755L5.12642 5.68716C5.12222 5.59262 5.04815 5.51855 4.95889 5.51855C4.86755 5.51855 4.79415 5.59262 4.78922 5.68716L4.64355 9.79755L4.78989 11.9457C4.79415 12.0396 4.86755 12.1136 4.95889 12.1136Z" fill="white" fill-opacity="0.94902"/>
<path d="M5.77641 5.1582C5.67588 5.1582 5.59475 5.24074 5.59061 5.3448L5.45508 9.7982L5.59061 11.9238C5.59481 12.0273 5.67588 12.1093 5.77641 12.1093C5.87668 12.1093 5.95841 12.028 5.96195 11.9235V11.9245L6.11575 9.7982L5.96195 5.3448C5.95841 5.24007 5.87661 5.1582 5.77641 5.1582Z" fill="white" fill-opacity="0.94902"/>
<path d="M6.6008 12.1136C6.7112 12.1136 6.79913 12.0246 6.80326 11.9099V11.9112L6.94546 9.79831L6.80326 5.19531C6.79906 5.08104 6.7112 4.99158 6.6008 4.99158C6.48973 4.99158 6.40046 5.08104 6.39873 5.19531L6.271 9.79831L6.39873 11.9112C6.40046 12.0246 6.48973 12.1136 6.6008 12.1136Z" fill="white" fill-opacity="0.94902"/>
<path d="M7.43188 12.1115C7.55101 12.1115 7.64768 12.0139 7.65128 11.8903V11.8922L7.78215 9.79859L7.65128 5.31265C7.64768 5.18905 7.55101 5.09192 7.43188 5.09192C7.31188 5.09192 7.21521 5.18899 7.21168 5.31265L7.09668 9.79859L7.21241 11.8912C7.21521 12.0139 7.31188 12.1115 7.43188 12.1115Z" fill="white" fill-opacity="0.94902"/>
<path d="M8.62376 9.79863L8.50529 5.47623C8.50243 5.34289 8.39803 5.23816 8.26856 5.23816C8.13876 5.23816 8.03429 5.34289 8.03156 5.47709L7.92529 9.79863L8.03156 11.8785C8.03429 12.0108 8.13869 12.1156 8.26856 12.1156C8.39796 12.1156 8.50243 12.0108 8.50529 11.8766V11.8785L8.62376 9.79863Z" fill="white" fill-opacity="0.94902"/>
<path d="M9.11223 12.1195C9.24983 12.1195 9.36376 12.005 9.3659 11.8643V11.8654L9.47343 9.79982L9.3659 4.65629C9.36383 4.51502 9.2499 4.40076 9.11223 4.40076C8.9747 4.40076 8.8611 4.51556 8.8583 4.65702L8.7627 9.79776L8.8583 11.8655C8.8611 12.005 8.9747 12.1195 9.11223 12.1195Z" fill="white" fill-opacity="0.94902"/>
<path d="M9.95256 3.91687C9.80396 3.91687 9.68342 4.04014 9.68096 4.1904L9.56982 9.80047L9.68162 11.8355C9.68342 11.9839 9.80402 12.1067 9.95256 12.1067C10.0989 12.1067 10.2217 11.9838 10.2224 11.8331V11.8355L10.3437 9.80047L10.2224 4.1904C10.2217 4.0396 10.0989 3.91687 9.95256 3.91687Z" fill="white" fill-opacity="0.94902"/>
<path d="M10.7211 12.1214C10.7271 12.1219 17.496 12.1251 17.5395 12.1251C18.8985 12.1251 19.9997 11.0103 19.9997 9.63464C19.9997 8.25971 18.8984 7.14471 17.5395 7.14471C17.2022 7.14471 16.8809 7.21364 16.5878 7.33851C16.393 5.09377 14.5335 3.33337 12.265 3.33337C11.7105 3.33337 11.1697 3.44417 10.6921 3.63131C10.5063 3.70397 10.4565 3.77891 10.4551 3.92411V11.8267C10.4572 11.9794 10.5736 12.1062 10.7211 12.1214Z" fill="white" fill-opacity="0.94902"/>
</g>
<defs>
<clipPath id="clip0_2444_842">
<rect width="20" height="10" fill="white" transform="translate(0 2.5)"/>
</clipPath>
</defs>
</svg>
