<svg width="32" height="16" viewBox="0 0 32 16" fill="none" xmlns="http://www.w3.org/2000/svg">
<g clip-path="url(#clip0_2403_765)">
<path d="M1.53649 14.649C1.60251 14.649 1.65841 14.5947 1.6679 14.5182L2.02683 11.6733L1.66897 8.76365C1.6583 8.68717 1.60251 8.63245 1.53649 8.63245C1.46875 8.63245 1.41105 8.68834 1.40209 8.76365L1.08838 11.6733L1.40209 14.5172C1.41105 14.5936 1.46875 14.649 1.53649 14.649Z" fill="white" fill-opacity="0.94902"/>
<path d="M0.353069 13.5669C0.417923 13.5669 0.470509 13.5165 0.480003 13.4411L0.758189 11.6732L0.480003 9.8722C0.470403 9.79914 0.417923 9.74634 0.353069 9.74634C0.285336 9.74634 0.232856 9.79914 0.223256 9.87327L-0.00927734 11.6733L0.223256 13.4406C0.232856 13.5154 0.285336 13.5669 0.353069 13.5669Z" fill="white" fill-opacity="0.94902"/>
<path d="M2.95221 8.22213C2.94367 8.12965 2.87594 8.06213 2.79189 8.06213C2.70847 8.06213 2.64063 8.12965 2.63285 8.22213L2.33301 11.6733L2.63285 14.9986C2.64063 15.0905 2.70847 15.1572 2.79189 15.1572C2.87594 15.1572 2.94367 15.0905 2.95221 14.9986L3.29141 11.6733L2.95221 8.22213Z" fill="white" fill-opacity="0.94902"/>
<path d="M4.06046 15.2911C4.1588 15.2911 4.23838 15.2102 4.24798 15.1044L4.56851 11.6744L4.24798 8.12687C4.23838 8.02031 4.1588 7.94031 4.06046 7.94031C3.96072 7.94031 3.87998 8.02041 3.87315 8.1274L3.58984 11.6744L3.87315 15.1044C3.87998 15.2103 3.96072 15.2911 4.06046 15.2911Z" fill="white" fill-opacity="0.94902"/>
<path d="M5.33756 15.3468C5.45212 15.3468 5.54406 15.255 5.55356 15.1323L5.55249 15.1331L5.85436 11.6743L5.55249 8.38293C5.54396 8.26219 5.45212 8.16907 5.33745 8.16907C5.22118 8.16907 5.12977 8.26219 5.12284 8.38389L4.85596 11.6745L5.12284 15.1324C5.12988 15.255 5.22129 15.3468 5.33756 15.3468Z" fill="white" fill-opacity="0.94902"/>
<path d="M7.15152 11.6752L6.86832 6.32355C6.86043 6.18787 6.75472 6.07971 6.62502 6.07971C6.49627 6.07971 6.39088 6.18776 6.38299 6.32355L6.13232 11.6752L6.38299 15.1332C6.39088 15.2695 6.49638 15.3761 6.62502 15.3761C6.75483 15.3761 6.86043 15.2695 6.86832 15.1332V15.1341L7.15152 11.6752Z" fill="white" fill-opacity="0.94902"/>
<path d="M7.92543 15.3818C8.06826 15.3818 8.18677 15.2633 8.19349 15.1121V15.1143L8.45823 11.6761L8.19349 5.09947C8.18677 4.94822 8.06826 4.82971 7.92543 4.82971C7.7793 4.82971 7.66186 4.94822 7.65397 5.09947L7.4209 11.6761L7.65503 15.1131C7.66186 15.2633 7.7793 15.3818 7.92543 15.3818Z" fill="white" fill-opacity="0.94902"/>
<path d="M9.23288 4.25317C9.07203 4.25317 8.94222 4.38523 8.9356 4.55173L8.71875 11.6772L8.9356 15.0781C8.94232 15.2438 9.07203 15.375 9.23288 15.375C9.39331 15.375 9.52408 15.2449 9.52974 15.0776V15.0793L9.77582 11.6772L9.52974 4.55173C9.52408 4.38416 9.3932 4.25317 9.23288 4.25317Z" fill="white" fill-opacity="0.94902"/>
<path d="M10.5516 15.3818C10.7282 15.3818 10.8689 15.2393 10.8756 15.0558V15.0578L11.1031 11.6772L10.8756 4.31242C10.8688 4.1296 10.7282 3.98645 10.5516 3.98645C10.3739 3.98645 10.2311 4.1296 10.2283 4.31242L10.0239 11.6772L10.2283 15.0578C10.2311 15.2393 10.3739 15.3818 10.5516 15.3818Z" fill="white" fill-opacity="0.94902"/>
<path d="M11.8815 15.3783C12.0721 15.3783 12.2268 15.2223 12.2326 15.0244V15.0275L12.442 11.6778L12.2326 4.50027C12.2268 4.30251 12.0721 4.14709 11.8815 4.14709C11.6895 4.14709 11.5349 4.3024 11.5292 4.50027L11.3452 11.6778L11.5304 15.0259C11.5349 15.2223 11.6895 15.3783 11.8815 15.3783Z" fill="white" fill-opacity="0.94902"/>
<path d="M13.7889 11.6779L13.5994 4.76201C13.5948 4.54868 13.4278 4.3811 13.2206 4.3811C13.0129 4.3811 12.8458 4.54868 12.8414 4.7634L12.6714 11.6779L12.8414 15.0056C12.8458 15.2173 13.0128 15.3849 13.2206 15.3849C13.4277 15.3849 13.5948 15.2173 13.5994 15.0025V15.0056L13.7889 11.6779Z" fill="white" fill-opacity="0.94902"/>
<path d="M14.57 15.3911C14.7902 15.3911 14.9724 15.208 14.9759 14.9828V14.9846L15.1479 11.6796L14.9759 3.44999C14.9726 3.22396 14.7903 3.04114 14.57 3.04114C14.3499 3.04114 14.1682 3.22482 14.1637 3.45116L14.0107 11.6763L14.1637 14.9847C14.1682 15.208 14.3499 15.3911 14.57 15.3911Z" fill="white" fill-opacity="0.94902"/>
<path d="M15.9151 2.26697C15.6773 2.26697 15.4845 2.46419 15.4805 2.70462L15.3027 11.6807L15.4816 14.9368C15.4845 15.1742 15.6775 15.3708 15.9151 15.3708C16.1492 15.3708 16.3457 15.1741 16.3468 14.9329V14.9368L16.5409 11.6807L16.3468 2.70462C16.3457 2.46334 16.1492 2.26697 15.9151 2.26697Z" fill="white" fill-opacity="0.94902"/>
<path d="M17.1449 15.3942C17.1545 15.395 27.9847 15.4001 28.0543 15.4001C30.2287 15.4001 31.9907 13.6165 31.9907 11.4154C31.9907 9.21551 30.2286 7.43151 28.0543 7.43151C27.5147 7.43151 27.0005 7.5418 26.5316 7.74159C26.2199 4.15002 23.2447 1.33337 19.6151 1.33337C18.7279 1.33337 17.8627 1.51065 17.0985 1.81007C16.8012 1.92633 16.7216 2.04623 16.7192 2.27855V14.9227C16.7227 15.167 16.9089 15.37 17.1449 15.3942Z" fill="white" fill-opacity="0.94902"/>
</g>
<defs>
<clipPath id="clip0_2403_765">
<rect width="32" height="16" fill="white" transform="translate(-0.00927734)"/>
</clipPath>
</defs>
</svg>
