<svg width="20" height="20" viewBox="0 0 20 20" fill="none" xmlns="http://www.w3.org/2000/svg">
<path d="M16.1612 18.2217V12.8636H17.931V20H1.95654V12.8636H3.72638V18.2217H16.1612Z" fill="white" fill-opacity="0.94902"/>
<path d="M5.67997 12.3558L14.3683 14.1803L14.736 12.4251L6.04773 10.6006L5.67997 12.3558V12.3558ZM6.82922 8.19869L14.8739 11.9632L15.6094 10.3465L7.56473 6.55895L6.82922 8.19869ZM9.05875 4.22637L15.8853 9.93081L17.0115 8.56821L10.185 2.86377L9.05875 4.22637V4.22637ZM13.4719 0L12.0468 1.06237L17.3333 8.22178L18.7584 7.15942L13.4719 0V0ZM5.49609 16.4205H14.3683V14.6422H5.49609V16.4205Z" fill="white" fill-opacity="0.94902"/>
</svg>
