<svg width="21" height="20" viewBox="0 0 21 20" fill="none" xmlns="http://www.w3.org/2000/svg">
<path d="M1.22962 8.8406C1.22962 8.8406 10.1001 5.10451 13.1765 3.78894C14.3559 3.26276 18.3552 1.57883 18.3552 1.57883C18.3552 1.57883 20.2011 0.842169 20.0473 2.63127C19.996 3.368 19.5858 5.94641 19.1756 8.73536C18.5603 12.682 17.8938 16.9969 17.8938 16.9969C17.8938 16.9969 17.7912 18.2073 16.9196 18.4177C16.0479 18.6282 14.6122 17.6811 14.3559 17.4705C14.1507 17.3127 10.5103 14.9447 9.17714 13.787C8.8182 13.4713 8.40803 12.8399 9.22837 12.1032C11.0743 10.3666 13.2791 8.20918 14.6122 6.84103C15.2275 6.20954 15.8428 4.73615 13.2791 6.52525C9.63861 9.10373 6.04941 11.5243 6.04941 11.5243C6.04941 11.5243 5.229 12.0505 3.69079 11.5769C2.15251 11.1034 0.357905 10.4719 0.357905 10.4719C0.357905 10.4719 -0.872606 9.68257 1.22962 8.8406Z" fill="white" fill-opacity="0.94902"/>
</svg>
