<svg width="20" height="20" viewBox="0 0 20 20" fill="none" xmlns="http://www.w3.org/2000/svg">
<path d="M15.0558 9.26961C14.9696 9.22832 14.8821 9.18858 14.7935 9.15053C14.6391 6.30606 13.0848 4.6776 10.475 4.66094C10.4632 4.66086 10.4515 4.66086 10.4396 4.66086C8.87863 4.66086 7.58037 5.32718 6.7813 6.53966L8.21661 7.52425C8.81355 6.61857 9.75038 6.4255 10.4403 6.4255C10.4483 6.4255 10.4563 6.4255 10.4642 6.42557C11.3235 6.43105 11.9719 6.6809 12.3916 7.16813C12.697 7.52284 12.9013 8.01302 13.0024 8.63165C12.2406 8.50216 11.4166 8.46234 10.5358 8.51284C8.05449 8.65577 6.45933 10.1029 6.56646 12.1137C6.62083 13.1337 7.12897 14.0112 7.99723 14.5845C8.73134 15.0691 9.67682 15.306 10.6595 15.2524C11.9571 15.1813 12.9751 14.6861 13.6854 13.7808C14.2247 13.0933 14.5659 12.2024 14.7165 11.0798C15.3349 11.453 15.7933 11.9442 16.0464 12.5346C16.4768 13.5382 16.5019 15.1875 15.1562 16.5321C13.9771 17.71 12.5598 18.2196 10.4179 18.2353C8.04194 18.2177 6.24502 17.4557 5.07672 15.9705C3.9827 14.5798 3.41731 12.571 3.39621 10C3.41731 7.42894 3.9827 5.42017 5.07672 4.02945C6.24502 2.54426 8.04191 1.78229 10.4179 1.76464C12.8111 1.78243 14.6393 2.54806 15.8523 4.04042C16.4471 4.77225 16.8956 5.69258 17.1912 6.76566L18.8732 6.3169C18.5148 4.99606 17.951 3.85789 17.1837 2.91396C15.6286 1.0007 13.3542 0.0203279 10.4237 0H10.412C7.4875 0.0202573 5.2386 1.00435 3.72779 2.92493C2.38337 4.634 1.68988 7.01205 1.66658 9.99297L1.6665 10L1.66658 10.007C1.68988 12.9879 2.38337 15.366 3.72779 17.0751C5.2386 18.9956 7.4875 19.9798 10.412 20H10.4237C13.0238 19.982 14.8565 19.3013 16.3663 17.7928C18.3416 15.8194 18.2821 13.3457 17.6311 11.8272C17.164 10.7382 16.2735 9.85377 15.0558 9.26961ZM10.5666 13.4903C9.47906 13.5516 8.34925 13.0634 8.29355 12.0179C8.25225 11.2427 8.84523 10.3777 10.6333 10.2747C10.8381 10.2629 11.039 10.2571 11.2364 10.2571C11.8859 10.2571 12.4935 10.3202 13.0459 10.4409C12.8398 13.0141 11.6313 13.4319 10.5666 13.4903Z" fill="white" fill-opacity="0.94902"/>
</svg>
