<svg width="20" height="20" viewBox="0 0 20 20" fill="none" xmlns="http://www.w3.org/2000/svg">
<g clip-path="url(#clip0_2446_774)">
<path d="M12.9861 1.98334H0.625V13.3167C0.625 14.4212 1.52043 15.3167 2.625 15.3167H17.375C18.4796 15.3167 19.375 14.4212 19.375 13.3167V8.09444L12.9861 5.87222V1.98334Z" fill="white" fill-opacity="0.94902"/>
<path d="M0.625 1.98334V1.23334H-0.125V1.98334H0.625ZM12.9861 1.98334H13.7361C13.7361 1.56912 13.4003 1.23334 12.9861 1.23334V1.98334ZM12.9861 5.87222H12.2361V6.40543L12.7397 6.5806L12.9861 5.87222ZM19.375 8.09444H20.125C20.125 7.7752 19.9229 7.49095 19.6214 7.38607L19.375 8.09444ZM0.625 2.73334H12.9861V1.23334H0.625V2.73334ZM1.375 13.3167V1.98334H-0.125V13.3167H1.375ZM12.7397 6.5806L19.1286 8.80282L19.6214 7.38607L13.2325 5.16385L12.7397 6.5806ZM18.625 8.09444V13.3167H20.125V8.09444H18.625ZM12.2361 1.98334V5.87222H13.7361V1.98334H12.2361ZM2.625 16.0667H17.375V14.5667H2.625V16.0667ZM18.625 13.3167C18.625 14.007 18.0653 14.5667 17.375 14.5667V16.0667C18.8938 16.0667 20.125 14.8354 20.125 13.3167H18.625ZM-0.125 13.3167C-0.125 14.8354 1.10622 16.0667 2.625 16.0667V14.5667C1.93464 14.5667 1.375 14.007 1.375 13.3167H-0.125Z" fill="white" fill-opacity="0.94902"/>
<circle cx="3.68072" cy="16.4278" r="2.22222" fill="white" fill-opacity="0.94902"/>
<circle cx="16.0416" cy="16.4278" r="2.22222" fill="white" fill-opacity="0.94902"/>
</g>
<defs>
<clipPath id="clip0_2446_774">
<rect width="20" height="20" fill="white"/>
</clipPath>
</defs>
</svg>
