<svg width="20" height="20" viewBox="0 0 20 20" fill="none" xmlns="http://www.w3.org/2000/svg">
<path d="M15.1573 5.98962C15.1573 8.85421 12.8656 11.7188 10.001 11.7188C7.13646 11.7188 4.8448 8.85421 4.8448 5.98962C4.8448 3.12504 7.13646 0.833374 10.001 0.833374C12.8656 0.833374 15.1573 3.12504 15.1573 5.98962Z" fill="white" fill-opacity="0.94902"/>
<path d="M1.12187 19.1667C0.969693 19.1667 0.858705 19.0335 0.908748 18.8898C1.22473 17.9823 2.78782 15.1563 10.001 15.1563C17.2145 15.1563 18.7762 17.9825 19.0918 18.8898C19.1417 19.0335 19.0308 19.1667 18.8786 19.1667H1.12187Z" fill="white" fill-opacity="0.94902"/>
<path d="M15.1573 5.98962C15.1573 8.85421 12.8656 11.7188 10.001 11.7188C7.13646 11.7188 4.8448 8.85421 4.8448 5.98962C4.8448 3.12504 7.13646 0.833374 10.001 0.833374C12.8656 0.833374 15.1573 3.12504 15.1573 5.98962Z" stroke="white" stroke-opacity="0.94902" stroke-width="1.5" stroke-linecap="round"/>
<path d="M1.12187 19.1667C0.969693 19.1667 0.858705 19.0335 0.908748 18.8898C1.22473 17.9823 2.78782 15.1563 10.001 15.1563C17.2145 15.1563 18.7762 17.9825 19.0918 18.8898C19.1417 19.0335 19.0308 19.1667 18.8786 19.1667H1.12187Z" stroke="white" stroke-opacity="0.94902" stroke-width="1.5" stroke-linecap="round"/>
</svg>
