<svg width="20" height="20" viewBox="0 0 20 20" fill="none" xmlns="http://www.w3.org/2000/svg">
<path d="M19.9865 5.60394C19.8976 7.44543 18.538 9.96702 15.9085 13.1674C13.1898 16.5105 10.8896 18.1819 9.00795 18.1819C7.84277 18.1819 6.85595 17.1642 6.05049 15.128C5.51219 13.2616 4.97449 11.3954 4.43639 9.52898C3.8379 7.49396 3.19622 6.47513 2.51014 6.47513C2.36057 6.47513 1.83706 6.77288 0.940828 7.36613L0 6.21947C0.98682 5.39908 1.96044 4.57888 2.91827 3.75755C4.23443 2.68151 5.22245 2.11564 5.88093 2.05843C7.43724 1.917 8.39507 2.92337 8.7546 5.07772C9.14313 7.40201 9.41188 8.84774 9.56305 9.41361C10.0116 11.342 10.5051 12.3049 11.0444 12.3049C11.4629 12.3049 12.0916 11.6796 12.9298 10.4289C13.7673 9.17779 14.2158 8.22598 14.2764 7.57213C14.3956 6.4925 13.9469 5.95136 12.9298 5.95136C12.4511 5.95136 11.9576 6.05558 11.4499 6.26158C12.4325 3.21622 14.3102 1.73726 17.0817 1.82165C19.1363 1.87868 20.1049 3.13938 19.9865 5.60394Z" fill="white" fill-opacity="0.94902"/>
</svg>
