<svg width="56" height="56" viewBox="0 0 56 56" fill="none" xmlns="http://www.w3.org/2000/svg">
<path fill-rule="evenodd" clip-rule="evenodd" d="M54.715 14.0998C55.1043 12.8894 54.715 12 52.8623 12H46.7359C45.1781 12 44.46 12.7683 44.0705 13.6155C44.0705 13.6155 40.955 20.6961 36.5415 25.2955C35.1136 26.6268 34.4645 27.0504 33.6856 27.0504C33.2962 27.0504 32.7325 26.6268 32.7325 25.4166V14.0998C32.7325 12.6473 32.2804 12 30.9822 12H21.355C20.3815 12 19.7961 12.6741 19.7961 13.313C19.7961 14.6899 22.0027 15.0074 22.2302 18.8806V27.2926C22.2302 29.1369 21.873 29.4713 21.0941 29.4713C19.0172 29.4713 13.9652 22.359 10.9688 14.2208C10.3816 12.639 9.79267 12 8.22693 12H2.10051C0.350099 12 0 12.7683 0 13.6155C0 15.1285 2.07699 22.6328 9.67082 32.5576C14.7333 39.3355 21.8661 43.0097 28.3566 43.0097C32.2509 43.0097 32.7326 42.1936 32.7326 40.788V35.6653C32.7326 34.0332 33.1015 33.7075 34.3347 33.7075C35.2434 33.7075 36.8011 34.1311 40.4358 37.399C44.5897 41.2721 45.2746 43.0097 47.6111 43.0097H53.7375C55.4879 43.0097 56.3631 42.1936 55.8582 40.5832C55.3057 38.9782 53.3225 36.6495 50.6909 33.889C49.2629 32.3156 47.121 30.6211 46.4719 29.7737C45.5633 28.6845 45.8229 28.2003 46.4719 27.2321C46.4719 27.2321 53.9361 17.4282 54.715 14.0998Z" fill="white" fill-opacity="0.94902"/>
</svg>
