<svg width="20" height="19" viewBox="0 0 20 19" fill="none" xmlns="http://www.w3.org/2000/svg">
<path d="M1.30769 0.26099H0V0.293955C1.1978 0.766483 1.79121 1.67857 2.25275 3.79945L5.48352 18.7005H6.20879L2.96703 3.67857C2.40659 1.09616 1.82418 0.623627 1.30769 0.26099ZM3.75824 0.26099H2.53846V0.293955C3.08791 0.953296 3.24176 1.76648 3.68132 3.55769L6.95604 18.7005H7.68132L4.40659 3.50275C3.93407 1.5467 3.86813 1.00824 3.75824 0.26099ZM8.18681 17.6456L8.67033 16.6346L5.94505 3.78846C5.46154 1.78846 5.57143 0.876374 5.76923 0.26099H4.71429C4.7033 1.07418 4.73626 1.74451 5.13187 3.45879L8.18681 17.6456ZM9.16484 15.6126L9.65934 14.5907L7.47253 4.01923C7.06593 1.96428 7.24176 0.898351 7.92308 0.293955V0.25H6.73626C6.37363 1.00824 6.26374 1.77747 6.68132 3.81044L9.16484 15.6126ZM10.1429 13.5687L10.6374 12.5357L8.97802 4.07417C8.51648 1.68956 9.06593 0.656593 10.9451 0.293955V0.26099H9.20879C8.7033 0.502748 7.64835 1.26099 8.24176 4.08516L10.1429 13.5687ZM13.3956 6.82143L13.4396 6.8544C14.6044 2.99725 14.967 1.29396 13.9451 0.25H12.4945V0.282967C14.1209 0.865385 14.4835 2.51373 13.3956 6.82143ZM13.4945 6.88736L13.5385 6.92033C15.3626 2.60165 15.8352 1.41484 16.5934 0.282967V0.25H15.1099V0.293955C15.2637 2.01923 14.6703 3.61264 13.4945 6.88736ZM17.989 0.26099C16.4505 1.16209 15.5275 2.83242 13.5934 6.9533L13.6374 6.98626C15.8571 2.82143 17.1319 1.1511 20 0.293955V0.26099H17.989Z" fill="white" fill-opacity="0.94902"/>
</svg>
