<svg width="20" height="20" viewBox="0 0 20 20" fill="none" xmlns="http://www.w3.org/2000/svg">
<path d="M6.1118 1.27639L5.3618 2.77639C5.19558 3.10884 5.43733 3.5 5.80902 3.5H7C7.27614 3.5 7.5 3.27614 7.5 3V2.75C7.5 2.47386 7.72386 2.25 8 2.25H12C12.2761 2.25 12.5 2.47386 12.5 2.75V3C12.5 3.27614 12.7239 3.5 13 3.5H14.191C14.5627 3.5 14.8044 3.10884 14.6382 2.77639L13.8882 1.27639C13.8035 1.107 13.6304 1 13.441 1H6.55902C6.36963 1 6.1965 1.107 6.1118 1.27639Z" fill="white" fill-opacity="0.94902"/>
<path fill-rule="evenodd" clip-rule="evenodd" d="M17.5 4.75C18.8807 4.75 20 5.86929 20 7.25C20 7.25 15.2439 10.3097 11.25 10.9015V10.25C11.25 9.97386 11.0261 9.75 10.75 9.75H9.25C8.97386 9.75 8.75 9.97386 8.75 10.25V10.9015C4.7561 10.3097 0 7.25 0 7.25C0 5.86929 1.11929 4.75 2.5 4.75H17.5Z" fill="white" fill-opacity="0.94902"/>
<path d="M2.5 18.5H17.5C18.8807 18.5 20 17.3807 20 16V8.5C20 8.5 15.2439 11.5597 11.25 12.1515C11.25 12.1515 11.25 13.5 10 13.5C8.75 13.5 8.75 12.1515 8.75 12.1515C4.7561 11.5597 0 8.5 0 8.5V16C0 17.3807 1.11929 18.5 2.5 18.5Z" fill="white" fill-opacity="0.94902"/>
</svg>
