<svg width="20" height="20" viewBox="0 0 20 20" fill="none" xmlns="http://www.w3.org/2000/svg">
<g clip-path="url(#clip0_2403_764)">
<path d="M19.7088 3.01129H19.7086H11.846C11.7664 3.01129 11.6906 3.04486 11.6372 3.10371C11.5837 3.16262 11.5576 3.24123 11.5652 3.32047L11.7185 4.91002C11.7319 5.04877 11.8446 5.15691 11.9838 5.16455L13.6264 5.25492L10.4726 9.63084L7.03343 2.77891L9.51637 2.68399C9.66654 2.67828 9.78576 2.55603 9.78768 2.40581L9.8058 0.984249C9.80668 0.908789 9.77742 0.836126 9.72446 0.782459C9.67149 0.728851 9.59923 0.698608 9.52377 0.698608H0.27275C0.116936 0.698608 -0.00927734 0.824821 -0.00927734 0.980694V2.565C-0.00927734 2.71918 0.114547 2.84481 0.268671 2.84703L2.88261 2.88467L7.85358 11.6537L7.83138 17.1305L4.37514 17.2723C4.22603 17.2784 4.10757 17.3996 4.10471 17.5488L4.07674 19.0138C4.07528 19.0896 4.10442 19.1627 4.15756 19.2168C4.21053 19.2708 4.28302 19.3012 4.35877 19.3012H15.1698C15.2472 19.3012 15.3212 19.2695 15.3744 19.2134C15.4277 19.1573 15.4556 19.0818 15.4515 19.0045L15.376 17.5541C15.3685 17.4098 15.2534 17.2946 15.109 17.2871L12.1354 17.1312L11.7026 11.7964L17.0407 5.36436L19.2141 5.26553C19.3337 5.25999 19.4369 5.17952 19.4714 5.06479L19.9757 3.3844C19.9854 3.3559 19.9907 3.32519 19.9907 3.29332C19.9907 3.13762 19.8646 3.01129 19.7088 3.01129Z" fill="white" fill-opacity="0.94902"/>
</g>
<defs>
<clipPath id="clip0_2403_764">
<rect width="20" height="20" fill="white" transform="translate(-0.00927734)"/>
</clipPath>
</defs>
</svg>
