<svg width="20" height="20" viewBox="0 0 20 20" fill="none" xmlns="http://www.w3.org/2000/svg">
<g clip-path="url(#clip0_2403_727)">
<path d="M8.37613 14.0911L5.61081 17.4585C5.22174 17.9323 5.40762 18.6478 5.97809 18.8723L8.68161 19.9364C9.26484 20.166 9.89884 19.7463 9.91541 19.1197L10.032 14.7087C10.0555 13.8195 8.94063 13.4037 8.37613 14.0911Z" fill="white" fill-opacity="0.94902"/>
<path d="M7.91667 10.7436L3.81558 9.27113C3.23855 9.06394 2.62719 9.47951 2.60749 10.0923L2.51416 12.9962C2.49401 13.6226 3.10239 14.0787 3.69806 13.8836L7.8916 12.5106C8.73696 12.2339 8.75381 11.0441 7.91667 10.7436Z" fill="white" fill-opacity="0.94902"/>
<path d="M12.6169 11.216L16.8177 10.0582C17.4087 9.89527 17.6692 9.20347 17.3325 8.69112L15.7366 6.26333C15.3923 5.7396 14.6323 5.71706 14.2576 6.21953L11.6198 9.7569C11.0881 10.47 11.7594 11.4524 12.6169 11.216Z" fill="white" fill-opacity="0.94902"/>
<path d="M9.5749 1.12158C9.60832 0.395031 8.92368 -0.153075 8.22201 0.0385489L4.89692 0.946626C4.1796 1.14252 3.87495 1.99156 4.30406 2.59884L8.11982 9.20962C8.15081 9.26329 8.18496 9.3153 8.22513 9.36254C8.79022 10.0266 9.85108 9.78054 10.1126 9.00317C10.1595 8.86351 10.1728 8.71468 10.1612 8.56777L9.5749 1.12158Z" fill="white" fill-opacity="0.94902"/>
<path d="M16.8461 14.2379L12.6279 12.9427C11.7776 12.6816 11.078 13.6441 11.5889 14.3723L14.0914 17.9394C14.4435 18.4413 15.1827 18.4541 15.5519 17.9647L17.302 15.6456C17.6795 15.1452 17.4453 14.4219 16.8461 14.2379Z" fill="white" fill-opacity="0.94902"/>
</g>
<defs>
<clipPath id="clip0_2403_727">
<rect width="20" height="20" fill="white" transform="translate(-0.000488281)"/>
</clipPath>
</defs>
</svg>
