<svg width="46" height="46" viewBox="0 0 46 46" fill="none" xmlns="http://www.w3.org/2000/svg">
<path d="M0 14.1005C0 12.3882 1.47098 11 3.28548 11H22.9984C28.4421 11 32.8548 15.1644 32.8548 20.3015V32.7035C32.8548 34.4159 31.3839 35.804 29.5693 35.804H9.85645C4.4129 35.804 0 31.6397 0 26.5025V14.1005Z" fill="white"/>
<path d="M34.501 22.632C34.501 21.1301 35.0786 19.679 36.1266 18.5486L41.6817 12.5577C43.1799 10.9418 46.0002 11.9418 46.0002 14.0889V32.7163C46.0002 34.8634 43.1799 35.8633 41.6817 34.2474L36.1266 28.2566C35.0786 27.1261 34.501 25.6751 34.501 24.1732V22.632Z" fill="white"/>
</svg>
