<svg width="788" height="559" viewBox="0 0 788 559" fill="none" xmlns="http://www.w3.org/2000/svg">
<path d="M415 42.0001C386.5 42.0001 367 27.5001 339 0C355 20.0001 394.5 50.5 414 50.5L415 42.0001Z" fill="#0A0702"/>
<path d="M409 43.5C375.5 43.5 339 0 339 0C339 0 377.5 49.5 411 49.5L409 43.5Z" fill="url(#paint0_linear_114_398)"/>
<path fill-rule="evenodd" clip-rule="evenodd" d="M250.576 558.5C341.636 238 385 97.9999 405.808 49.5002C415.5 26.9999 432.711 18.8184 439.808 22.0001C446.703 25.0906 442.774 42.3884 435.308 58.2853C427.072 75.8234 405.749 107.091 403.808 110.5C400.108 117 299.5 423.5 250.576 558.5ZM414.5 51C412.613 54.3699 403.808 77 404.076 86.5002C413.5 81.5 424.117 60.5 426 57.5C427.884 54.5 435.308 39.5002 431.308 36.5003C428.024 34.0372 421.5 38.5 414.5 51Z" fill="black"/>
<path fill-rule="evenodd" clip-rule="evenodd" d="M419.712 42.7287C428.79 41.9358 441.967 37.612 454.076 34.99C498.454 25.3806 554.186 14 564.5 69.5C575 126 492.5 172 430.5 191C422.84 193.347 415.364 195.504 408.085 197.603C356.443 212.499 314.732 224.53 288 281.5C257.5 346.5 208.5 373.5 0.5 333.5C190 367 248.5 346.5 279 281.5C308.082 219.521 354.894 205.275 412.934 187.613C415.763 186.752 418.618 185.883 421.5 185C483.5 166 567 126 556.5 69.5C547.793 22.6454 496.629 34.2121 454.342 43.7721C439.228 47.1889 425.248 50.3494 414.745 50.4948C417 45.0001 419.712 42.7287 419.712 42.7287Z" fill="#0A0702"/>
<path fill-rule="evenodd" clip-rule="evenodd" d="M420 42.3881C426.616 41.2846 434.396 39.4789 442.838 37.5193C486.207 27.4531 547.061 13.3282 557.5 69.5002C568 126 482.5 169 420.5 188C413.845 190.04 407.363 191.946 401.059 193.801C348.624 209.227 308.441 221.048 283 275.5C254.5 336.5 217.5 372.5 0.5 333.5C199 366 245.5 336.5 274 275.5C302.022 215.523 347.929 201.466 408.393 182.952L410.015 182.455L411.5 182C473.5 163 560 126 549.5 69.5002C540.62 21.7156 486.466 34.137 445.652 43.4988C433.846 46.2069 423.431 48.3355 415.276 49.0002C418.5 43.5002 420 42.3881 420 42.3881Z" fill="url(#paint1_linear_114_398)"/>
<mask id="path-6-outside-1_114_398" maskUnits="userSpaceOnUse" x="394.319" y="239.333" width="394" height="89" fill="black">
<rect fill="white" x="394.319" y="239.333" width="394" height="89"/>
<path d="M407.222 254.222C407.815 253.037 408.704 252.222 409.889 251.778C411.222 251.333 412.481 251.408 413.667 252C414.852 252.593 415.667 253.556 416.111 254.889C416.555 256.074 416.555 257.259 416.111 258.445C413.592 263.333 411.518 268.519 409.889 274C408.259 279.185 406.926 284.593 405.889 290.222C403.518 300.148 402.778 307.408 403.667 312C404.259 315.704 405.592 317.704 407.667 318C412.852 318.889 420.185 314.148 429.667 303.778C439.148 293.259 448.704 280.148 458.333 264.445C458.778 263.852 459.296 263.778 459.889 264.222C460.63 264.519 460.778 265.037 460.333 265.778C450.852 281.482 441.074 294.741 431 305.556C420.926 316.222 413.074 321.333 407.444 320.889C399.444 320.445 396.185 309.852 397.667 289.111C398.407 282.445 399.518 276.519 401 271.333C402.481 265.704 404.555 260 407.222 254.222Z"/>
<path d="M488.926 258.667C488.037 257.333 486.851 256.371 485.37 255.778C482.851 254.889 479.814 255.408 476.259 257.333C472.407 259.259 468.703 263.556 465.148 270.222C462.926 274.371 461.37 278 460.481 281.111C455.444 295.185 453.74 305.333 455.37 311.556C456.111 315.111 458.407 316.445 462.259 315.556C466.407 314.519 470.481 312.445 474.481 309.333C484.851 301.482 496.629 286.593 509.814 264.667C510.259 263.926 510.777 263.778 511.37 264.222C512.111 264.667 512.259 265.185 511.814 265.778C500.555 284.445 488.629 299.556 476.037 311.111C471 315.704 466.926 318.667 463.814 320C460.111 321.63 456.851 321.926 454.037 320.889C451.37 319.852 449.37 317.482 448.037 313.778C445.37 306.963 446.481 295.111 451.37 278.222C453.148 272.741 455.074 268.445 457.148 265.333C461.888 258.519 467.592 254.148 474.259 252.222C478.851 251.037 482.926 251.333 486.481 253.111C490.481 255.185 492.629 258.445 492.926 262.889C492.926 264.371 492.481 265.333 491.592 265.778C490.851 266.074 490.111 265.778 489.37 264.889C488.481 263.704 488.333 261.63 488.926 258.667Z"/>
<path d="M545.053 287.111C548.756 289.926 552.756 290.963 557.053 290.222C565.201 288.593 573.793 280.074 582.83 264.667C583.275 263.926 583.793 263.778 584.386 264.222C585.127 264.519 585.275 265.037 584.83 265.778C575.497 281.778 566.312 290.593 557.275 292.222C552.83 293.111 548.608 292.074 544.608 289.111C541.645 299.63 536.904 307.63 530.386 313.111C523.867 318.593 517.719 320.667 511.941 319.333C507.645 318.296 504.386 315.259 502.164 310.222C499.793 305.037 499.053 297.852 499.941 288.667C501.127 280.519 502.756 274.371 504.83 270.222C507.645 264.741 511.053 260.445 515.053 257.333C519.053 254.222 523.053 252.296 527.053 251.556C532.534 250.667 537.127 252.148 540.83 256C547.053 262.519 548.534 272.741 545.275 286.667C545.275 286.815 545.201 286.963 545.053 287.111ZM545.053 271.333C544.904 268.963 544.46 267.111 543.719 265.778C543.127 264.296 542.386 263.482 541.497 263.333C540.756 263.037 539.941 263.111 539.053 263.556C537.571 264.593 536.608 266.445 536.164 269.111C535.867 271.63 536.46 274.593 537.941 278C539.423 280.963 541.275 283.482 543.497 285.556C544.682 280.371 545.201 275.63 545.053 271.333ZM542.83 287.778C540.164 285.408 537.941 282.445 536.164 278.889C534.534 274.741 533.941 271.185 534.386 268.222C534.978 265.259 536.238 263.185 538.164 262C539.941 260.963 541.571 261.037 543.053 262.222C542.164 260.148 541.053 258.519 539.719 257.333C536.608 254.667 532.83 254.222 528.386 256C523.349 257.926 518.534 264.074 513.941 274.445C510.682 281.556 508.682 286.815 507.941 290.222C504.09 302.963 504.534 311.408 509.275 315.556C512.09 317.926 515.719 318.519 520.164 317.333C524.756 315.852 529.127 312.519 533.275 307.333C537.571 302.148 540.756 295.63 542.83 287.778Z"/>
<path d="M588.219 261.778C590.145 262.667 592.145 263.185 594.219 263.333C600.294 263.482 604.738 262.445 607.553 260.222C609.775 258.445 612.59 254.963 615.997 249.778C616.145 249.333 616.368 248.963 616.664 248.667C616.664 248.519 616.664 248.445 616.664 248.445C618.294 246.667 620.219 246.296 622.442 247.333C623.627 247.926 624.442 248.889 624.886 250.222C625.331 251.408 625.257 252.667 624.664 254C622.738 257.852 621.108 261.926 619.775 266.222C617.997 271.259 616.294 277.778 614.664 285.778C613.775 290.074 612.812 295.037 611.775 300.667C609.701 312.222 609.553 319.259 611.331 321.778C613.553 324.889 617.997 323.408 624.664 317.333C635.034 308.148 648.219 290.445 664.219 264.222C664.664 263.63 665.182 263.556 665.775 264C666.516 264.296 666.664 264.815 666.219 265.556C648.442 294.741 633.775 313.63 622.219 322.222C617.923 325.482 614.368 326.667 611.553 325.778C606.368 324.148 603.997 315.852 604.442 300.889C604.59 297.037 605.182 291.482 606.219 284.222C607.405 276.963 608.59 271.185 609.775 266.889C610.368 264.371 611.108 261.926 611.997 259.556C610.219 261.482 608.368 262.963 606.442 264C603.331 265.63 599.257 266.593 594.219 266.889C588.886 267.482 584.219 266.519 580.219 264C576.664 261.926 574.59 258.889 573.997 254.889C573.997 251.63 574.59 249.037 575.775 247.111C578.145 243.259 581.257 241.333 585.108 241.333C587.627 241.333 589.405 242.371 590.442 244.445C591.479 246.519 591.405 250.222 590.219 255.556L588.219 261.778ZM585.997 260.889L587.997 255.111C588.738 252.445 589.034 250.296 588.886 248.667C588.738 246.889 588.368 245.704 587.775 245.111C587.182 244.371 586.368 244.074 585.331 244.222C583.849 244.371 582.59 245.482 581.553 247.556C580.664 249.482 580.516 251.704 581.108 254.222C581.108 256.445 582.442 258.445 585.108 260.222L585.997 260.889Z"/>
<path d="M663.98 285.778L662.647 290C659.832 300.371 658.869 307.482 659.758 311.333C660.647 315.185 663.165 316.593 667.314 315.556C671.017 314.667 675.017 312.519 679.314 309.111C689.98 300.519 701.832 285.482 714.869 264C715.165 263.408 715.684 263.333 716.425 263.778C717.165 264.074 717.314 264.593 716.869 265.333C706.647 282.222 696.499 295.778 686.425 306C683.314 309.111 679.98 312.074 676.425 314.889C673.314 317.259 670.721 318.889 668.647 319.778C665.388 321.111 662.425 321.334 659.758 320.445C654.425 318.519 651.758 312.519 651.758 302.445C651.758 296.815 652.499 290.963 653.98 284.889C654.425 283.556 655.165 281.185 656.202 277.778C658.721 270.815 662.054 265.259 666.202 261.111C670.499 256.963 674.943 254.148 679.536 252.667C685.61 250.889 690.647 251.185 694.647 253.556C698.795 255.778 700.276 258.963 699.091 263.111C698.351 265.185 696.425 267.852 693.314 271.111C690.202 274.222 686.276 277.037 681.536 279.556C675.758 282.667 669.906 284.741 663.98 285.778ZM664.869 282.222C670.499 281.185 675.536 279.408 679.98 276.889C683.98 274.519 687.239 271.926 689.758 269.111C692.425 266.296 693.98 263.926 694.425 262C694.721 260.371 694.054 259.185 692.425 258.445C688.425 256.519 683.61 257.482 677.98 261.333C672.054 265.482 667.832 271.926 665.314 280.667L664.869 282.222Z"/>
<path d="M754.605 281.556C749.42 289.852 744.013 297.185 738.383 303.556C729.198 314.371 721.494 320.296 715.272 321.333C713.939 321.482 712.68 321.259 711.494 320.667C710.457 320.074 709.642 319.185 709.05 318C708.309 316.667 707.791 314.963 707.494 312.889C707.05 310.074 706.902 307.333 707.05 304.667C707.346 301.259 708.531 295.333 710.605 286.889C710.754 286.445 710.902 285.778 711.05 284.889C711.346 284 711.568 283.333 711.717 282.889C713.494 276.074 714.605 270.519 715.05 266.222C715.939 256.889 715.42 249.852 713.494 245.111C713.05 244.371 713.198 243.852 713.939 243.556C714.68 243.111 715.198 243.259 715.494 244C719.198 249.185 721.346 256.667 721.939 266.445C722.531 273.111 722.087 279.333 720.605 285.111C720.457 286 720.013 287.556 719.272 289.778C717.494 294.222 715.642 299.63 713.717 306C712.531 310 711.939 312.296 711.939 312.889C711.494 316 711.717 317.926 712.605 318.667C713.198 319.111 714.013 319.259 715.05 319.111C720.828 318.222 728.161 312.667 737.05 302.445C742.531 296.074 747.939 288.593 753.272 280C749.568 275.259 747.717 268.889 747.717 260.889C748.161 255.111 749.865 251.185 752.828 249.111C755.791 247.037 758.605 246.963 761.272 248.889C763.494 250.371 764.828 252.667 765.272 255.778C765.717 258.741 764.754 262.741 762.383 267.778C760.309 271.63 758.161 275.482 755.939 279.333C757.865 282 760.309 283.333 763.272 283.333C769.642 283.333 776.383 277.037 783.494 264.445C783.939 263.852 784.457 263.778 785.05 264.222C785.791 264.519 785.939 264.963 785.494 265.556C778.087 278.445 770.68 285.037 763.272 285.333C760.013 285.482 757.124 284.222 754.605 281.556ZM754.828 277.333C756.754 273.926 758.68 270.371 760.605 266.667C762.531 262.519 763.346 259.111 763.05 256.445C762.754 253.778 761.717 251.926 759.939 250.889C758.013 249.852 756.161 250.222 754.383 252C752.754 253.778 751.939 256.815 751.939 261.111C751.494 267.63 752.457 273.037 754.828 277.333Z"/>
</mask>
<path d="M407.222 254.222C407.815 253.037 408.704 252.222 409.889 251.778C411.222 251.333 412.481 251.408 413.667 252C414.852 252.593 415.667 253.556 416.111 254.889C416.555 256.074 416.555 257.259 416.111 258.445C413.592 263.333 411.518 268.519 409.889 274C408.259 279.185 406.926 284.593 405.889 290.222C403.518 300.148 402.778 307.408 403.667 312C404.259 315.704 405.592 317.704 407.667 318C412.852 318.889 420.185 314.148 429.667 303.778C439.148 293.259 448.704 280.148 458.333 264.445C458.778 263.852 459.296 263.778 459.889 264.222C460.63 264.519 460.778 265.037 460.333 265.778C450.852 281.482 441.074 294.741 431 305.556C420.926 316.222 413.074 321.333 407.444 320.889C399.444 320.445 396.185 309.852 397.667 289.111C398.407 282.445 399.518 276.519 401 271.333C402.481 265.704 404.555 260 407.222 254.222Z" fill="#090808"/>
<path d="M488.926 258.667C488.037 257.333 486.851 256.371 485.37 255.778C482.851 254.889 479.814 255.408 476.259 257.333C472.407 259.259 468.703 263.556 465.148 270.222C462.926 274.371 461.37 278 460.481 281.111C455.444 295.185 453.74 305.333 455.37 311.556C456.111 315.111 458.407 316.445 462.259 315.556C466.407 314.519 470.481 312.445 474.481 309.333C484.851 301.482 496.629 286.593 509.814 264.667C510.259 263.926 510.777 263.778 511.37 264.222C512.111 264.667 512.259 265.185 511.814 265.778C500.555 284.445 488.629 299.556 476.037 311.111C471 315.704 466.926 318.667 463.814 320C460.111 321.63 456.851 321.926 454.037 320.889C451.37 319.852 449.37 317.482 448.037 313.778C445.37 306.963 446.481 295.111 451.37 278.222C453.148 272.741 455.074 268.445 457.148 265.333C461.888 258.519 467.592 254.148 474.259 252.222C478.851 251.037 482.926 251.333 486.481 253.111C490.481 255.185 492.629 258.445 492.926 262.889C492.926 264.371 492.481 265.333 491.592 265.778C490.851 266.074 490.111 265.778 489.37 264.889C488.481 263.704 488.333 261.63 488.926 258.667Z" fill="#090808"/>
<path d="M545.053 287.111C548.756 289.926 552.756 290.963 557.053 290.222C565.201 288.593 573.793 280.074 582.83 264.667C583.275 263.926 583.793 263.778 584.386 264.222C585.127 264.519 585.275 265.037 584.83 265.778C575.497 281.778 566.312 290.593 557.275 292.222C552.83 293.111 548.608 292.074 544.608 289.111C541.645 299.63 536.904 307.63 530.386 313.111C523.867 318.593 517.719 320.667 511.941 319.333C507.645 318.296 504.386 315.259 502.164 310.222C499.793 305.037 499.053 297.852 499.941 288.667C501.127 280.519 502.756 274.371 504.83 270.222C507.645 264.741 511.053 260.445 515.053 257.333C519.053 254.222 523.053 252.296 527.053 251.556C532.534 250.667 537.127 252.148 540.83 256C547.053 262.519 548.534 272.741 545.275 286.667C545.275 286.815 545.201 286.963 545.053 287.111ZM545.053 271.333C544.904 268.963 544.46 267.111 543.719 265.778C543.127 264.296 542.386 263.482 541.497 263.333C540.756 263.037 539.941 263.111 539.053 263.556C537.571 264.593 536.608 266.445 536.164 269.111C535.867 271.63 536.46 274.593 537.941 278C539.423 280.963 541.275 283.482 543.497 285.556C544.682 280.371 545.201 275.63 545.053 271.333ZM542.83 287.778C540.164 285.408 537.941 282.445 536.164 278.889C534.534 274.741 533.941 271.185 534.386 268.222C534.978 265.259 536.238 263.185 538.164 262C539.941 260.963 541.571 261.037 543.053 262.222C542.164 260.148 541.053 258.519 539.719 257.333C536.608 254.667 532.83 254.222 528.386 256C523.349 257.926 518.534 264.074 513.941 274.445C510.682 281.556 508.682 286.815 507.941 290.222C504.09 302.963 504.534 311.408 509.275 315.556C512.09 317.926 515.719 318.519 520.164 317.333C524.756 315.852 529.127 312.519 533.275 307.333C537.571 302.148 540.756 295.63 542.83 287.778Z" fill="#090808"/>
<path d="M588.219 261.778C590.145 262.667 592.145 263.185 594.219 263.333C600.294 263.482 604.738 262.445 607.553 260.222C609.775 258.445 612.59 254.963 615.997 249.778C616.145 249.333 616.368 248.963 616.664 248.667C616.664 248.519 616.664 248.445 616.664 248.445C618.294 246.667 620.219 246.296 622.442 247.333C623.627 247.926 624.442 248.889 624.886 250.222C625.331 251.408 625.257 252.667 624.664 254C622.738 257.852 621.108 261.926 619.775 266.222C617.997 271.259 616.294 277.778 614.664 285.778C613.775 290.074 612.812 295.037 611.775 300.667C609.701 312.222 609.553 319.259 611.331 321.778C613.553 324.889 617.997 323.408 624.664 317.333C635.034 308.148 648.219 290.445 664.219 264.222C664.664 263.63 665.182 263.556 665.775 264C666.516 264.296 666.664 264.815 666.219 265.556C648.442 294.741 633.775 313.63 622.219 322.222C617.923 325.482 614.368 326.667 611.553 325.778C606.368 324.148 603.997 315.852 604.442 300.889C604.59 297.037 605.182 291.482 606.219 284.222C607.405 276.963 608.59 271.185 609.775 266.889C610.368 264.371 611.108 261.926 611.997 259.556C610.219 261.482 608.368 262.963 606.442 264C603.331 265.63 599.257 266.593 594.219 266.889C588.886 267.482 584.219 266.519 580.219 264C576.664 261.926 574.59 258.889 573.997 254.889C573.997 251.63 574.59 249.037 575.775 247.111C578.145 243.259 581.257 241.333 585.108 241.333C587.627 241.333 589.405 242.371 590.442 244.445C591.479 246.519 591.405 250.222 590.219 255.556L588.219 261.778ZM585.997 260.889L587.997 255.111C588.738 252.445 589.034 250.296 588.886 248.667C588.738 246.889 588.368 245.704 587.775 245.111C587.182 244.371 586.368 244.074 585.331 244.222C583.849 244.371 582.59 245.482 581.553 247.556C580.664 249.482 580.516 251.704 581.108 254.222C581.108 256.445 582.442 258.445 585.108 260.222L585.997 260.889Z" fill="#090808"/>
<path d="M663.98 285.778L662.647 290C659.832 300.371 658.869 307.482 659.758 311.333C660.647 315.185 663.165 316.593 667.314 315.556C671.017 314.667 675.017 312.519 679.314 309.111C689.98 300.519 701.832 285.482 714.869 264C715.165 263.408 715.684 263.333 716.425 263.778C717.165 264.074 717.314 264.593 716.869 265.333C706.647 282.222 696.499 295.778 686.425 306C683.314 309.111 679.98 312.074 676.425 314.889C673.314 317.259 670.721 318.889 668.647 319.778C665.388 321.111 662.425 321.334 659.758 320.445C654.425 318.519 651.758 312.519 651.758 302.445C651.758 296.815 652.499 290.963 653.98 284.889C654.425 283.556 655.165 281.185 656.202 277.778C658.721 270.815 662.054 265.259 666.202 261.111C670.499 256.963 674.943 254.148 679.536 252.667C685.61 250.889 690.647 251.185 694.647 253.556C698.795 255.778 700.276 258.963 699.091 263.111C698.351 265.185 696.425 267.852 693.314 271.111C690.202 274.222 686.276 277.037 681.536 279.556C675.758 282.667 669.906 284.741 663.98 285.778ZM664.869 282.222C670.499 281.185 675.536 279.408 679.98 276.889C683.98 274.519 687.239 271.926 689.758 269.111C692.425 266.296 693.98 263.926 694.425 262C694.721 260.371 694.054 259.185 692.425 258.445C688.425 256.519 683.61 257.482 677.98 261.333C672.054 265.482 667.832 271.926 665.314 280.667L664.869 282.222Z" fill="#090808"/>
<path d="M754.605 281.556C749.42 289.852 744.013 297.185 738.383 303.556C729.198 314.371 721.494 320.296 715.272 321.333C713.939 321.482 712.68 321.259 711.494 320.667C710.457 320.074 709.642 319.185 709.05 318C708.309 316.667 707.791 314.963 707.494 312.889C707.05 310.074 706.902 307.333 707.05 304.667C707.346 301.259 708.531 295.333 710.605 286.889C710.754 286.445 710.902 285.778 711.05 284.889C711.346 284 711.568 283.333 711.717 282.889C713.494 276.074 714.605 270.519 715.05 266.222C715.939 256.889 715.42 249.852 713.494 245.111C713.05 244.371 713.198 243.852 713.939 243.556C714.68 243.111 715.198 243.259 715.494 244C719.198 249.185 721.346 256.667 721.939 266.445C722.531 273.111 722.087 279.333 720.605 285.111C720.457 286 720.013 287.556 719.272 289.778C717.494 294.222 715.642 299.63 713.717 306C712.531 310 711.939 312.296 711.939 312.889C711.494 316 711.717 317.926 712.605 318.667C713.198 319.111 714.013 319.259 715.05 319.111C720.828 318.222 728.161 312.667 737.05 302.445C742.531 296.074 747.939 288.593 753.272 280C749.568 275.259 747.717 268.889 747.717 260.889C748.161 255.111 749.865 251.185 752.828 249.111C755.791 247.037 758.605 246.963 761.272 248.889C763.494 250.371 764.828 252.667 765.272 255.778C765.717 258.741 764.754 262.741 762.383 267.778C760.309 271.63 758.161 275.482 755.939 279.333C757.865 282 760.309 283.333 763.272 283.333C769.642 283.333 776.383 277.037 783.494 264.445C783.939 263.852 784.457 263.778 785.05 264.222C785.791 264.519 785.939 264.963 785.494 265.556C778.087 278.445 770.68 285.037 763.272 285.333C760.013 285.482 757.124 284.222 754.605 281.556ZM754.828 277.333C756.754 273.926 758.68 270.371 760.605 266.667C762.531 262.519 763.346 259.111 763.05 256.445C762.754 253.778 761.717 251.926 759.939 250.889C758.013 249.852 756.161 250.222 754.383 252C752.754 253.778 751.939 256.815 751.939 261.111C751.494 267.63 752.457 273.037 754.828 277.333Z" fill="#090808"/>
<path d="M407.222 254.222C407.815 253.037 408.704 252.222 409.889 251.778C411.222 251.333 412.481 251.408 413.667 252C414.852 252.593 415.667 253.556 416.111 254.889C416.555 256.074 416.555 257.259 416.111 258.445C413.592 263.333 411.518 268.519 409.889 274C408.259 279.185 406.926 284.593 405.889 290.222C403.518 300.148 402.778 307.408 403.667 312C404.259 315.704 405.592 317.704 407.667 318C412.852 318.889 420.185 314.148 429.667 303.778C439.148 293.259 448.704 280.148 458.333 264.445C458.778 263.852 459.296 263.778 459.889 264.222C460.63 264.519 460.778 265.037 460.333 265.778C450.852 281.482 441.074 294.741 431 305.556C420.926 316.222 413.074 321.333 407.444 320.889C399.444 320.445 396.185 309.852 397.667 289.111C398.407 282.445 399.518 276.519 401 271.333C402.481 265.704 404.555 260 407.222 254.222Z" stroke="black" stroke-width="4" mask="url(#path-6-outside-1_114_398)"/>
<path d="M488.926 258.667C488.037 257.333 486.851 256.371 485.37 255.778C482.851 254.889 479.814 255.408 476.259 257.333C472.407 259.259 468.703 263.556 465.148 270.222C462.926 274.371 461.37 278 460.481 281.111C455.444 295.185 453.74 305.333 455.37 311.556C456.111 315.111 458.407 316.445 462.259 315.556C466.407 314.519 470.481 312.445 474.481 309.333C484.851 301.482 496.629 286.593 509.814 264.667C510.259 263.926 510.777 263.778 511.37 264.222C512.111 264.667 512.259 265.185 511.814 265.778C500.555 284.445 488.629 299.556 476.037 311.111C471 315.704 466.926 318.667 463.814 320C460.111 321.63 456.851 321.926 454.037 320.889C451.37 319.852 449.37 317.482 448.037 313.778C445.37 306.963 446.481 295.111 451.37 278.222C453.148 272.741 455.074 268.445 457.148 265.333C461.888 258.519 467.592 254.148 474.259 252.222C478.851 251.037 482.926 251.333 486.481 253.111C490.481 255.185 492.629 258.445 492.926 262.889C492.926 264.371 492.481 265.333 491.592 265.778C490.851 266.074 490.111 265.778 489.37 264.889C488.481 263.704 488.333 261.63 488.926 258.667Z" stroke="black" stroke-width="4" mask="url(#path-6-outside-1_114_398)"/>
<path d="M545.053 287.111C548.756 289.926 552.756 290.963 557.053 290.222C565.201 288.593 573.793 280.074 582.83 264.667C583.275 263.926 583.793 263.778 584.386 264.222C585.127 264.519 585.275 265.037 584.83 265.778C575.497 281.778 566.312 290.593 557.275 292.222C552.83 293.111 548.608 292.074 544.608 289.111C541.645 299.63 536.904 307.63 530.386 313.111C523.867 318.593 517.719 320.667 511.941 319.333C507.645 318.296 504.386 315.259 502.164 310.222C499.793 305.037 499.053 297.852 499.941 288.667C501.127 280.519 502.756 274.371 504.83 270.222C507.645 264.741 511.053 260.445 515.053 257.333C519.053 254.222 523.053 252.296 527.053 251.556C532.534 250.667 537.127 252.148 540.83 256C547.053 262.519 548.534 272.741 545.275 286.667C545.275 286.815 545.201 286.963 545.053 287.111ZM545.053 271.333C544.904 268.963 544.46 267.111 543.719 265.778C543.127 264.296 542.386 263.482 541.497 263.333C540.756 263.037 539.941 263.111 539.053 263.556C537.571 264.593 536.608 266.445 536.164 269.111C535.867 271.63 536.46 274.593 537.941 278C539.423 280.963 541.275 283.482 543.497 285.556C544.682 280.371 545.201 275.63 545.053 271.333ZM542.83 287.778C540.164 285.408 537.941 282.445 536.164 278.889C534.534 274.741 533.941 271.185 534.386 268.222C534.978 265.259 536.238 263.185 538.164 262C539.941 260.963 541.571 261.037 543.053 262.222C542.164 260.148 541.053 258.519 539.719 257.333C536.608 254.667 532.83 254.222 528.386 256C523.349 257.926 518.534 264.074 513.941 274.445C510.682 281.556 508.682 286.815 507.941 290.222C504.09 302.963 504.534 311.408 509.275 315.556C512.09 317.926 515.719 318.519 520.164 317.333C524.756 315.852 529.127 312.519 533.275 307.333C537.571 302.148 540.756 295.63 542.83 287.778Z" stroke="black" stroke-width="4" mask="url(#path-6-outside-1_114_398)"/>
<path d="M588.219 261.778C590.145 262.667 592.145 263.185 594.219 263.333C600.294 263.482 604.738 262.445 607.553 260.222C609.775 258.445 612.59 254.963 615.997 249.778C616.145 249.333 616.368 248.963 616.664 248.667C616.664 248.519 616.664 248.445 616.664 248.445C618.294 246.667 620.219 246.296 622.442 247.333C623.627 247.926 624.442 248.889 624.886 250.222C625.331 251.408 625.257 252.667 624.664 254C622.738 257.852 621.108 261.926 619.775 266.222C617.997 271.259 616.294 277.778 614.664 285.778C613.775 290.074 612.812 295.037 611.775 300.667C609.701 312.222 609.553 319.259 611.331 321.778C613.553 324.889 617.997 323.408 624.664 317.333C635.034 308.148 648.219 290.445 664.219 264.222C664.664 263.63 665.182 263.556 665.775 264C666.516 264.296 666.664 264.815 666.219 265.556C648.442 294.741 633.775 313.63 622.219 322.222C617.923 325.482 614.368 326.667 611.553 325.778C606.368 324.148 603.997 315.852 604.442 300.889C604.59 297.037 605.182 291.482 606.219 284.222C607.405 276.963 608.59 271.185 609.775 266.889C610.368 264.371 611.108 261.926 611.997 259.556C610.219 261.482 608.368 262.963 606.442 264C603.331 265.63 599.257 266.593 594.219 266.889C588.886 267.482 584.219 266.519 580.219 264C576.664 261.926 574.59 258.889 573.997 254.889C573.997 251.63 574.59 249.037 575.775 247.111C578.145 243.259 581.257 241.333 585.108 241.333C587.627 241.333 589.405 242.371 590.442 244.445C591.479 246.519 591.405 250.222 590.219 255.556L588.219 261.778ZM585.997 260.889L587.997 255.111C588.738 252.445 589.034 250.296 588.886 248.667C588.738 246.889 588.368 245.704 587.775 245.111C587.182 244.371 586.368 244.074 585.331 244.222C583.849 244.371 582.59 245.482 581.553 247.556C580.664 249.482 580.516 251.704 581.108 254.222C581.108 256.445 582.442 258.445 585.108 260.222L585.997 260.889Z" stroke="black" stroke-width="4" mask="url(#path-6-outside-1_114_398)"/>
<path d="M663.98 285.778L662.647 290C659.832 300.371 658.869 307.482 659.758 311.333C660.647 315.185 663.165 316.593 667.314 315.556C671.017 314.667 675.017 312.519 679.314 309.111C689.98 300.519 701.832 285.482 714.869 264C715.165 263.408 715.684 263.333 716.425 263.778C717.165 264.074 717.314 264.593 716.869 265.333C706.647 282.222 696.499 295.778 686.425 306C683.314 309.111 679.98 312.074 676.425 314.889C673.314 317.259 670.721 318.889 668.647 319.778C665.388 321.111 662.425 321.334 659.758 320.445C654.425 318.519 651.758 312.519 651.758 302.445C651.758 296.815 652.499 290.963 653.98 284.889C654.425 283.556 655.165 281.185 656.202 277.778C658.721 270.815 662.054 265.259 666.202 261.111C670.499 256.963 674.943 254.148 679.536 252.667C685.61 250.889 690.647 251.185 694.647 253.556C698.795 255.778 700.276 258.963 699.091 263.111C698.351 265.185 696.425 267.852 693.314 271.111C690.202 274.222 686.276 277.037 681.536 279.556C675.758 282.667 669.906 284.741 663.98 285.778ZM664.869 282.222C670.499 281.185 675.536 279.408 679.98 276.889C683.98 274.519 687.239 271.926 689.758 269.111C692.425 266.296 693.98 263.926 694.425 262C694.721 260.371 694.054 259.185 692.425 258.445C688.425 256.519 683.61 257.482 677.98 261.333C672.054 265.482 667.832 271.926 665.314 280.667L664.869 282.222Z" stroke="black" stroke-width="4" mask="url(#path-6-outside-1_114_398)"/>
<path d="M754.605 281.556C749.42 289.852 744.013 297.185 738.383 303.556C729.198 314.371 721.494 320.296 715.272 321.333C713.939 321.482 712.68 321.259 711.494 320.667C710.457 320.074 709.642 319.185 709.05 318C708.309 316.667 707.791 314.963 707.494 312.889C707.05 310.074 706.902 307.333 707.05 304.667C707.346 301.259 708.531 295.333 710.605 286.889C710.754 286.445 710.902 285.778 711.05 284.889C711.346 284 711.568 283.333 711.717 282.889C713.494 276.074 714.605 270.519 715.05 266.222C715.939 256.889 715.42 249.852 713.494 245.111C713.05 244.371 713.198 243.852 713.939 243.556C714.68 243.111 715.198 243.259 715.494 244C719.198 249.185 721.346 256.667 721.939 266.445C722.531 273.111 722.087 279.333 720.605 285.111C720.457 286 720.013 287.556 719.272 289.778C717.494 294.222 715.642 299.63 713.717 306C712.531 310 711.939 312.296 711.939 312.889C711.494 316 711.717 317.926 712.605 318.667C713.198 319.111 714.013 319.259 715.05 319.111C720.828 318.222 728.161 312.667 737.05 302.445C742.531 296.074 747.939 288.593 753.272 280C749.568 275.259 747.717 268.889 747.717 260.889C748.161 255.111 749.865 251.185 752.828 249.111C755.791 247.037 758.605 246.963 761.272 248.889C763.494 250.371 764.828 252.667 765.272 255.778C765.717 258.741 764.754 262.741 762.383 267.778C760.309 271.63 758.161 275.482 755.939 279.333C757.865 282 760.309 283.333 763.272 283.333C769.642 283.333 776.383 277.037 783.494 264.445C783.939 263.852 784.457 263.778 785.05 264.222C785.791 264.519 785.939 264.963 785.494 265.556C778.087 278.445 770.68 285.037 763.272 285.333C760.013 285.482 757.124 284.222 754.605 281.556ZM754.828 277.333C756.754 273.926 758.68 270.371 760.605 266.667C762.531 262.519 763.346 259.111 763.05 256.445C762.754 253.778 761.717 251.926 759.939 250.889C758.013 249.852 756.161 250.222 754.383 252C752.754 253.778 751.939 256.815 751.939 261.111C751.494 267.63 752.457 273.037 754.828 277.333Z" stroke="black" stroke-width="4" mask="url(#path-6-outside-1_114_398)"/>
<path d="M425.659 228.753L425 228L425.659 228.753C427.045 227.539 427.778 226.012 427.778 224.222C427.778 222.316 427.069 220.704 425.659 219.47L425 220.222L425.659 219.47C424.284 218.267 422.64 217.667 420.778 217.667C418.915 217.667 417.271 218.267 415.897 219.47L415.872 219.492L415.848 219.515C414.602 220.761 414 222.36 414 224.222C414 225.966 414.622 227.48 415.848 228.707L415.872 228.731L415.897 228.753C417.271 229.955 418.915 230.556 420.778 230.556C422.64 230.556 424.284 229.955 425.659 228.753Z" fill="#090808" stroke="black" stroke-width="2"/>
<path d="M389.948 413H385.812L383.392 404.596H372.172L369.796 413H365.66L374.46 382.2H381.148L389.948 413ZM373.184 401.164H382.424L377.804 384.972L373.184 401.164ZM411.655 382.2V385.632H403.559V413H399.335V385.632H391.239V382.2H411.655ZM433.829 385.632H420.893V395.884H432.509V399.316H420.893V409.568H433.829V413H416.669V382.2H433.829V385.632ZM441.485 413V382.2H445.709V409.568H456.445V413H441.485ZM465.928 413H461.704V382.2H465.928V413ZM492.294 385.632H479.358V395.884H490.974V399.316H479.358V409.568H492.294V413H475.134V382.2H492.294V385.632ZM511.61 402.352C511.258 401.589 510.862 401.076 510.422 400.812C509.982 400.548 509.469 400.416 508.882 400.416H508.838H504.174V413H499.95V382.2H508.838C510.598 382.2 512.138 382.449 513.458 382.948C514.778 383.417 515.863 384.077 516.714 384.928C517.594 385.749 518.254 386.717 518.694 387.832C519.134 388.947 519.354 390.149 519.354 391.44C519.354 393.347 518.899 395.004 517.99 396.412C517.11 397.82 515.775 398.876 513.986 399.58C514.397 399.873 514.719 400.211 514.954 400.592C515.218 400.944 515.438 401.296 515.614 401.648L521.114 413H516.494L511.61 402.352ZM504.174 385.632V396.984H508.838C510.099 396.984 511.141 396.823 511.962 396.5C512.783 396.148 513.429 395.708 513.898 395.18C514.397 394.652 514.749 394.051 514.954 393.376C515.159 392.701 515.262 392.012 515.262 391.308C515.262 390.633 515.159 389.959 514.954 389.284C514.749 388.609 514.397 388.008 513.898 387.48C513.429 386.923 512.783 386.483 511.962 386.16C511.141 385.808 510.099 385.632 508.838 385.632H504.174ZM556.908 389.592C556.438 388.037 555.676 386.879 554.62 386.116C553.593 385.353 552.405 384.972 551.056 384.972C549.824 384.972 548.694 385.236 547.668 385.764C546.641 386.263 545.746 387.025 544.984 388.052C544.25 389.079 543.664 390.384 543.224 391.968C542.813 393.552 542.608 395.415 542.608 397.556C542.608 399.697 542.813 401.56 543.224 403.144C543.664 404.728 544.265 406.048 545.028 407.104C545.79 408.16 546.7 408.952 547.756 409.48C548.812 409.979 549.956 410.228 551.188 410.228C552.772 410.228 554.209 409.92 555.5 409.304C556.82 408.688 557.876 407.955 558.668 407.104L560.692 409.7C559.577 410.785 558.184 411.724 556.512 412.516C554.869 413.279 553.036 413.66 551.012 413.66C549.164 413.66 547.448 413.323 545.864 412.648C544.309 411.944 542.96 410.917 541.816 409.568C540.672 408.219 539.777 406.547 539.132 404.552C538.516 402.528 538.208 400.196 538.208 397.556C538.208 394.916 538.53 392.599 539.176 390.604C539.821 388.58 540.716 386.908 541.86 385.588C543.004 384.239 544.338 383.227 545.864 382.552C547.418 381.877 549.105 381.54 550.924 381.54C553.329 381.54 555.353 382.039 556.996 383.036C558.668 384.033 559.885 385.764 560.648 388.228L556.908 389.592ZM565 397.556C565 394.916 565.323 392.599 565.968 390.604C566.614 388.609 567.508 386.937 568.652 385.588C569.796 384.239 571.146 383.227 572.7 382.552C574.284 381.877 575.986 381.54 577.804 381.54C579.623 381.54 581.31 381.877 582.864 382.552C584.448 383.227 585.812 384.239 586.956 385.588C588.13 386.937 589.039 388.609 589.684 390.604C590.359 392.599 590.696 394.916 590.696 397.556C590.696 400.225 590.359 402.572 589.684 404.596C589.039 406.591 588.13 408.263 586.956 409.612C585.812 410.961 584.448 411.973 582.864 412.648C581.31 413.323 579.623 413.66 577.804 413.66C575.986 413.66 574.284 413.323 572.7 412.648C571.146 411.973 569.796 410.961 568.652 409.612C567.508 408.263 566.614 406.591 565.968 404.596C565.323 402.572 565 400.225 565 397.556ZM569.4 397.556C569.4 399.727 569.606 401.604 570.016 403.188C570.427 404.772 570.999 406.092 571.732 407.148C572.495 408.175 573.39 408.952 574.416 409.48C575.443 409.979 576.572 410.228 577.804 410.228C579.066 410.228 580.21 409.979 581.236 409.48C582.292 408.952 583.187 408.175 583.92 407.148C584.683 406.092 585.27 404.772 585.68 403.188C586.091 401.604 586.296 399.727 586.296 397.556C586.296 395.415 586.091 393.567 585.68 392.012C585.27 390.428 584.683 389.123 583.92 388.096C583.187 387.04 582.292 386.263 581.236 385.764C580.21 385.236 579.066 384.972 577.804 384.972C576.572 384.972 575.443 385.236 574.416 385.764C573.39 386.263 572.495 387.04 571.732 388.096C570.999 389.123 570.427 390.428 570.016 392.012C569.606 393.567 569.4 395.415 569.4 397.556ZM619.734 402.616C619.734 404.523 619.456 406.165 618.898 407.544C618.341 408.923 617.578 410.067 616.61 410.976C615.642 411.885 614.498 412.56 613.178 413C611.858 413.44 610.436 413.66 608.91 413.66C607.356 413.66 605.918 413.44 604.598 413C603.308 412.56 602.178 411.885 601.21 410.976C600.242 410.067 599.48 408.923 598.922 407.544C598.394 406.165 598.13 404.523 598.13 402.616V382.2H602.354V402.616C602.354 404.024 602.516 405.227 602.838 406.224C603.161 407.192 603.601 407.984 604.158 408.6C604.745 409.216 605.434 409.671 606.226 409.964C607.048 410.228 607.942 410.36 608.91 410.36C609.908 410.36 610.802 410.228 611.594 409.964C612.416 409.671 613.105 409.216 613.662 408.6C614.249 407.984 614.704 407.192 615.026 406.224C615.349 405.227 615.51 404.024 615.51 402.616V382.2H619.734V402.616ZM644.736 382.2V385.632H636.64V413H632.416V385.632H624.32V382.2H644.736ZM670.914 402.616C670.914 404.523 670.635 406.165 670.078 407.544C669.52 408.923 668.758 410.067 667.79 410.976C666.822 411.885 665.678 412.56 664.358 413C663.038 413.44 661.615 413.66 660.09 413.66C658.535 413.66 657.098 413.44 655.778 413C654.487 412.56 653.358 411.885 652.39 410.976C651.422 410.067 650.659 408.923 650.102 407.544C649.574 406.165 649.31 404.523 649.31 402.616V382.2H653.534V402.616C653.534 404.024 653.695 405.227 654.018 406.224C654.34 407.192 654.78 407.984 655.338 408.6C655.924 409.216 656.614 409.671 657.406 409.964C658.227 410.228 659.122 410.36 660.09 410.36C661.087 410.36 661.982 410.228 662.774 409.964C663.595 409.671 664.284 409.216 664.842 408.6C665.428 407.984 665.883 407.192 666.206 406.224C666.528 405.227 666.69 404.024 666.69 402.616V382.2H670.914V402.616ZM691.339 402.352C690.987 401.589 690.591 401.076 690.151 400.812C689.711 400.548 689.198 400.416 688.611 400.416H688.567H683.903V413H679.679V382.2H688.567C690.327 382.2 691.867 382.449 693.187 382.948C694.507 383.417 695.593 384.077 696.443 384.928C697.323 385.749 697.983 386.717 698.423 387.832C698.863 388.947 699.083 390.149 699.083 391.44C699.083 393.347 698.629 395.004 697.719 396.412C696.839 397.82 695.505 398.876 693.715 399.58C694.126 399.873 694.449 400.211 694.683 400.592C694.947 400.944 695.167 401.296 695.343 401.648L700.843 413H696.223L691.339 402.352ZM683.903 385.632V396.984H688.567C689.829 396.984 690.87 396.823 691.691 396.5C692.513 396.148 693.158 395.708 693.627 395.18C694.126 394.652 694.478 394.051 694.683 393.376C694.889 392.701 694.991 392.012 694.991 391.308C694.991 390.633 694.889 389.959 694.683 389.284C694.478 388.609 694.126 388.008 693.627 387.48C693.158 386.923 692.513 386.483 691.691 386.16C690.87 385.808 689.829 385.632 688.567 385.632H683.903ZM724.148 385.632H711.212V395.884H722.828V399.316H711.212V409.568H724.148V413H706.988V382.2H724.148V385.632Z" fill="#7D7D7D"/>
<defs>
<linearGradient id="paint0_linear_114_398" x1="549" y1="3.61077e-05" x2="92" y2="341.5" gradientUnits="userSpaceOnUse">
<stop stop-color="#E3AA41"/>
<stop offset="0.143324" stop-color="#F5E1BB"/>
<stop offset="0.179692" stop-color="#FAEACD"/>
<stop offset="0.25895" stop-color="#FAC25E"/>
<stop offset="0.322211" stop-color="#FAC567"/>
<stop offset="0.374791" stop-color="#F5E7CD"/>
<stop offset="0.421448" stop-color="#F9F0E0"/>
<stop offset="0.474966" stop-color="#FACD7D"/>
<stop offset="0.635531" stop-color="#F7BE59"/>
<stop offset="0.673083" stop-color="#FCF3E3"/>
<stop offset="0.721269" stop-color="#FFF4DF"/>
<stop offset="0.766948" stop-color="#F2BC5D"/>
<stop offset="0.855537" stop-color="#F5BD5A"/>
<stop offset="0.896533" stop-color="#FBE3B9"/>
<stop offset="0.937845" stop-color="#F0BF69"/>
<stop offset="1" stop-color="#F3C26F"/>
</linearGradient>
<linearGradient id="paint1_linear_114_398" x1="549" y1="0.000259185" x2="92" y2="341.5" gradientUnits="userSpaceOnUse">
<stop stop-color="#E3AA41"/>
<stop offset="0.143324" stop-color="#F5E1BB"/>
<stop offset="0.179692" stop-color="#FAEACD"/>
<stop offset="0.25895" stop-color="#FAC25E"/>
<stop offset="0.322211" stop-color="#FAC567"/>
<stop offset="0.374791" stop-color="#F5E7CD"/>
<stop offset="0.421448" stop-color="#F9F0E0"/>
<stop offset="0.474966" stop-color="#FACD7D"/>
<stop offset="0.635531" stop-color="#F7BE59"/>
<stop offset="0.673083" stop-color="#FCF3E3"/>
<stop offset="0.721269" stop-color="#FFF4DF"/>
<stop offset="0.766948" stop-color="#F2BC5D"/>
<stop offset="0.855537" stop-color="#F5BD5A"/>
<stop offset="0.896533" stop-color="#FBE3B9"/>
<stop offset="0.937845" stop-color="#F0BF69"/>
<stop offset="1" stop-color="#F3C26F"/>
</linearGradient>
</defs>
</svg>
