<svg width="788" height="559" viewBox="0 0 788 559" fill="none" xmlns="http://www.w3.org/2000/svg">
<g clip-path="url(#clip0_2413_721)">
<path d="M415 42.0001C386.5 42.0001 367 27.5001 339 0C355 20.0001 394.5 50.5 414 50.5L415 42.0001Z" fill="#0A0702"/>
<path d="M409 43.5C375.5 43.5 339 0 339 0C339 0 377.5 49.5 411 49.5L409 43.5Z" fill="url(#paint0_linear_2413_721)"/>
<path fill-rule="evenodd" clip-rule="evenodd" d="M250.576 558.5C341.636 238 385 97.9999 405.808 49.5002C415.5 26.9999 432.711 18.8184 439.808 22.0001C446.703 25.0906 442.774 42.3884 435.308 58.2853C427.072 75.8234 405.749 107.091 403.808 110.5C400.108 117 299.5 423.5 250.576 558.5ZM414.5 51C412.613 54.3699 403.808 77 404.076 86.5002C413.5 81.5 424.117 60.5 426 57.5C427.884 54.5 435.308 39.5002 431.308 36.5003C428.024 34.0372 421.5 38.5 414.5 51Z" fill="black"/>
<path fill-rule="evenodd" clip-rule="evenodd" d="M419.712 42.7287C428.79 41.9358 441.967 37.612 454.076 34.99C498.454 25.3806 554.186 14 564.5 69.5C575 126 492.5 172 430.5 191C422.84 193.347 415.364 195.504 408.085 197.603C356.443 212.499 314.732 224.53 288 281.5C257.5 346.5 208.5 373.5 0.5 333.5C190 367 248.5 346.5 279 281.5C308.082 219.521 354.894 205.275 412.934 187.613C415.763 186.752 418.618 185.883 421.5 185C483.5 166 567 126 556.5 69.5C547.793 22.6454 496.629 34.2121 454.342 43.7721C439.228 47.1889 425.248 50.3494 414.745 50.4948C417 45.0001 419.712 42.7287 419.712 42.7287Z" fill="#0A0702"/>
<path fill-rule="evenodd" clip-rule="evenodd" d="M420 42.3881C426.616 41.2846 434.396 39.4789 442.838 37.5193C486.207 27.4531 547.061 13.3282 557.5 69.5002C568 126 482.5 169 420.5 188C413.845 190.04 407.363 191.946 401.059 193.801C348.624 209.227 308.441 221.048 283 275.5C254.5 336.5 217.5 372.5 0.5 333.5C199 366 245.5 336.5 274 275.5C302.022 215.523 347.929 201.466 408.393 182.952L410.015 182.455L411.5 182C473.5 163 560 126 549.5 69.5002C540.62 21.7156 486.466 34.137 445.652 43.4988C433.846 46.2069 423.431 48.3355 415.276 49.0002C418.5 43.5002 420 42.3881 420 42.3881Z" fill="url(#paint1_linear_2413_721)"/>
<path d="M406.008 253.442L406.001 253.456L405.994 253.47C403.307 259.293 401.213 265.048 399.716 270.735C399.052 273.06 398.838 274.136 398.616 275.247C398.587 275.391 398.558 275.536 398.528 275.684C398.274 276.94 397.93 278.49 396.832 282.218C396.642 282.864 396.467 283.483 396.299 284.076C395.462 287.029 394.801 289.362 393.325 291.442C391.597 293.876 388.673 296.032 382.681 298.052C376.932 299.99 370.576 298.955 365.047 296.501C359.506 294.041 354.965 290.231 352.847 286.857C352.781 286.752 352.424 286.214 351.74 286.314C351.435 286.358 351.231 286.519 351.122 286.629C351.013 286.739 350.943 286.854 350.902 286.93C350.759 287.198 350.685 287.543 350.645 287.756C350.596 288.009 350.561 288.272 350.539 288.465C350.527 288.563 350.519 288.646 350.513 288.705L350.506 288.776L350.504 288.796L350.504 288.802L350.504 288.803L350.504 288.804L350.504 288.804C350.504 288.804 350.504 288.804 351.5 288.889L350.504 288.804L350.472 289.179L350.695 289.482C354.3 294.374 359.555 298.598 365.185 301.357C370.803 304.109 376.905 305.454 382.191 304.427C387.364 303.421 391.334 301.237 394.009 299.304C394.986 298.599 395.793 297.925 396.424 297.353L396.792 308.533L396.795 308.603L396.807 308.672C397.501 312.636 398.659 315.762 400.354 317.952C402.076 320.176 404.328 321.399 407.058 321.554C410.193 321.797 413.787 320.494 417.781 317.894C421.8 315.278 426.343 311.272 431.407 305.91L431.412 305.905C441.543 295.029 451.361 281.711 460.87 265.962L460.871 265.96C461.152 265.491 461.383 264.875 461.198 264.226C461.019 263.6 460.539 263.228 460.062 263.012C459.659 262.737 459.158 262.541 458.594 262.622C457.98 262.71 457.528 263.092 457.214 263.512L457.185 263.549L457.161 263.589C447.556 279.253 438.036 292.311 428.607 302.773C423.894 307.927 419.757 311.634 416.193 313.938C412.607 316.257 409.743 317.063 407.516 316.681L407.503 316.679L407.489 316.677C406.776 316.575 406.158 316.192 405.623 315.39C405.069 314.558 404.62 313.291 404.335 311.509L404.332 311.493L404.329 311.477C403.484 307.112 404.174 300.035 406.542 290.121L406.548 290.096L406.553 290.07C407.583 284.479 408.906 279.111 410.523 273.967L410.526 273.959L410.528 273.952C412.14 268.528 414.191 263.4 416.68 258.57L416.707 258.518L416.728 258.463C417.254 257.056 417.257 255.628 416.734 254.223C416.211 252.663 415.227 251.489 413.795 250.773L413.794 250.772C412.356 250.055 410.821 249.973 409.253 250.496L409.236 250.502L409.219 250.509C407.785 251.046 406.708 252.043 406.008 253.442Z" fill="black" stroke="black" stroke-width="2"/>
<path d="M476.387 257.894L476.402 257.887L476.416 257.879C479.84 256.025 482.561 255.635 484.698 256.381C485.859 256.85 486.803 257.572 487.545 258.563C487.297 259.923 487.201 261.134 487.275 262.183C487.358 263.337 487.653 264.36 488.251 265.156L488.266 265.177L488.283 265.196C488.715 265.715 489.212 266.142 489.79 266.373C490.399 266.617 491.035 266.617 491.644 266.374L491.683 266.358L491.72 266.339C493.1 265.649 493.607 264.21 493.607 262.556V262.523L493.604 262.489C493.284 257.692 490.928 254.123 486.622 251.89L486.616 251.887L486.609 251.884C482.798 249.978 478.468 249.688 473.69 250.921L473.676 250.924L473.662 250.928C466.734 252.93 460.852 257.465 456.008 264.429L456.002 264.437L455.997 264.445C453.852 267.663 451.892 272.054 450.1 277.58L450.095 277.596L450.09 277.611C447.636 286.09 446.118 293.341 445.555 299.351C444.994 305.339 445.37 310.181 446.781 313.797C448.174 317.659 450.332 320.312 453.355 321.488L453.364 321.491L453.372 321.494C456.503 322.648 460.039 322.28 463.893 320.584C467.166 319.181 471.341 316.123 476.391 311.517L476.394 311.515C489.064 299.888 501.039 284.71 512.328 266C512.645 265.559 512.862 264.978 512.679 264.337C512.509 263.741 512.057 263.335 511.607 263.057C511.166 262.74 510.584 262.522 509.942 262.706C509.329 262.881 508.916 263.356 508.638 263.819C495.467 285.72 483.77 300.472 473.558 308.203L473.558 308.203L473.548 308.211C469.64 311.251 465.693 313.252 461.706 314.251C459.914 314.663 458.671 314.513 457.831 314.025C457.009 313.547 456.364 312.625 456.03 311.019L456.024 310.994L456.018 310.97C455.254 308.053 455.251 304.119 456.092 299.11C456.931 294.114 458.597 288.119 461.103 281.115L461.114 281.084L461.123 281.053C461.986 278.034 463.508 274.473 465.71 270.361L465.711 270.36C469.234 263.754 472.814 259.681 476.387 257.894Z" fill="black" stroke="black" stroke-width="2"/>
<path d="M542.589 283.209C541.018 281.496 539.664 279.509 538.528 277.244C537.1 273.95 536.573 271.188 536.835 268.918C537.251 266.444 538.107 264.914 539.247 264.085C539.913 263.766 540.406 263.769 540.807 263.929L540.906 263.968L541.012 263.986C541.357 264.044 541.909 264.41 542.471 265.816L542.494 265.875L542.525 265.931C543.164 267.079 543.589 268.759 543.735 271.049C543.861 274.743 543.482 278.795 542.589 283.209ZM538.742 257.753C539.412 258.35 540.03 259.081 540.593 259.955C540.544 259.951 540.494 259.948 540.445 259.946C539.393 259.898 538.352 260.213 537.34 260.803L537.33 260.809L537.32 260.815C535.086 262.19 533.713 264.553 533.086 267.693L533.081 267.717L533.078 267.74C532.597 270.942 533.249 274.684 534.914 278.922L534.93 278.963L534.95 279.003C536.675 282.456 538.82 285.384 541.387 287.774C539.34 295.252 536.266 301.437 532.185 306.362L532.18 306.369L532.175 306.375C528.112 311.454 523.901 314.634 519.562 316.04C515.36 317.156 512.103 316.562 509.606 314.464C507.506 312.622 506.278 309.769 506.065 305.726C505.851 301.666 506.67 296.494 508.579 290.178L508.59 290.14L508.599 290.102C509.315 286.809 511.274 281.634 514.531 274.529L514.531 274.529L514.536 274.517C516.813 269.376 519.125 265.326 521.465 262.339C523.808 259.348 526.134 257.476 528.424 256.601L528.431 256.598L528.438 256.595C530.544 255.753 532.43 255.462 534.116 255.66C535.79 255.857 537.327 256.543 538.742 257.753ZM544.86 290.39C548.723 292.882 552.832 293.731 557.142 292.871C566.648 291.153 576.028 281.971 585.371 265.954C585.651 265.486 585.879 264.873 585.695 264.226C585.516 263.599 585.035 263.227 584.557 263.011C584.125 262.719 583.569 262.531 582.958 262.706C582.344 262.881 581.931 263.356 581.653 263.819L581.648 263.828C577.155 271.489 572.798 277.391 568.585 281.568C564.372 285.744 560.359 288.141 556.55 288.906C552.787 289.551 549.273 288.745 545.959 286.434C549.21 272.443 547.783 261.837 541.234 254.976L541.231 254.974C537.29 250.874 532.363 249.297 526.573 250.236L526.562 250.238L526.552 250.24C522.36 251.015 518.215 253.025 514.12 256.211L514.119 256.211C509.982 259.429 506.488 263.849 503.621 269.432L503.621 269.432L503.616 269.442C501.471 273.733 499.823 280.005 498.632 288.19L498.628 288.214L498.626 288.238C497.731 297.497 498.458 304.884 500.932 310.299C503.246 315.54 506.716 318.845 511.387 319.972L511.397 319.974C517.599 321.406 524.061 319.135 530.71 313.543C537.136 308.14 541.837 300.396 544.86 290.39Z" fill="black" stroke="black" stroke-width="2"/>
<path d="M609.467 262.65C609.105 263.852 608.778 265.072 608.487 266.308C607.29 270.652 606.1 276.463 604.913 283.728L604.911 283.738L604.91 283.748C603.871 291.017 603.273 296.613 603.123 300.518H603.123L603.123 300.526C602.9 308.047 603.379 313.981 604.605 318.275C605.827 322.55 607.865 325.434 610.934 326.399C614.24 327.442 618.153 325.987 622.501 322.688C634.228 313.967 648.979 294.924 666.754 265.743L666.757 265.738C667.039 265.269 667.269 264.653 667.084 264.004C666.906 263.378 666.426 263.006 665.948 262.79C665.545 262.515 665.044 262.319 664.481 262.4C663.867 262.487 663.415 262.869 663.1 263.288L663.071 263.327L663.046 263.368C647.051 289.584 633.931 307.174 623.682 316.251L623.682 316.251L623.671 316.261C620.363 319.275 617.712 321.046 615.695 321.719C614.7 322.05 613.927 322.091 613.332 321.946C612.759 321.806 612.26 321.471 611.827 320.866C611.505 320.408 611.216 319.662 611.025 318.541C610.836 317.43 610.753 316.021 610.789 314.299C610.861 310.856 611.407 306.267 612.44 300.512C613.476 294.889 614.437 289.934 615.324 285.648L615.325 285.645C616.95 277.669 618.642 271.199 620.399 266.222L620.405 266.204L620.411 266.185C621.728 261.939 623.338 257.916 625.239 254.114L625.249 254.094L625.258 254.073C625.938 252.546 626.053 251.019 625.51 249.555C624.986 247.996 624.002 246.822 622.57 246.106L622.558 246.1L622.545 246.094C621.291 245.509 620.039 245.284 618.822 245.518C617.604 245.753 616.534 246.426 615.608 247.436L615.345 247.723V247.959C615.104 248.269 614.915 248.618 614.775 248.998C611.406 254.114 608.687 257.446 606.612 259.106C604.073 261.11 599.923 262.144 593.948 262.001C592.293 261.88 590.688 261.51 589.13 260.886L590.852 255.529L590.866 255.485L590.876 255.44C591.477 252.736 591.806 250.406 591.845 248.465C591.883 246.538 591.639 244.908 591.017 243.665C590.423 242.477 589.593 241.543 588.515 240.915C587.443 240.289 586.186 240 584.789 240C580.525 240 577.119 242.167 574.604 246.254C573.288 248.392 572.678 251.189 572.678 254.556V254.63L572.689 254.703C573.326 259.004 575.578 262.298 579.381 264.522C583.588 267.167 588.475 268.161 593.984 267.553C599.095 267.25 603.313 266.268 606.587 264.553L606.587 264.553L606.597 264.547C607.577 264.02 608.534 263.386 609.467 262.65ZM587.57 248.417L587.57 248.417L587.571 248.424C587.702 249.873 587.444 251.877 586.723 254.48L585.177 258.945C582.778 257.3 581.789 255.606 581.789 253.889V253.773L581.762 253.66C581.211 251.317 581.364 249.335 582.135 247.656C583.107 245.72 584.134 244.982 585.112 244.884L585.132 244.882L585.153 244.879C585.883 244.775 586.329 244.972 586.675 245.403L586.71 245.446L586.749 245.485C586.889 245.625 587.065 245.903 587.224 246.41C587.38 246.909 587.5 247.572 587.57 248.417Z" fill="black" stroke="black" stroke-width="2"/>
<path d="M660.413 310.775L660.413 310.775C660.009 309.027 660.009 306.43 660.485 302.913C660.958 299.42 661.889 295.102 663.287 289.949L664.432 286.322C670.267 285.232 676.019 283.157 681.688 280.105C686.496 277.549 690.507 274.679 693.701 271.485L693.71 271.477L693.718 271.469C696.845 268.192 698.898 265.398 699.713 263.114L699.724 263.084L699.733 263.053C700.376 260.802 700.32 258.714 699.456 256.857C698.6 255.016 697.009 253.529 694.819 252.352C690.507 249.804 685.167 249.55 678.936 251.374L678.923 251.378L678.91 251.382C674.141 252.92 669.569 255.829 665.188 260.059L665.182 260.065L665.175 260.071C660.9 264.346 657.498 270.039 654.942 277.105L654.933 277.129L654.926 277.154C653.889 280.562 653.152 282.921 652.712 284.239L652.699 284.279L652.689 284.319C651.191 290.462 650.438 296.394 650.438 302.112C650.438 312.25 653.115 318.892 659.099 321.053L659.11 321.057L659.122 321.061C662.069 322.043 665.284 321.77 668.706 320.371L668.714 320.367L668.721 320.364C670.906 319.428 673.575 317.741 676.711 315.351L676.719 315.346L676.726 315.34C680.31 312.502 683.673 309.513 686.813 306.374L686.818 306.369C696.963 296.075 707.157 282.451 717.405 265.518L717.406 265.515C717.689 265.046 717.919 264.43 717.733 263.781C717.549 263.136 717.045 262.761 716.553 262.548C716.116 262.296 715.583 262.096 715.019 262.177C714.368 262.27 713.931 262.693 713.676 263.178C700.666 284.611 688.894 299.519 678.37 307.997C674.142 311.35 670.274 313.407 666.761 314.251L666.761 314.251L666.752 314.253C664.807 314.739 663.432 314.603 662.482 314.072C661.55 313.551 660.818 312.532 660.413 310.775ZM688.713 268.09L688.703 268.101L688.693 268.111C686.258 270.833 683.087 273.363 679.159 275.691C675.246 277.908 670.849 279.542 665.962 280.588C668.433 272.023 672.542 265.806 678.229 261.822C683.733 258.059 688.146 257.315 691.672 259.013L691.682 259.018L691.692 259.022C692.374 259.332 692.755 259.69 692.956 260.046C693.149 260.39 693.235 260.84 693.126 261.465C692.736 263.116 691.342 265.315 688.713 268.09Z" fill="black" stroke="black" stroke-width="2"/>
<path d="M738.819 303.878C744.249 297.733 749.465 290.707 754.472 282.805C756.955 285.049 759.806 286.144 762.995 285.999C766.997 285.838 770.911 283.978 774.729 280.581C778.533 277.195 782.29 272.242 786.014 265.769C786.301 265.368 786.563 264.781 786.346 264.129C786.149 263.537 785.655 263.204 785.221 263.011C784.819 262.736 784.318 262.541 783.755 262.622C783.141 262.71 782.689 263.092 782.374 263.512L782.336 263.564L782.304 263.62C778.773 269.872 775.369 274.497 772.103 277.547C768.835 280.599 765.79 282 762.952 282C760.537 282 758.506 281.014 756.818 278.923C758.927 275.256 760.969 271.587 762.944 267.919L762.957 267.895L762.968 267.871C765.361 262.788 766.431 258.564 765.942 255.3C765.466 251.97 764.013 249.402 761.523 247.734C760.047 246.673 758.471 246.124 756.815 246.167C755.163 246.211 753.532 246.841 751.935 247.959C748.61 250.286 746.853 254.581 746.4 260.479L746.397 260.518V260.556C746.397 268.403 748.146 274.822 751.74 279.722C746.547 288.034 741.291 295.277 735.974 301.458C731.556 306.538 727.552 310.427 723.96 313.148C720.359 315.875 717.239 317.379 714.583 317.789C713.725 317.91 713.217 317.77 712.909 317.551C712.759 317.413 712.542 317.056 712.446 316.219C712.349 315.377 712.392 314.214 712.609 312.698L712.619 312.627V312.556L712.619 312.556C712.619 312.556 712.62 312.544 712.622 312.516C712.625 312.487 712.629 312.448 712.637 312.398C712.652 312.296 712.675 312.162 712.71 311.993C712.779 311.655 712.886 311.205 713.032 310.639C713.324 309.508 713.764 307.948 714.355 305.954C716.275 299.603 718.117 294.225 719.881 289.816L719.892 289.789L719.901 289.761C720.63 287.576 721.095 285.967 721.264 284.986C722.768 279.101 723.214 272.782 722.617 266.038C722.02 256.226 719.867 248.567 716.052 243.175C715.836 242.698 715.464 242.217 714.838 242.039C714.22 241.862 713.632 242.063 713.172 242.326C712.68 242.538 712.175 242.914 711.991 243.559C711.815 244.175 712.013 244.761 712.274 245.219C714.086 249.733 714.615 256.551 713.735 265.79C713.298 270.008 712.204 275.496 710.438 282.271C710.3 282.684 710.101 283.281 709.842 284.058L709.782 284.24L709.757 284.314L709.744 284.392C709.598 285.268 709.46 285.871 709.337 286.238L709.324 286.277L709.314 286.317C707.241 294.758 706.038 300.753 705.734 304.247L705.733 304.263L705.732 304.279C705.58 307.017 705.732 309.827 706.185 312.705C706.492 314.845 707.034 316.667 707.846 318.134C708.515 319.466 709.457 320.504 710.678 321.202L710.702 321.216L710.728 321.229C712.088 321.907 713.54 322.164 715.063 321.994L715.09 321.991L715.117 321.986C718.454 321.43 722.088 319.585 726.006 316.571C729.931 313.552 734.202 309.313 738.819 303.878ZM752.617 260.846L752.619 260.812V260.778C752.619 256.57 753.425 253.857 754.786 252.358C755.575 251.574 756.308 251.171 756.982 251.036C757.64 250.905 758.344 251.009 759.13 251.428C760.547 252.261 761.465 253.774 761.736 256.222C762.002 258.616 761.278 261.817 759.388 265.893C757.78 268.985 756.173 271.972 754.566 274.855C752.906 271.053 752.238 266.398 752.617 260.846Z" fill="black" stroke="black" stroke-width="2"/>
<g clip-path="url(#clip1_2413_721)">
<path d="M419.2 221.7V213.2L426.2 218.7H438.2L430.7 224.2L442.7 232.7L426.2 230.7L419.2 240.7V228.7H410.2L419.2 221.7Z" fill="black"/>
<path d="M418 220.5V212L425 217.5H437L429.5 223L441.5 231.5L425 229.5L418 239.5V227.5H409L418 220.5Z" fill="url(#paint2_radial_2413_721)"/>
</g>
<path d="M360.28 411.48C356.04 411.48 352.533 410.08 349.76 407.28C346.987 404.48 345.6 401.053 345.6 397C345.6 392.947 346.987 389.52 349.76 386.72C352.533 383.92 356.04 382.52 360.28 382.52C362.867 382.52 365.24 383.147 367.4 384.4C369.56 385.627 371.227 387.293 372.4 389.4L369.92 390.84C369.04 389.133 367.733 387.773 366 386.76C364.267 385.747 362.36 385.24 360.28 385.24C356.787 385.24 353.933 386.373 351.72 388.64C349.507 390.907 348.4 393.693 348.4 397C348.4 400.307 349.507 403.093 351.72 405.36C353.933 407.627 356.787 408.76 360.28 408.76C362.36 408.76 364.267 408.253 366 407.24C367.733 406.227 369.04 404.867 369.92 403.16L372.4 404.56C371.253 406.667 369.587 408.347 367.4 409.6C365.24 410.853 362.867 411.48 360.28 411.48ZM400.165 407.28C397.365 410.08 393.938 411.48 389.885 411.48C385.831 411.48 382.405 410.08 379.605 407.28C376.805 404.453 375.405 401.027 375.405 397C375.405 392.973 376.805 389.56 379.605 386.76C382.405 383.933 385.831 382.52 389.885 382.52C393.938 382.52 397.365 383.933 400.165 386.76C402.965 389.56 404.365 392.973 404.365 397C404.365 401.027 402.965 404.453 400.165 407.28ZM381.565 405.36C383.805 407.627 386.578 408.76 389.885 408.76C393.191 408.76 395.965 407.627 398.205 405.36C400.445 403.067 401.565 400.28 401.565 397C401.565 393.72 400.445 390.947 398.205 388.68C395.965 386.387 393.191 385.24 389.885 385.24C386.578 385.24 383.805 386.387 381.565 388.68C379.325 390.947 378.205 393.72 378.205 397C378.205 400.28 379.325 403.067 381.565 405.36ZM426.478 408.76C424.558 410.573 422.051 411.48 418.958 411.48C415.864 411.48 413.358 410.573 411.438 408.76C409.518 406.947 408.558 404.52 408.558 401.48V383H411.358V401.48C411.358 403.72 412.024 405.493 413.358 406.8C414.691 408.107 416.558 408.76 418.958 408.76C421.358 408.76 423.224 408.107 424.558 406.8C425.891 405.493 426.558 403.72 426.558 401.48V383H429.358V401.48C429.358 404.52 428.398 406.947 426.478 408.76ZM452.964 383V385.64H444.364V411H441.564V385.64H432.964V383H452.964ZM474.486 408.76C472.566 410.573 470.059 411.48 466.966 411.48C463.872 411.48 461.366 410.573 459.446 408.76C457.526 406.947 456.566 404.52 456.566 401.48V383H459.366V401.48C459.366 403.72 460.032 405.493 461.366 406.8C462.699 408.107 464.566 408.76 466.966 408.76C469.366 408.76 471.232 408.107 472.566 406.8C473.899 405.493 474.566 403.72 474.566 401.48V383H477.366V401.48C477.366 404.52 476.406 406.947 474.486 408.76ZM500.572 411L494.012 399.8H486.172V411H483.372V383H494.572C496.892 383 498.865 383.827 500.492 385.48C502.145 387.107 502.972 389.08 502.972 391.4C502.972 393.293 502.399 394.987 501.252 396.48C500.132 397.947 498.692 398.933 496.932 399.44L503.772 411H500.572ZM486.172 385.64V397.16H494.572C496.119 397.16 497.439 396.6 498.532 395.48C499.625 394.333 500.172 392.973 500.172 391.4C500.172 389.8 499.625 388.44 498.532 387.32C497.439 386.2 496.119 385.64 494.572 385.64H486.172ZM510.586 408.36H524.186V411H507.786V383H523.986V385.64H510.586V395.56H522.986V398.2H510.586V408.36ZM562.438 410.062C562.203 409.698 562.047 409.294 561.969 408.852C561.891 408.383 561.839 407.901 561.812 407.406C561.786 406.911 561.76 406.417 561.734 405.922C561.708 405.427 561.63 404.958 561.5 404.516C559 405.635 556.839 406.339 555.016 406.625C553.193 406.885 551.669 406.859 550.445 406.547C549.221 406.234 548.284 405.701 547.633 404.945C546.982 404.19 546.591 403.344 546.461 402.406C546.331 401.469 546.435 400.505 546.773 399.516C547.112 398.526 547.646 397.641 548.375 396.859C549.13 396.078 550.068 395.479 551.188 395.062C552.333 394.62 553.622 394.49 555.055 394.672C555.628 394.75 556.161 394.932 556.656 395.219C557.151 395.479 557.607 395.792 558.023 396.156C558.466 396.521 558.896 396.911 559.312 397.328C559.729 397.719 560.159 398.07 560.602 398.383H560.875C560.927 397.784 560.927 397.211 560.875 396.664C560.823 396.091 560.732 395.531 560.602 394.984C560.497 394.411 560.38 393.852 560.25 393.305C560.12 392.732 560.016 392.159 559.938 391.586C560.51 390.831 560.966 390.479 561.305 390.531C561.669 390.557 561.956 390.844 562.164 391.391C562.372 391.938 562.516 392.654 562.594 393.539C562.698 394.398 562.776 395.297 562.828 396.234C562.906 397.146 562.971 398.005 563.023 398.812C563.102 399.594 563.219 400.167 563.375 400.531C563.531 400.453 563.753 400.232 564.039 399.867C564.326 399.503 564.625 399.125 564.938 398.734C565.25 398.344 565.562 398.018 565.875 397.758C566.214 397.471 566.5 397.38 566.734 397.484C567.255 397.693 567.555 397.966 567.633 398.305C567.711 398.643 567.646 399.021 567.438 399.438C567.229 399.828 566.93 400.232 566.539 400.648C566.148 401.039 565.745 401.417 565.328 401.781C564.938 402.146 564.573 402.471 564.234 402.758C563.922 403.018 563.727 403.201 563.648 403.305C563.518 403.513 563.557 403.904 563.766 404.477C563.974 405.023 564.195 405.661 564.43 406.391C564.69 407.12 564.872 407.875 564.977 408.656C565.081 409.411 564.951 410.089 564.586 410.688C564.091 410.818 563.661 410.857 563.297 410.805C562.958 410.753 562.672 410.505 562.438 410.062ZM549.195 404.242C550.003 404.685 550.927 404.932 551.969 404.984C553.036 405.036 554.104 404.958 555.172 404.75C556.266 404.542 557.307 404.229 558.297 403.812C559.312 403.396 560.172 402.927 560.875 402.406C560.953 402.172 560.953 401.924 560.875 401.664C560.797 401.404 560.693 401.156 560.562 400.922C560.432 400.661 560.276 400.414 560.094 400.18C559.938 399.945 559.781 399.75 559.625 399.594C558.375 398.214 557.164 397.315 555.992 396.898C554.82 396.482 553.753 396.391 552.789 396.625C551.826 396.859 550.979 397.328 550.25 398.031C549.521 398.734 548.974 399.49 548.609 400.297C548.271 401.104 548.128 401.885 548.18 402.641C548.258 403.37 548.596 403.904 549.195 404.242ZM607.29 396.48C608.65 397.067 609.73 397.96 610.53 399.16C611.357 400.333 611.77 401.68 611.77 403.2C611.77 405.36 611.01 407.2 609.49 408.72C607.97 410.24 606.13 411 603.97 411H591.77V383H603.05C605.13 383 606.904 383.747 608.37 385.24C609.837 386.707 610.57 388.467 610.57 390.52C610.57 393.133 609.477 395.12 607.29 396.48ZM603.05 385.64H594.57V395.4H603.05C604.357 395.4 605.464 394.933 606.37 394C607.304 393.04 607.77 391.88 607.77 390.52C607.77 389.187 607.304 388.04 606.37 387.08C605.464 386.12 604.357 385.64 603.05 385.64ZM603.97 408.36C605.357 408.36 606.53 407.867 607.49 406.88C608.477 405.867 608.97 404.64 608.97 403.2C608.97 401.787 608.477 400.573 607.49 399.56C606.53 398.547 605.357 398.04 603.97 398.04H594.57V408.36H603.97ZM633.775 411L627.215 399.8H619.375V411H616.575V383H627.775C630.095 383 632.068 383.827 633.695 385.48C635.348 387.107 636.175 389.08 636.175 391.4C636.175 393.293 635.602 394.987 634.455 396.48C633.335 397.947 631.895 398.933 630.135 399.44L636.975 411H633.775ZM619.375 385.64V397.16H627.775C629.322 397.16 630.642 396.6 631.735 395.48C632.828 394.333 633.375 392.973 633.375 391.4C633.375 389.8 632.828 388.44 631.735 387.32C630.642 386.2 629.322 385.64 627.775 385.64H619.375ZM664.149 407.28C661.349 410.08 657.922 411.48 653.869 411.48C649.816 411.48 646.389 410.08 643.589 407.28C640.789 404.453 639.389 401.027 639.389 397C639.389 392.973 640.789 389.56 643.589 386.76C646.389 383.933 649.816 382.52 653.869 382.52C657.922 382.52 661.349 383.933 664.149 386.76C666.949 389.56 668.349 392.973 668.349 397C668.349 401.027 666.949 404.453 664.149 407.28ZM645.549 405.36C647.789 407.627 650.562 408.76 653.869 408.76C657.176 408.76 659.949 407.627 662.189 405.36C664.429 403.067 665.549 400.28 665.549 397C665.549 393.72 664.429 390.947 662.189 388.68C659.949 386.387 657.176 385.24 653.869 385.24C650.562 385.24 647.789 386.387 645.549 388.68C643.309 390.947 642.189 393.72 642.189 397C642.189 400.28 643.309 403.067 645.549 405.36ZM683.938 383C687.751 383 690.898 384.36 693.378 387.08C695.884 389.773 697.138 393.08 697.138 397C697.138 400.92 695.884 404.24 693.378 406.96C690.898 409.653 687.751 411 683.938 411H673.138V383H683.938ZM683.938 408.36C687.004 408.36 689.511 407.267 691.458 405.08C693.431 402.893 694.418 400.2 694.418 397C694.418 393.8 693.431 391.107 691.458 388.92C689.511 386.733 687.004 385.64 683.938 385.64H675.938V408.36H683.938ZM704.727 408.36H718.327V411H701.927V383H718.127V385.64H704.727V395.56H717.127V398.2H704.727V408.36ZM740.338 411L733.778 399.8H725.938V411H723.138V383H734.338C736.658 383 738.631 383.827 740.258 385.48C741.911 387.107 742.738 389.08 742.738 391.4C742.738 393.293 742.164 394.987 741.018 396.48C739.898 397.947 738.458 398.933 736.698 399.44L743.538 411H740.338ZM725.938 385.64V397.16H734.338C735.884 397.16 737.204 396.6 738.298 395.48C739.391 394.333 739.938 392.973 739.938 391.4C739.938 389.8 739.391 388.44 738.298 387.32C737.204 386.2 735.884 385.64 734.338 385.64H725.938ZM747.552 383H750.352V411H747.552V383ZM759.57 408.36H773.17V411H756.77V383H772.97V385.64H759.57V395.56H771.97V398.2H759.57V408.36Z" fill="black" fill-opacity="0.75"/>
</g>
<defs>
<linearGradient id="paint0_linear_2413_721" x1="549" y1="4.26583e-05" x2="92" y2="341.5" gradientUnits="userSpaceOnUse">
<stop stop-color="#E3AA41"/>
<stop offset="0.143324" stop-color="#F5E1BB"/>
<stop offset="0.179692" stop-color="#FAEACD"/>
<stop offset="0.25895" stop-color="#FAC25E"/>
<stop offset="0.322211" stop-color="#FAC567"/>
<stop offset="0.374791" stop-color="#F5E7CD"/>
<stop offset="0.421448" stop-color="#F9F0E0"/>
<stop offset="0.474966" stop-color="#FACD7D"/>
<stop offset="0.635531" stop-color="#F7BE59"/>
<stop offset="0.673083" stop-color="#FCF3E3"/>
<stop offset="0.721269" stop-color="#FFF4DF"/>
<stop offset="0.766948" stop-color="#F2BC5D"/>
<stop offset="0.855537" stop-color="#F5BD5A"/>
<stop offset="0.896533" stop-color="#FBE3B9"/>
<stop offset="0.937845" stop-color="#F0BF69"/>
<stop offset="1" stop-color="#F3C26F"/>
</linearGradient>
<linearGradient id="paint1_linear_2413_721" x1="549" y1="0.000254528" x2="92" y2="341.5" gradientUnits="userSpaceOnUse">
<stop stop-color="#E3AA41"/>
<stop offset="0.143324" stop-color="#F5E1BB"/>
<stop offset="0.179692" stop-color="#FAEACD"/>
<stop offset="0.25895" stop-color="#FAC25E"/>
<stop offset="0.322211" stop-color="#FAC567"/>
<stop offset="0.374791" stop-color="#F5E7CD"/>
<stop offset="0.421448" stop-color="#F9F0E0"/>
<stop offset="0.474966" stop-color="#FACD7D"/>
<stop offset="0.635531" stop-color="#F7BE59"/>
<stop offset="0.673083" stop-color="#FCF3E3"/>
<stop offset="0.721269" stop-color="#FFF4DF"/>
<stop offset="0.766948" stop-color="#F2BC5D"/>
<stop offset="0.855537" stop-color="#F5BD5A"/>
<stop offset="0.896533" stop-color="#FBE3B9"/>
<stop offset="0.937845" stop-color="#F0BF69"/>
<stop offset="1" stop-color="#F3C26F"/>
</linearGradient>
<radialGradient id="paint2_radial_2413_721" cx="0" cy="0" r="1" gradientUnits="userSpaceOnUse" gradientTransform="translate(425.25 225.75) rotate(90) scale(13.75 16.25)">
<stop offset="0.156909" stop-color="#FFF1DF"/>
<stop offset="0.704546" stop-color="#F7CD61"/>
</radialGradient>
<clipPath id="clip0_2413_721">
<rect width="788" height="559" fill="white"/>
</clipPath>
<clipPath id="clip1_2413_721">
<rect width="34" height="29" fill="white" transform="translate(409 212)"/>
</clipPath>
</defs>
</svg>
