<svg width="156" height="55" viewBox="0 0 156 55" fill="none" xmlns="http://www.w3.org/2000/svg">
<path d="M8.23184 54.839C6.8811 54.839 5.94884 54.3086 5.43506 53.2479L6.66564 52.527C6.94739 53.1402 7.4736 53.4468 8.24427 53.4468C8.74148 53.4468 9.12267 53.3266 9.38785 53.0863C9.66131 52.8377 9.79804 52.4897 9.79804 52.0422V45.9763H11.2275V52.0422C11.2275 52.9371 10.9458 53.6291 10.3823 54.118C9.81876 54.5986 9.10195 54.839 8.23184 54.839ZM17.6489 48.4623H18.9913V54.6774H17.6489V53.7824C17.1434 54.4868 16.4183 54.839 15.4736 54.839C14.62 54.839 13.8908 54.5241 13.2859 53.8943C12.6809 53.2562 12.3785 52.4814 12.3785 51.5698C12.3785 50.65 12.6809 49.8752 13.2859 49.2454C13.8908 48.6156 14.62 48.3007 15.4736 48.3007C16.4183 48.3007 17.1434 48.6487 17.6489 49.3448V48.4623ZM14.2803 52.9993C14.6532 53.3722 15.1214 53.5587 15.6849 53.5587C16.2484 53.5587 16.7166 53.3722 17.0895 52.9993C17.4624 52.6181 17.6489 52.1416 17.6489 51.5698C17.6489 50.998 17.4624 50.5257 17.0895 50.1528C16.7166 49.7716 16.2484 49.581 15.6849 49.581C15.1214 49.581 14.6532 49.7716 14.2803 50.1528C13.9074 50.5257 13.7209 50.998 13.7209 51.5698C13.7209 52.1416 13.9074 52.6181 14.2803 52.9993ZM23.8252 48.3007C24.5378 48.3007 25.1138 48.5286 25.553 48.9844C25.9922 49.4401 26.2118 50.0658 26.2118 50.8613V54.6774H24.8693V50.998C24.8693 50.534 24.745 50.1777 24.4964 49.929C24.2478 49.6804 23.908 49.5561 23.4771 49.5561C23.0048 49.5561 22.6236 49.7053 22.3336 50.0036C22.0435 50.2937 21.8985 50.7412 21.8985 51.3461V54.6774H20.5561V48.4623H21.8985V49.2578C22.3046 48.6197 22.9468 48.3007 23.8252 48.3007ZM28.9251 47.2814C28.7594 47.4472 28.5605 47.53 28.3285 47.53C28.0965 47.53 27.8934 47.4472 27.7194 47.2814C27.5537 47.1074 27.4708 46.9044 27.4708 46.6723C27.4708 46.4403 27.5537 46.2414 27.7194 46.0757C27.8851 45.9017 28.0882 45.8147 28.3285 45.8147C28.5688 45.8147 28.7718 45.9017 28.9376 46.0757C29.1033 46.2414 29.1862 46.4403 29.1862 46.6723C29.1862 46.9044 29.0992 47.1074 28.9251 47.2814ZM27.6573 54.6774V48.4623H28.9997V54.6774H27.6573ZM34.0265 49.755H32.4851V52.7383C32.4851 52.9952 32.5431 53.1816 32.6591 53.2976C32.7752 53.4053 32.945 53.4675 33.1688 53.4841C33.4008 53.4924 33.6867 53.4882 34.0265 53.4716V54.6774C32.9989 54.8017 32.2614 54.7147 31.8139 54.4163C31.3664 54.1097 31.1427 53.5504 31.1427 52.7383V49.755H29.9991V48.4623H31.1427V47.1198L32.4851 46.7221V48.4623H34.0265V49.755ZM37.9226 54.839C37.0111 54.839 36.2363 54.5241 35.5982 53.8943C34.9601 53.2645 34.6411 52.4897 34.6411 51.5698C34.6411 50.65 34.9601 49.8752 35.5982 49.2454C36.2363 48.6156 37.0111 48.3007 37.9226 48.3007C38.8425 48.3007 39.6173 48.6156 40.2471 49.2454C40.8852 49.8752 41.2042 50.65 41.2042 51.5698C41.2042 52.4897 40.8852 53.2645 40.2471 53.8943C39.6173 54.5241 38.8425 54.839 37.9226 54.839ZM36.5429 52.9744C36.9158 53.3473 37.3757 53.5338 37.9226 53.5338C38.4696 53.5338 38.9295 53.3473 39.3024 52.9744C39.6753 52.6015 39.8617 52.1333 39.8617 51.5698C39.8617 51.0063 39.6753 50.5381 39.3024 50.1652C38.9295 49.7923 38.4696 49.6059 37.9226 49.6059C37.3757 49.6059 36.9158 49.7923 36.5429 50.1652C36.17 50.5381 35.9835 51.0063 35.9835 51.5698C35.9835 52.1333 36.17 52.6015 36.5429 52.9744ZM43.7605 49.5064C44.1003 48.7358 44.7384 48.3504 45.6748 48.3504V49.8047C45.161 49.7716 44.7135 49.8959 44.3323 50.1777C43.9511 50.4511 43.7605 50.9069 43.7605 51.545V54.6774H42.4181V48.4623H43.7605V49.5064ZM47.9345 47.2814C47.7688 47.4472 47.5699 47.53 47.3379 47.53C47.1059 47.53 46.9028 47.4472 46.7288 47.2814C46.5631 47.1074 46.4802 46.9044 46.4802 46.6723C46.4802 46.4403 46.5631 46.2414 46.7288 46.0757C46.8946 45.9017 47.0976 45.8147 47.3379 45.8147C47.5782 45.8147 47.7812 45.9017 47.947 46.0757C48.1127 46.2414 48.1956 46.4403 48.1956 46.6723C48.1956 46.9044 48.1086 47.1074 47.9345 47.2814ZM46.6667 54.6774V48.4623H48.0091V54.6774H46.6667ZM54.4902 48.4623H55.8326V54.6774H54.4902V53.7824C53.9847 54.4868 53.2596 54.839 52.3149 54.839C51.4614 54.839 50.7321 54.5241 50.1272 53.8943C49.5223 53.2562 49.2198 52.4814 49.2198 51.5698C49.2198 50.65 49.5223 49.8752 50.1272 49.2454C50.7321 48.6156 51.4614 48.3007 52.3149 48.3007C53.2596 48.3007 53.9847 48.6487 54.4902 49.3448V48.4623ZM51.1216 52.9993C51.4945 53.3722 51.9627 53.5587 52.5262 53.5587C53.0897 53.5587 53.5579 53.3722 53.9308 52.9993C54.3037 52.6181 54.4902 52.1416 54.4902 51.5698C54.4902 50.998 54.3037 50.5257 53.9308 50.1528C53.5579 49.7716 53.0897 49.581 52.5262 49.581C51.9627 49.581 51.4945 49.7716 51.1216 50.1528C50.7487 50.5257 50.5623 50.998 50.5623 51.5698C50.5623 52.1416 50.7487 52.6181 51.1216 52.9993ZM57.3974 54.6774V45.6034H58.7398V54.6774H57.3974ZM70.6405 54.2423L69.4844 54.9135L68.6516 54.0186C67.9638 54.5655 67.1559 54.839 66.2277 54.839C65.3411 54.839 64.6201 54.6111 64.0649 54.1553C63.518 53.6995 63.2445 53.078 63.2445 52.2908C63.2445 51.7687 63.373 51.2881 63.6298 50.8489C63.895 50.4097 64.2762 50.0575 64.7734 49.7923C64.4419 49.3365 64.2762 48.8311 64.2762 48.2758C64.2762 47.5466 64.529 46.9541 65.0345 46.4983C65.5482 46.0426 66.178 45.8147 66.9238 45.8147C67.5205 45.8147 68.0591 45.9721 68.5398 46.287C69.0204 46.6019 69.3767 47.0494 69.6087 47.6295L68.3906 48.3256C68.2746 47.9775 68.0881 47.704 67.8312 47.5052C67.5743 47.3063 67.276 47.2068 66.9363 47.2068C66.5882 47.2068 66.294 47.3104 66.0537 47.5176C65.8217 47.7165 65.7057 47.9817 65.7057 48.3131C65.7057 48.4871 65.743 48.6612 65.8176 48.8352C65.8921 49.0092 65.9709 49.1542 66.0537 49.2702C66.1449 49.378 66.2775 49.523 66.4515 49.7053L68.5646 51.9925C68.7718 51.5698 68.9209 51.0643 69.0121 50.476L70.2303 51.1721C70.0811 51.8682 69.8408 52.4814 69.5093 53.0117L70.6405 54.2423ZM66.3023 53.5089C66.8575 53.5089 67.3382 53.3556 67.7442 53.049L65.6062 50.7494C64.993 51.056 64.6864 51.5325 64.6864 52.1789C64.6864 52.585 64.8273 52.9081 65.109 53.1485C65.3908 53.3888 65.7885 53.5089 66.3023 53.5089ZM83.2318 45.9763V54.6774H81.8023V48.4747L79.1547 52.8501H78.9807L76.3331 48.4623V54.6774H74.9036V45.9763H76.445L79.0677 50.3268L81.7029 45.9763H83.2318ZM89.802 48.4623H91.1445V54.6774H89.802V53.7824C89.2965 54.4868 88.5714 54.839 87.6267 54.839C86.7732 54.839 86.044 54.5241 85.439 53.8943C84.8341 53.2562 84.5316 52.4814 84.5316 51.5698C84.5316 50.65 84.8341 49.8752 85.439 49.2454C86.044 48.6156 86.7732 48.3007 87.6267 48.3007C88.5714 48.3007 89.2965 48.6487 89.802 49.3448V48.4623ZM86.4335 52.9993C86.8064 53.3722 87.2746 53.5587 87.8381 53.5587C88.4016 53.5587 88.8698 53.3722 89.2427 52.9993C89.6156 52.6181 89.802 52.1416 89.802 51.5698C89.802 50.998 89.6156 50.5257 89.2427 50.1528C88.8698 49.7716 88.4016 49.581 87.8381 49.581C87.2746 49.581 86.8064 49.7716 86.4335 50.1528C86.0605 50.5257 85.8741 50.998 85.8741 51.5698C85.8741 52.1416 86.0605 52.6181 86.4335 52.9993ZM93.9771 47.2814C93.8114 47.4472 93.6125 47.53 93.3805 47.53C93.1484 47.53 92.9454 47.4472 92.7714 47.2814C92.6056 47.1074 92.5228 46.9044 92.5228 46.6723C92.5228 46.4403 92.6056 46.2414 92.7714 46.0757C92.9371 45.9017 93.1401 45.8147 93.3805 45.8147C93.6208 45.8147 93.8238 45.9017 93.9895 46.0757C94.1553 46.2414 94.2381 46.4403 94.2381 46.6723C94.2381 46.9044 94.1511 47.1074 93.9771 47.2814ZM92.7092 54.6774V48.4623H94.0517V54.6774H92.7092ZM98.8795 48.3007C99.5922 48.3007 100.168 48.5286 100.607 48.9844C101.047 49.4401 101.266 50.0658 101.266 50.8613V54.6774H99.9237V50.998C99.9237 50.534 99.7994 50.1777 99.5508 49.929C99.3022 49.6804 98.9624 49.5561 98.5315 49.5561C98.0591 49.5561 97.678 49.7053 97.3879 50.0036C97.0979 50.2937 96.9529 50.7412 96.9529 51.3461V54.6774H95.6104V48.4623H96.9529V49.2578C97.3589 48.6197 98.0011 48.3007 98.8795 48.3007ZM106.18 49.755H104.638V52.7383C104.638 52.9952 104.696 53.1816 104.812 53.2976C104.928 53.4053 105.098 53.4675 105.322 53.4841C105.554 53.4924 105.84 53.4882 106.18 53.4716V54.6774C105.152 54.8017 104.415 54.7147 103.967 54.4163C103.52 54.1097 103.296 53.5504 103.296 52.7383V49.755H102.152V48.4623H103.296V47.1198L104.638 46.7221V48.4623H106.18V49.755ZM108.199 52.1416C108.298 52.614 108.526 52.9786 108.883 53.2355C109.239 53.4841 109.674 53.6084 110.188 53.6084C110.9 53.6084 111.435 53.3515 111.791 52.8377L112.897 53.4841C112.284 54.3873 111.377 54.839 110.175 54.839C109.164 54.839 108.348 54.5323 107.727 53.9191C107.105 53.2976 106.794 52.5145 106.794 51.5698C106.794 50.6417 107.101 49.8669 107.714 49.2454C108.327 48.6156 109.115 48.3007 110.076 48.3007C110.987 48.3007 111.733 48.6197 112.313 49.2578C112.902 49.8959 113.196 50.6707 113.196 51.5823C113.196 51.7231 113.179 51.9096 113.146 52.1416H108.199ZM108.186 51.0478H111.841C111.75 50.5423 111.538 50.1611 111.207 49.9042C110.884 49.6473 110.503 49.5189 110.063 49.5189C109.566 49.5189 109.152 49.6556 108.82 49.929C108.489 50.2025 108.278 50.5754 108.186 51.0478ZM117.646 48.3007C118.359 48.3007 118.935 48.5286 119.374 48.9844C119.813 49.4401 120.033 50.0658 120.033 50.8613V54.6774H118.69V50.998C118.69 50.534 118.566 50.1777 118.317 49.929C118.069 49.6804 117.729 49.5561 117.298 49.5561C116.826 49.5561 116.445 49.7053 116.155 50.0036C115.865 50.2937 115.719 50.7412 115.719 51.3461V54.6774H114.377V48.4623H115.719V49.2578C116.126 48.6197 116.768 48.3007 117.646 48.3007ZM126.401 48.4623H127.743V54.6774H126.401V53.7824C125.895 54.4868 125.17 54.839 124.225 54.839C123.372 54.839 122.643 54.5241 122.038 53.8943C121.433 53.2562 121.13 52.4814 121.13 51.5698C121.13 50.65 121.433 49.8752 122.038 49.2454C122.643 48.6156 123.372 48.3007 124.225 48.3007C125.17 48.3007 125.895 48.6487 126.401 49.3448V48.4623ZM123.032 52.9993C123.405 53.3722 123.873 53.5587 124.437 53.5587C125 53.5587 125.468 53.3722 125.841 52.9993C126.214 52.6181 126.401 52.1416 126.401 51.5698C126.401 50.998 126.214 50.5257 125.841 50.1528C125.468 49.7716 125 49.581 124.437 49.581C123.873 49.581 123.405 49.7716 123.032 50.1528C122.659 50.5257 122.473 50.998 122.473 51.5698C122.473 52.1416 122.659 52.6181 123.032 52.9993ZM132.577 48.3007C133.29 48.3007 133.866 48.5286 134.305 48.9844C134.744 49.4401 134.964 50.0658 134.964 50.8613V54.6774H133.621V50.998C133.621 50.534 133.497 50.1777 133.248 49.929C133 49.6804 132.66 49.5561 132.229 49.5561C131.757 49.5561 131.375 49.7053 131.085 50.0036C130.795 50.2937 130.65 50.7412 130.65 51.3461V54.6774H129.308V48.4623H130.65V49.2578C131.056 48.6197 131.699 48.3007 132.577 48.3007ZM139.343 54.839C138.406 54.839 137.623 54.5241 136.993 53.8943C136.372 53.2645 136.061 52.4897 136.061 51.5698C136.061 50.6417 136.372 49.8669 136.993 49.2454C137.623 48.6156 138.406 48.3007 139.343 48.3007C139.947 48.3007 140.499 48.4457 140.996 48.7358C141.493 49.0258 141.866 49.4153 142.114 49.9042L140.958 50.5754C140.818 50.2771 140.602 50.0451 140.312 49.8793C140.03 49.7053 139.703 49.6183 139.33 49.6183C138.783 49.6183 138.323 49.8047 137.95 50.1777C137.586 50.5506 137.403 51.0146 137.403 51.5698C137.403 52.125 137.586 52.5891 137.95 52.962C138.323 53.3349 138.783 53.5214 139.33 53.5214C139.695 53.5214 140.022 53.4344 140.312 53.2603C140.61 53.0863 140.834 52.8543 140.983 52.5642L142.139 53.223C141.874 53.7202 141.493 54.1139 140.996 54.4039C140.499 54.6939 139.947 54.839 139.343 54.839ZM144.069 52.1416C144.169 52.614 144.396 52.9786 144.753 53.2355C145.109 53.4841 145.544 53.6084 146.058 53.6084C146.771 53.6084 147.305 53.3515 147.661 52.8377L148.768 53.4841C148.154 54.3873 147.247 54.839 146.045 54.839C145.034 54.839 144.218 54.5323 143.597 53.9191C142.975 53.2976 142.664 52.5145 142.664 51.5698C142.664 50.6417 142.971 49.8669 143.584 49.2454C144.198 48.6156 144.985 48.3007 145.946 48.3007C146.858 48.3007 147.603 48.6197 148.183 49.2578C148.772 49.8959 149.066 50.6707 149.066 51.5823C149.066 51.7231 149.049 51.9096 149.016 52.1416H144.069ZM144.057 51.0478H147.711C147.62 50.5423 147.409 50.1611 147.077 49.9042C146.754 49.6473 146.373 49.5189 145.934 49.5189C145.436 49.5189 145.022 49.6556 144.691 49.929C144.359 50.2025 144.148 50.5754 144.057 51.0478Z" fill="url(#paint0_linear_2412_717)"/>
<path d="M8.23184 54.839C6.8811 54.839 5.94884 54.3086 5.43506 53.2479L6.66564 52.527C6.94739 53.1402 7.4736 53.4468 8.24427 53.4468C8.74148 53.4468 9.12267 53.3266 9.38785 53.0863C9.66131 52.8377 9.79804 52.4897 9.79804 52.0422V45.9763H11.2275V52.0422C11.2275 52.9371 10.9458 53.6291 10.3823 54.118C9.81876 54.5986 9.10195 54.839 8.23184 54.839ZM17.6489 48.4623H18.9913V54.6774H17.6489V53.7824C17.1434 54.4868 16.4183 54.839 15.4736 54.839C14.62 54.839 13.8908 54.5241 13.2859 53.8943C12.6809 53.2562 12.3785 52.4814 12.3785 51.5698C12.3785 50.65 12.6809 49.8752 13.2859 49.2454C13.8908 48.6156 14.62 48.3007 15.4736 48.3007C16.4183 48.3007 17.1434 48.6487 17.6489 49.3448V48.4623ZM14.2803 52.9993C14.6532 53.3722 15.1214 53.5587 15.6849 53.5587C16.2484 53.5587 16.7166 53.3722 17.0895 52.9993C17.4624 52.6181 17.6489 52.1416 17.6489 51.5698C17.6489 50.998 17.4624 50.5257 17.0895 50.1528C16.7166 49.7716 16.2484 49.581 15.6849 49.581C15.1214 49.581 14.6532 49.7716 14.2803 50.1528C13.9074 50.5257 13.7209 50.998 13.7209 51.5698C13.7209 52.1416 13.9074 52.6181 14.2803 52.9993ZM23.8252 48.3007C24.5378 48.3007 25.1138 48.5286 25.553 48.9844C25.9922 49.4401 26.2118 50.0658 26.2118 50.8613V54.6774H24.8693V50.998C24.8693 50.534 24.745 50.1777 24.4964 49.929C24.2478 49.6804 23.908 49.5561 23.4771 49.5561C23.0048 49.5561 22.6236 49.7053 22.3336 50.0036C22.0435 50.2937 21.8985 50.7412 21.8985 51.3461V54.6774H20.5561V48.4623H21.8985V49.2578C22.3046 48.6197 22.9468 48.3007 23.8252 48.3007ZM28.9251 47.2814C28.7594 47.4472 28.5605 47.53 28.3285 47.53C28.0965 47.53 27.8934 47.4472 27.7194 47.2814C27.5537 47.1074 27.4708 46.9044 27.4708 46.6723C27.4708 46.4403 27.5537 46.2414 27.7194 46.0757C27.8851 45.9017 28.0882 45.8147 28.3285 45.8147C28.5688 45.8147 28.7718 45.9017 28.9376 46.0757C29.1033 46.2414 29.1862 46.4403 29.1862 46.6723C29.1862 46.9044 29.0992 47.1074 28.9251 47.2814ZM27.6573 54.6774V48.4623H28.9997V54.6774H27.6573ZM34.0265 49.755H32.4851V52.7383C32.4851 52.9952 32.5431 53.1816 32.6591 53.2976C32.7752 53.4053 32.945 53.4675 33.1688 53.4841C33.4008 53.4924 33.6867 53.4882 34.0265 53.4716V54.6774C32.9989 54.8017 32.2614 54.7147 31.8139 54.4163C31.3664 54.1097 31.1427 53.5504 31.1427 52.7383V49.755H29.9991V48.4623H31.1427V47.1198L32.4851 46.7221V48.4623H34.0265V49.755ZM37.9226 54.839C37.0111 54.839 36.2363 54.5241 35.5982 53.8943C34.9601 53.2645 34.6411 52.4897 34.6411 51.5698C34.6411 50.65 34.9601 49.8752 35.5982 49.2454C36.2363 48.6156 37.0111 48.3007 37.9226 48.3007C38.8425 48.3007 39.6173 48.6156 40.2471 49.2454C40.8852 49.8752 41.2042 50.65 41.2042 51.5698C41.2042 52.4897 40.8852 53.2645 40.2471 53.8943C39.6173 54.5241 38.8425 54.839 37.9226 54.839ZM36.5429 52.9744C36.9158 53.3473 37.3757 53.5338 37.9226 53.5338C38.4696 53.5338 38.9295 53.3473 39.3024 52.9744C39.6753 52.6015 39.8617 52.1333 39.8617 51.5698C39.8617 51.0063 39.6753 50.5381 39.3024 50.1652C38.9295 49.7923 38.4696 49.6059 37.9226 49.6059C37.3757 49.6059 36.9158 49.7923 36.5429 50.1652C36.17 50.5381 35.9835 51.0063 35.9835 51.5698C35.9835 52.1333 36.17 52.6015 36.5429 52.9744ZM43.7605 49.5064C44.1003 48.7358 44.7384 48.3504 45.6748 48.3504V49.8047C45.161 49.7716 44.7135 49.8959 44.3323 50.1777C43.9511 50.4511 43.7605 50.9069 43.7605 51.545V54.6774H42.4181V48.4623H43.7605V49.5064ZM47.9345 47.2814C47.7688 47.4472 47.5699 47.53 47.3379 47.53C47.1059 47.53 46.9028 47.4472 46.7288 47.2814C46.5631 47.1074 46.4802 46.9044 46.4802 46.6723C46.4802 46.4403 46.5631 46.2414 46.7288 46.0757C46.8946 45.9017 47.0976 45.8147 47.3379 45.8147C47.5782 45.8147 47.7812 45.9017 47.947 46.0757C48.1127 46.2414 48.1956 46.4403 48.1956 46.6723C48.1956 46.9044 48.1086 47.1074 47.9345 47.2814ZM46.6667 54.6774V48.4623H48.0091V54.6774H46.6667ZM54.4902 48.4623H55.8326V54.6774H54.4902V53.7824C53.9847 54.4868 53.2596 54.839 52.3149 54.839C51.4614 54.839 50.7321 54.5241 50.1272 53.8943C49.5223 53.2562 49.2198 52.4814 49.2198 51.5698C49.2198 50.65 49.5223 49.8752 50.1272 49.2454C50.7321 48.6156 51.4614 48.3007 52.3149 48.3007C53.2596 48.3007 53.9847 48.6487 54.4902 49.3448V48.4623ZM51.1216 52.9993C51.4945 53.3722 51.9627 53.5587 52.5262 53.5587C53.0897 53.5587 53.5579 53.3722 53.9308 52.9993C54.3037 52.6181 54.4902 52.1416 54.4902 51.5698C54.4902 50.998 54.3037 50.5257 53.9308 50.1528C53.5579 49.7716 53.0897 49.581 52.5262 49.581C51.9627 49.581 51.4945 49.7716 51.1216 50.1528C50.7487 50.5257 50.5623 50.998 50.5623 51.5698C50.5623 52.1416 50.7487 52.6181 51.1216 52.9993ZM57.3974 54.6774V45.6034H58.7398V54.6774H57.3974ZM70.6405 54.2423L69.4844 54.9135L68.6516 54.0186C67.9638 54.5655 67.1559 54.839 66.2277 54.839C65.3411 54.839 64.6201 54.6111 64.0649 54.1553C63.518 53.6995 63.2445 53.078 63.2445 52.2908C63.2445 51.7687 63.373 51.2881 63.6298 50.8489C63.895 50.4097 64.2762 50.0575 64.7734 49.7923C64.4419 49.3365 64.2762 48.8311 64.2762 48.2758C64.2762 47.5466 64.529 46.9541 65.0345 46.4983C65.5482 46.0426 66.178 45.8147 66.9238 45.8147C67.5205 45.8147 68.0591 45.9721 68.5398 46.287C69.0204 46.6019 69.3767 47.0494 69.6087 47.6295L68.3906 48.3256C68.2746 47.9775 68.0881 47.704 67.8312 47.5052C67.5743 47.3063 67.276 47.2068 66.9363 47.2068C66.5882 47.2068 66.294 47.3104 66.0537 47.5176C65.8217 47.7165 65.7057 47.9817 65.7057 48.3131C65.7057 48.4871 65.743 48.6612 65.8176 48.8352C65.8921 49.0092 65.9709 49.1542 66.0537 49.2702C66.1449 49.378 66.2775 49.523 66.4515 49.7053L68.5646 51.9925C68.7718 51.5698 68.9209 51.0643 69.0121 50.476L70.2303 51.1721C70.0811 51.8682 69.8408 52.4814 69.5093 53.0117L70.6405 54.2423ZM66.3023 53.5089C66.8575 53.5089 67.3382 53.3556 67.7442 53.049L65.6062 50.7494C64.993 51.056 64.6864 51.5325 64.6864 52.1789C64.6864 52.585 64.8273 52.9081 65.109 53.1485C65.3908 53.3888 65.7885 53.5089 66.3023 53.5089ZM83.2318 45.9763V54.6774H81.8023V48.4747L79.1547 52.8501H78.9807L76.3331 48.4623V54.6774H74.9036V45.9763H76.445L79.0677 50.3268L81.7029 45.9763H83.2318ZM89.802 48.4623H91.1445V54.6774H89.802V53.7824C89.2965 54.4868 88.5714 54.839 87.6267 54.839C86.7732 54.839 86.044 54.5241 85.439 53.8943C84.8341 53.2562 84.5316 52.4814 84.5316 51.5698C84.5316 50.65 84.8341 49.8752 85.439 49.2454C86.044 48.6156 86.7732 48.3007 87.6267 48.3007C88.5714 48.3007 89.2965 48.6487 89.802 49.3448V48.4623ZM86.4335 52.9993C86.8064 53.3722 87.2746 53.5587 87.8381 53.5587C88.4016 53.5587 88.8698 53.3722 89.2427 52.9993C89.6156 52.6181 89.802 52.1416 89.802 51.5698C89.802 50.998 89.6156 50.5257 89.2427 50.1528C88.8698 49.7716 88.4016 49.581 87.8381 49.581C87.2746 49.581 86.8064 49.7716 86.4335 50.1528C86.0605 50.5257 85.8741 50.998 85.8741 51.5698C85.8741 52.1416 86.0605 52.6181 86.4335 52.9993ZM93.9771 47.2814C93.8114 47.4472 93.6125 47.53 93.3805 47.53C93.1484 47.53 92.9454 47.4472 92.7714 47.2814C92.6056 47.1074 92.5228 46.9044 92.5228 46.6723C92.5228 46.4403 92.6056 46.2414 92.7714 46.0757C92.9371 45.9017 93.1401 45.8147 93.3805 45.8147C93.6208 45.8147 93.8238 45.9017 93.9895 46.0757C94.1553 46.2414 94.2381 46.4403 94.2381 46.6723C94.2381 46.9044 94.1511 47.1074 93.9771 47.2814ZM92.7092 54.6774V48.4623H94.0517V54.6774H92.7092ZM98.8795 48.3007C99.5922 48.3007 100.168 48.5286 100.607 48.9844C101.047 49.4401 101.266 50.0658 101.266 50.8613V54.6774H99.9237V50.998C99.9237 50.534 99.7994 50.1777 99.5508 49.929C99.3022 49.6804 98.9624 49.5561 98.5315 49.5561C98.0591 49.5561 97.678 49.7053 97.3879 50.0036C97.0979 50.2937 96.9529 50.7412 96.9529 51.3461V54.6774H95.6104V48.4623H96.9529V49.2578C97.3589 48.6197 98.0011 48.3007 98.8795 48.3007ZM106.18 49.755H104.638V52.7383C104.638 52.9952 104.696 53.1816 104.812 53.2976C104.928 53.4053 105.098 53.4675 105.322 53.4841C105.554 53.4924 105.84 53.4882 106.18 53.4716V54.6774C105.152 54.8017 104.415 54.7147 103.967 54.4163C103.52 54.1097 103.296 53.5504 103.296 52.7383V49.755H102.152V48.4623H103.296V47.1198L104.638 46.7221V48.4623H106.18V49.755ZM108.199 52.1416C108.298 52.614 108.526 52.9786 108.883 53.2355C109.239 53.4841 109.674 53.6084 110.188 53.6084C110.9 53.6084 111.435 53.3515 111.791 52.8377L112.897 53.4841C112.284 54.3873 111.377 54.839 110.175 54.839C109.164 54.839 108.348 54.5323 107.727 53.9191C107.105 53.2976 106.794 52.5145 106.794 51.5698C106.794 50.6417 107.101 49.8669 107.714 49.2454C108.327 48.6156 109.115 48.3007 110.076 48.3007C110.987 48.3007 111.733 48.6197 112.313 49.2578C112.902 49.8959 113.196 50.6707 113.196 51.5823C113.196 51.7231 113.179 51.9096 113.146 52.1416H108.199ZM108.186 51.0478H111.841C111.75 50.5423 111.538 50.1611 111.207 49.9042C110.884 49.6473 110.503 49.5189 110.063 49.5189C109.566 49.5189 109.152 49.6556 108.82 49.929C108.489 50.2025 108.278 50.5754 108.186 51.0478ZM117.646 48.3007C118.359 48.3007 118.935 48.5286 119.374 48.9844C119.813 49.4401 120.033 50.0658 120.033 50.8613V54.6774H118.69V50.998C118.69 50.534 118.566 50.1777 118.317 49.929C118.069 49.6804 117.729 49.5561 117.298 49.5561C116.826 49.5561 116.445 49.7053 116.155 50.0036C115.865 50.2937 115.719 50.7412 115.719 51.3461V54.6774H114.377V48.4623H115.719V49.2578C116.126 48.6197 116.768 48.3007 117.646 48.3007ZM126.401 48.4623H127.743V54.6774H126.401V53.7824C125.895 54.4868 125.17 54.839 124.225 54.839C123.372 54.839 122.643 54.5241 122.038 53.8943C121.433 53.2562 121.13 52.4814 121.13 51.5698C121.13 50.65 121.433 49.8752 122.038 49.2454C122.643 48.6156 123.372 48.3007 124.225 48.3007C125.17 48.3007 125.895 48.6487 126.401 49.3448V48.4623ZM123.032 52.9993C123.405 53.3722 123.873 53.5587 124.437 53.5587C125 53.5587 125.468 53.3722 125.841 52.9993C126.214 52.6181 126.401 52.1416 126.401 51.5698C126.401 50.998 126.214 50.5257 125.841 50.1528C125.468 49.7716 125 49.581 124.437 49.581C123.873 49.581 123.405 49.7716 123.032 50.1528C122.659 50.5257 122.473 50.998 122.473 51.5698C122.473 52.1416 122.659 52.6181 123.032 52.9993ZM132.577 48.3007C133.29 48.3007 133.866 48.5286 134.305 48.9844C134.744 49.4401 134.964 50.0658 134.964 50.8613V54.6774H133.621V50.998C133.621 50.534 133.497 50.1777 133.248 49.929C133 49.6804 132.66 49.5561 132.229 49.5561C131.757 49.5561 131.375 49.7053 131.085 50.0036C130.795 50.2937 130.65 50.7412 130.65 51.3461V54.6774H129.308V48.4623H130.65V49.2578C131.056 48.6197 131.699 48.3007 132.577 48.3007ZM139.343 54.839C138.406 54.839 137.623 54.5241 136.993 53.8943C136.372 53.2645 136.061 52.4897 136.061 51.5698C136.061 50.6417 136.372 49.8669 136.993 49.2454C137.623 48.6156 138.406 48.3007 139.343 48.3007C139.947 48.3007 140.499 48.4457 140.996 48.7358C141.493 49.0258 141.866 49.4153 142.114 49.9042L140.958 50.5754C140.818 50.2771 140.602 50.0451 140.312 49.8793C140.03 49.7053 139.703 49.6183 139.33 49.6183C138.783 49.6183 138.323 49.8047 137.95 50.1777C137.586 50.5506 137.403 51.0146 137.403 51.5698C137.403 52.125 137.586 52.5891 137.95 52.962C138.323 53.3349 138.783 53.5214 139.33 53.5214C139.695 53.5214 140.022 53.4344 140.312 53.2603C140.61 53.0863 140.834 52.8543 140.983 52.5642L142.139 53.223C141.874 53.7202 141.493 54.1139 140.996 54.4039C140.499 54.6939 139.947 54.839 139.343 54.839ZM144.069 52.1416C144.169 52.614 144.396 52.9786 144.753 53.2355C145.109 53.4841 145.544 53.6084 146.058 53.6084C146.771 53.6084 147.305 53.3515 147.661 52.8377L148.768 53.4841C148.154 54.3873 147.247 54.839 146.045 54.839C145.034 54.839 144.218 54.5323 143.597 53.9191C142.975 53.2976 142.664 52.5145 142.664 51.5698C142.664 50.6417 142.971 49.8669 143.584 49.2454C144.198 48.6156 144.985 48.3007 145.946 48.3007C146.858 48.3007 147.603 48.6197 148.183 49.2578C148.772 49.8959 149.066 50.6707 149.066 51.5823C149.066 51.7231 149.049 51.9096 149.016 52.1416H144.069ZM144.057 51.0478H147.711C147.62 50.5423 147.409 50.1611 147.077 49.9042C146.754 49.6473 146.373 49.5189 145.934 49.5189C145.436 49.5189 145.022 49.6556 144.691 49.929C144.359 50.2025 144.148 50.5754 144.057 51.0478Z" fill="white" fill-opacity="0.5"/>
<path d="M66 29.4732C70.4759 24.3382 86.1118 35.4464 85.0559 29.4732C84 23.5 70.9201 39.1576 70.2101 33.0788C69.5 27 84.6127 37.1228 89 34.5817" stroke="url(#paint1_linear_2412_717)" stroke-width="1.03585" stroke-linecap="round"/>
<path d="M66 29.4732C70.4759 24.3382 86.1118 35.4464 85.0559 29.4732C84 23.5 70.9201 39.1576 70.2101 33.0788C69.5 27 84.6127 37.1228 89 34.5817" stroke="white" stroke-opacity="0.5" stroke-width="1.03585" stroke-linecap="round"/>
<path d="M4.00873 12.9041L2.98324 16.136H0.414339L5.11708 1.2198H8.77362L13.4764 16.136H10.9075L9.87162 12.9041H4.00873ZM4.68203 10.3145C4.49557 10.5838 4.24006 10.8566 3.9155 11.1328L4.06052 11.3089C4.37818 11.0258 4.64059 10.8325 4.84776 10.7289C5.06184 10.6253 5.33116 10.5735 5.65572 10.5735H8.16247C8.54228 10.5735 8.84268 10.6253 9.06366 10.7289C9.29154 10.8325 9.53669 11.0085 9.79911 11.2571L9.96484 11.0811C9.67481 10.791 9.43656 10.5148 9.25011 10.2524C9.07056 9.98996 8.89101 9.62742 8.71147 9.16474L7.24057 4.64845C7.10245 4.29626 7.0334 3.80596 7.0334 3.17755L7.04376 2.80464H6.80551C6.80551 3.61951 6.74336 4.23066 6.61906 4.63809L5.14816 9.20617C5.02385 9.66885 4.86848 10.0383 4.68203 10.3145ZM17.5969 6.91695C17.6591 7.25533 17.6902 7.56263 17.6902 7.83886V16.136H15.3491V1.2198H17.5969L22.455 11.1328C22.5379 11.2917 22.5897 11.485 22.6104 11.7129C22.6311 11.9408 22.6449 12.2723 22.6519 12.7073H22.8901C22.897 12.2723 22.9108 11.9408 22.9315 11.7129C22.9523 11.485 23.0006 11.2917 23.0766 11.1328L27.914 1.2198H30.1617V16.136H27.8311V7.62133C27.8311 7.33129 27.8449 7.09305 27.8725 6.9066C27.9001 6.71324 27.945 6.44737 28.0072 6.10899C28.021 6.05375 28.0348 5.98469 28.0486 5.90182C28.0693 5.81896 28.09 5.72228 28.1108 5.61179L27.8725 5.57035C27.8242 5.83277 27.7966 5.98469 27.7897 6.02613C27.7275 6.37141 27.6723 6.63727 27.6239 6.82373C27.5825 7.01018 27.51 7.2208 27.4064 7.45559L23.2526 16.136H22.2582L18.3117 7.85957C18.1666 7.58335 18.0354 7.26569 17.918 6.9066C17.8075 6.5475 17.6867 6.10554 17.5555 5.58071L17.3069 5.64286C17.445 6.15388 17.5417 6.57858 17.5969 6.91695ZM42.7052 13.795V16.136H33.0718V1.2198H42.7052V3.56081H36.2312C36.0585 3.56081 35.8755 3.52283 35.6822 3.44687C35.4957 3.364 35.33 3.26042 35.1849 3.13611L35.0503 3.33293C35.1884 3.43651 35.3092 3.57808 35.4128 3.75762C35.5164 3.93717 35.5682 4.10981 35.5682 4.27554V6.55441C35.5682 6.74777 35.5302 6.9135 35.4543 7.05161C35.3783 7.18282 35.2678 7.31403 35.1228 7.44524L35.2678 7.63169C35.399 7.51429 35.5475 7.42107 35.7132 7.35201C35.8859 7.27605 36.0482 7.23807 36.2001 7.23807H41.4622V9.57908H36.2829C36.0482 9.57908 35.8582 9.55836 35.7132 9.51693C35.5682 9.46859 35.4266 9.38227 35.2885 9.25797L35.1228 9.45478C35.2816 9.57217 35.3956 9.70338 35.4646 9.8484C35.5337 9.99342 35.5682 10.1695 35.5682 10.3767V13.246C35.5682 13.4117 35.5268 13.5671 35.4439 13.7121C35.361 13.8571 35.254 13.9814 35.1228 14.085L35.2678 14.2611C35.5786 13.9504 35.9135 13.795 36.2726 13.795H42.7052ZM47.5729 11.1639C47.6488 11.2744 47.6868 11.485 47.6868 11.7958V16.136H45.1904V1.2198H51.3537C51.4987 1.2198 51.6852 1.2267 51.9131 1.24052C52.1479 1.24742 52.3585 1.26814 52.5449 1.30267C53.4081 1.43387 54.1125 1.68593 54.6581 2.05883C55.2036 2.43174 55.6214 2.9324 55.9114 3.56081C56.2015 4.18922 56.3465 4.91432 56.3465 5.73609C56.3465 6.74431 56.1462 7.61442 55.7457 8.34642C55.3521 9.07151 54.5614 9.47549 53.3736 9.55836L53.415 10.905H48.5362C48.0942 10.905 47.8353 10.8842 47.7593 10.8428C47.6834 10.7945 47.5211 10.684 47.2725 10.5113L47.1171 10.6978C47.3519 10.8981 47.5038 11.0534 47.5729 11.1639ZM50.2971 10.905V9.80697C51.2156 9.80697 52.0615 9.80697 52.835 9.80697C53.6084 9.80697 54.223 9.85185 54.6788 9.94162C55.1414 10.0314 55.5523 10.2835 55.9114 10.6978C56.1877 11.0155 56.3258 11.523 56.3258 12.2205C56.3258 12.9111 56.3258 13.4255 56.3258 13.7639V16.136H53.8501V13.7535C53.8501 13.2356 53.8397 12.8006 53.819 12.4484C53.8052 12.0893 53.7292 11.7992 53.5911 11.5783C53.3218 11.1294 52.9006 10.905 52.3274 10.905C51.7542 10.905 51.0775 10.905 50.2971 10.905ZM47.5521 8.45001C47.4624 8.60884 47.3174 8.77457 47.1171 8.94721L47.2828 9.11295C47.4624 8.9334 47.6419 8.80219 47.8215 8.71933C48.0079 8.63646 48.2462 8.59502 48.5362 8.59502H51.2501C51.3882 8.59502 51.5436 8.58812 51.7162 8.57431C51.8889 8.5605 52.0477 8.53287 52.1927 8.49144C52.6071 8.38786 52.9316 8.20486 53.1664 7.94244C53.4081 7.68003 53.5773 7.38308 53.674 7.05161C53.7776 6.72014 53.8294 6.39558 53.8294 6.07792C53.8294 5.76026 53.7776 5.43569 53.674 5.10422C53.5773 4.76585 53.4081 4.46545 53.1664 4.20304C52.9316 3.94062 52.6071 3.75762 52.1927 3.65404C52.0477 3.6126 51.8889 3.58843 51.7162 3.58153C51.5436 3.56772 51.3882 3.56081 51.2501 3.56081H48.5569C48.2807 3.56081 48.0632 3.51592 47.9043 3.42615C47.7455 3.33638 47.566 3.17755 47.3657 2.94966L47.1792 3.09468C47.5176 3.4883 47.6868 3.93026 47.6868 4.42056V7.81814C47.6868 8.08055 47.6419 8.29118 47.5521 8.45001ZM61.5704 1.2198V16.136H59.074V1.2198H61.5704ZM75.2803 15.1623C74.134 16.0186 72.701 16.4467 70.9815 16.4467C69.4968 16.4467 68.2193 16.1222 67.1489 15.473C66.0854 14.817 65.2671 13.9055 64.6939 12.7384C64.1277 11.5714 63.8445 10.2179 63.8445 8.67789C63.8445 7.13793 64.1277 5.78443 64.6939 4.61737C65.2671 3.45032 66.0854 2.54223 67.1489 1.8931C68.2193 1.23706 69.4968 0.909045 70.9815 0.909045C72.701 0.909045 74.134 1.31993 75.2803 2.1417C76.4266 2.96347 77.2311 4.25138 77.6938 6.00541L75.1767 6.03648C74.859 5.14566 74.3584 4.462 73.6747 3.98551C72.9911 3.50211 72.0933 3.26042 70.9815 3.26042C69.9802 3.26042 69.1446 3.48485 68.4748 3.93372C67.8118 4.38258 67.3112 5.01445 66.9728 5.82931C66.6413 6.63728 66.4721 7.5868 66.4652 8.67789C66.4652 9.76208 66.631 10.7116 66.9624 11.5265C67.3008 12.3344 67.8049 12.9663 68.4748 13.4221C69.1446 13.8709 69.9802 14.0954 70.9815 14.0954C72.0933 14.0954 72.9911 13.8537 73.6747 13.3703C74.3584 12.8869 74.859 12.2032 75.1767 11.3193L77.6938 11.3504C77.2311 13.0284 76.4266 14.2991 75.2803 15.1623ZM82.1221 12.9041L81.0966 16.136H78.5277L83.2304 1.2198H86.887L91.5897 16.136H89.0208L87.985 12.9041H82.1221ZM82.7954 10.3145C82.6089 10.5838 82.3534 10.8566 82.0288 11.1328L82.1739 11.3089C82.4915 11.0258 82.7539 10.8325 82.9611 10.7289C83.1752 10.6253 83.4445 10.5735 83.7691 10.5735H86.2758C86.6556 10.5735 86.956 10.6253 87.177 10.7289C87.4049 10.8325 87.65 11.0085 87.9124 11.2571L88.0782 11.0811C87.7881 10.791 87.5499 10.5148 87.3634 10.2524C87.1839 9.98996 87.0043 9.62742 86.8248 9.16474L85.3539 4.64845C85.2158 4.29626 85.1467 3.80596 85.1467 3.17755L85.1571 2.80464H84.9188C84.9188 3.61951 84.8567 4.23066 84.7324 4.63809L83.2615 9.20617C83.1372 9.66885 82.9818 10.0383 82.7954 10.3145ZM95.8138 5.8086C95.9312 6.52678 95.9899 7.24842 95.9899 7.97352V16.136H93.4625V1.2198H95.9899L101.635 9.77589C102.043 10.4319 102.353 11.0051 102.568 11.4954C102.789 11.9788 103.068 12.6797 103.407 13.5982L103.634 13.5257C103.4 12.7177 103.22 12.034 103.096 11.4747C102.972 10.9084 102.909 10.4216 102.909 10.0141V1.2198H105.437V16.136H102.909L97.4816 7.90101C97.0534 7.23116 96.6874 6.55095 96.3836 5.86039C96.0797 5.16292 95.8069 4.42747 95.5652 3.65404L95.3374 3.73691C95.5445 4.39294 95.7033 5.08351 95.8138 5.8086ZM116.613 11.1536C116.668 11.2295 116.696 11.4574 116.696 11.8372V16.136H114.2V1.2198H120.363C120.508 1.2198 120.694 1.2267 120.922 1.24052C121.157 1.24742 121.368 1.26814 121.554 1.30267C122.417 1.43387 123.129 1.72046 123.688 2.16242C124.254 2.60438 124.672 3.16374 124.941 3.84049C125.218 4.51034 125.356 5.25615 125.356 6.07792C125.356 6.89278 125.218 7.63859 124.941 8.31535C124.665 8.98519 124.244 9.5411 123.678 9.98306C123.118 10.425 122.41 10.7116 121.554 10.8428C121.368 10.8704 121.157 10.8912 120.922 10.905C120.687 10.9188 120.501 10.9257 120.363 10.9257H117.525C117.173 10.9257 116.948 10.9153 116.851 10.8946C116.755 10.867 116.582 10.7634 116.333 10.5838L116.188 10.7703C116.423 10.9498 116.565 11.0776 116.613 11.1536ZM116.561 8.45001C116.472 8.60884 116.327 8.77457 116.126 8.94721L116.292 9.11295C116.472 8.9334 116.651 8.80219 116.831 8.71933C117.017 8.63646 117.255 8.59502 117.545 8.59502H120.259C120.397 8.59502 120.553 8.58812 120.725 8.57431C120.898 8.5605 121.057 8.53287 121.202 8.49144C121.616 8.38786 121.941 8.20486 122.176 7.94244C122.417 7.68003 122.587 7.38308 122.683 7.05161C122.787 6.72014 122.839 6.39558 122.839 6.07792C122.839 5.76026 122.787 5.43569 122.683 5.10422C122.587 4.76585 122.417 4.46545 122.176 4.20304C121.941 3.94062 121.616 3.75762 121.202 3.65404C121.057 3.6126 120.898 3.58843 120.725 3.58153C120.553 3.56772 120.397 3.56081 120.259 3.56081H117.566C117.29 3.56081 117.072 3.51592 116.914 3.42615C116.755 3.33638 116.575 3.17755 116.375 2.94966L116.188 3.09468C116.527 3.4883 116.696 3.93026 116.696 4.42056V7.81814C116.696 8.08055 116.651 8.29118 116.561 8.45001ZM129.813 11.1639C129.889 11.2744 129.927 11.485 129.927 11.7958V16.136H127.431V1.2198H133.594C133.739 1.2198 133.926 1.2267 134.154 1.24052C134.388 1.24742 134.599 1.26814 134.785 1.30267C135.649 1.43387 136.353 1.68593 136.899 2.05883C137.444 2.43174 137.862 2.9324 138.152 3.56081C138.442 4.18922 138.587 4.91432 138.587 5.73609C138.587 6.74431 138.387 7.61442 137.986 8.34642C137.593 9.07151 136.802 9.47549 135.614 9.55836L135.656 10.905H130.777C130.335 10.905 130.076 10.8842 130 10.8428C129.924 10.7945 129.762 10.684 129.513 10.5113L129.358 10.6978C129.592 10.8981 129.744 11.0534 129.813 11.1639ZM132.538 10.905V9.80697C133.456 9.80697 134.302 9.80697 135.075 9.80697C135.849 9.80697 136.464 9.85185 136.919 9.94162C137.382 10.0314 137.793 10.2835 138.152 10.6978C138.428 11.0155 138.566 11.523 138.566 12.2205C138.566 12.9111 138.566 13.4255 138.566 13.7639V16.136H136.091V13.7535C136.091 13.2356 136.08 12.8006 136.06 12.4484C136.046 12.0893 135.97 11.7992 135.832 11.5783C135.562 11.1294 135.141 10.905 134.568 10.905C133.995 10.905 133.318 10.905 132.538 10.905ZM129.793 8.45001C129.703 8.60884 129.558 8.77457 129.358 8.94721L129.523 9.11295C129.703 8.9334 129.882 8.80219 130.062 8.71933C130.248 8.63646 130.487 8.59502 130.777 8.59502H133.491C133.629 8.59502 133.784 8.58812 133.957 8.57431C134.129 8.5605 134.288 8.53287 134.433 8.49144C134.848 8.38786 135.172 8.20486 135.407 7.94244C135.649 7.68003 135.818 7.38308 135.915 7.05161C136.018 6.72014 136.07 6.39558 136.07 6.07792C136.07 5.76026 136.018 5.43569 135.915 5.10422C135.818 4.76585 135.649 4.46545 135.407 4.20304C135.172 3.94062 134.848 3.75762 134.433 3.65404C134.288 3.6126 134.129 3.58843 133.957 3.58153C133.784 3.56772 133.629 3.56081 133.491 3.56081H130.797C130.521 3.56081 130.304 3.51592 130.145 3.42615C129.986 3.33638 129.806 3.17755 129.606 2.94966L129.42 3.09468C129.758 3.4883 129.927 3.93026 129.927 4.42056V7.81814C129.927 8.08055 129.882 8.29118 129.793 8.45001ZM151.248 15.473C150.185 16.1222 148.907 16.4467 147.416 16.4467C145.931 16.4467 144.653 16.1222 143.583 15.473C142.52 14.817 141.701 13.9055 141.128 12.7384C140.562 11.5714 140.279 10.2179 140.279 8.67789C140.279 7.13793 140.562 5.78443 141.128 4.61737C141.701 3.45032 142.52 2.54223 143.583 1.8931C144.653 1.23706 145.931 0.909045 147.416 0.909045C148.907 0.909045 150.185 1.23706 151.248 1.8931C152.319 2.54223 153.137 3.45032 153.703 4.61737C154.276 5.78443 154.563 7.13793 154.563 8.67789C154.563 10.2179 154.276 11.5714 153.703 12.7384C153.137 13.9055 152.319 14.817 151.248 15.473ZM144.909 13.4014C145.579 13.8502 146.414 14.0816 147.416 14.0954C148.417 14.1023 149.249 13.8813 149.912 13.4324C150.582 12.9836 151.083 12.3517 151.414 11.5368C151.752 10.7151 151.922 9.76208 151.922 8.67789C151.922 7.5868 151.752 6.64073 151.414 5.83967C151.083 5.03171 150.582 4.4033 149.912 3.95443C149.249 3.50557 148.417 3.27423 147.416 3.26042C146.414 3.25351 145.582 3.47449 144.919 3.92336C144.256 4.37222 143.756 5.00409 143.417 5.81896C143.086 6.63382 142.92 7.5868 142.92 8.67789C142.92 9.76208 143.086 10.7082 143.417 11.5161C143.749 12.3241 144.246 12.9525 144.909 13.4014Z" fill="url(#paint2_linear_2412_717)"/>
<path d="M4.00873 12.9041L2.98324 16.136H0.414339L5.11708 1.2198H8.77362L13.4764 16.136H10.9075L9.87162 12.9041H4.00873ZM4.68203 10.3145C4.49557 10.5838 4.24006 10.8566 3.9155 11.1328L4.06052 11.3089C4.37818 11.0258 4.64059 10.8325 4.84776 10.7289C5.06184 10.6253 5.33116 10.5735 5.65572 10.5735H8.16247C8.54228 10.5735 8.84268 10.6253 9.06366 10.7289C9.29154 10.8325 9.53669 11.0085 9.79911 11.2571L9.96484 11.0811C9.67481 10.791 9.43656 10.5148 9.25011 10.2524C9.07056 9.98996 8.89101 9.62742 8.71147 9.16474L7.24057 4.64845C7.10245 4.29626 7.0334 3.80596 7.0334 3.17755L7.04376 2.80464H6.80551C6.80551 3.61951 6.74336 4.23066 6.61906 4.63809L5.14816 9.20617C5.02385 9.66885 4.86848 10.0383 4.68203 10.3145ZM17.5969 6.91695C17.6591 7.25533 17.6902 7.56263 17.6902 7.83886V16.136H15.3491V1.2198H17.5969L22.455 11.1328C22.5379 11.2917 22.5897 11.485 22.6104 11.7129C22.6311 11.9408 22.6449 12.2723 22.6519 12.7073H22.8901C22.897 12.2723 22.9108 11.9408 22.9315 11.7129C22.9523 11.485 23.0006 11.2917 23.0766 11.1328L27.914 1.2198H30.1617V16.136H27.8311V7.62133C27.8311 7.33129 27.8449 7.09305 27.8725 6.9066C27.9001 6.71324 27.945 6.44737 28.0072 6.10899C28.021 6.05375 28.0348 5.98469 28.0486 5.90182C28.0693 5.81896 28.09 5.72228 28.1108 5.61179L27.8725 5.57035C27.8242 5.83277 27.7966 5.98469 27.7897 6.02613C27.7275 6.37141 27.6723 6.63727 27.6239 6.82373C27.5825 7.01018 27.51 7.2208 27.4064 7.45559L23.2526 16.136H22.2582L18.3117 7.85957C18.1666 7.58335 18.0354 7.26569 17.918 6.9066C17.8075 6.5475 17.6867 6.10554 17.5555 5.58071L17.3069 5.64286C17.445 6.15388 17.5417 6.57858 17.5969 6.91695ZM42.7052 13.795V16.136H33.0718V1.2198H42.7052V3.56081H36.2312C36.0585 3.56081 35.8755 3.52283 35.6822 3.44687C35.4957 3.364 35.33 3.26042 35.1849 3.13611L35.0503 3.33293C35.1884 3.43651 35.3092 3.57808 35.4128 3.75762C35.5164 3.93717 35.5682 4.10981 35.5682 4.27554V6.55441C35.5682 6.74777 35.5302 6.9135 35.4543 7.05161C35.3783 7.18282 35.2678 7.31403 35.1228 7.44524L35.2678 7.63169C35.399 7.51429 35.5475 7.42107 35.7132 7.35201C35.8859 7.27605 36.0482 7.23807 36.2001 7.23807H41.4622V9.57908H36.2829C36.0482 9.57908 35.8582 9.55836 35.7132 9.51693C35.5682 9.46859 35.4266 9.38227 35.2885 9.25797L35.1228 9.45478C35.2816 9.57217 35.3956 9.70338 35.4646 9.8484C35.5337 9.99342 35.5682 10.1695 35.5682 10.3767V13.246C35.5682 13.4117 35.5268 13.5671 35.4439 13.7121C35.361 13.8571 35.254 13.9814 35.1228 14.085L35.2678 14.2611C35.5786 13.9504 35.9135 13.795 36.2726 13.795H42.7052ZM47.5729 11.1639C47.6488 11.2744 47.6868 11.485 47.6868 11.7958V16.136H45.1904V1.2198H51.3537C51.4987 1.2198 51.6852 1.2267 51.9131 1.24052C52.1479 1.24742 52.3585 1.26814 52.5449 1.30267C53.4081 1.43387 54.1125 1.68593 54.6581 2.05883C55.2036 2.43174 55.6214 2.9324 55.9114 3.56081C56.2015 4.18922 56.3465 4.91432 56.3465 5.73609C56.3465 6.74431 56.1462 7.61442 55.7457 8.34642C55.3521 9.07151 54.5614 9.47549 53.3736 9.55836L53.415 10.905H48.5362C48.0942 10.905 47.8353 10.8842 47.7593 10.8428C47.6834 10.7945 47.5211 10.684 47.2725 10.5113L47.1171 10.6978C47.3519 10.8981 47.5038 11.0534 47.5729 11.1639ZM50.2971 10.905V9.80697C51.2156 9.80697 52.0615 9.80697 52.835 9.80697C53.6084 9.80697 54.223 9.85185 54.6788 9.94162C55.1414 10.0314 55.5523 10.2835 55.9114 10.6978C56.1877 11.0155 56.3258 11.523 56.3258 12.2205C56.3258 12.9111 56.3258 13.4255 56.3258 13.7639V16.136H53.8501V13.7535C53.8501 13.2356 53.8397 12.8006 53.819 12.4484C53.8052 12.0893 53.7292 11.7992 53.5911 11.5783C53.3218 11.1294 52.9006 10.905 52.3274 10.905C51.7542 10.905 51.0775 10.905 50.2971 10.905ZM47.5521 8.45001C47.4624 8.60884 47.3174 8.77457 47.1171 8.94721L47.2828 9.11295C47.4624 8.9334 47.6419 8.80219 47.8215 8.71933C48.0079 8.63646 48.2462 8.59502 48.5362 8.59502H51.2501C51.3882 8.59502 51.5436 8.58812 51.7162 8.57431C51.8889 8.5605 52.0477 8.53287 52.1927 8.49144C52.6071 8.38786 52.9316 8.20486 53.1664 7.94244C53.4081 7.68003 53.5773 7.38308 53.674 7.05161C53.7776 6.72014 53.8294 6.39558 53.8294 6.07792C53.8294 5.76026 53.7776 5.43569 53.674 5.10422C53.5773 4.76585 53.4081 4.46545 53.1664 4.20304C52.9316 3.94062 52.6071 3.75762 52.1927 3.65404C52.0477 3.6126 51.8889 3.58843 51.7162 3.58153C51.5436 3.56772 51.3882 3.56081 51.2501 3.56081H48.5569C48.2807 3.56081 48.0632 3.51592 47.9043 3.42615C47.7455 3.33638 47.566 3.17755 47.3657 2.94966L47.1792 3.09468C47.5176 3.4883 47.6868 3.93026 47.6868 4.42056V7.81814C47.6868 8.08055 47.6419 8.29118 47.5521 8.45001ZM61.5704 1.2198V16.136H59.074V1.2198H61.5704ZM75.2803 15.1623C74.134 16.0186 72.701 16.4467 70.9815 16.4467C69.4968 16.4467 68.2193 16.1222 67.1489 15.473C66.0854 14.817 65.2671 13.9055 64.6939 12.7384C64.1277 11.5714 63.8445 10.2179 63.8445 8.67789C63.8445 7.13793 64.1277 5.78443 64.6939 4.61737C65.2671 3.45032 66.0854 2.54223 67.1489 1.8931C68.2193 1.23706 69.4968 0.909045 70.9815 0.909045C72.701 0.909045 74.134 1.31993 75.2803 2.1417C76.4266 2.96347 77.2311 4.25138 77.6938 6.00541L75.1767 6.03648C74.859 5.14566 74.3584 4.462 73.6747 3.98551C72.9911 3.50211 72.0933 3.26042 70.9815 3.26042C69.9802 3.26042 69.1446 3.48485 68.4748 3.93372C67.8118 4.38258 67.3112 5.01445 66.9728 5.82931C66.6413 6.63728 66.4721 7.5868 66.4652 8.67789C66.4652 9.76208 66.631 10.7116 66.9624 11.5265C67.3008 12.3344 67.8049 12.9663 68.4748 13.4221C69.1446 13.8709 69.9802 14.0954 70.9815 14.0954C72.0933 14.0954 72.9911 13.8537 73.6747 13.3703C74.3584 12.8869 74.859 12.2032 75.1767 11.3193L77.6938 11.3504C77.2311 13.0284 76.4266 14.2991 75.2803 15.1623ZM82.1221 12.9041L81.0966 16.136H78.5277L83.2304 1.2198H86.887L91.5897 16.136H89.0208L87.985 12.9041H82.1221ZM82.7954 10.3145C82.6089 10.5838 82.3534 10.8566 82.0288 11.1328L82.1739 11.3089C82.4915 11.0258 82.7539 10.8325 82.9611 10.7289C83.1752 10.6253 83.4445 10.5735 83.7691 10.5735H86.2758C86.6556 10.5735 86.956 10.6253 87.177 10.7289C87.4049 10.8325 87.65 11.0085 87.9124 11.2571L88.0782 11.0811C87.7881 10.791 87.5499 10.5148 87.3634 10.2524C87.1839 9.98996 87.0043 9.62742 86.8248 9.16474L85.3539 4.64845C85.2158 4.29626 85.1467 3.80596 85.1467 3.17755L85.1571 2.80464H84.9188C84.9188 3.61951 84.8567 4.23066 84.7324 4.63809L83.2615 9.20617C83.1372 9.66885 82.9818 10.0383 82.7954 10.3145ZM95.8138 5.8086C95.9312 6.52678 95.9899 7.24842 95.9899 7.97352V16.136H93.4625V1.2198H95.9899L101.635 9.77589C102.043 10.4319 102.353 11.0051 102.568 11.4954C102.789 11.9788 103.068 12.6797 103.407 13.5982L103.634 13.5257C103.4 12.7177 103.22 12.034 103.096 11.4747C102.972 10.9084 102.909 10.4216 102.909 10.0141V1.2198H105.437V16.136H102.909L97.4816 7.90101C97.0534 7.23116 96.6874 6.55095 96.3836 5.86039C96.0797 5.16292 95.8069 4.42747 95.5652 3.65404L95.3374 3.73691C95.5445 4.39294 95.7033 5.08351 95.8138 5.8086ZM116.613 11.1536C116.668 11.2295 116.696 11.4574 116.696 11.8372V16.136H114.2V1.2198H120.363C120.508 1.2198 120.694 1.2267 120.922 1.24052C121.157 1.24742 121.368 1.26814 121.554 1.30267C122.417 1.43387 123.129 1.72046 123.688 2.16242C124.254 2.60438 124.672 3.16374 124.941 3.84049C125.218 4.51034 125.356 5.25615 125.356 6.07792C125.356 6.89278 125.218 7.63859 124.941 8.31535C124.665 8.98519 124.244 9.5411 123.678 9.98306C123.118 10.425 122.41 10.7116 121.554 10.8428C121.368 10.8704 121.157 10.8912 120.922 10.905C120.687 10.9188 120.501 10.9257 120.363 10.9257H117.525C117.173 10.9257 116.948 10.9153 116.851 10.8946C116.755 10.867 116.582 10.7634 116.333 10.5838L116.188 10.7703C116.423 10.9498 116.565 11.0776 116.613 11.1536ZM116.561 8.45001C116.472 8.60884 116.327 8.77457 116.126 8.94721L116.292 9.11295C116.472 8.9334 116.651 8.80219 116.831 8.71933C117.017 8.63646 117.255 8.59502 117.545 8.59502H120.259C120.397 8.59502 120.553 8.58812 120.725 8.57431C120.898 8.5605 121.057 8.53287 121.202 8.49144C121.616 8.38786 121.941 8.20486 122.176 7.94244C122.417 7.68003 122.587 7.38308 122.683 7.05161C122.787 6.72014 122.839 6.39558 122.839 6.07792C122.839 5.76026 122.787 5.43569 122.683 5.10422C122.587 4.76585 122.417 4.46545 122.176 4.20304C121.941 3.94062 121.616 3.75762 121.202 3.65404C121.057 3.6126 120.898 3.58843 120.725 3.58153C120.553 3.56772 120.397 3.56081 120.259 3.56081H117.566C117.29 3.56081 117.072 3.51592 116.914 3.42615C116.755 3.33638 116.575 3.17755 116.375 2.94966L116.188 3.09468C116.527 3.4883 116.696 3.93026 116.696 4.42056V7.81814C116.696 8.08055 116.651 8.29118 116.561 8.45001ZM129.813 11.1639C129.889 11.2744 129.927 11.485 129.927 11.7958V16.136H127.431V1.2198H133.594C133.739 1.2198 133.926 1.2267 134.154 1.24052C134.388 1.24742 134.599 1.26814 134.785 1.30267C135.649 1.43387 136.353 1.68593 136.899 2.05883C137.444 2.43174 137.862 2.9324 138.152 3.56081C138.442 4.18922 138.587 4.91432 138.587 5.73609C138.587 6.74431 138.387 7.61442 137.986 8.34642C137.593 9.07151 136.802 9.47549 135.614 9.55836L135.656 10.905H130.777C130.335 10.905 130.076 10.8842 130 10.8428C129.924 10.7945 129.762 10.684 129.513 10.5113L129.358 10.6978C129.592 10.8981 129.744 11.0534 129.813 11.1639ZM132.538 10.905V9.80697C133.456 9.80697 134.302 9.80697 135.075 9.80697C135.849 9.80697 136.464 9.85185 136.919 9.94162C137.382 10.0314 137.793 10.2835 138.152 10.6978C138.428 11.0155 138.566 11.523 138.566 12.2205C138.566 12.9111 138.566 13.4255 138.566 13.7639V16.136H136.091V13.7535C136.091 13.2356 136.08 12.8006 136.06 12.4484C136.046 12.0893 135.97 11.7992 135.832 11.5783C135.562 11.1294 135.141 10.905 134.568 10.905C133.995 10.905 133.318 10.905 132.538 10.905ZM129.793 8.45001C129.703 8.60884 129.558 8.77457 129.358 8.94721L129.523 9.11295C129.703 8.9334 129.882 8.80219 130.062 8.71933C130.248 8.63646 130.487 8.59502 130.777 8.59502H133.491C133.629 8.59502 133.784 8.58812 133.957 8.57431C134.129 8.5605 134.288 8.53287 134.433 8.49144C134.848 8.38786 135.172 8.20486 135.407 7.94244C135.649 7.68003 135.818 7.38308 135.915 7.05161C136.018 6.72014 136.07 6.39558 136.07 6.07792C136.07 5.76026 136.018 5.43569 135.915 5.10422C135.818 4.76585 135.649 4.46545 135.407 4.20304C135.172 3.94062 134.848 3.75762 134.433 3.65404C134.288 3.6126 134.129 3.58843 133.957 3.58153C133.784 3.56772 133.629 3.56081 133.491 3.56081H130.797C130.521 3.56081 130.304 3.51592 130.145 3.42615C129.986 3.33638 129.806 3.17755 129.606 2.94966L129.42 3.09468C129.758 3.4883 129.927 3.93026 129.927 4.42056V7.81814C129.927 8.08055 129.882 8.29118 129.793 8.45001ZM151.248 15.473C150.185 16.1222 148.907 16.4467 147.416 16.4467C145.931 16.4467 144.653 16.1222 143.583 15.473C142.52 14.817 141.701 13.9055 141.128 12.7384C140.562 11.5714 140.279 10.2179 140.279 8.67789C140.279 7.13793 140.562 5.78443 141.128 4.61737C141.701 3.45032 142.52 2.54223 143.583 1.8931C144.653 1.23706 145.931 0.909045 147.416 0.909045C148.907 0.909045 150.185 1.23706 151.248 1.8931C152.319 2.54223 153.137 3.45032 153.703 4.61737C154.276 5.78443 154.563 7.13793 154.563 8.67789C154.563 10.2179 154.276 11.5714 153.703 12.7384C153.137 13.9055 152.319 14.817 151.248 15.473ZM144.909 13.4014C145.579 13.8502 146.414 14.0816 147.416 14.0954C148.417 14.1023 149.249 13.8813 149.912 13.4324C150.582 12.9836 151.083 12.3517 151.414 11.5368C151.752 10.7151 151.922 9.76208 151.922 8.67789C151.922 7.5868 151.752 6.64073 151.414 5.83967C151.083 5.03171 150.582 4.4033 149.912 3.95443C149.249 3.50557 148.417 3.27423 147.416 3.26042C146.414 3.25351 145.582 3.47449 144.919 3.92336C144.256 4.37222 143.756 5.00409 143.417 5.81896C143.086 6.63382 142.92 7.5868 142.92 8.67789C142.92 9.76208 143.086 10.7082 143.417 11.5161C143.749 12.3241 144.246 12.9525 144.909 13.4014Z" fill="white" fill-opacity="0.5"/>
<defs>
<linearGradient id="paint0_linear_2412_717" x1="68.239" y1="46.98" x2="68.239" y2="55.7432" gradientUnits="userSpaceOnUse">
<stop stop-color="#424446"/>
<stop offset="0.413557" stop-color="white"/>
<stop offset="0.429587" stop-color="#DDDDDD"/>
<stop offset="1" stop-color="#DDDDDD"/>
</linearGradient>
<linearGradient id="paint1_linear_2412_717" x1="76.031" y1="29.077" x2="76.031" y2="35.8199" gradientUnits="userSpaceOnUse">
<stop stop-color="#424446"/>
<stop offset="0.413557" stop-color="white"/>
<stop offset="0.429587" stop-color="#DDDDDD"/>
<stop offset="1" stop-color="#DDDDDD"/>
</linearGradient>
<linearGradient id="paint2_linear_2412_717" x1="68.0365" y1="3.30704" x2="68.0365" y2="17.9123" gradientUnits="userSpaceOnUse">
<stop stop-color="#424446"/>
<stop offset="0.413557" stop-color="white"/>
<stop offset="0.429587" stop-color="#DDDDDD"/>
<stop offset="1" stop-color="#DDDDDD"/>
</linearGradient>
</defs>
</svg>
