<svg width="156" height="55" viewBox="0 0 156 55" fill="none" xmlns="http://www.w3.org/2000/svg">
<path d="M8.41104 54.839C7.0603 54.839 6.12803 54.3086 5.61425 53.2479L6.84484 52.527C7.12659 53.1402 7.6528 53.4468 8.42347 53.4468C8.92068 53.4468 9.30187 53.3266 9.56704 53.0863C9.84051 52.8377 9.97724 52.4897 9.97724 52.0422V45.9763H11.4067V52.0422C11.4067 52.9371 11.125 53.6291 10.5615 54.118C9.99796 54.5986 9.28115 54.839 8.41104 54.839ZM17.828 48.4623H19.1705V54.6774H17.828V53.7824C17.3226 54.4868 16.5975 54.839 15.6528 54.839C14.7992 54.839 14.07 54.5241 13.4651 53.8943C12.8601 53.2562 12.5577 52.4814 12.5577 51.5698C12.5577 50.65 12.8601 49.8752 13.4651 49.2454C14.07 48.6156 14.7992 48.3007 15.6528 48.3007C16.5975 48.3007 17.3226 48.6487 17.828 49.3448V48.4623ZM14.4595 52.9993C14.8324 53.3722 15.3006 53.5587 15.8641 53.5587C16.4276 53.5587 16.8958 53.3722 17.2687 52.9993C17.6416 52.6181 17.828 52.1416 17.828 51.5698C17.828 50.998 17.6416 50.5257 17.2687 50.1528C16.8958 49.7716 16.4276 49.581 15.8641 49.581C15.3006 49.581 14.8324 49.7716 14.4595 50.1528C14.0866 50.5257 13.9001 50.998 13.9001 51.5698C13.9001 52.1416 14.0866 52.6181 14.4595 52.9993ZM24.0044 48.3007C24.717 48.3007 25.293 48.5286 25.7322 48.9844C26.1714 49.4401 26.391 50.0658 26.391 50.8613V54.6774H25.0485V50.998C25.0485 50.534 24.9242 50.1777 24.6756 49.929C24.427 49.6804 24.0872 49.5561 23.6563 49.5561C23.184 49.5561 22.8028 49.7053 22.5128 50.0036C22.2227 50.2937 22.0777 50.7412 22.0777 51.3461V54.6774H20.7352V48.4623H22.0777V49.2578C22.4838 48.6197 23.126 48.3007 24.0044 48.3007ZM29.1043 47.2814C28.9386 47.4472 28.7397 47.53 28.5077 47.53C28.2757 47.53 28.0726 47.4472 27.8986 47.2814C27.7329 47.1074 27.65 46.9044 27.65 46.6723C27.65 46.4403 27.7329 46.2414 27.8986 46.0757C28.0643 45.9017 28.2674 45.8147 28.5077 45.8147C28.748 45.8147 28.951 45.9017 29.1168 46.0757C29.2825 46.2414 29.3654 46.4403 29.3654 46.6723C29.3654 46.9044 29.2784 47.1074 29.1043 47.2814ZM27.8365 54.6774V48.4623H29.1789V54.6774H27.8365ZM34.2057 49.755H32.6643V52.7383C32.6643 52.9952 32.7223 53.1816 32.8383 53.2976C32.9544 53.4053 33.1242 53.4675 33.348 53.4841C33.58 53.4924 33.8659 53.4882 34.2057 53.4716V54.6774C33.1781 54.8017 32.4406 54.7147 31.9931 54.4163C31.5456 54.1097 31.3219 53.5504 31.3219 52.7383V49.755H30.1783V48.4623H31.3219V47.1198L32.6643 46.7221V48.4623H34.2057V49.755ZM38.1018 54.839C37.1903 54.839 36.4155 54.5241 35.7774 53.8943C35.1393 53.2645 34.8203 52.4897 34.8203 51.5698C34.8203 50.65 35.1393 49.8752 35.7774 49.2454C36.4155 48.6156 37.1903 48.3007 38.1018 48.3007C39.0217 48.3007 39.7965 48.6156 40.4263 49.2454C41.0643 49.8752 41.3834 50.65 41.3834 51.5698C41.3834 52.4897 41.0643 53.2645 40.4263 53.8943C39.7965 54.5241 39.0217 54.839 38.1018 54.839ZM36.7221 52.9744C37.095 53.3473 37.5549 53.5338 38.1018 53.5338C38.6488 53.5338 39.1087 53.3473 39.4816 52.9744C39.8545 52.6015 40.0409 52.1333 40.0409 51.5698C40.0409 51.0063 39.8545 50.5381 39.4816 50.1652C39.1087 49.7923 38.6488 49.6059 38.1018 49.6059C37.5549 49.6059 37.095 49.7923 36.7221 50.1652C36.3492 50.5381 36.1627 51.0063 36.1627 51.5698C36.1627 52.1333 36.3492 52.6015 36.7221 52.9744ZM43.9397 49.5064C44.2795 48.7358 44.9176 48.3504 45.854 48.3504V49.8047C45.3402 49.7716 44.8927 49.8959 44.5115 50.1777C44.1303 50.4511 43.9397 50.9069 43.9397 51.545V54.6774H42.5973V48.4623H43.9397V49.5064ZM48.1137 47.2814C47.948 47.4472 47.7491 47.53 47.5171 47.53C47.2851 47.53 47.082 47.4472 46.908 47.2814C46.7423 47.1074 46.6594 46.9044 46.6594 46.6723C46.6594 46.4403 46.7423 46.2414 46.908 46.0757C47.0737 45.9017 47.2768 45.8147 47.5171 45.8147C47.7574 45.8147 47.9604 45.9017 48.1262 46.0757C48.2919 46.2414 48.3748 46.4403 48.3748 46.6723C48.3748 46.9044 48.2878 47.1074 48.1137 47.2814ZM46.8459 54.6774V48.4623H48.1883V54.6774H46.8459ZM54.6694 48.4623H56.0118V54.6774H54.6694V53.7824C54.1639 54.4868 53.4388 54.839 52.4941 54.839C51.6406 54.839 50.9113 54.5241 50.3064 53.8943C49.7015 53.2562 49.399 52.4814 49.399 51.5698C49.399 50.65 49.7015 49.8752 50.3064 49.2454C50.9113 48.6156 51.6406 48.3007 52.4941 48.3007C53.4388 48.3007 54.1639 48.6487 54.6694 49.3448V48.4623ZM51.3008 52.9993C51.6737 53.3722 52.1419 53.5587 52.7054 53.5587C53.2689 53.5587 53.7371 53.3722 54.11 52.9993C54.4829 52.6181 54.6694 52.1416 54.6694 51.5698C54.6694 50.998 54.4829 50.5257 54.11 50.1528C53.7371 49.7716 53.2689 49.581 52.7054 49.581C52.1419 49.581 51.6737 49.7716 51.3008 50.1528C50.9279 50.5257 50.7415 50.998 50.7415 51.5698C50.7415 52.1416 50.9279 52.6181 51.3008 52.9993ZM57.5766 54.6774V45.6034H58.919V54.6774H57.5766ZM70.8197 54.2423L69.6636 54.9135L68.8308 54.0186C68.143 54.5655 67.3351 54.839 66.4069 54.839C65.5203 54.839 64.7993 54.6111 64.2441 54.1553C63.6972 53.6995 63.4237 53.078 63.4237 52.2908C63.4237 51.7687 63.5522 51.2881 63.809 50.8489C64.0742 50.4097 64.4554 50.0575 64.9526 49.7923C64.6211 49.3365 64.4554 48.8311 64.4554 48.2758C64.4554 47.5466 64.7082 46.9541 65.2137 46.4983C65.7274 46.0426 66.3572 45.8147 67.103 45.8147C67.6997 45.8147 68.2383 45.9721 68.719 46.287C69.1996 46.6019 69.5559 47.0494 69.7879 47.6295L68.5698 48.3256C68.4538 47.9775 68.2673 47.704 68.0104 47.5052C67.7535 47.3063 67.4552 47.2068 67.1155 47.2068C66.7674 47.2068 66.4732 47.3104 66.2329 47.5176C66.0009 47.7165 65.8849 47.9817 65.8849 48.3131C65.8849 48.4871 65.9222 48.6612 65.9968 48.8352C66.0713 49.0092 66.1501 49.1542 66.2329 49.2702C66.3241 49.378 66.4567 49.523 66.6307 49.7053L68.7438 51.9925C68.951 51.5698 69.1001 51.0643 69.1913 50.476L70.4095 51.1721C70.2603 51.8682 70.02 52.4814 69.6885 53.0117L70.8197 54.2423ZM66.4815 53.5089C67.0367 53.5089 67.5174 53.3556 67.9234 53.049L65.7854 50.7494C65.1722 51.056 64.8656 51.5325 64.8656 52.1789C64.8656 52.585 65.0065 52.9081 65.2882 53.1485C65.57 53.3888 65.9677 53.5089 66.4815 53.5089ZM83.411 45.9763V54.6774H81.9815V48.4747L79.3339 52.8501H79.1599L76.5123 48.4623V54.6774H75.0828V45.9763H76.6242L79.2469 50.3268L81.8821 45.9763H83.411ZM89.9812 48.4623H91.3237V54.6774H89.9812V53.7824C89.4757 54.4868 88.7506 54.839 87.8059 54.839C86.9524 54.839 86.2232 54.5241 85.6182 53.8943C85.0133 53.2562 84.7108 52.4814 84.7108 51.5698C84.7108 50.65 85.0133 49.8752 85.6182 49.2454C86.2232 48.6156 86.9524 48.3007 87.8059 48.3007C88.7506 48.3007 89.4757 48.6487 89.9812 49.3448V48.4623ZM86.6126 52.9993C86.9856 53.3722 87.4538 53.5587 88.0173 53.5587C88.5808 53.5587 89.049 53.3722 89.4219 52.9993C89.7948 52.6181 89.9812 52.1416 89.9812 51.5698C89.9812 50.998 89.7948 50.5257 89.4219 50.1528C89.049 49.7716 88.5808 49.581 88.0173 49.581C87.4538 49.581 86.9856 49.7716 86.6126 50.1528C86.2397 50.5257 86.0533 50.998 86.0533 51.5698C86.0533 52.1416 86.2397 52.6181 86.6126 52.9993ZM94.1563 47.2814C93.9906 47.4472 93.7917 47.53 93.5597 47.53C93.3276 47.53 93.1246 47.4472 92.9506 47.2814C92.7848 47.1074 92.702 46.9044 92.702 46.6723C92.702 46.4403 92.7848 46.2414 92.9506 46.0757C93.1163 45.9017 93.3193 45.8147 93.5597 45.8147C93.8 45.8147 94.003 45.9017 94.1687 46.0757C94.3345 46.2414 94.4173 46.4403 94.4173 46.6723C94.4173 46.9044 94.3303 47.1074 94.1563 47.2814ZM92.8884 54.6774V48.4623H94.2309V54.6774H92.8884ZM99.0587 48.3007C99.7714 48.3007 100.347 48.5286 100.787 48.9844C101.226 49.4401 101.445 50.0658 101.445 50.8613V54.6774H100.103V50.998C100.103 50.534 99.9786 50.1777 99.73 49.929C99.4814 49.6804 99.1416 49.5561 98.7107 49.5561C98.2383 49.5561 97.8571 49.7053 97.5671 50.0036C97.2771 50.2937 97.1321 50.7412 97.1321 51.3461V54.6774H95.7896V48.4623H97.1321V49.2578C97.5381 48.6197 98.1803 48.3007 99.0587 48.3007ZM106.359 49.755H104.817V52.7383C104.817 52.9952 104.876 53.1816 104.992 53.2976C105.108 53.4053 105.277 53.4675 105.501 53.4841C105.733 53.4924 106.019 53.4882 106.359 53.4716V54.6774C105.331 54.8017 104.594 54.7147 104.146 54.4163C103.699 54.1097 103.475 53.5504 103.475 52.7383V49.755H102.331V48.4623H103.475V47.1198L104.817 46.7221V48.4623H106.359V49.755ZM108.378 52.1416C108.477 52.614 108.705 52.9786 109.062 53.2355C109.418 53.4841 109.853 53.6084 110.367 53.6084C111.08 53.6084 111.614 53.3515 111.97 52.8377L113.077 53.4841C112.463 54.3873 111.556 54.839 110.354 54.839C109.343 54.839 108.527 54.5323 107.906 53.9191C107.284 53.2976 106.973 52.5145 106.973 51.5698C106.973 50.6417 107.28 49.8669 107.893 49.2454C108.506 48.6156 109.294 48.3007 110.255 48.3007C111.167 48.3007 111.912 48.6197 112.492 49.2578C113.081 49.8959 113.375 50.6707 113.375 51.5823C113.375 51.7231 113.358 51.9096 113.325 52.1416H108.378ZM108.366 51.0478H112.02C111.929 50.5423 111.718 50.1611 111.386 49.9042C111.063 49.6473 110.682 49.5189 110.243 49.5189C109.745 49.5189 109.331 49.6556 109 49.929C108.668 50.2025 108.457 50.5754 108.366 51.0478ZM117.825 48.3007C118.538 48.3007 119.114 48.5286 119.553 48.9844C119.992 49.4401 120.212 50.0658 120.212 50.8613V54.6774H118.869V50.998C118.869 50.534 118.745 50.1777 118.497 49.929C118.248 49.6804 117.908 49.5561 117.477 49.5561C117.005 49.5561 116.624 49.7053 116.334 50.0036C116.044 50.2937 115.899 50.7412 115.899 51.3461V54.6774H114.556V48.4623H115.899V49.2578C116.305 48.6197 116.947 48.3007 117.825 48.3007ZM126.58 48.4623H127.922V54.6774H126.58V53.7824C126.074 54.4868 125.349 54.839 124.405 54.839C123.551 54.839 122.822 54.5241 122.217 53.8943C121.612 53.2562 121.309 52.4814 121.309 51.5698C121.309 50.65 121.612 49.8752 122.217 49.2454C122.822 48.6156 123.551 48.3007 124.405 48.3007C125.349 48.3007 126.074 48.6487 126.58 49.3448V48.4623ZM123.211 52.9993C123.584 53.3722 124.052 53.5587 124.616 53.5587C125.179 53.5587 125.648 53.3722 126.02 52.9993C126.393 52.6181 126.58 52.1416 126.58 51.5698C126.58 50.998 126.393 50.5257 126.02 50.1528C125.648 49.7716 125.179 49.581 124.616 49.581C124.052 49.581 123.584 49.7716 123.211 50.1528C122.838 50.5257 122.652 50.998 122.652 51.5698C122.652 52.1416 122.838 52.6181 123.211 52.9993ZM132.756 48.3007C133.469 48.3007 134.045 48.5286 134.484 48.9844C134.923 49.4401 135.143 50.0658 135.143 50.8613V54.6774H133.8V50.998C133.8 50.534 133.676 50.1777 133.427 49.929C133.179 49.6804 132.839 49.5561 132.408 49.5561C131.936 49.5561 131.555 49.7053 131.264 50.0036C130.974 50.2937 130.829 50.7412 130.829 51.3461V54.6774H129.487V48.4623H130.829V49.2578C131.235 48.6197 131.878 48.3007 132.756 48.3007ZM139.522 54.839C138.585 54.839 137.802 54.5241 137.172 53.8943C136.551 53.2645 136.24 52.4897 136.24 51.5698C136.24 50.6417 136.551 49.8669 137.172 49.2454C137.802 48.6156 138.585 48.3007 139.522 48.3007C140.127 48.3007 140.678 48.4457 141.175 48.7358C141.672 49.0258 142.045 49.4153 142.294 49.9042L141.138 50.5754C140.997 50.2771 140.781 50.0451 140.491 49.8793C140.21 49.7053 139.882 49.6183 139.509 49.6183C138.962 49.6183 138.502 49.8047 138.13 50.1777C137.765 50.5506 137.583 51.0146 137.583 51.5698C137.583 52.125 137.765 52.5891 138.13 52.962C138.502 53.3349 138.962 53.5214 139.509 53.5214C139.874 53.5214 140.201 53.4344 140.491 53.2603C140.79 53.0863 141.013 52.8543 141.162 52.5642L142.319 53.223C142.053 53.7202 141.672 54.1139 141.175 54.4039C140.678 54.6939 140.127 54.839 139.522 54.839ZM144.248 52.1416C144.348 52.614 144.576 52.9786 144.932 53.2355C145.288 53.4841 145.723 53.6084 146.237 53.6084C146.95 53.6084 147.484 53.3515 147.841 52.8377L148.947 53.4841C148.334 54.3873 147.426 54.839 146.225 54.839C145.214 54.839 144.397 54.5323 143.776 53.9191C143.154 53.2976 142.844 52.5145 142.844 51.5698C142.844 50.6417 143.15 49.8669 143.764 49.2454C144.377 48.6156 145.164 48.3007 146.125 48.3007C147.037 48.3007 147.783 48.6197 148.363 49.2578C148.951 49.8959 149.245 50.6707 149.245 51.5823C149.245 51.7231 149.229 51.9096 149.195 52.1416H144.248ZM144.236 51.0478H147.89C147.799 50.5423 147.588 50.1611 147.256 49.9042C146.933 49.6473 146.552 49.5189 146.113 49.5189C145.616 49.5189 145.201 49.6556 144.87 49.929C144.538 50.2025 144.327 50.5754 144.236 51.0478Z" fill="url(#paint0_linear_2412_717)"/>
<path d="M8.41104 54.839C7.0603 54.839 6.12803 54.3086 5.61425 53.2479L6.84484 52.527C7.12659 53.1402 7.6528 53.4468 8.42347 53.4468C8.92068 53.4468 9.30187 53.3266 9.56704 53.0863C9.84051 52.8377 9.97724 52.4897 9.97724 52.0422V45.9763H11.4067V52.0422C11.4067 52.9371 11.125 53.6291 10.5615 54.118C9.99796 54.5986 9.28115 54.839 8.41104 54.839ZM17.828 48.4623H19.1705V54.6774H17.828V53.7824C17.3226 54.4868 16.5975 54.839 15.6528 54.839C14.7992 54.839 14.07 54.5241 13.4651 53.8943C12.8601 53.2562 12.5577 52.4814 12.5577 51.5698C12.5577 50.65 12.8601 49.8752 13.4651 49.2454C14.07 48.6156 14.7992 48.3007 15.6528 48.3007C16.5975 48.3007 17.3226 48.6487 17.828 49.3448V48.4623ZM14.4595 52.9993C14.8324 53.3722 15.3006 53.5587 15.8641 53.5587C16.4276 53.5587 16.8958 53.3722 17.2687 52.9993C17.6416 52.6181 17.828 52.1416 17.828 51.5698C17.828 50.998 17.6416 50.5257 17.2687 50.1528C16.8958 49.7716 16.4276 49.581 15.8641 49.581C15.3006 49.581 14.8324 49.7716 14.4595 50.1528C14.0866 50.5257 13.9001 50.998 13.9001 51.5698C13.9001 52.1416 14.0866 52.6181 14.4595 52.9993ZM24.0044 48.3007C24.717 48.3007 25.293 48.5286 25.7322 48.9844C26.1714 49.4401 26.391 50.0658 26.391 50.8613V54.6774H25.0485V50.998C25.0485 50.534 24.9242 50.1777 24.6756 49.929C24.427 49.6804 24.0872 49.5561 23.6563 49.5561C23.184 49.5561 22.8028 49.7053 22.5128 50.0036C22.2227 50.2937 22.0777 50.7412 22.0777 51.3461V54.6774H20.7352V48.4623H22.0777V49.2578C22.4838 48.6197 23.126 48.3007 24.0044 48.3007ZM29.1043 47.2814C28.9386 47.4472 28.7397 47.53 28.5077 47.53C28.2757 47.53 28.0726 47.4472 27.8986 47.2814C27.7329 47.1074 27.65 46.9044 27.65 46.6723C27.65 46.4403 27.7329 46.2414 27.8986 46.0757C28.0643 45.9017 28.2674 45.8147 28.5077 45.8147C28.748 45.8147 28.951 45.9017 29.1168 46.0757C29.2825 46.2414 29.3654 46.4403 29.3654 46.6723C29.3654 46.9044 29.2784 47.1074 29.1043 47.2814ZM27.8365 54.6774V48.4623H29.1789V54.6774H27.8365ZM34.2057 49.755H32.6643V52.7383C32.6643 52.9952 32.7223 53.1816 32.8383 53.2976C32.9544 53.4053 33.1242 53.4675 33.348 53.4841C33.58 53.4924 33.8659 53.4882 34.2057 53.4716V54.6774C33.1781 54.8017 32.4406 54.7147 31.9931 54.4163C31.5456 54.1097 31.3219 53.5504 31.3219 52.7383V49.755H30.1783V48.4623H31.3219V47.1198L32.6643 46.7221V48.4623H34.2057V49.755ZM38.1018 54.839C37.1903 54.839 36.4155 54.5241 35.7774 53.8943C35.1393 53.2645 34.8203 52.4897 34.8203 51.5698C34.8203 50.65 35.1393 49.8752 35.7774 49.2454C36.4155 48.6156 37.1903 48.3007 38.1018 48.3007C39.0217 48.3007 39.7965 48.6156 40.4263 49.2454C41.0643 49.8752 41.3834 50.65 41.3834 51.5698C41.3834 52.4897 41.0643 53.2645 40.4263 53.8943C39.7965 54.5241 39.0217 54.839 38.1018 54.839ZM36.7221 52.9744C37.095 53.3473 37.5549 53.5338 38.1018 53.5338C38.6488 53.5338 39.1087 53.3473 39.4816 52.9744C39.8545 52.6015 40.0409 52.1333 40.0409 51.5698C40.0409 51.0063 39.8545 50.5381 39.4816 50.1652C39.1087 49.7923 38.6488 49.6059 38.1018 49.6059C37.5549 49.6059 37.095 49.7923 36.7221 50.1652C36.3492 50.5381 36.1627 51.0063 36.1627 51.5698C36.1627 52.1333 36.3492 52.6015 36.7221 52.9744ZM43.9397 49.5064C44.2795 48.7358 44.9176 48.3504 45.854 48.3504V49.8047C45.3402 49.7716 44.8927 49.8959 44.5115 50.1777C44.1303 50.4511 43.9397 50.9069 43.9397 51.545V54.6774H42.5973V48.4623H43.9397V49.5064ZM48.1137 47.2814C47.948 47.4472 47.7491 47.53 47.5171 47.53C47.2851 47.53 47.082 47.4472 46.908 47.2814C46.7423 47.1074 46.6594 46.9044 46.6594 46.6723C46.6594 46.4403 46.7423 46.2414 46.908 46.0757C47.0737 45.9017 47.2768 45.8147 47.5171 45.8147C47.7574 45.8147 47.9604 45.9017 48.1262 46.0757C48.2919 46.2414 48.3748 46.4403 48.3748 46.6723C48.3748 46.9044 48.2878 47.1074 48.1137 47.2814ZM46.8459 54.6774V48.4623H48.1883V54.6774H46.8459ZM54.6694 48.4623H56.0118V54.6774H54.6694V53.7824C54.1639 54.4868 53.4388 54.839 52.4941 54.839C51.6406 54.839 50.9113 54.5241 50.3064 53.8943C49.7015 53.2562 49.399 52.4814 49.399 51.5698C49.399 50.65 49.7015 49.8752 50.3064 49.2454C50.9113 48.6156 51.6406 48.3007 52.4941 48.3007C53.4388 48.3007 54.1639 48.6487 54.6694 49.3448V48.4623ZM51.3008 52.9993C51.6737 53.3722 52.1419 53.5587 52.7054 53.5587C53.2689 53.5587 53.7371 53.3722 54.11 52.9993C54.4829 52.6181 54.6694 52.1416 54.6694 51.5698C54.6694 50.998 54.4829 50.5257 54.11 50.1528C53.7371 49.7716 53.2689 49.581 52.7054 49.581C52.1419 49.581 51.6737 49.7716 51.3008 50.1528C50.9279 50.5257 50.7415 50.998 50.7415 51.5698C50.7415 52.1416 50.9279 52.6181 51.3008 52.9993ZM57.5766 54.6774V45.6034H58.919V54.6774H57.5766ZM70.8197 54.2423L69.6636 54.9135L68.8308 54.0186C68.143 54.5655 67.3351 54.839 66.4069 54.839C65.5203 54.839 64.7993 54.6111 64.2441 54.1553C63.6972 53.6995 63.4237 53.078 63.4237 52.2908C63.4237 51.7687 63.5522 51.2881 63.809 50.8489C64.0742 50.4097 64.4554 50.0575 64.9526 49.7923C64.6211 49.3365 64.4554 48.8311 64.4554 48.2758C64.4554 47.5466 64.7082 46.9541 65.2137 46.4983C65.7274 46.0426 66.3572 45.8147 67.103 45.8147C67.6997 45.8147 68.2383 45.9721 68.719 46.287C69.1996 46.6019 69.5559 47.0494 69.7879 47.6295L68.5698 48.3256C68.4538 47.9775 68.2673 47.704 68.0104 47.5052C67.7535 47.3063 67.4552 47.2068 67.1155 47.2068C66.7674 47.2068 66.4732 47.3104 66.2329 47.5176C66.0009 47.7165 65.8849 47.9817 65.8849 48.3131C65.8849 48.4871 65.9222 48.6612 65.9968 48.8352C66.0713 49.0092 66.1501 49.1542 66.2329 49.2702C66.3241 49.378 66.4567 49.523 66.6307 49.7053L68.7438 51.9925C68.951 51.5698 69.1001 51.0643 69.1913 50.476L70.4095 51.1721C70.2603 51.8682 70.02 52.4814 69.6885 53.0117L70.8197 54.2423ZM66.4815 53.5089C67.0367 53.5089 67.5174 53.3556 67.9234 53.049L65.7854 50.7494C65.1722 51.056 64.8656 51.5325 64.8656 52.1789C64.8656 52.585 65.0065 52.9081 65.2882 53.1485C65.57 53.3888 65.9677 53.5089 66.4815 53.5089ZM83.411 45.9763V54.6774H81.9815V48.4747L79.3339 52.8501H79.1599L76.5123 48.4623V54.6774H75.0828V45.9763H76.6242L79.2469 50.3268L81.8821 45.9763H83.411ZM89.9812 48.4623H91.3237V54.6774H89.9812V53.7824C89.4757 54.4868 88.7506 54.839 87.8059 54.839C86.9524 54.839 86.2232 54.5241 85.6182 53.8943C85.0133 53.2562 84.7108 52.4814 84.7108 51.5698C84.7108 50.65 85.0133 49.8752 85.6182 49.2454C86.2232 48.6156 86.9524 48.3007 87.8059 48.3007C88.7506 48.3007 89.4757 48.6487 89.9812 49.3448V48.4623ZM86.6126 52.9993C86.9856 53.3722 87.4538 53.5587 88.0173 53.5587C88.5808 53.5587 89.049 53.3722 89.4219 52.9993C89.7948 52.6181 89.9812 52.1416 89.9812 51.5698C89.9812 50.998 89.7948 50.5257 89.4219 50.1528C89.049 49.7716 88.5808 49.581 88.0173 49.581C87.4538 49.581 86.9856 49.7716 86.6126 50.1528C86.2397 50.5257 86.0533 50.998 86.0533 51.5698C86.0533 52.1416 86.2397 52.6181 86.6126 52.9993ZM94.1563 47.2814C93.9906 47.4472 93.7917 47.53 93.5597 47.53C93.3276 47.53 93.1246 47.4472 92.9506 47.2814C92.7848 47.1074 92.702 46.9044 92.702 46.6723C92.702 46.4403 92.7848 46.2414 92.9506 46.0757C93.1163 45.9017 93.3193 45.8147 93.5597 45.8147C93.8 45.8147 94.003 45.9017 94.1687 46.0757C94.3345 46.2414 94.4173 46.4403 94.4173 46.6723C94.4173 46.9044 94.3303 47.1074 94.1563 47.2814ZM92.8884 54.6774V48.4623H94.2309V54.6774H92.8884ZM99.0587 48.3007C99.7714 48.3007 100.347 48.5286 100.787 48.9844C101.226 49.4401 101.445 50.0658 101.445 50.8613V54.6774H100.103V50.998C100.103 50.534 99.9786 50.1777 99.73 49.929C99.4814 49.6804 99.1416 49.5561 98.7107 49.5561C98.2383 49.5561 97.8571 49.7053 97.5671 50.0036C97.2771 50.2937 97.1321 50.7412 97.1321 51.3461V54.6774H95.7896V48.4623H97.1321V49.2578C97.5381 48.6197 98.1803 48.3007 99.0587 48.3007ZM106.359 49.755H104.817V52.7383C104.817 52.9952 104.876 53.1816 104.992 53.2976C105.108 53.4053 105.277 53.4675 105.501 53.4841C105.733 53.4924 106.019 53.4882 106.359 53.4716V54.6774C105.331 54.8017 104.594 54.7147 104.146 54.4163C103.699 54.1097 103.475 53.5504 103.475 52.7383V49.755H102.331V48.4623H103.475V47.1198L104.817 46.7221V48.4623H106.359V49.755ZM108.378 52.1416C108.477 52.614 108.705 52.9786 109.062 53.2355C109.418 53.4841 109.853 53.6084 110.367 53.6084C111.08 53.6084 111.614 53.3515 111.97 52.8377L113.077 53.4841C112.463 54.3873 111.556 54.839 110.354 54.839C109.343 54.839 108.527 54.5323 107.906 53.9191C107.284 53.2976 106.973 52.5145 106.973 51.5698C106.973 50.6417 107.28 49.8669 107.893 49.2454C108.506 48.6156 109.294 48.3007 110.255 48.3007C111.167 48.3007 111.912 48.6197 112.492 49.2578C113.081 49.8959 113.375 50.6707 113.375 51.5823C113.375 51.7231 113.358 51.9096 113.325 52.1416H108.378ZM108.366 51.0478H112.02C111.929 50.5423 111.718 50.1611 111.386 49.9042C111.063 49.6473 110.682 49.5189 110.243 49.5189C109.745 49.5189 109.331 49.6556 109 49.929C108.668 50.2025 108.457 50.5754 108.366 51.0478ZM117.825 48.3007C118.538 48.3007 119.114 48.5286 119.553 48.9844C119.992 49.4401 120.212 50.0658 120.212 50.8613V54.6774H118.869V50.998C118.869 50.534 118.745 50.1777 118.497 49.929C118.248 49.6804 117.908 49.5561 117.477 49.5561C117.005 49.5561 116.624 49.7053 116.334 50.0036C116.044 50.2937 115.899 50.7412 115.899 51.3461V54.6774H114.556V48.4623H115.899V49.2578C116.305 48.6197 116.947 48.3007 117.825 48.3007ZM126.58 48.4623H127.922V54.6774H126.58V53.7824C126.074 54.4868 125.349 54.839 124.405 54.839C123.551 54.839 122.822 54.5241 122.217 53.8943C121.612 53.2562 121.309 52.4814 121.309 51.5698C121.309 50.65 121.612 49.8752 122.217 49.2454C122.822 48.6156 123.551 48.3007 124.405 48.3007C125.349 48.3007 126.074 48.6487 126.58 49.3448V48.4623ZM123.211 52.9993C123.584 53.3722 124.052 53.5587 124.616 53.5587C125.179 53.5587 125.648 53.3722 126.02 52.9993C126.393 52.6181 126.58 52.1416 126.58 51.5698C126.58 50.998 126.393 50.5257 126.02 50.1528C125.648 49.7716 125.179 49.581 124.616 49.581C124.052 49.581 123.584 49.7716 123.211 50.1528C122.838 50.5257 122.652 50.998 122.652 51.5698C122.652 52.1416 122.838 52.6181 123.211 52.9993ZM132.756 48.3007C133.469 48.3007 134.045 48.5286 134.484 48.9844C134.923 49.4401 135.143 50.0658 135.143 50.8613V54.6774H133.8V50.998C133.8 50.534 133.676 50.1777 133.427 49.929C133.179 49.6804 132.839 49.5561 132.408 49.5561C131.936 49.5561 131.555 49.7053 131.264 50.0036C130.974 50.2937 130.829 50.7412 130.829 51.3461V54.6774H129.487V48.4623H130.829V49.2578C131.235 48.6197 131.878 48.3007 132.756 48.3007ZM139.522 54.839C138.585 54.839 137.802 54.5241 137.172 53.8943C136.551 53.2645 136.24 52.4897 136.24 51.5698C136.24 50.6417 136.551 49.8669 137.172 49.2454C137.802 48.6156 138.585 48.3007 139.522 48.3007C140.127 48.3007 140.678 48.4457 141.175 48.7358C141.672 49.0258 142.045 49.4153 142.294 49.9042L141.138 50.5754C140.997 50.2771 140.781 50.0451 140.491 49.8793C140.21 49.7053 139.882 49.6183 139.509 49.6183C138.962 49.6183 138.502 49.8047 138.13 50.1777C137.765 50.5506 137.583 51.0146 137.583 51.5698C137.583 52.125 137.765 52.5891 138.13 52.962C138.502 53.3349 138.962 53.5214 139.509 53.5214C139.874 53.5214 140.201 53.4344 140.491 53.2603C140.79 53.0863 141.013 52.8543 141.162 52.5642L142.319 53.223C142.053 53.7202 141.672 54.1139 141.175 54.4039C140.678 54.6939 140.127 54.839 139.522 54.839ZM144.248 52.1416C144.348 52.614 144.576 52.9786 144.932 53.2355C145.288 53.4841 145.723 53.6084 146.237 53.6084C146.95 53.6084 147.484 53.3515 147.841 52.8377L148.947 53.4841C148.334 54.3873 147.426 54.839 146.225 54.839C145.214 54.839 144.397 54.5323 143.776 53.9191C143.154 53.2976 142.844 52.5145 142.844 51.5698C142.844 50.6417 143.15 49.8669 143.764 49.2454C144.377 48.6156 145.164 48.3007 146.125 48.3007C147.037 48.3007 147.783 48.6197 148.363 49.2578C148.951 49.8959 149.245 50.6707 149.245 51.5823C149.245 51.7231 149.229 51.9096 149.195 52.1416H144.248ZM144.236 51.0478H147.89C147.799 50.5423 147.588 50.1611 147.256 49.9042C146.933 49.6473 146.552 49.5189 146.113 49.5189C145.616 49.5189 145.201 49.6556 144.87 49.929C144.538 50.2025 144.327 50.5754 144.236 51.0478Z" fill="white" fill-opacity="0.5"/>
<path d="M66 30.2627C70.4759 25.8613 85.3218 35.5993 85.0559 30.2627C84.79 24.9262 70.588 38.5597 70.2101 33.3532C69.8321 28.1467 84.6127 36.8195 89 34.6415" stroke="url(#paint1_linear_2412_717)" stroke-width="1.03585" stroke-linecap="round"/>
<path d="M66 30.2627C70.4759 25.8613 85.3218 35.5993 85.0559 30.2627C84.79 24.9262 70.588 38.5597 70.2101 33.3532C69.8321 28.1467 84.6127 36.8195 89 34.6415" stroke="white" stroke-opacity="0.5" stroke-width="1.03585" stroke-linecap="round"/>
<path d="M4.00873 12.9041L2.98324 16.136H0.414339L5.11708 1.2198H8.77362L13.4764 16.136H10.9075L9.87162 12.9041H4.00873ZM4.68203 10.3145C4.49557 10.5838 4.24006 10.8566 3.9155 11.1328L4.06052 11.3089C4.37818 11.0258 4.64059 10.8325 4.84776 10.7289C5.06184 10.6253 5.33116 10.5735 5.65572 10.5735H8.16247C8.54228 10.5735 8.84268 10.6253 9.06366 10.7289C9.29154 10.8325 9.53669 11.0085 9.79911 11.2571L9.96484 11.0811C9.67481 10.791 9.43656 10.5148 9.25011 10.2524C9.07056 9.98996 8.89101 9.62742 8.71147 9.16474L7.24057 4.64845C7.10245 4.29626 7.0334 3.80596 7.0334 3.17755L7.04376 2.80464H6.80551C6.80551 3.61951 6.74336 4.23066 6.61906 4.63809L5.14816 9.20617C5.02385 9.66885 4.86848 10.0383 4.68203 10.3145ZM17.5969 6.91695C17.6591 7.25533 17.6902 7.56263 17.6902 7.83886V16.136H15.3491V1.2198H17.5969L22.455 11.1328C22.5379 11.2917 22.5897 11.485 22.6104 11.7129C22.6311 11.9408 22.6449 12.2723 22.6519 12.7073H22.8901C22.897 12.2723 22.9108 11.9408 22.9315 11.7129C22.9523 11.485 23.0006 11.2917 23.0766 11.1328L27.914 1.2198H30.1617V16.136H27.8311V7.62133C27.8311 7.33129 27.8449 7.09305 27.8725 6.9066C27.9001 6.71324 27.945 6.44737 28.0072 6.10899C28.021 6.05375 28.0348 5.98469 28.0486 5.90182C28.0693 5.81896 28.09 5.72228 28.1108 5.61179L27.8725 5.57035C27.8242 5.83277 27.7966 5.98469 27.7897 6.02613C27.7275 6.37141 27.6723 6.63727 27.6239 6.82373C27.5825 7.01018 27.51 7.2208 27.4064 7.45559L23.2526 16.136H22.2582L18.3117 7.85957C18.1666 7.58335 18.0354 7.26569 17.918 6.9066C17.8075 6.5475 17.6867 6.10554 17.5555 5.58071L17.3069 5.64286C17.445 6.15388 17.5417 6.57858 17.5969 6.91695ZM42.7052 13.795V16.136H33.0718V1.2198H42.7052V3.56081H36.2312C36.0585 3.56081 35.8755 3.52283 35.6822 3.44687C35.4957 3.364 35.33 3.26042 35.1849 3.13611L35.0503 3.33293C35.1884 3.43651 35.3092 3.57808 35.4128 3.75762C35.5164 3.93717 35.5682 4.10981 35.5682 4.27554V6.55441C35.5682 6.74777 35.5302 6.9135 35.4543 7.05161C35.3783 7.18282 35.2678 7.31403 35.1228 7.44524L35.2678 7.63169C35.399 7.51429 35.5475 7.42107 35.7132 7.35201C35.8859 7.27605 36.0482 7.23807 36.2001 7.23807H41.4622V9.57908H36.2829C36.0482 9.57908 35.8582 9.55836 35.7132 9.51693C35.5682 9.46859 35.4266 9.38227 35.2885 9.25797L35.1228 9.45478C35.2816 9.57217 35.3956 9.70338 35.4646 9.8484C35.5337 9.99342 35.5682 10.1695 35.5682 10.3767V13.246C35.5682 13.4117 35.5268 13.5671 35.4439 13.7121C35.361 13.8571 35.254 13.9814 35.1228 14.085L35.2678 14.2611C35.5786 13.9504 35.9135 13.795 36.2726 13.795H42.7052ZM47.5729 11.1639C47.6488 11.2744 47.6868 11.485 47.6868 11.7958V16.136H45.1904V1.2198H51.3537C51.4987 1.2198 51.6852 1.2267 51.9131 1.24052C52.1479 1.24742 52.3585 1.26814 52.5449 1.30267C53.4081 1.43387 54.1125 1.68593 54.6581 2.05883C55.2036 2.43174 55.6214 2.9324 55.9114 3.56081C56.2015 4.18922 56.3465 4.91432 56.3465 5.73609C56.3465 6.74431 56.1462 7.61442 55.7457 8.34642C55.3521 9.07151 54.5614 9.47549 53.3736 9.55836L53.415 10.905H48.5362C48.0942 10.905 47.8353 10.8842 47.7593 10.8428C47.6834 10.7945 47.5211 10.684 47.2725 10.5113L47.1171 10.6978C47.3519 10.8981 47.5038 11.0534 47.5729 11.1639ZM50.2971 10.905V9.80697C51.2156 9.80697 52.0615 9.80697 52.835 9.80697C53.6084 9.80697 54.223 9.85185 54.6788 9.94162C55.1414 10.0314 55.5523 10.2835 55.9114 10.6978C56.1877 11.0155 56.3258 11.523 56.3258 12.2205C56.3258 12.9111 56.3258 13.4255 56.3258 13.7639V16.136H53.8501V13.7535C53.8501 13.2356 53.8397 12.8006 53.819 12.4484C53.8052 12.0893 53.7292 11.7992 53.5911 11.5783C53.3218 11.1294 52.9006 10.905 52.3274 10.905C51.7542 10.905 51.0775 10.905 50.2971 10.905ZM47.5521 8.45001C47.4624 8.60884 47.3174 8.77457 47.1171 8.94721L47.2828 9.11295C47.4624 8.9334 47.6419 8.80219 47.8215 8.71933C48.0079 8.63646 48.2462 8.59502 48.5362 8.59502H51.2501C51.3882 8.59502 51.5436 8.58812 51.7162 8.57431C51.8889 8.5605 52.0477 8.53287 52.1927 8.49144C52.6071 8.38786 52.9316 8.20486 53.1664 7.94244C53.4081 7.68003 53.5773 7.38308 53.674 7.05161C53.7776 6.72014 53.8294 6.39558 53.8294 6.07792C53.8294 5.76026 53.7776 5.43569 53.674 5.10422C53.5773 4.76585 53.4081 4.46545 53.1664 4.20304C52.9316 3.94062 52.6071 3.75762 52.1927 3.65404C52.0477 3.6126 51.8889 3.58843 51.7162 3.58153C51.5436 3.56772 51.3882 3.56081 51.2501 3.56081H48.5569C48.2807 3.56081 48.0632 3.51592 47.9043 3.42615C47.7455 3.33638 47.566 3.17755 47.3657 2.94966L47.1792 3.09468C47.5176 3.4883 47.6868 3.93026 47.6868 4.42056V7.81814C47.6868 8.08055 47.6419 8.29118 47.5521 8.45001ZM61.5704 1.2198V16.136H59.074V1.2198H61.5704ZM75.2803 15.1623C74.134 16.0186 72.701 16.4467 70.9815 16.4467C69.4968 16.4467 68.2193 16.1222 67.1489 15.473C66.0854 14.817 65.2671 13.9055 64.6939 12.7384C64.1277 11.5714 63.8445 10.2179 63.8445 8.67789C63.8445 7.13793 64.1277 5.78443 64.6939 4.61737C65.2671 3.45032 66.0854 2.54223 67.1489 1.8931C68.2193 1.23706 69.4968 0.909045 70.9815 0.909045C72.701 0.909045 74.134 1.31993 75.2803 2.1417C76.4266 2.96347 77.2311 4.25138 77.6938 6.00541L75.1767 6.03648C74.859 5.14566 74.3584 4.462 73.6747 3.98551C72.9911 3.50211 72.0933 3.26042 70.9815 3.26042C69.9802 3.26042 69.1446 3.48485 68.4748 3.93372C67.8118 4.38258 67.3112 5.01445 66.9728 5.82931C66.6413 6.63728 66.4721 7.5868 66.4652 8.67789C66.4652 9.76208 66.631 10.7116 66.9624 11.5265C67.3008 12.3344 67.8049 12.9663 68.4748 13.4221C69.1446 13.8709 69.9802 14.0954 70.9815 14.0954C72.0933 14.0954 72.9911 13.8537 73.6747 13.3703C74.3584 12.8869 74.859 12.2032 75.1767 11.3193L77.6938 11.3504C77.2311 13.0284 76.4266 14.2991 75.2803 15.1623ZM82.1221 12.9041L81.0966 16.136H78.5277L83.2304 1.2198H86.887L91.5897 16.136H89.0208L87.985 12.9041H82.1221ZM82.7954 10.3145C82.6089 10.5838 82.3534 10.8566 82.0288 11.1328L82.1739 11.3089C82.4915 11.0258 82.7539 10.8325 82.9611 10.7289C83.1752 10.6253 83.4445 10.5735 83.7691 10.5735H86.2758C86.6556 10.5735 86.956 10.6253 87.177 10.7289C87.4049 10.8325 87.65 11.0085 87.9124 11.2571L88.0782 11.0811C87.7881 10.791 87.5499 10.5148 87.3634 10.2524C87.1839 9.98996 87.0043 9.62742 86.8248 9.16474L85.3539 4.64845C85.2158 4.29626 85.1467 3.80596 85.1467 3.17755L85.1571 2.80464H84.9188C84.9188 3.61951 84.8567 4.23066 84.7324 4.63809L83.2615 9.20617C83.1372 9.66885 82.9818 10.0383 82.7954 10.3145ZM95.8138 5.8086C95.9312 6.52678 95.9899 7.24842 95.9899 7.97352V16.136H93.4625V1.2198H95.9899L101.635 9.77589C102.043 10.4319 102.353 11.0051 102.568 11.4954C102.789 11.9788 103.068 12.6797 103.407 13.5982L103.634 13.5257C103.4 12.7177 103.22 12.034 103.096 11.4747C102.972 10.9084 102.909 10.4216 102.909 10.0141V1.2198H105.437V16.136H102.909L97.4816 7.90101C97.0534 7.23116 96.6874 6.55095 96.3836 5.86039C96.0797 5.16292 95.8069 4.42747 95.5652 3.65404L95.3374 3.73691C95.5445 4.39294 95.7033 5.08351 95.8138 5.8086ZM116.613 11.1536C116.668 11.2295 116.696 11.4574 116.696 11.8372V16.136H114.2V1.2198H120.363C120.508 1.2198 120.694 1.2267 120.922 1.24052C121.157 1.24742 121.368 1.26814 121.554 1.30267C122.417 1.43387 123.129 1.72046 123.688 2.16242C124.254 2.60438 124.672 3.16374 124.941 3.84049C125.218 4.51034 125.356 5.25615 125.356 6.07792C125.356 6.89278 125.218 7.63859 124.941 8.31535C124.665 8.98519 124.244 9.5411 123.678 9.98306C123.118 10.425 122.41 10.7116 121.554 10.8428C121.368 10.8704 121.157 10.8912 120.922 10.905C120.687 10.9188 120.501 10.9257 120.363 10.9257H117.525C117.173 10.9257 116.948 10.9153 116.851 10.8946C116.755 10.867 116.582 10.7634 116.333 10.5838L116.188 10.7703C116.423 10.9498 116.565 11.0776 116.613 11.1536ZM116.561 8.45001C116.472 8.60884 116.327 8.77457 116.126 8.94721L116.292 9.11295C116.472 8.9334 116.651 8.80219 116.831 8.71933C117.017 8.63646 117.255 8.59502 117.545 8.59502H120.259C120.397 8.59502 120.553 8.58812 120.725 8.57431C120.898 8.5605 121.057 8.53287 121.202 8.49144C121.616 8.38786 121.941 8.20486 122.176 7.94244C122.417 7.68003 122.587 7.38308 122.683 7.05161C122.787 6.72014 122.839 6.39558 122.839 6.07792C122.839 5.76026 122.787 5.43569 122.683 5.10422C122.587 4.76585 122.417 4.46545 122.176 4.20304C121.941 3.94062 121.616 3.75762 121.202 3.65404C121.057 3.6126 120.898 3.58843 120.725 3.58153C120.553 3.56772 120.397 3.56081 120.259 3.56081H117.566C117.29 3.56081 117.072 3.51592 116.914 3.42615C116.755 3.33638 116.575 3.17755 116.375 2.94966L116.188 3.09468C116.527 3.4883 116.696 3.93026 116.696 4.42056V7.81814C116.696 8.08055 116.651 8.29118 116.561 8.45001ZM129.813 11.1639C129.889 11.2744 129.927 11.485 129.927 11.7958V16.136H127.431V1.2198H133.594C133.739 1.2198 133.926 1.2267 134.154 1.24052C134.388 1.24742 134.599 1.26814 134.785 1.30267C135.649 1.43387 136.353 1.68593 136.899 2.05883C137.444 2.43174 137.862 2.9324 138.152 3.56081C138.442 4.18922 138.587 4.91432 138.587 5.73609C138.587 6.74431 138.387 7.61442 137.986 8.34642C137.593 9.07151 136.802 9.47549 135.614 9.55836L135.656 10.905H130.777C130.335 10.905 130.076 10.8842 130 10.8428C129.924 10.7945 129.762 10.684 129.513 10.5113L129.358 10.6978C129.592 10.8981 129.744 11.0534 129.813 11.1639ZM132.538 10.905V9.80697C133.456 9.80697 134.302 9.80697 135.075 9.80697C135.849 9.80697 136.464 9.85185 136.919 9.94162C137.382 10.0314 137.793 10.2835 138.152 10.6978C138.428 11.0155 138.566 11.523 138.566 12.2205C138.566 12.9111 138.566 13.4255 138.566 13.7639V16.136H136.091V13.7535C136.091 13.2356 136.08 12.8006 136.06 12.4484C136.046 12.0893 135.97 11.7992 135.832 11.5783C135.562 11.1294 135.141 10.905 134.568 10.905C133.995 10.905 133.318 10.905 132.538 10.905ZM129.793 8.45001C129.703 8.60884 129.558 8.77457 129.358 8.94721L129.523 9.11295C129.703 8.9334 129.882 8.80219 130.062 8.71933C130.248 8.63646 130.487 8.59502 130.777 8.59502H133.491C133.629 8.59502 133.784 8.58812 133.957 8.57431C134.129 8.5605 134.288 8.53287 134.433 8.49144C134.848 8.38786 135.172 8.20486 135.407 7.94244C135.649 7.68003 135.818 7.38308 135.915 7.05161C136.018 6.72014 136.07 6.39558 136.07 6.07792C136.07 5.76026 136.018 5.43569 135.915 5.10422C135.818 4.76585 135.649 4.46545 135.407 4.20304C135.172 3.94062 134.848 3.75762 134.433 3.65404C134.288 3.6126 134.129 3.58843 133.957 3.58153C133.784 3.56772 133.629 3.56081 133.491 3.56081H130.797C130.521 3.56081 130.304 3.51592 130.145 3.42615C129.986 3.33638 129.806 3.17755 129.606 2.94966L129.42 3.09468C129.758 3.4883 129.927 3.93026 129.927 4.42056V7.81814C129.927 8.08055 129.882 8.29118 129.793 8.45001ZM151.248 15.473C150.185 16.1222 148.907 16.4467 147.416 16.4467C145.931 16.4467 144.653 16.1222 143.583 15.473C142.52 14.817 141.701 13.9055 141.128 12.7384C140.562 11.5714 140.279 10.2179 140.279 8.67789C140.279 7.13793 140.562 5.78443 141.128 4.61737C141.701 3.45032 142.52 2.54223 143.583 1.8931C144.653 1.23706 145.931 0.909045 147.416 0.909045C148.907 0.909045 150.185 1.23706 151.248 1.8931C152.319 2.54223 153.137 3.45032 153.703 4.61737C154.276 5.78443 154.563 7.13793 154.563 8.67789C154.563 10.2179 154.276 11.5714 153.703 12.7384C153.137 13.9055 152.319 14.817 151.248 15.473ZM144.909 13.4014C145.579 13.8502 146.414 14.0816 147.416 14.0954C148.417 14.1023 149.249 13.8813 149.912 13.4324C150.582 12.9836 151.083 12.3517 151.414 11.5368C151.752 10.7151 151.922 9.76208 151.922 8.67789C151.922 7.5868 151.752 6.64073 151.414 5.83967C151.083 5.03171 150.582 4.4033 149.912 3.95443C149.249 3.50557 148.417 3.27423 147.416 3.26042C146.414 3.25351 145.582 3.47449 144.919 3.92336C144.256 4.37222 143.756 5.00409 143.417 5.81896C143.086 6.63382 142.92 7.5868 142.92 8.67789C142.92 9.76208 143.086 10.7082 143.417 11.5161C143.749 12.3241 144.246 12.9525 144.909 13.4014Z" fill="url(#paint2_linear_2412_717)"/>
<path d="M4.00873 12.9041L2.98324 16.136H0.414339L5.11708 1.2198H8.77362L13.4764 16.136H10.9075L9.87162 12.9041H4.00873ZM4.68203 10.3145C4.49557 10.5838 4.24006 10.8566 3.9155 11.1328L4.06052 11.3089C4.37818 11.0258 4.64059 10.8325 4.84776 10.7289C5.06184 10.6253 5.33116 10.5735 5.65572 10.5735H8.16247C8.54228 10.5735 8.84268 10.6253 9.06366 10.7289C9.29154 10.8325 9.53669 11.0085 9.79911 11.2571L9.96484 11.0811C9.67481 10.791 9.43656 10.5148 9.25011 10.2524C9.07056 9.98996 8.89101 9.62742 8.71147 9.16474L7.24057 4.64845C7.10245 4.29626 7.0334 3.80596 7.0334 3.17755L7.04376 2.80464H6.80551C6.80551 3.61951 6.74336 4.23066 6.61906 4.63809L5.14816 9.20617C5.02385 9.66885 4.86848 10.0383 4.68203 10.3145ZM17.5969 6.91695C17.6591 7.25533 17.6902 7.56263 17.6902 7.83886V16.136H15.3491V1.2198H17.5969L22.455 11.1328C22.5379 11.2917 22.5897 11.485 22.6104 11.7129C22.6311 11.9408 22.6449 12.2723 22.6519 12.7073H22.8901C22.897 12.2723 22.9108 11.9408 22.9315 11.7129C22.9523 11.485 23.0006 11.2917 23.0766 11.1328L27.914 1.2198H30.1617V16.136H27.8311V7.62133C27.8311 7.33129 27.8449 7.09305 27.8725 6.9066C27.9001 6.71324 27.945 6.44737 28.0072 6.10899C28.021 6.05375 28.0348 5.98469 28.0486 5.90182C28.0693 5.81896 28.09 5.72228 28.1108 5.61179L27.8725 5.57035C27.8242 5.83277 27.7966 5.98469 27.7897 6.02613C27.7275 6.37141 27.6723 6.63727 27.6239 6.82373C27.5825 7.01018 27.51 7.2208 27.4064 7.45559L23.2526 16.136H22.2582L18.3117 7.85957C18.1666 7.58335 18.0354 7.26569 17.918 6.9066C17.8075 6.5475 17.6867 6.10554 17.5555 5.58071L17.3069 5.64286C17.445 6.15388 17.5417 6.57858 17.5969 6.91695ZM42.7052 13.795V16.136H33.0718V1.2198H42.7052V3.56081H36.2312C36.0585 3.56081 35.8755 3.52283 35.6822 3.44687C35.4957 3.364 35.33 3.26042 35.1849 3.13611L35.0503 3.33293C35.1884 3.43651 35.3092 3.57808 35.4128 3.75762C35.5164 3.93717 35.5682 4.10981 35.5682 4.27554V6.55441C35.5682 6.74777 35.5302 6.9135 35.4543 7.05161C35.3783 7.18282 35.2678 7.31403 35.1228 7.44524L35.2678 7.63169C35.399 7.51429 35.5475 7.42107 35.7132 7.35201C35.8859 7.27605 36.0482 7.23807 36.2001 7.23807H41.4622V9.57908H36.2829C36.0482 9.57908 35.8582 9.55836 35.7132 9.51693C35.5682 9.46859 35.4266 9.38227 35.2885 9.25797L35.1228 9.45478C35.2816 9.57217 35.3956 9.70338 35.4646 9.8484C35.5337 9.99342 35.5682 10.1695 35.5682 10.3767V13.246C35.5682 13.4117 35.5268 13.5671 35.4439 13.7121C35.361 13.8571 35.254 13.9814 35.1228 14.085L35.2678 14.2611C35.5786 13.9504 35.9135 13.795 36.2726 13.795H42.7052ZM47.5729 11.1639C47.6488 11.2744 47.6868 11.485 47.6868 11.7958V16.136H45.1904V1.2198H51.3537C51.4987 1.2198 51.6852 1.2267 51.9131 1.24052C52.1479 1.24742 52.3585 1.26814 52.5449 1.30267C53.4081 1.43387 54.1125 1.68593 54.6581 2.05883C55.2036 2.43174 55.6214 2.9324 55.9114 3.56081C56.2015 4.18922 56.3465 4.91432 56.3465 5.73609C56.3465 6.74431 56.1462 7.61442 55.7457 8.34642C55.3521 9.07151 54.5614 9.47549 53.3736 9.55836L53.415 10.905H48.5362C48.0942 10.905 47.8353 10.8842 47.7593 10.8428C47.6834 10.7945 47.5211 10.684 47.2725 10.5113L47.1171 10.6978C47.3519 10.8981 47.5038 11.0534 47.5729 11.1639ZM50.2971 10.905V9.80697C51.2156 9.80697 52.0615 9.80697 52.835 9.80697C53.6084 9.80697 54.223 9.85185 54.6788 9.94162C55.1414 10.0314 55.5523 10.2835 55.9114 10.6978C56.1877 11.0155 56.3258 11.523 56.3258 12.2205C56.3258 12.9111 56.3258 13.4255 56.3258 13.7639V16.136H53.8501V13.7535C53.8501 13.2356 53.8397 12.8006 53.819 12.4484C53.8052 12.0893 53.7292 11.7992 53.5911 11.5783C53.3218 11.1294 52.9006 10.905 52.3274 10.905C51.7542 10.905 51.0775 10.905 50.2971 10.905ZM47.5521 8.45001C47.4624 8.60884 47.3174 8.77457 47.1171 8.94721L47.2828 9.11295C47.4624 8.9334 47.6419 8.80219 47.8215 8.71933C48.0079 8.63646 48.2462 8.59502 48.5362 8.59502H51.2501C51.3882 8.59502 51.5436 8.58812 51.7162 8.57431C51.8889 8.5605 52.0477 8.53287 52.1927 8.49144C52.6071 8.38786 52.9316 8.20486 53.1664 7.94244C53.4081 7.68003 53.5773 7.38308 53.674 7.05161C53.7776 6.72014 53.8294 6.39558 53.8294 6.07792C53.8294 5.76026 53.7776 5.43569 53.674 5.10422C53.5773 4.76585 53.4081 4.46545 53.1664 4.20304C52.9316 3.94062 52.6071 3.75762 52.1927 3.65404C52.0477 3.6126 51.8889 3.58843 51.7162 3.58153C51.5436 3.56772 51.3882 3.56081 51.2501 3.56081H48.5569C48.2807 3.56081 48.0632 3.51592 47.9043 3.42615C47.7455 3.33638 47.566 3.17755 47.3657 2.94966L47.1792 3.09468C47.5176 3.4883 47.6868 3.93026 47.6868 4.42056V7.81814C47.6868 8.08055 47.6419 8.29118 47.5521 8.45001ZM61.5704 1.2198V16.136H59.074V1.2198H61.5704ZM75.2803 15.1623C74.134 16.0186 72.701 16.4467 70.9815 16.4467C69.4968 16.4467 68.2193 16.1222 67.1489 15.473C66.0854 14.817 65.2671 13.9055 64.6939 12.7384C64.1277 11.5714 63.8445 10.2179 63.8445 8.67789C63.8445 7.13793 64.1277 5.78443 64.6939 4.61737C65.2671 3.45032 66.0854 2.54223 67.1489 1.8931C68.2193 1.23706 69.4968 0.909045 70.9815 0.909045C72.701 0.909045 74.134 1.31993 75.2803 2.1417C76.4266 2.96347 77.2311 4.25138 77.6938 6.00541L75.1767 6.03648C74.859 5.14566 74.3584 4.462 73.6747 3.98551C72.9911 3.50211 72.0933 3.26042 70.9815 3.26042C69.9802 3.26042 69.1446 3.48485 68.4748 3.93372C67.8118 4.38258 67.3112 5.01445 66.9728 5.82931C66.6413 6.63728 66.4721 7.5868 66.4652 8.67789C66.4652 9.76208 66.631 10.7116 66.9624 11.5265C67.3008 12.3344 67.8049 12.9663 68.4748 13.4221C69.1446 13.8709 69.9802 14.0954 70.9815 14.0954C72.0933 14.0954 72.9911 13.8537 73.6747 13.3703C74.3584 12.8869 74.859 12.2032 75.1767 11.3193L77.6938 11.3504C77.2311 13.0284 76.4266 14.2991 75.2803 15.1623ZM82.1221 12.9041L81.0966 16.136H78.5277L83.2304 1.2198H86.887L91.5897 16.136H89.0208L87.985 12.9041H82.1221ZM82.7954 10.3145C82.6089 10.5838 82.3534 10.8566 82.0288 11.1328L82.1739 11.3089C82.4915 11.0258 82.7539 10.8325 82.9611 10.7289C83.1752 10.6253 83.4445 10.5735 83.7691 10.5735H86.2758C86.6556 10.5735 86.956 10.6253 87.177 10.7289C87.4049 10.8325 87.65 11.0085 87.9124 11.2571L88.0782 11.0811C87.7881 10.791 87.5499 10.5148 87.3634 10.2524C87.1839 9.98996 87.0043 9.62742 86.8248 9.16474L85.3539 4.64845C85.2158 4.29626 85.1467 3.80596 85.1467 3.17755L85.1571 2.80464H84.9188C84.9188 3.61951 84.8567 4.23066 84.7324 4.63809L83.2615 9.20617C83.1372 9.66885 82.9818 10.0383 82.7954 10.3145ZM95.8138 5.8086C95.9312 6.52678 95.9899 7.24842 95.9899 7.97352V16.136H93.4625V1.2198H95.9899L101.635 9.77589C102.043 10.4319 102.353 11.0051 102.568 11.4954C102.789 11.9788 103.068 12.6797 103.407 13.5982L103.634 13.5257C103.4 12.7177 103.22 12.034 103.096 11.4747C102.972 10.9084 102.909 10.4216 102.909 10.0141V1.2198H105.437V16.136H102.909L97.4816 7.90101C97.0534 7.23116 96.6874 6.55095 96.3836 5.86039C96.0797 5.16292 95.8069 4.42747 95.5652 3.65404L95.3374 3.73691C95.5445 4.39294 95.7033 5.08351 95.8138 5.8086ZM116.613 11.1536C116.668 11.2295 116.696 11.4574 116.696 11.8372V16.136H114.2V1.2198H120.363C120.508 1.2198 120.694 1.2267 120.922 1.24052C121.157 1.24742 121.368 1.26814 121.554 1.30267C122.417 1.43387 123.129 1.72046 123.688 2.16242C124.254 2.60438 124.672 3.16374 124.941 3.84049C125.218 4.51034 125.356 5.25615 125.356 6.07792C125.356 6.89278 125.218 7.63859 124.941 8.31535C124.665 8.98519 124.244 9.5411 123.678 9.98306C123.118 10.425 122.41 10.7116 121.554 10.8428C121.368 10.8704 121.157 10.8912 120.922 10.905C120.687 10.9188 120.501 10.9257 120.363 10.9257H117.525C117.173 10.9257 116.948 10.9153 116.851 10.8946C116.755 10.867 116.582 10.7634 116.333 10.5838L116.188 10.7703C116.423 10.9498 116.565 11.0776 116.613 11.1536ZM116.561 8.45001C116.472 8.60884 116.327 8.77457 116.126 8.94721L116.292 9.11295C116.472 8.9334 116.651 8.80219 116.831 8.71933C117.017 8.63646 117.255 8.59502 117.545 8.59502H120.259C120.397 8.59502 120.553 8.58812 120.725 8.57431C120.898 8.5605 121.057 8.53287 121.202 8.49144C121.616 8.38786 121.941 8.20486 122.176 7.94244C122.417 7.68003 122.587 7.38308 122.683 7.05161C122.787 6.72014 122.839 6.39558 122.839 6.07792C122.839 5.76026 122.787 5.43569 122.683 5.10422C122.587 4.76585 122.417 4.46545 122.176 4.20304C121.941 3.94062 121.616 3.75762 121.202 3.65404C121.057 3.6126 120.898 3.58843 120.725 3.58153C120.553 3.56772 120.397 3.56081 120.259 3.56081H117.566C117.29 3.56081 117.072 3.51592 116.914 3.42615C116.755 3.33638 116.575 3.17755 116.375 2.94966L116.188 3.09468C116.527 3.4883 116.696 3.93026 116.696 4.42056V7.81814C116.696 8.08055 116.651 8.29118 116.561 8.45001ZM129.813 11.1639C129.889 11.2744 129.927 11.485 129.927 11.7958V16.136H127.431V1.2198H133.594C133.739 1.2198 133.926 1.2267 134.154 1.24052C134.388 1.24742 134.599 1.26814 134.785 1.30267C135.649 1.43387 136.353 1.68593 136.899 2.05883C137.444 2.43174 137.862 2.9324 138.152 3.56081C138.442 4.18922 138.587 4.91432 138.587 5.73609C138.587 6.74431 138.387 7.61442 137.986 8.34642C137.593 9.07151 136.802 9.47549 135.614 9.55836L135.656 10.905H130.777C130.335 10.905 130.076 10.8842 130 10.8428C129.924 10.7945 129.762 10.684 129.513 10.5113L129.358 10.6978C129.592 10.8981 129.744 11.0534 129.813 11.1639ZM132.538 10.905V9.80697C133.456 9.80697 134.302 9.80697 135.075 9.80697C135.849 9.80697 136.464 9.85185 136.919 9.94162C137.382 10.0314 137.793 10.2835 138.152 10.6978C138.428 11.0155 138.566 11.523 138.566 12.2205C138.566 12.9111 138.566 13.4255 138.566 13.7639V16.136H136.091V13.7535C136.091 13.2356 136.08 12.8006 136.06 12.4484C136.046 12.0893 135.97 11.7992 135.832 11.5783C135.562 11.1294 135.141 10.905 134.568 10.905C133.995 10.905 133.318 10.905 132.538 10.905ZM129.793 8.45001C129.703 8.60884 129.558 8.77457 129.358 8.94721L129.523 9.11295C129.703 8.9334 129.882 8.80219 130.062 8.71933C130.248 8.63646 130.487 8.59502 130.777 8.59502H133.491C133.629 8.59502 133.784 8.58812 133.957 8.57431C134.129 8.5605 134.288 8.53287 134.433 8.49144C134.848 8.38786 135.172 8.20486 135.407 7.94244C135.649 7.68003 135.818 7.38308 135.915 7.05161C136.018 6.72014 136.07 6.39558 136.07 6.07792C136.07 5.76026 136.018 5.43569 135.915 5.10422C135.818 4.76585 135.649 4.46545 135.407 4.20304C135.172 3.94062 134.848 3.75762 134.433 3.65404C134.288 3.6126 134.129 3.58843 133.957 3.58153C133.784 3.56772 133.629 3.56081 133.491 3.56081H130.797C130.521 3.56081 130.304 3.51592 130.145 3.42615C129.986 3.33638 129.806 3.17755 129.606 2.94966L129.42 3.09468C129.758 3.4883 129.927 3.93026 129.927 4.42056V7.81814C129.927 8.08055 129.882 8.29118 129.793 8.45001ZM151.248 15.473C150.185 16.1222 148.907 16.4467 147.416 16.4467C145.931 16.4467 144.653 16.1222 143.583 15.473C142.52 14.817 141.701 13.9055 141.128 12.7384C140.562 11.5714 140.279 10.2179 140.279 8.67789C140.279 7.13793 140.562 5.78443 141.128 4.61737C141.701 3.45032 142.52 2.54223 143.583 1.8931C144.653 1.23706 145.931 0.909045 147.416 0.909045C148.907 0.909045 150.185 1.23706 151.248 1.8931C152.319 2.54223 153.137 3.45032 153.703 4.61737C154.276 5.78443 154.563 7.13793 154.563 8.67789C154.563 10.2179 154.276 11.5714 153.703 12.7384C153.137 13.9055 152.319 14.817 151.248 15.473ZM144.909 13.4014C145.579 13.8502 146.414 14.0816 147.416 14.0954C148.417 14.1023 149.249 13.8813 149.912 13.4324C150.582 12.9836 151.083 12.3517 151.414 11.5368C151.752 10.7151 151.922 9.76208 151.922 8.67789C151.922 7.5868 151.752 6.64073 151.414 5.83967C151.083 5.03171 150.582 4.4033 149.912 3.95443C149.249 3.50557 148.417 3.27423 147.416 3.26042C146.414 3.25351 145.582 3.47449 144.919 3.92336C144.256 4.37222 143.756 5.00409 143.417 5.81896C143.086 6.63382 142.92 7.5868 142.92 8.67789C142.92 9.76208 143.086 10.7082 143.417 11.5161C143.749 12.3241 144.246 12.9525 144.909 13.4014Z" fill="white" fill-opacity="0.5"/>
<defs>
<linearGradient id="paint0_linear_2412_717" x1="68.4182" y1="46.98" x2="68.4182" y2="55.7432" gradientUnits="userSpaceOnUse">
<stop stop-color="#424446"/>
<stop offset="0.413557" stop-color="white"/>
<stop offset="0.429587" stop-color="#DDDDDD"/>
<stop offset="1" stop-color="#DDDDDD"/>
</linearGradient>
<linearGradient id="paint1_linear_2412_717" x1="76.031" y1="29.8684" x2="76.031" y2="35.7105" gradientUnits="userSpaceOnUse">
<stop stop-color="#424446"/>
<stop offset="0.413557" stop-color="white"/>
<stop offset="0.429587" stop-color="#DDDDDD"/>
<stop offset="1" stop-color="#DDDDDD"/>
</linearGradient>
<linearGradient id="paint2_linear_2412_717" x1="68.0365" y1="3.30704" x2="68.0365" y2="17.9123" gradientUnits="userSpaceOnUse">
<stop stop-color="#424446"/>
<stop offset="0.413557" stop-color="white"/>
<stop offset="0.429587" stop-color="#DDDDDD"/>
<stop offset="1" stop-color="#DDDDDD"/>
</linearGradient>
</defs>
</svg>
