<svg width="160" height="55" viewBox="0 0 160 55" fill="none" xmlns="http://www.w3.org/2000/svg">
<path d="M11.2318 54.839C9.8811 54.839 8.94884 54.3086 8.43506 53.2479L9.66564 52.527C9.94739 53.1402 10.4736 53.4468 11.2443 53.4468C11.7415 53.4468 12.1227 53.3266 12.3878 53.0863C12.6613 52.8377 12.798 52.4897 12.798 52.0422V45.9763H14.2275V52.0422C14.2275 52.9371 13.9458 53.6291 13.3823 54.118C12.8188 54.5986 12.102 54.839 11.2318 54.839ZM20.6489 48.4623H21.9913V54.6774H20.6489V53.7824C20.1434 54.4868 19.4183 54.839 18.4736 54.839C17.62 54.839 16.8908 54.5241 16.2859 53.8943C15.6809 53.2562 15.3785 52.4814 15.3785 51.5698C15.3785 50.65 15.6809 49.8752 16.2859 49.2454C16.8908 48.6156 17.62 48.3007 18.4736 48.3007C19.4183 48.3007 20.1434 48.6487 20.6489 49.3448V48.4623ZM17.2803 52.9993C17.6532 53.3722 18.1214 53.5587 18.6849 53.5587C19.2484 53.5587 19.7166 53.3722 20.0895 52.9993C20.4624 52.6181 20.6489 52.1416 20.6489 51.5698C20.6489 50.998 20.4624 50.5257 20.0895 50.1528C19.7166 49.7716 19.2484 49.581 18.6849 49.581C18.1214 49.581 17.6532 49.7716 17.2803 50.1528C16.9074 50.5257 16.7209 50.998 16.7209 51.5698C16.7209 52.1416 16.9074 52.6181 17.2803 52.9993ZM26.8252 48.3007C27.5378 48.3007 28.1138 48.5286 28.553 48.9844C28.9922 49.4401 29.2118 50.0658 29.2118 50.8613V54.6774H27.8693V50.998C27.8693 50.534 27.745 50.1777 27.4964 49.929C27.2478 49.6804 26.908 49.5561 26.4771 49.5561C26.0048 49.5561 25.6236 49.7053 25.3336 50.0036C25.0435 50.2937 24.8985 50.7412 24.8985 51.3461V54.6774H23.5561V48.4623H24.8985V49.2578C25.3046 48.6197 25.9468 48.3007 26.8252 48.3007ZM31.9251 47.2814C31.7594 47.4472 31.5605 47.53 31.3285 47.53C31.0965 47.53 30.8934 47.4472 30.7194 47.2814C30.5537 47.1074 30.4708 46.9044 30.4708 46.6723C30.4708 46.4403 30.5537 46.2414 30.7194 46.0757C30.8851 45.9017 31.0882 45.8147 31.3285 45.8147C31.5688 45.8147 31.7718 45.9017 31.9376 46.0757C32.1033 46.2414 32.1862 46.4403 32.1862 46.6723C32.1862 46.9044 32.0992 47.1074 31.9251 47.2814ZM30.6573 54.6774V48.4623H31.9997V54.6774H30.6573ZM37.0265 49.755H35.4851V52.7383C35.4851 52.9952 35.5431 53.1816 35.6591 53.2976C35.7752 53.4053 35.945 53.4675 36.1688 53.4841C36.4008 53.4924 36.6867 53.4882 37.0265 53.4716V54.6774C35.9989 54.8017 35.2614 54.7147 34.8139 54.4163C34.3664 54.1097 34.1427 53.5504 34.1427 52.7383V49.755H32.9991V48.4623H34.1427V47.1198L35.4851 46.7221V48.4623H37.0265V49.755ZM40.9226 54.839C40.0111 54.839 39.2363 54.5241 38.5982 53.8943C37.9601 53.2645 37.6411 52.4897 37.6411 51.5698C37.6411 50.65 37.9601 49.8752 38.5982 49.2454C39.2363 48.6156 40.0111 48.3007 40.9226 48.3007C41.8425 48.3007 42.6173 48.6156 43.2471 49.2454C43.8852 49.8752 44.2042 50.65 44.2042 51.5698C44.2042 52.4897 43.8852 53.2645 43.2471 53.8943C42.6173 54.5241 41.8425 54.839 40.9226 54.839ZM39.5429 52.9744C39.9158 53.3473 40.3757 53.5338 40.9226 53.5338C41.4696 53.5338 41.9295 53.3473 42.3024 52.9744C42.6753 52.6015 42.8617 52.1333 42.8617 51.5698C42.8617 51.0063 42.6753 50.5381 42.3024 50.1652C41.9295 49.7923 41.4696 49.6059 40.9226 49.6059C40.3757 49.6059 39.9158 49.7923 39.5429 50.1652C39.17 50.5381 38.9835 51.0063 38.9835 51.5698C38.9835 52.1333 39.17 52.6015 39.5429 52.9744ZM46.7605 49.5064C47.1003 48.7358 47.7384 48.3504 48.6748 48.3504V49.8047C48.161 49.7716 47.7135 49.8959 47.3323 50.1777C46.9511 50.4511 46.7605 50.9069 46.7605 51.545V54.6774H45.4181V48.4623H46.7605V49.5064ZM50.9345 47.2814C50.7688 47.4472 50.5699 47.53 50.3379 47.53C50.1059 47.53 49.9028 47.4472 49.7288 47.2814C49.5631 47.1074 49.4802 46.9044 49.4802 46.6723C49.4802 46.4403 49.5631 46.2414 49.7288 46.0757C49.8946 45.9017 50.0976 45.8147 50.3379 45.8147C50.5782 45.8147 50.7812 45.9017 50.947 46.0757C51.1127 46.2414 51.1956 46.4403 51.1956 46.6723C51.1956 46.9044 51.1086 47.1074 50.9345 47.2814ZM49.6667 54.6774V48.4623H51.0091V54.6774H49.6667ZM57.4902 48.4623H58.8326V54.6774H57.4902V53.7824C56.9847 54.4868 56.2596 54.839 55.3149 54.839C54.4614 54.839 53.7321 54.5241 53.1272 53.8943C52.5223 53.2562 52.2198 52.4814 52.2198 51.5698C52.2198 50.65 52.5223 49.8752 53.1272 49.2454C53.7321 48.6156 54.4614 48.3007 55.3149 48.3007C56.2596 48.3007 56.9847 48.6487 57.4902 49.3448V48.4623ZM54.1216 52.9993C54.4945 53.3722 54.9627 53.5587 55.5262 53.5587C56.0897 53.5587 56.5579 53.3722 56.9308 52.9993C57.3037 52.6181 57.4902 52.1416 57.4902 51.5698C57.4902 50.998 57.3037 50.5257 56.9308 50.1528C56.5579 49.7716 56.0897 49.581 55.5262 49.581C54.9627 49.581 54.4945 49.7716 54.1216 50.1528C53.7487 50.5257 53.5623 50.998 53.5623 51.5698C53.5623 52.1416 53.7487 52.6181 54.1216 52.9993ZM60.3974 54.6774V45.6034H61.7398V54.6774H60.3974ZM73.6405 54.2423L72.4844 54.9135L71.6516 54.0186C70.9638 54.5655 70.1559 54.839 69.2277 54.839C68.3411 54.839 67.6201 54.6111 67.0649 54.1553C66.518 53.6995 66.2445 53.078 66.2445 52.2908C66.2445 51.7687 66.373 51.2881 66.6298 50.8489C66.895 50.4097 67.2762 50.0575 67.7734 49.7923C67.4419 49.3365 67.2762 48.8311 67.2762 48.2758C67.2762 47.5466 67.529 46.9541 68.0345 46.4983C68.5482 46.0426 69.178 45.8147 69.9238 45.8147C70.5205 45.8147 71.0591 45.9721 71.5398 46.287C72.0204 46.6019 72.3767 47.0494 72.6087 47.6295L71.3906 48.3256C71.2746 47.9775 71.0881 47.704 70.8312 47.5052C70.5743 47.3063 70.276 47.2068 69.9363 47.2068C69.5882 47.2068 69.294 47.3104 69.0537 47.5176C68.8217 47.7165 68.7057 47.9817 68.7057 48.3131C68.7057 48.4871 68.743 48.6612 68.8176 48.8352C68.8921 49.0092 68.9709 49.1542 69.0537 49.2702C69.1449 49.378 69.2775 49.523 69.4515 49.7053L71.5646 51.9925C71.7718 51.5698 71.9209 51.0643 72.0121 50.476L73.2303 51.1721C73.0811 51.8682 72.8408 52.4814 72.5093 53.0117L73.6405 54.2423ZM69.3023 53.5089C69.8575 53.5089 70.3382 53.3556 70.7442 53.049L68.6062 50.7494C67.993 51.056 67.6864 51.5325 67.6864 52.1789C67.6864 52.585 67.8273 52.9081 68.109 53.1485C68.3908 53.3888 68.7885 53.5089 69.3023 53.5089ZM86.2318 45.9763V54.6774H84.8023V48.4747L82.1547 52.8501H81.9807L79.3331 48.4623V54.6774H77.9036V45.9763H79.445L82.0677 50.3268L84.7029 45.9763H86.2318ZM92.802 48.4623H94.1445V54.6774H92.802V53.7824C92.2965 54.4868 91.5714 54.839 90.6267 54.839C89.7732 54.839 89.044 54.5241 88.439 53.8943C87.8341 53.2562 87.5316 52.4814 87.5316 51.5698C87.5316 50.65 87.8341 49.8752 88.439 49.2454C89.044 48.6156 89.7732 48.3007 90.6267 48.3007C91.5714 48.3007 92.2965 48.6487 92.802 49.3448V48.4623ZM89.4335 52.9993C89.8064 53.3722 90.2746 53.5587 90.8381 53.5587C91.4016 53.5587 91.8698 53.3722 92.2427 52.9993C92.6156 52.6181 92.802 52.1416 92.802 51.5698C92.802 50.998 92.6156 50.5257 92.2427 50.1528C91.8698 49.7716 91.4016 49.581 90.8381 49.581C90.2746 49.581 89.8064 49.7716 89.4335 50.1528C89.0605 50.5257 88.8741 50.998 88.8741 51.5698C88.8741 52.1416 89.0605 52.6181 89.4335 52.9993ZM96.9771 47.2814C96.8114 47.4472 96.6125 47.53 96.3805 47.53C96.1484 47.53 95.9454 47.4472 95.7714 47.2814C95.6056 47.1074 95.5228 46.9044 95.5228 46.6723C95.5228 46.4403 95.6056 46.2414 95.7714 46.0757C95.9371 45.9017 96.1401 45.8147 96.3805 45.8147C96.6208 45.8147 96.8238 45.9017 96.9895 46.0757C97.1553 46.2414 97.2381 46.4403 97.2381 46.6723C97.2381 46.9044 97.1511 47.1074 96.9771 47.2814ZM95.7092 54.6774V48.4623H97.0517V54.6774H95.7092ZM101.88 48.3007C102.592 48.3007 103.168 48.5286 103.607 48.9844C104.047 49.4401 104.266 50.0658 104.266 50.8613V54.6774H102.924V50.998C102.924 50.534 102.799 50.1777 102.551 49.929C102.302 49.6804 101.962 49.5561 101.531 49.5561C101.059 49.5561 100.678 49.7053 100.388 50.0036C100.098 50.2937 99.9529 50.7412 99.9529 51.3461V54.6774H98.6104V48.4623H99.9529V49.2578C100.359 48.6197 101.001 48.3007 101.88 48.3007ZM109.18 49.755H107.638V52.7383C107.638 52.9952 107.696 53.1816 107.812 53.2976C107.928 53.4053 108.098 53.4675 108.322 53.4841C108.554 53.4924 108.84 53.4882 109.18 53.4716V54.6774C108.152 54.8017 107.415 54.7147 106.967 54.4163C106.52 54.1097 106.296 53.5504 106.296 52.7383V49.755H105.152V48.4623H106.296V47.1198L107.638 46.7221V48.4623H109.18V49.755ZM111.199 52.1416C111.298 52.614 111.526 52.9786 111.883 53.2355C112.239 53.4841 112.674 53.6084 113.188 53.6084C113.9 53.6084 114.435 53.3515 114.791 52.8377L115.897 53.4841C115.284 54.3873 114.377 54.839 113.175 54.839C112.164 54.839 111.348 54.5323 110.727 53.9191C110.105 53.2976 109.794 52.5145 109.794 51.5698C109.794 50.6417 110.101 49.8669 110.714 49.2454C111.327 48.6156 112.115 48.3007 113.076 48.3007C113.987 48.3007 114.733 48.6197 115.313 49.2578C115.902 49.8959 116.196 50.6707 116.196 51.5823C116.196 51.7231 116.179 51.9096 116.146 52.1416H111.199ZM111.186 51.0478H114.841C114.75 50.5423 114.538 50.1611 114.207 49.9042C113.884 49.6473 113.503 49.5189 113.063 49.5189C112.566 49.5189 112.152 49.6556 111.82 49.929C111.489 50.2025 111.278 50.5754 111.186 51.0478ZM120.646 48.3007C121.359 48.3007 121.935 48.5286 122.374 48.9844C122.813 49.4401 123.033 50.0658 123.033 50.8613V54.6774H121.69V50.998C121.69 50.534 121.566 50.1777 121.317 49.929C121.069 49.6804 120.729 49.5561 120.298 49.5561C119.826 49.5561 119.445 49.7053 119.155 50.0036C118.865 50.2937 118.719 50.7412 118.719 51.3461V54.6774H117.377V48.4623H118.719V49.2578C119.126 48.6197 119.768 48.3007 120.646 48.3007ZM129.401 48.4623H130.743V54.6774H129.401V53.7824C128.895 54.4868 128.17 54.839 127.225 54.839C126.372 54.839 125.643 54.5241 125.038 53.8943C124.433 53.2562 124.13 52.4814 124.13 51.5698C124.13 50.65 124.433 49.8752 125.038 49.2454C125.643 48.6156 126.372 48.3007 127.225 48.3007C128.17 48.3007 128.895 48.6487 129.401 49.3448V48.4623ZM126.032 52.9993C126.405 53.3722 126.873 53.5587 127.437 53.5587C128 53.5587 128.468 53.3722 128.841 52.9993C129.214 52.6181 129.401 52.1416 129.401 51.5698C129.401 50.998 129.214 50.5257 128.841 50.1528C128.468 49.7716 128 49.581 127.437 49.581C126.873 49.581 126.405 49.7716 126.032 50.1528C125.659 50.5257 125.473 50.998 125.473 51.5698C125.473 52.1416 125.659 52.6181 126.032 52.9993ZM135.577 48.3007C136.29 48.3007 136.866 48.5286 137.305 48.9844C137.744 49.4401 137.964 50.0658 137.964 50.8613V54.6774H136.621V50.998C136.621 50.534 136.497 50.1777 136.248 49.929C136 49.6804 135.66 49.5561 135.229 49.5561C134.757 49.5561 134.375 49.7053 134.085 50.0036C133.795 50.2937 133.65 50.7412 133.65 51.3461V54.6774H132.308V48.4623H133.65V49.2578C134.056 48.6197 134.699 48.3007 135.577 48.3007ZM142.343 54.839C141.406 54.839 140.623 54.5241 139.993 53.8943C139.372 53.2645 139.061 52.4897 139.061 51.5698C139.061 50.6417 139.372 49.8669 139.993 49.2454C140.623 48.6156 141.406 48.3007 142.343 48.3007C142.947 48.3007 143.499 48.4457 143.996 48.7358C144.493 49.0258 144.866 49.4153 145.114 49.9042L143.958 50.5754C143.818 50.2771 143.602 50.0451 143.312 49.8793C143.03 49.7053 142.703 49.6183 142.33 49.6183C141.783 49.6183 141.323 49.8047 140.95 50.1777C140.586 50.5506 140.403 51.0146 140.403 51.5698C140.403 52.125 140.586 52.5891 140.95 52.962C141.323 53.3349 141.783 53.5214 142.33 53.5214C142.695 53.5214 143.022 53.4344 143.312 53.2603C143.61 53.0863 143.834 52.8543 143.983 52.5642L145.139 53.223C144.874 53.7202 144.493 54.1139 143.996 54.4039C143.499 54.6939 142.947 54.839 142.343 54.839ZM147.069 52.1416C147.169 52.614 147.396 52.9786 147.753 53.2355C148.109 53.4841 148.544 53.6084 149.058 53.6084C149.771 53.6084 150.305 53.3515 150.661 52.8377L151.768 53.4841C151.154 54.3873 150.247 54.839 149.045 54.839C148.034 54.839 147.218 54.5323 146.597 53.9191C145.975 53.2976 145.664 52.5145 145.664 51.5698C145.664 50.6417 145.971 49.8669 146.584 49.2454C147.198 48.6156 147.985 48.3007 148.946 48.3007C149.858 48.3007 150.603 48.6197 151.183 49.2578C151.772 49.8959 152.066 50.6707 152.066 51.5823C152.066 51.7231 152.049 51.9096 152.016 52.1416H147.069ZM147.057 51.0478H150.711C150.62 50.5423 150.409 50.1611 150.077 49.9042C149.754 49.6473 149.373 49.5189 148.934 49.5189C148.436 49.5189 148.022 49.6556 147.691 49.929C147.359 50.2025 147.148 50.5754 147.057 51.0478Z" fill="url(#paint0_linear_2412_717)"/>
<path d="M11.2318 54.839C9.8811 54.839 8.94884 54.3086 8.43506 53.2479L9.66564 52.527C9.94739 53.1402 10.4736 53.4468 11.2443 53.4468C11.7415 53.4468 12.1227 53.3266 12.3878 53.0863C12.6613 52.8377 12.798 52.4897 12.798 52.0422V45.9763H14.2275V52.0422C14.2275 52.9371 13.9458 53.6291 13.3823 54.118C12.8188 54.5986 12.102 54.839 11.2318 54.839ZM20.6489 48.4623H21.9913V54.6774H20.6489V53.7824C20.1434 54.4868 19.4183 54.839 18.4736 54.839C17.62 54.839 16.8908 54.5241 16.2859 53.8943C15.6809 53.2562 15.3785 52.4814 15.3785 51.5698C15.3785 50.65 15.6809 49.8752 16.2859 49.2454C16.8908 48.6156 17.62 48.3007 18.4736 48.3007C19.4183 48.3007 20.1434 48.6487 20.6489 49.3448V48.4623ZM17.2803 52.9993C17.6532 53.3722 18.1214 53.5587 18.6849 53.5587C19.2484 53.5587 19.7166 53.3722 20.0895 52.9993C20.4624 52.6181 20.6489 52.1416 20.6489 51.5698C20.6489 50.998 20.4624 50.5257 20.0895 50.1528C19.7166 49.7716 19.2484 49.581 18.6849 49.581C18.1214 49.581 17.6532 49.7716 17.2803 50.1528C16.9074 50.5257 16.7209 50.998 16.7209 51.5698C16.7209 52.1416 16.9074 52.6181 17.2803 52.9993ZM26.8252 48.3007C27.5378 48.3007 28.1138 48.5286 28.553 48.9844C28.9922 49.4401 29.2118 50.0658 29.2118 50.8613V54.6774H27.8693V50.998C27.8693 50.534 27.745 50.1777 27.4964 49.929C27.2478 49.6804 26.908 49.5561 26.4771 49.5561C26.0048 49.5561 25.6236 49.7053 25.3336 50.0036C25.0435 50.2937 24.8985 50.7412 24.8985 51.3461V54.6774H23.5561V48.4623H24.8985V49.2578C25.3046 48.6197 25.9468 48.3007 26.8252 48.3007ZM31.9251 47.2814C31.7594 47.4472 31.5605 47.53 31.3285 47.53C31.0965 47.53 30.8934 47.4472 30.7194 47.2814C30.5537 47.1074 30.4708 46.9044 30.4708 46.6723C30.4708 46.4403 30.5537 46.2414 30.7194 46.0757C30.8851 45.9017 31.0882 45.8147 31.3285 45.8147C31.5688 45.8147 31.7718 45.9017 31.9376 46.0757C32.1033 46.2414 32.1862 46.4403 32.1862 46.6723C32.1862 46.9044 32.0992 47.1074 31.9251 47.2814ZM30.6573 54.6774V48.4623H31.9997V54.6774H30.6573ZM37.0265 49.755H35.4851V52.7383C35.4851 52.9952 35.5431 53.1816 35.6591 53.2976C35.7752 53.4053 35.945 53.4675 36.1688 53.4841C36.4008 53.4924 36.6867 53.4882 37.0265 53.4716V54.6774C35.9989 54.8017 35.2614 54.7147 34.8139 54.4163C34.3664 54.1097 34.1427 53.5504 34.1427 52.7383V49.755H32.9991V48.4623H34.1427V47.1198L35.4851 46.7221V48.4623H37.0265V49.755ZM40.9226 54.839C40.0111 54.839 39.2363 54.5241 38.5982 53.8943C37.9601 53.2645 37.6411 52.4897 37.6411 51.5698C37.6411 50.65 37.9601 49.8752 38.5982 49.2454C39.2363 48.6156 40.0111 48.3007 40.9226 48.3007C41.8425 48.3007 42.6173 48.6156 43.2471 49.2454C43.8852 49.8752 44.2042 50.65 44.2042 51.5698C44.2042 52.4897 43.8852 53.2645 43.2471 53.8943C42.6173 54.5241 41.8425 54.839 40.9226 54.839ZM39.5429 52.9744C39.9158 53.3473 40.3757 53.5338 40.9226 53.5338C41.4696 53.5338 41.9295 53.3473 42.3024 52.9744C42.6753 52.6015 42.8617 52.1333 42.8617 51.5698C42.8617 51.0063 42.6753 50.5381 42.3024 50.1652C41.9295 49.7923 41.4696 49.6059 40.9226 49.6059C40.3757 49.6059 39.9158 49.7923 39.5429 50.1652C39.17 50.5381 38.9835 51.0063 38.9835 51.5698C38.9835 52.1333 39.17 52.6015 39.5429 52.9744ZM46.7605 49.5064C47.1003 48.7358 47.7384 48.3504 48.6748 48.3504V49.8047C48.161 49.7716 47.7135 49.8959 47.3323 50.1777C46.9511 50.4511 46.7605 50.9069 46.7605 51.545V54.6774H45.4181V48.4623H46.7605V49.5064ZM50.9345 47.2814C50.7688 47.4472 50.5699 47.53 50.3379 47.53C50.1059 47.53 49.9028 47.4472 49.7288 47.2814C49.5631 47.1074 49.4802 46.9044 49.4802 46.6723C49.4802 46.4403 49.5631 46.2414 49.7288 46.0757C49.8946 45.9017 50.0976 45.8147 50.3379 45.8147C50.5782 45.8147 50.7812 45.9017 50.947 46.0757C51.1127 46.2414 51.1956 46.4403 51.1956 46.6723C51.1956 46.9044 51.1086 47.1074 50.9345 47.2814ZM49.6667 54.6774V48.4623H51.0091V54.6774H49.6667ZM57.4902 48.4623H58.8326V54.6774H57.4902V53.7824C56.9847 54.4868 56.2596 54.839 55.3149 54.839C54.4614 54.839 53.7321 54.5241 53.1272 53.8943C52.5223 53.2562 52.2198 52.4814 52.2198 51.5698C52.2198 50.65 52.5223 49.8752 53.1272 49.2454C53.7321 48.6156 54.4614 48.3007 55.3149 48.3007C56.2596 48.3007 56.9847 48.6487 57.4902 49.3448V48.4623ZM54.1216 52.9993C54.4945 53.3722 54.9627 53.5587 55.5262 53.5587C56.0897 53.5587 56.5579 53.3722 56.9308 52.9993C57.3037 52.6181 57.4902 52.1416 57.4902 51.5698C57.4902 50.998 57.3037 50.5257 56.9308 50.1528C56.5579 49.7716 56.0897 49.581 55.5262 49.581C54.9627 49.581 54.4945 49.7716 54.1216 50.1528C53.7487 50.5257 53.5623 50.998 53.5623 51.5698C53.5623 52.1416 53.7487 52.6181 54.1216 52.9993ZM60.3974 54.6774V45.6034H61.7398V54.6774H60.3974ZM73.6405 54.2423L72.4844 54.9135L71.6516 54.0186C70.9638 54.5655 70.1559 54.839 69.2277 54.839C68.3411 54.839 67.6201 54.6111 67.0649 54.1553C66.518 53.6995 66.2445 53.078 66.2445 52.2908C66.2445 51.7687 66.373 51.2881 66.6298 50.8489C66.895 50.4097 67.2762 50.0575 67.7734 49.7923C67.4419 49.3365 67.2762 48.8311 67.2762 48.2758C67.2762 47.5466 67.529 46.9541 68.0345 46.4983C68.5482 46.0426 69.178 45.8147 69.9238 45.8147C70.5205 45.8147 71.0591 45.9721 71.5398 46.287C72.0204 46.6019 72.3767 47.0494 72.6087 47.6295L71.3906 48.3256C71.2746 47.9775 71.0881 47.704 70.8312 47.5052C70.5743 47.3063 70.276 47.2068 69.9363 47.2068C69.5882 47.2068 69.294 47.3104 69.0537 47.5176C68.8217 47.7165 68.7057 47.9817 68.7057 48.3131C68.7057 48.4871 68.743 48.6612 68.8176 48.8352C68.8921 49.0092 68.9709 49.1542 69.0537 49.2702C69.1449 49.378 69.2775 49.523 69.4515 49.7053L71.5646 51.9925C71.7718 51.5698 71.9209 51.0643 72.0121 50.476L73.2303 51.1721C73.0811 51.8682 72.8408 52.4814 72.5093 53.0117L73.6405 54.2423ZM69.3023 53.5089C69.8575 53.5089 70.3382 53.3556 70.7442 53.049L68.6062 50.7494C67.993 51.056 67.6864 51.5325 67.6864 52.1789C67.6864 52.585 67.8273 52.9081 68.109 53.1485C68.3908 53.3888 68.7885 53.5089 69.3023 53.5089ZM86.2318 45.9763V54.6774H84.8023V48.4747L82.1547 52.8501H81.9807L79.3331 48.4623V54.6774H77.9036V45.9763H79.445L82.0677 50.3268L84.7029 45.9763H86.2318ZM92.802 48.4623H94.1445V54.6774H92.802V53.7824C92.2965 54.4868 91.5714 54.839 90.6267 54.839C89.7732 54.839 89.044 54.5241 88.439 53.8943C87.8341 53.2562 87.5316 52.4814 87.5316 51.5698C87.5316 50.65 87.8341 49.8752 88.439 49.2454C89.044 48.6156 89.7732 48.3007 90.6267 48.3007C91.5714 48.3007 92.2965 48.6487 92.802 49.3448V48.4623ZM89.4335 52.9993C89.8064 53.3722 90.2746 53.5587 90.8381 53.5587C91.4016 53.5587 91.8698 53.3722 92.2427 52.9993C92.6156 52.6181 92.802 52.1416 92.802 51.5698C92.802 50.998 92.6156 50.5257 92.2427 50.1528C91.8698 49.7716 91.4016 49.581 90.8381 49.581C90.2746 49.581 89.8064 49.7716 89.4335 50.1528C89.0605 50.5257 88.8741 50.998 88.8741 51.5698C88.8741 52.1416 89.0605 52.6181 89.4335 52.9993ZM96.9771 47.2814C96.8114 47.4472 96.6125 47.53 96.3805 47.53C96.1484 47.53 95.9454 47.4472 95.7714 47.2814C95.6056 47.1074 95.5228 46.9044 95.5228 46.6723C95.5228 46.4403 95.6056 46.2414 95.7714 46.0757C95.9371 45.9017 96.1401 45.8147 96.3805 45.8147C96.6208 45.8147 96.8238 45.9017 96.9895 46.0757C97.1553 46.2414 97.2381 46.4403 97.2381 46.6723C97.2381 46.9044 97.1511 47.1074 96.9771 47.2814ZM95.7092 54.6774V48.4623H97.0517V54.6774H95.7092ZM101.88 48.3007C102.592 48.3007 103.168 48.5286 103.607 48.9844C104.047 49.4401 104.266 50.0658 104.266 50.8613V54.6774H102.924V50.998C102.924 50.534 102.799 50.1777 102.551 49.929C102.302 49.6804 101.962 49.5561 101.531 49.5561C101.059 49.5561 100.678 49.7053 100.388 50.0036C100.098 50.2937 99.9529 50.7412 99.9529 51.3461V54.6774H98.6104V48.4623H99.9529V49.2578C100.359 48.6197 101.001 48.3007 101.88 48.3007ZM109.18 49.755H107.638V52.7383C107.638 52.9952 107.696 53.1816 107.812 53.2976C107.928 53.4053 108.098 53.4675 108.322 53.4841C108.554 53.4924 108.84 53.4882 109.18 53.4716V54.6774C108.152 54.8017 107.415 54.7147 106.967 54.4163C106.52 54.1097 106.296 53.5504 106.296 52.7383V49.755H105.152V48.4623H106.296V47.1198L107.638 46.7221V48.4623H109.18V49.755ZM111.199 52.1416C111.298 52.614 111.526 52.9786 111.883 53.2355C112.239 53.4841 112.674 53.6084 113.188 53.6084C113.9 53.6084 114.435 53.3515 114.791 52.8377L115.897 53.4841C115.284 54.3873 114.377 54.839 113.175 54.839C112.164 54.839 111.348 54.5323 110.727 53.9191C110.105 53.2976 109.794 52.5145 109.794 51.5698C109.794 50.6417 110.101 49.8669 110.714 49.2454C111.327 48.6156 112.115 48.3007 113.076 48.3007C113.987 48.3007 114.733 48.6197 115.313 49.2578C115.902 49.8959 116.196 50.6707 116.196 51.5823C116.196 51.7231 116.179 51.9096 116.146 52.1416H111.199ZM111.186 51.0478H114.841C114.75 50.5423 114.538 50.1611 114.207 49.9042C113.884 49.6473 113.503 49.5189 113.063 49.5189C112.566 49.5189 112.152 49.6556 111.82 49.929C111.489 50.2025 111.278 50.5754 111.186 51.0478ZM120.646 48.3007C121.359 48.3007 121.935 48.5286 122.374 48.9844C122.813 49.4401 123.033 50.0658 123.033 50.8613V54.6774H121.69V50.998C121.69 50.534 121.566 50.1777 121.317 49.929C121.069 49.6804 120.729 49.5561 120.298 49.5561C119.826 49.5561 119.445 49.7053 119.155 50.0036C118.865 50.2937 118.719 50.7412 118.719 51.3461V54.6774H117.377V48.4623H118.719V49.2578C119.126 48.6197 119.768 48.3007 120.646 48.3007ZM129.401 48.4623H130.743V54.6774H129.401V53.7824C128.895 54.4868 128.17 54.839 127.225 54.839C126.372 54.839 125.643 54.5241 125.038 53.8943C124.433 53.2562 124.13 52.4814 124.13 51.5698C124.13 50.65 124.433 49.8752 125.038 49.2454C125.643 48.6156 126.372 48.3007 127.225 48.3007C128.17 48.3007 128.895 48.6487 129.401 49.3448V48.4623ZM126.032 52.9993C126.405 53.3722 126.873 53.5587 127.437 53.5587C128 53.5587 128.468 53.3722 128.841 52.9993C129.214 52.6181 129.401 52.1416 129.401 51.5698C129.401 50.998 129.214 50.5257 128.841 50.1528C128.468 49.7716 128 49.581 127.437 49.581C126.873 49.581 126.405 49.7716 126.032 50.1528C125.659 50.5257 125.473 50.998 125.473 51.5698C125.473 52.1416 125.659 52.6181 126.032 52.9993ZM135.577 48.3007C136.29 48.3007 136.866 48.5286 137.305 48.9844C137.744 49.4401 137.964 50.0658 137.964 50.8613V54.6774H136.621V50.998C136.621 50.534 136.497 50.1777 136.248 49.929C136 49.6804 135.66 49.5561 135.229 49.5561C134.757 49.5561 134.375 49.7053 134.085 50.0036C133.795 50.2937 133.65 50.7412 133.65 51.3461V54.6774H132.308V48.4623H133.65V49.2578C134.056 48.6197 134.699 48.3007 135.577 48.3007ZM142.343 54.839C141.406 54.839 140.623 54.5241 139.993 53.8943C139.372 53.2645 139.061 52.4897 139.061 51.5698C139.061 50.6417 139.372 49.8669 139.993 49.2454C140.623 48.6156 141.406 48.3007 142.343 48.3007C142.947 48.3007 143.499 48.4457 143.996 48.7358C144.493 49.0258 144.866 49.4153 145.114 49.9042L143.958 50.5754C143.818 50.2771 143.602 50.0451 143.312 49.8793C143.03 49.7053 142.703 49.6183 142.33 49.6183C141.783 49.6183 141.323 49.8047 140.95 50.1777C140.586 50.5506 140.403 51.0146 140.403 51.5698C140.403 52.125 140.586 52.5891 140.95 52.962C141.323 53.3349 141.783 53.5214 142.33 53.5214C142.695 53.5214 143.022 53.4344 143.312 53.2603C143.61 53.0863 143.834 52.8543 143.983 52.5642L145.139 53.223C144.874 53.7202 144.493 54.1139 143.996 54.4039C143.499 54.6939 142.947 54.839 142.343 54.839ZM147.069 52.1416C147.169 52.614 147.396 52.9786 147.753 53.2355C148.109 53.4841 148.544 53.6084 149.058 53.6084C149.771 53.6084 150.305 53.3515 150.661 52.8377L151.768 53.4841C151.154 54.3873 150.247 54.839 149.045 54.839C148.034 54.839 147.218 54.5323 146.597 53.9191C145.975 53.2976 145.664 52.5145 145.664 51.5698C145.664 50.6417 145.971 49.8669 146.584 49.2454C147.198 48.6156 147.985 48.3007 148.946 48.3007C149.858 48.3007 150.603 48.6197 151.183 49.2578C151.772 49.8959 152.066 50.6707 152.066 51.5823C152.066 51.7231 152.049 51.9096 152.016 52.1416H147.069ZM147.057 51.0478H150.711C150.62 50.5423 150.409 50.1611 150.077 49.9042C149.754 49.6473 149.373 49.5189 148.934 49.5189C148.436 49.5189 148.022 49.6556 147.691 49.929C147.359 50.2025 147.148 50.5754 147.057 51.0478Z" fill="white" fill-opacity="0.5"/>
<path d="M69 29.4732C73.4759 24.3382 89.1118 35.4464 88.0559 29.4732C87 23.5 73.9201 39.1576 73.2101 33.0788C72.5 27 87.6127 37.1228 92 34.5817" stroke="url(#paint1_linear_2412_717)" stroke-width="1.03585" stroke-linecap="round"/>
<path d="M69 29.4732C73.4759 24.3382 89.1118 35.4464 88.0559 29.4732C87 23.5 73.9201 39.1576 73.2101 33.0788C72.5 27 87.6127 37.1228 92 34.5817" stroke="white" stroke-opacity="0.5" stroke-width="1.03585" stroke-linecap="round"/>
<path d="M4.644 14.392L3.456 18.136H0.48L5.928 0.855986H10.164L15.612 18.136H12.636L11.436 14.392H4.644ZM5.424 11.392C5.208 11.704 4.912 12.02 4.536 12.34L4.704 12.544C5.072 12.216 5.376 11.992 5.616 11.872C5.864 11.752 6.176 11.692 6.552 11.692H9.456C9.896 11.692 10.244 11.752 10.5 11.872C10.764 11.992 11.048 12.196 11.352 12.484L11.544 12.28C11.208 11.944 10.932 11.624 10.716 11.32C10.508 11.016 10.3 10.596 10.092 10.06L8.388 4.82799C8.228 4.41999 8.148 3.85199 8.148 3.12399L8.16 2.69199H7.884C7.884 3.63599 7.812 4.34399 7.668 4.81599L5.964 10.108C5.82 10.644 5.64 11.072 5.424 11.392ZM19.7995 8.91695C19.8617 9.25533 19.8928 9.56263 19.8928 9.83886V18.136H17.5517V3.2198H19.7995L24.6577 13.1328C24.7405 13.2917 24.7923 13.485 24.813 13.7129C24.8337 13.9408 24.8476 14.2723 24.8545 14.7073H25.0927C25.0996 14.2723 25.1134 13.9408 25.1341 13.7129C25.1549 13.485 25.2032 13.2917 25.2792 13.1328L30.1166 3.2198H32.3644V18.136H30.0337V9.62133C30.0337 9.33129 30.0475 9.09305 30.0751 8.9066C30.1028 8.71324 30.1476 8.44737 30.2098 8.10899C30.2236 8.05375 30.2374 7.98469 30.2512 7.90182C30.2719 7.81896 30.2927 7.72228 30.3134 7.61179L30.0751 7.57035C30.0268 7.83277 29.9992 7.98469 29.9923 8.02613C29.9301 8.37141 29.8749 8.63727 29.8265 8.82373C29.7851 9.01018 29.7126 9.2208 29.609 9.45559L25.4553 18.136H24.4608L20.5143 9.85957C20.3692 9.58335 20.238 9.26569 20.1206 8.9066C20.0102 8.5475 19.8893 8.10554 19.7581 7.58071L19.5095 7.64286C19.6476 8.15388 19.7443 8.57858 19.7995 8.91695ZM44.9078 15.795V18.136H35.2744V3.2198H44.9078V5.56081H38.4338C38.2611 5.56081 38.0781 5.52283 37.8848 5.44687C37.6983 5.364 37.5326 5.26042 37.3876 5.13611L37.2529 5.33293C37.391 5.43651 37.5119 5.57808 37.6154 5.75762C37.719 5.93717 37.7708 6.10981 37.7708 6.27554V8.55441C37.7708 8.74777 37.7328 8.9135 37.6569 9.05161C37.5809 9.18282 37.4704 9.31403 37.3254 9.44524L37.4704 9.63169C37.6016 9.51429 37.7501 9.42107 37.9158 9.35201C38.0885 9.27605 38.2508 9.23807 38.4027 9.23807H43.6648V11.5791H38.4856C38.2508 11.5791 38.0609 11.5584 37.9158 11.5169C37.7708 11.4686 37.6293 11.3823 37.4911 11.258L37.3254 11.4548C37.4842 11.5722 37.5982 11.7034 37.6672 11.8484C37.7363 11.9934 37.7708 12.1695 37.7708 12.3767V15.246C37.7708 15.4117 37.7294 15.5671 37.6465 15.7121C37.5637 15.8571 37.4566 15.9814 37.3254 16.085L37.4704 16.2611C37.7812 15.9504 38.1161 15.795 38.4752 15.795H44.9078ZM49.7755 13.1639C49.8514 13.2744 49.8894 13.485 49.8894 13.7958V18.136H47.393V3.2198H53.5563C53.7013 3.2198 53.8878 3.2267 54.1157 3.24052C54.3505 3.24742 54.5611 3.26814 54.7475 3.30267C55.6107 3.43387 56.3151 3.68593 56.8607 4.05883C57.4062 4.43174 57.824 4.9324 58.114 5.56081C58.4041 6.18922 58.5491 6.91432 58.5491 7.73609C58.5491 8.74431 58.3488 9.61442 57.9483 10.3464C57.5547 11.0715 56.764 11.4755 55.5762 11.5584L55.6176 12.905H50.7388C50.2968 12.905 50.0379 12.8842 49.9619 12.8428C49.886 12.7945 49.7237 12.684 49.4751 12.5113L49.3197 12.6978C49.5545 12.8981 49.7064 13.0534 49.7755 13.1639ZM52.4997 12.905V11.807C53.4182 11.807 54.2641 11.807 55.0376 11.807C55.811 11.807 56.4256 11.8519 56.8814 11.9416C57.3441 12.0314 57.7549 12.2835 58.114 12.6978C58.3903 13.0155 58.5284 13.523 58.5284 14.2205C58.5284 14.9111 58.5284 15.4255 58.5284 15.7639V18.136H56.0527V15.7535C56.0527 15.2356 56.0423 14.8006 56.0216 14.4484C56.0078 14.0893 55.9319 13.7992 55.7937 13.5783C55.5244 13.1294 55.1032 12.905 54.53 12.905C53.9568 12.905 53.2801 12.905 52.4997 12.905ZM49.7548 10.45C49.665 10.6088 49.52 10.7746 49.3197 10.9472L49.4854 11.1129C49.665 10.9334 49.8445 10.8022 50.0241 10.7193C50.2105 10.6365 50.4488 10.595 50.7388 10.595H53.4527C53.5908 10.595 53.7462 10.5881 53.9189 10.5743C54.0915 10.5605 54.2503 10.5329 54.3953 10.4914C54.8097 10.3879 55.1343 10.2049 55.369 9.94244C55.6107 9.68003 55.7799 9.38308 55.8766 9.05161C55.9802 8.72014 56.032 8.39558 56.032 8.07792C56.032 7.76026 55.9802 7.43569 55.8766 7.10422C55.7799 6.76585 55.6107 6.46545 55.369 6.20304C55.1343 5.94062 54.8097 5.75762 54.3953 5.65404C54.2503 5.6126 54.0915 5.58843 53.9189 5.58153C53.7462 5.56772 53.5908 5.56081 53.4527 5.56081H50.7595C50.4833 5.56081 50.2658 5.51592 50.1069 5.42615C49.9481 5.33638 49.7686 5.17755 49.5683 4.94966L49.3819 5.09468C49.7202 5.4883 49.8894 5.93026 49.8894 6.42056V9.81814C49.8894 10.0806 49.8445 10.2912 49.7548 10.45ZM63.773 3.2198V18.136H61.2766V3.2198H63.773ZM77.4829 17.1623C76.3366 18.0186 74.9036 18.4467 73.1841 18.4467C71.6994 18.4467 70.4219 18.1222 69.3515 17.473C68.288 16.817 67.4697 15.9055 66.8966 14.7384C66.3303 13.5714 66.0472 12.2179 66.0472 10.6779C66.0472 9.13793 66.3303 7.78443 66.8966 6.61737C67.4697 5.45032 68.288 4.54223 69.3515 3.8931C70.4219 3.23706 71.6994 2.90904 73.1841 2.90904C74.9036 2.90904 76.3366 3.31993 77.4829 4.1417C78.6292 4.96347 79.4337 6.25138 79.8964 8.00541L77.3793 8.03648C77.0617 7.14566 76.561 6.462 75.8773 5.98551C75.1937 5.50211 74.2959 5.26042 73.1841 5.26042C72.1828 5.26042 71.3472 5.48485 70.6774 5.93372C70.0145 6.38258 69.5138 7.01445 69.1754 7.82931C68.8439 8.63728 68.6748 9.5868 68.6679 10.6779C68.6679 11.7621 68.8336 12.7116 69.1651 13.5265C69.5034 14.3344 70.0075 14.9663 70.6774 15.4221C71.3472 15.8709 72.1828 16.0954 73.1841 16.0954C74.2959 16.0954 75.1937 15.8537 75.8773 15.3703C76.561 14.8869 77.0617 14.2032 77.3793 13.3193L79.8964 13.3504C79.4337 15.0284 78.6292 16.2991 77.4829 17.1623ZM84.3247 14.9041L83.2992 18.136H80.7303L85.433 3.2198H89.0896L93.7923 18.136H91.2234L90.1876 14.9041H84.3247ZM84.998 12.3145C84.8115 12.5838 84.556 12.8566 84.2314 13.1328L84.3765 13.3089C84.6941 13.0258 84.9565 12.8325 85.1637 12.7289C85.3778 12.6253 85.6471 12.5735 85.9717 12.5735H88.4784C88.8582 12.5735 89.1586 12.6253 89.3796 12.7289C89.6075 12.8325 89.8526 13.0085 90.115 13.2571L90.2808 13.0811C89.9907 12.791 89.7525 12.5148 89.566 12.2524C89.3865 11.99 89.207 11.6274 89.0274 11.1647L87.5565 6.64845C87.4184 6.29626 87.3493 5.80596 87.3493 5.17755L87.3597 4.80464H87.1215C87.1215 5.61951 87.0593 6.23066 86.935 6.63809L85.4641 11.2062C85.3398 11.6689 85.1844 12.0383 84.998 12.3145ZM98.0165 7.8086C98.1338 8.52678 98.1925 9.24842 98.1925 9.97352V18.136H95.6651V3.2198H98.1925L103.838 11.7759C104.245 12.4319 104.556 13.0051 104.77 13.4954C104.991 13.9788 105.271 14.6797 105.609 15.5982L105.837 15.5257C105.602 14.7177 105.423 14.034 105.298 13.4747C105.174 12.9084 105.112 12.4216 105.112 12.0141V3.2198H107.639V18.136H105.112L99.6842 9.90101C99.256 9.23116 98.89 8.55095 98.5862 7.86039C98.2823 7.16292 98.0095 6.42747 97.7679 5.65404L97.54 5.73691C97.7471 6.39294 97.906 7.08351 98.0165 7.8086ZM119.428 12.364C119.492 12.452 119.524 12.716 119.524 13.156V18.136H116.632V0.855986H123.772C123.94 0.855986 124.156 0.863986 124.42 0.879985C124.692 0.887986 124.936 0.911986 125.152 0.951986C126.152 1.10399 126.976 1.43599 127.624 1.94799C128.28 2.45999 128.764 3.10799 129.076 3.89199C129.396 4.66799 129.556 5.53199 129.556 6.48399C129.556 7.42799 129.396 8.29199 129.076 9.07599C128.756 9.85199 128.268 10.496 127.612 11.008C126.964 11.52 126.144 11.852 125.152 12.004C124.936 12.036 124.692 12.06 124.42 12.076C124.148 12.092 123.932 12.1 123.772 12.1H120.484C120.076 12.1 119.816 12.088 119.704 12.064C119.592 12.032 119.392 11.912 119.104 11.704L118.936 11.92C119.208 12.128 119.372 12.276 119.428 12.364ZM119.368 9.23199C119.264 9.41599 119.096 9.60799 118.864 9.80799L119.056 9.99999C119.264 9.79199 119.472 9.63999 119.68 9.54399C119.896 9.44799 120.172 9.39999 120.508 9.39999H123.652C123.812 9.39999 123.992 9.39199 124.192 9.37599C124.392 9.35999 124.576 9.32799 124.744 9.27999C125.224 9.15999 125.6 8.94799 125.872 8.64399C126.152 8.33999 126.348 7.99599 126.46 7.61199C126.58 7.22799 126.64 6.85199 126.64 6.48399C126.64 6.11599 126.58 5.73999 126.46 5.35599C126.348 4.96399 126.152 4.61599 125.872 4.31199C125.6 4.00799 125.224 3.79599 124.744 3.67599C124.576 3.62799 124.392 3.59999 124.192 3.59199C123.992 3.57599 123.812 3.56799 123.652 3.56799H120.532C120.212 3.56799 119.96 3.51599 119.776 3.41198C119.592 3.30799 119.384 3.12399 119.152 2.85999L118.936 3.02799C119.328 3.48399 119.524 3.99599 119.524 4.56399V8.49999C119.524 8.80399 119.472 9.04799 119.368 9.23199ZM134.113 13.1639C134.189 13.2744 134.227 13.485 134.227 13.7958V18.136H131.73V3.2198H137.894C138.039 3.2198 138.225 3.2267 138.453 3.24052C138.688 3.24742 138.898 3.26814 139.085 3.30267C139.948 3.43387 140.652 3.68593 141.198 4.05883C141.744 4.43174 142.161 4.9324 142.451 5.56081C142.741 6.18922 142.886 6.91432 142.886 7.73609C142.886 8.74431 142.686 9.61442 142.286 10.3464C141.892 11.0715 141.101 11.4755 139.914 11.5584L139.955 12.905H135.076C134.634 12.905 134.375 12.8842 134.299 12.8428C134.223 12.7945 134.061 12.684 133.812 12.5113L133.657 12.6978C133.892 12.8981 134.044 13.0534 134.113 13.1639ZM136.837 12.905V11.807C137.756 11.807 138.601 11.807 139.375 11.807C140.148 11.807 140.763 11.8519 141.219 11.9416C141.681 12.0314 142.092 12.2835 142.451 12.6978C142.728 13.0155 142.866 13.523 142.866 14.2205C142.866 14.9111 142.866 15.4255 142.866 15.7639V18.136H140.39V15.7535C140.39 15.2356 140.38 14.8006 140.359 14.4484C140.345 14.0893 140.269 13.7992 140.131 13.5783C139.862 13.1294 139.441 12.905 138.867 12.905C138.294 12.905 137.617 12.905 136.837 12.905ZM134.092 10.45C134.002 10.6088 133.857 10.7746 133.657 10.9472L133.823 11.1129C134.002 10.9334 134.182 10.8022 134.361 10.7193C134.548 10.6365 134.786 10.595 135.076 10.595H137.79C137.928 10.595 138.084 10.5881 138.256 10.5743C138.429 10.5605 138.588 10.5329 138.733 10.4914C139.147 10.3879 139.472 10.2049 139.706 9.94244C139.948 9.68003 140.117 9.38308 140.214 9.05161C140.318 8.72014 140.369 8.39558 140.369 8.07792C140.369 7.76026 140.318 7.43569 140.214 7.10422C140.117 6.76585 139.948 6.46545 139.706 6.20304C139.472 5.94062 139.147 5.75762 138.733 5.65404C138.588 5.6126 138.429 5.58843 138.256 5.58153C138.084 5.56772 137.928 5.56081 137.79 5.56081H135.097C134.821 5.56081 134.603 5.51592 134.444 5.42615C134.285 5.33638 134.106 5.17755 133.906 4.94966L133.719 5.09468C134.058 5.4883 134.227 5.93026 134.227 6.42056V9.81814C134.227 10.0806 134.182 10.2912 134.092 10.45ZM155.548 17.473C154.484 18.1222 153.207 18.4467 151.715 18.4467C150.23 18.4467 148.953 18.1222 147.882 17.473C146.819 16.817 146.001 15.9055 145.427 14.7384C144.861 13.5714 144.578 12.2179 144.578 10.6779C144.578 9.13793 144.861 7.78443 145.427 6.61737C146.001 5.45032 146.819 4.54223 147.882 3.8931C148.953 3.23706 150.23 2.90904 151.715 2.90904C153.207 2.90904 154.484 3.23706 155.548 3.8931C156.618 4.54223 157.436 5.45032 158.003 6.61737C158.576 7.78443 158.862 9.13793 158.862 10.6779C158.862 12.2179 158.576 13.5714 158.003 14.7384C157.436 15.9055 156.618 16.817 155.548 17.473ZM149.208 15.4014C149.878 15.8502 150.714 16.0816 151.715 16.0954C152.716 16.1023 153.549 15.8813 154.211 15.4324C154.881 14.9836 155.382 14.3517 155.713 13.5368C156.052 12.7151 156.221 11.7621 156.221 10.6779C156.221 9.5868 156.052 8.64073 155.713 7.83967C155.382 7.03171 154.881 6.4033 154.211 5.95443C153.549 5.50557 152.716 5.27423 151.715 5.26042C150.714 5.25351 149.882 5.47449 149.219 5.92336C148.556 6.37222 148.055 7.00409 147.717 7.81896C147.385 8.63382 147.22 9.5868 147.22 10.6779C147.22 11.7621 147.385 12.7082 147.717 13.5161C148.048 14.3241 148.545 14.9525 149.208 15.4014Z" fill="url(#paint2_linear_2412_717)"/>
<path d="M4.644 14.392L3.456 18.136H0.48L5.928 0.855986H10.164L15.612 18.136H12.636L11.436 14.392H4.644ZM5.424 11.392C5.208 11.704 4.912 12.02 4.536 12.34L4.704 12.544C5.072 12.216 5.376 11.992 5.616 11.872C5.864 11.752 6.176 11.692 6.552 11.692H9.456C9.896 11.692 10.244 11.752 10.5 11.872C10.764 11.992 11.048 12.196 11.352 12.484L11.544 12.28C11.208 11.944 10.932 11.624 10.716 11.32C10.508 11.016 10.3 10.596 10.092 10.06L8.388 4.82799C8.228 4.41999 8.148 3.85199 8.148 3.12399L8.16 2.69199H7.884C7.884 3.63599 7.812 4.34399 7.668 4.81599L5.964 10.108C5.82 10.644 5.64 11.072 5.424 11.392ZM19.7995 8.91695C19.8617 9.25533 19.8928 9.56263 19.8928 9.83886V18.136H17.5517V3.2198H19.7995L24.6577 13.1328C24.7405 13.2917 24.7923 13.485 24.813 13.7129C24.8337 13.9408 24.8476 14.2723 24.8545 14.7073H25.0927C25.0996 14.2723 25.1134 13.9408 25.1341 13.7129C25.1549 13.485 25.2032 13.2917 25.2792 13.1328L30.1166 3.2198H32.3644V18.136H30.0337V9.62133C30.0337 9.33129 30.0475 9.09305 30.0751 8.9066C30.1028 8.71324 30.1476 8.44737 30.2098 8.10899C30.2236 8.05375 30.2374 7.98469 30.2512 7.90182C30.2719 7.81896 30.2927 7.72228 30.3134 7.61179L30.0751 7.57035C30.0268 7.83277 29.9992 7.98469 29.9923 8.02613C29.9301 8.37141 29.8749 8.63727 29.8265 8.82373C29.7851 9.01018 29.7126 9.2208 29.609 9.45559L25.4553 18.136H24.4608L20.5143 9.85957C20.3692 9.58335 20.238 9.26569 20.1206 8.9066C20.0102 8.5475 19.8893 8.10554 19.7581 7.58071L19.5095 7.64286C19.6476 8.15388 19.7443 8.57858 19.7995 8.91695ZM44.9078 15.795V18.136H35.2744V3.2198H44.9078V5.56081H38.4338C38.2611 5.56081 38.0781 5.52283 37.8848 5.44687C37.6983 5.364 37.5326 5.26042 37.3876 5.13611L37.2529 5.33293C37.391 5.43651 37.5119 5.57808 37.6154 5.75762C37.719 5.93717 37.7708 6.10981 37.7708 6.27554V8.55441C37.7708 8.74777 37.7328 8.9135 37.6569 9.05161C37.5809 9.18282 37.4704 9.31403 37.3254 9.44524L37.4704 9.63169C37.6016 9.51429 37.7501 9.42107 37.9158 9.35201C38.0885 9.27605 38.2508 9.23807 38.4027 9.23807H43.6648V11.5791H38.4856C38.2508 11.5791 38.0609 11.5584 37.9158 11.5169C37.7708 11.4686 37.6293 11.3823 37.4911 11.258L37.3254 11.4548C37.4842 11.5722 37.5982 11.7034 37.6672 11.8484C37.7363 11.9934 37.7708 12.1695 37.7708 12.3767V15.246C37.7708 15.4117 37.7294 15.5671 37.6465 15.7121C37.5637 15.8571 37.4566 15.9814 37.3254 16.085L37.4704 16.2611C37.7812 15.9504 38.1161 15.795 38.4752 15.795H44.9078ZM49.7755 13.1639C49.8514 13.2744 49.8894 13.485 49.8894 13.7958V18.136H47.393V3.2198H53.5563C53.7013 3.2198 53.8878 3.2267 54.1157 3.24052C54.3505 3.24742 54.5611 3.26814 54.7475 3.30267C55.6107 3.43387 56.3151 3.68593 56.8607 4.05883C57.4062 4.43174 57.824 4.9324 58.114 5.56081C58.4041 6.18922 58.5491 6.91432 58.5491 7.73609C58.5491 8.74431 58.3488 9.61442 57.9483 10.3464C57.5547 11.0715 56.764 11.4755 55.5762 11.5584L55.6176 12.905H50.7388C50.2968 12.905 50.0379 12.8842 49.9619 12.8428C49.886 12.7945 49.7237 12.684 49.4751 12.5113L49.3197 12.6978C49.5545 12.8981 49.7064 13.0534 49.7755 13.1639ZM52.4997 12.905V11.807C53.4182 11.807 54.2641 11.807 55.0376 11.807C55.811 11.807 56.4256 11.8519 56.8814 11.9416C57.3441 12.0314 57.7549 12.2835 58.114 12.6978C58.3903 13.0155 58.5284 13.523 58.5284 14.2205C58.5284 14.9111 58.5284 15.4255 58.5284 15.7639V18.136H56.0527V15.7535C56.0527 15.2356 56.0423 14.8006 56.0216 14.4484C56.0078 14.0893 55.9319 13.7992 55.7937 13.5783C55.5244 13.1294 55.1032 12.905 54.53 12.905C53.9568 12.905 53.2801 12.905 52.4997 12.905ZM49.7548 10.45C49.665 10.6088 49.52 10.7746 49.3197 10.9472L49.4854 11.1129C49.665 10.9334 49.8445 10.8022 50.0241 10.7193C50.2105 10.6365 50.4488 10.595 50.7388 10.595H53.4527C53.5908 10.595 53.7462 10.5881 53.9189 10.5743C54.0915 10.5605 54.2503 10.5329 54.3953 10.4914C54.8097 10.3879 55.1343 10.2049 55.369 9.94244C55.6107 9.68003 55.7799 9.38308 55.8766 9.05161C55.9802 8.72014 56.032 8.39558 56.032 8.07792C56.032 7.76026 55.9802 7.43569 55.8766 7.10422C55.7799 6.76585 55.6107 6.46545 55.369 6.20304C55.1343 5.94062 54.8097 5.75762 54.3953 5.65404C54.2503 5.6126 54.0915 5.58843 53.9189 5.58153C53.7462 5.56772 53.5908 5.56081 53.4527 5.56081H50.7595C50.4833 5.56081 50.2658 5.51592 50.1069 5.42615C49.9481 5.33638 49.7686 5.17755 49.5683 4.94966L49.3819 5.09468C49.7202 5.4883 49.8894 5.93026 49.8894 6.42056V9.81814C49.8894 10.0806 49.8445 10.2912 49.7548 10.45ZM63.773 3.2198V18.136H61.2766V3.2198H63.773ZM77.4829 17.1623C76.3366 18.0186 74.9036 18.4467 73.1841 18.4467C71.6994 18.4467 70.4219 18.1222 69.3515 17.473C68.288 16.817 67.4697 15.9055 66.8966 14.7384C66.3303 13.5714 66.0472 12.2179 66.0472 10.6779C66.0472 9.13793 66.3303 7.78443 66.8966 6.61737C67.4697 5.45032 68.288 4.54223 69.3515 3.8931C70.4219 3.23706 71.6994 2.90904 73.1841 2.90904C74.9036 2.90904 76.3366 3.31993 77.4829 4.1417C78.6292 4.96347 79.4337 6.25138 79.8964 8.00541L77.3793 8.03648C77.0617 7.14566 76.561 6.462 75.8773 5.98551C75.1937 5.50211 74.2959 5.26042 73.1841 5.26042C72.1828 5.26042 71.3472 5.48485 70.6774 5.93372C70.0145 6.38258 69.5138 7.01445 69.1754 7.82931C68.8439 8.63728 68.6748 9.5868 68.6679 10.6779C68.6679 11.7621 68.8336 12.7116 69.1651 13.5265C69.5034 14.3344 70.0075 14.9663 70.6774 15.4221C71.3472 15.8709 72.1828 16.0954 73.1841 16.0954C74.2959 16.0954 75.1937 15.8537 75.8773 15.3703C76.561 14.8869 77.0617 14.2032 77.3793 13.3193L79.8964 13.3504C79.4337 15.0284 78.6292 16.2991 77.4829 17.1623ZM84.3247 14.9041L83.2992 18.136H80.7303L85.433 3.2198H89.0896L93.7923 18.136H91.2234L90.1876 14.9041H84.3247ZM84.998 12.3145C84.8115 12.5838 84.556 12.8566 84.2314 13.1328L84.3765 13.3089C84.6941 13.0258 84.9565 12.8325 85.1637 12.7289C85.3778 12.6253 85.6471 12.5735 85.9717 12.5735H88.4784C88.8582 12.5735 89.1586 12.6253 89.3796 12.7289C89.6075 12.8325 89.8526 13.0085 90.115 13.2571L90.2808 13.0811C89.9907 12.791 89.7525 12.5148 89.566 12.2524C89.3865 11.99 89.207 11.6274 89.0274 11.1647L87.5565 6.64845C87.4184 6.29626 87.3493 5.80596 87.3493 5.17755L87.3597 4.80464H87.1215C87.1215 5.61951 87.0593 6.23066 86.935 6.63809L85.4641 11.2062C85.3398 11.6689 85.1844 12.0383 84.998 12.3145ZM98.0165 7.8086C98.1338 8.52678 98.1925 9.24842 98.1925 9.97352V18.136H95.6651V3.2198H98.1925L103.838 11.7759C104.245 12.4319 104.556 13.0051 104.77 13.4954C104.991 13.9788 105.271 14.6797 105.609 15.5982L105.837 15.5257C105.602 14.7177 105.423 14.034 105.298 13.4747C105.174 12.9084 105.112 12.4216 105.112 12.0141V3.2198H107.639V18.136H105.112L99.6842 9.90101C99.256 9.23116 98.89 8.55095 98.5862 7.86039C98.2823 7.16292 98.0095 6.42747 97.7679 5.65404L97.54 5.73691C97.7471 6.39294 97.906 7.08351 98.0165 7.8086ZM119.428 12.364C119.492 12.452 119.524 12.716 119.524 13.156V18.136H116.632V0.855986H123.772C123.94 0.855986 124.156 0.863986 124.42 0.879985C124.692 0.887986 124.936 0.911986 125.152 0.951986C126.152 1.10399 126.976 1.43599 127.624 1.94799C128.28 2.45999 128.764 3.10799 129.076 3.89199C129.396 4.66799 129.556 5.53199 129.556 6.48399C129.556 7.42799 129.396 8.29199 129.076 9.07599C128.756 9.85199 128.268 10.496 127.612 11.008C126.964 11.52 126.144 11.852 125.152 12.004C124.936 12.036 124.692 12.06 124.42 12.076C124.148 12.092 123.932 12.1 123.772 12.1H120.484C120.076 12.1 119.816 12.088 119.704 12.064C119.592 12.032 119.392 11.912 119.104 11.704L118.936 11.92C119.208 12.128 119.372 12.276 119.428 12.364ZM119.368 9.23199C119.264 9.41599 119.096 9.60799 118.864 9.80799L119.056 9.99999C119.264 9.79199 119.472 9.63999 119.68 9.54399C119.896 9.44799 120.172 9.39999 120.508 9.39999H123.652C123.812 9.39999 123.992 9.39199 124.192 9.37599C124.392 9.35999 124.576 9.32799 124.744 9.27999C125.224 9.15999 125.6 8.94799 125.872 8.64399C126.152 8.33999 126.348 7.99599 126.46 7.61199C126.58 7.22799 126.64 6.85199 126.64 6.48399C126.64 6.11599 126.58 5.73999 126.46 5.35599C126.348 4.96399 126.152 4.61599 125.872 4.31199C125.6 4.00799 125.224 3.79599 124.744 3.67599C124.576 3.62799 124.392 3.59999 124.192 3.59199C123.992 3.57599 123.812 3.56799 123.652 3.56799H120.532C120.212 3.56799 119.96 3.51599 119.776 3.41198C119.592 3.30799 119.384 3.12399 119.152 2.85999L118.936 3.02799C119.328 3.48399 119.524 3.99599 119.524 4.56399V8.49999C119.524 8.80399 119.472 9.04799 119.368 9.23199ZM134.113 13.1639C134.189 13.2744 134.227 13.485 134.227 13.7958V18.136H131.73V3.2198H137.894C138.039 3.2198 138.225 3.2267 138.453 3.24052C138.688 3.24742 138.898 3.26814 139.085 3.30267C139.948 3.43387 140.652 3.68593 141.198 4.05883C141.744 4.43174 142.161 4.9324 142.451 5.56081C142.741 6.18922 142.886 6.91432 142.886 7.73609C142.886 8.74431 142.686 9.61442 142.286 10.3464C141.892 11.0715 141.101 11.4755 139.914 11.5584L139.955 12.905H135.076C134.634 12.905 134.375 12.8842 134.299 12.8428C134.223 12.7945 134.061 12.684 133.812 12.5113L133.657 12.6978C133.892 12.8981 134.044 13.0534 134.113 13.1639ZM136.837 12.905V11.807C137.756 11.807 138.601 11.807 139.375 11.807C140.148 11.807 140.763 11.8519 141.219 11.9416C141.681 12.0314 142.092 12.2835 142.451 12.6978C142.728 13.0155 142.866 13.523 142.866 14.2205C142.866 14.9111 142.866 15.4255 142.866 15.7639V18.136H140.39V15.7535C140.39 15.2356 140.38 14.8006 140.359 14.4484C140.345 14.0893 140.269 13.7992 140.131 13.5783C139.862 13.1294 139.441 12.905 138.867 12.905C138.294 12.905 137.617 12.905 136.837 12.905ZM134.092 10.45C134.002 10.6088 133.857 10.7746 133.657 10.9472L133.823 11.1129C134.002 10.9334 134.182 10.8022 134.361 10.7193C134.548 10.6365 134.786 10.595 135.076 10.595H137.79C137.928 10.595 138.084 10.5881 138.256 10.5743C138.429 10.5605 138.588 10.5329 138.733 10.4914C139.147 10.3879 139.472 10.2049 139.706 9.94244C139.948 9.68003 140.117 9.38308 140.214 9.05161C140.318 8.72014 140.369 8.39558 140.369 8.07792C140.369 7.76026 140.318 7.43569 140.214 7.10422C140.117 6.76585 139.948 6.46545 139.706 6.20304C139.472 5.94062 139.147 5.75762 138.733 5.65404C138.588 5.6126 138.429 5.58843 138.256 5.58153C138.084 5.56772 137.928 5.56081 137.79 5.56081H135.097C134.821 5.56081 134.603 5.51592 134.444 5.42615C134.285 5.33638 134.106 5.17755 133.906 4.94966L133.719 5.09468C134.058 5.4883 134.227 5.93026 134.227 6.42056V9.81814C134.227 10.0806 134.182 10.2912 134.092 10.45ZM155.548 17.473C154.484 18.1222 153.207 18.4467 151.715 18.4467C150.23 18.4467 148.953 18.1222 147.882 17.473C146.819 16.817 146.001 15.9055 145.427 14.7384C144.861 13.5714 144.578 12.2179 144.578 10.6779C144.578 9.13793 144.861 7.78443 145.427 6.61737C146.001 5.45032 146.819 4.54223 147.882 3.8931C148.953 3.23706 150.23 2.90904 151.715 2.90904C153.207 2.90904 154.484 3.23706 155.548 3.8931C156.618 4.54223 157.436 5.45032 158.003 6.61737C158.576 7.78443 158.862 9.13793 158.862 10.6779C158.862 12.2179 158.576 13.5714 158.003 14.7384C157.436 15.9055 156.618 16.817 155.548 17.473ZM149.208 15.4014C149.878 15.8502 150.714 16.0816 151.715 16.0954C152.716 16.1023 153.549 15.8813 154.211 15.4324C154.881 14.9836 155.382 14.3517 155.713 13.5368C156.052 12.7151 156.221 11.7621 156.221 10.6779C156.221 9.5868 156.052 8.64073 155.713 7.83967C155.382 7.03171 154.881 6.4033 154.211 5.95443C153.549 5.50557 152.716 5.27423 151.715 5.26042C150.714 5.25351 149.882 5.47449 149.219 5.92336C148.556 6.37222 148.055 7.00409 147.717 7.81896C147.385 8.63382 147.22 9.5868 147.22 10.6779C147.22 11.7621 147.385 12.7082 147.717 13.5161C148.048 14.3241 148.545 14.9525 149.208 15.4014Z" fill="white" fill-opacity="0.5"/>
<defs>
<linearGradient id="paint0_linear_2412_717" x1="71.239" y1="46.98" x2="71.239" y2="55.7432" gradientUnits="userSpaceOnUse">
<stop stop-color="#424446"/>
<stop offset="0.413557" stop-color="white"/>
<stop offset="0.429587" stop-color="#DDDDDD"/>
<stop offset="1" stop-color="#DDDDDD"/>
</linearGradient>
<linearGradient id="paint1_linear_2412_717" x1="79.031" y1="29.077" x2="79.031" y2="35.8199" gradientUnits="userSpaceOnUse">
<stop stop-color="#424446"/>
<stop offset="0.413557" stop-color="white"/>
<stop offset="0.429587" stop-color="#DDDDDD"/>
<stop offset="1" stop-color="#DDDDDD"/>
</linearGradient>
<linearGradient id="paint2_linear_2412_717" x1="69.781" y1="3.59651" x2="69.781" y2="20.1491" gradientUnits="userSpaceOnUse">
<stop stop-color="#424446"/>
<stop offset="0.413557" stop-color="white"/>
<stop offset="0.429587" stop-color="#DDDDDD"/>
<stop offset="1" stop-color="#DDDDDD"/>
</linearGradient>
</defs>
</svg>
