<svg width="150" height="32" viewBox="0 0 150 32" fill="none" xmlns="http://www.w3.org/2000/svg">
<path d="M3.87 11.88L2.88 15H0.4L4.94 0.599999H8.47L13.01 15H10.53L9.53 11.88H3.87ZM4.52 9.38C4.34 9.64 4.09333 9.90333 3.78 10.17L3.92 10.34C4.22667 10.0667 4.48 9.88 4.68 9.78C4.88667 9.68 5.14667 9.63 5.46 9.63H7.88C8.24667 9.63 8.53667 9.68 8.75 9.78C8.97 9.88 9.20667 10.05 9.46 10.29L9.62 10.12C9.34 9.84 9.11 9.57333 8.93 9.32C8.75667 9.06667 8.58333 8.71667 8.41 8.27L6.99 3.91C6.85667 3.57 6.79 3.09667 6.79 2.49L6.8 2.13H6.57C6.57 2.91667 6.51 3.50667 6.39 3.9L4.97 8.31C4.85 8.75667 4.7 9.11333 4.52 9.38ZM16.988 6.1C17.048 6.42667 17.078 6.72333 17.078 6.99V15H14.818V0.599999H16.988L21.678 10.17C21.758 10.3233 21.808 10.51 21.828 10.73C21.848 10.95 21.8613 11.27 21.868 11.69H22.098C22.1046 11.27 22.118 10.95 22.138 10.73C22.158 10.51 22.2046 10.3233 22.278 10.17L26.948 0.599999H29.118V15H26.868V6.78C26.868 6.5 26.8813 6.27 26.908 6.09C26.9346 5.90333 26.978 5.64667 27.038 5.32C27.0513 5.26667 27.0646 5.2 27.078 5.12C27.098 5.04 27.118 4.94667 27.138 4.84L26.908 4.8C26.8613 5.05333 26.8346 5.2 26.828 5.24C26.768 5.57333 26.7146 5.83 26.668 6.01C26.628 6.19 26.558 6.39333 26.458 6.62L22.448 15H21.488L17.678 7.01C17.538 6.74333 17.4113 6.43667 17.298 6.09C17.1913 5.74333 17.0746 5.31667 16.948 4.81L16.708 4.87C16.8413 5.36333 16.9346 5.77333 16.988 6.1ZM41.2273 12.74V15H31.9273V0.599999H41.2273V2.86H34.9773C34.8107 2.86 34.634 2.82333 34.4473 2.75C34.2673 2.67 34.1073 2.57 33.9673 2.45L33.8373 2.64C33.9707 2.74 34.0873 2.87667 34.1873 3.05C34.2873 3.22333 34.3373 3.39 34.3373 3.55V5.75C34.3373 5.93667 34.3007 6.09667 34.2273 6.23C34.154 6.35667 34.0473 6.48333 33.9073 6.61L34.0473 6.79C34.174 6.67667 34.3173 6.58667 34.4773 6.52C34.644 6.44667 34.8007 6.41 34.9473 6.41H40.0273V8.67H35.0273C34.8007 8.67 34.6173 8.65 34.4773 8.61C34.3373 8.56333 34.2007 8.48 34.0673 8.36L33.9073 8.55C34.0607 8.66333 34.1707 8.79 34.2373 8.93C34.304 9.07 34.3373 9.24 34.3373 9.44V12.21C34.3373 12.37 34.2973 12.52 34.2173 12.66C34.1373 12.8 34.034 12.92 33.9073 13.02L34.0473 13.19C34.3473 12.89 34.6707 12.74 35.0173 12.74H41.2273ZM45.9266 10.2C45.9999 10.3067 46.0366 10.51 46.0366 10.81V15H43.6266V0.599999H49.5766C49.7166 0.599999 49.8966 0.606666 50.1166 0.619999C50.3432 0.626666 50.5466 0.646666 50.7266 0.68C51.5599 0.806666 52.2399 1.05 52.7666 1.41C53.2932 1.77 53.6966 2.25333 53.9766 2.86C54.2566 3.46667 54.3966 4.16667 54.3966 4.96C54.3966 5.93333 54.2032 6.77333 53.8166 7.48C53.4366 8.18 52.6732 8.57 51.5266 8.65L51.5666 9.95H46.8566C46.4299 9.95 46.1799 9.93 46.1066 9.89C46.0332 9.84333 45.8766 9.73667 45.6366 9.57L45.4866 9.75C45.7132 9.94333 45.8599 10.0933 45.9266 10.2ZM48.5566 9.95V8.89C49.4432 8.89 50.2599 8.89 51.0066 8.89C51.7532 8.89 52.3466 8.93333 52.7866 9.02C53.2332 9.10667 53.6299 9.35 53.9766 9.75C54.2432 10.0567 54.3766 10.5467 54.3766 11.22C54.3766 11.8867 54.3766 12.3833 54.3766 12.71V15H51.9866V12.7C51.9866 12.2 51.9766 11.78 51.9566 11.44C51.9432 11.0933 51.8699 10.8133 51.7366 10.6C51.4766 10.1667 51.0699 9.95 50.5166 9.95C49.9632 9.95 49.3099 9.95 48.5566 9.95ZM45.9066 7.58C45.8199 7.73333 45.6799 7.89333 45.4866 8.06L45.6466 8.22C45.8199 8.04667 45.9932 7.92 46.1666 7.84C46.3466 7.76 46.5766 7.72 46.8566 7.72H49.4766C49.6099 7.72 49.7599 7.71333 49.9266 7.7C50.0932 7.68667 50.2466 7.66 50.3866 7.62C50.7866 7.52 51.0999 7.34333 51.3266 7.09C51.5599 6.83667 51.7232 6.55 51.8166 6.23C51.9166 5.91 51.9666 5.59667 51.9666 5.29C51.9666 4.98333 51.9166 4.67 51.8166 4.35C51.7232 4.02333 51.5599 3.73333 51.3266 3.48C51.0999 3.22667 50.7866 3.05 50.3866 2.95C50.2466 2.91 50.0932 2.88667 49.9266 2.88C49.7599 2.86667 49.6099 2.86 49.4766 2.86H46.8766C46.6099 2.86 46.3999 2.81667 46.2466 2.73C46.0932 2.64333 45.9199 2.49 45.7266 2.27L45.5466 2.41C45.8732 2.79 46.0366 3.21667 46.0366 3.69V6.97C46.0366 7.22333 45.9932 7.42667 45.9066 7.58ZM59.4397 0.599999V15H57.0297V0.599999H59.4397ZM72.6752 14.06C71.5685 14.8867 70.1852 15.3 68.5252 15.3C67.0918 15.3 65.8585 14.9867 64.8252 14.36C63.7985 13.7267 63.0085 12.8467 62.4552 11.72C61.9085 10.5933 61.6352 9.28667 61.6352 7.8C61.6352 6.31333 61.9085 5.00667 62.4552 3.88C63.0085 2.75333 63.7985 1.87667 64.8252 1.25C65.8585 0.616666 67.0918 0.3 68.5252 0.3C70.1852 0.3 71.5685 0.696666 72.6752 1.49C73.7818 2.28333 74.5585 3.52667 75.0052 5.22L72.5752 5.25C72.2685 4.39 71.7852 3.73 71.1252 3.27C70.4652 2.80333 69.5985 2.57 68.5252 2.57C67.5585 2.57 66.7518 2.78667 66.1052 3.22C65.4652 3.65333 64.9818 4.26333 64.6552 5.05C64.3352 5.83 64.1718 6.74667 64.1652 7.8C64.1652 8.84667 64.3252 9.76333 64.6452 10.55C64.9718 11.33 65.4585 11.94 66.1052 12.38C66.7518 12.8133 67.5585 13.03 68.5252 13.03C69.5985 13.03 70.4652 12.7967 71.1252 12.33C71.7852 11.8633 72.2685 11.2033 72.5752 10.35L75.0052 10.38C74.5585 12 73.7818 13.2267 72.6752 14.06ZM79.2802 11.88L78.2902 15H75.8102L80.3502 0.599999H83.8802L88.4202 15H85.9402L84.9402 11.88H79.2802ZM79.9302 9.38C79.7502 9.64 79.5035 9.90333 79.1902 10.17L79.3302 10.34C79.6368 10.0667 79.8902 9.88 80.0902 9.78C80.2968 9.68 80.5568 9.63 80.8702 9.63H83.2902C83.6568 9.63 83.9468 9.68 84.1602 9.78C84.3802 9.88 84.6168 10.05 84.8702 10.29L85.0302 10.12C84.7502 9.84 84.5202 9.57333 84.3402 9.32C84.1668 9.06667 83.9935 8.71667 83.8202 8.27L82.4002 3.91C82.2668 3.57 82.2002 3.09667 82.2002 2.49L82.2102 2.13H81.9802C81.9802 2.91667 81.9202 3.50667 81.8002 3.9L80.3802 8.31C80.2602 8.75667 80.1102 9.11333 79.9302 9.38ZM92.4981 5.03C92.6115 5.72333 92.6681 6.42 92.6681 7.12V15H90.2281V0.599999H92.6681L98.1181 8.86C98.5115 9.49333 98.8115 10.0467 99.0181 10.52C99.2315 10.9867 99.5015 11.6633 99.8281 12.55L100.048 12.48C99.8215 11.7 99.6481 11.04 99.5281 10.5C99.4081 9.95333 99.3481 9.48333 99.3481 9.09V0.599999H101.788V15H99.3481L94.1081 7.05C93.6948 6.40333 93.3415 5.74667 93.0481 5.08C92.7548 4.40667 92.4915 3.69667 92.2581 2.95L92.0381 3.03C92.2381 3.66333 92.3915 4.33 92.4981 5.03ZM112.578 10.19C112.631 10.2633 112.658 10.4833 112.658 10.85V15H110.248V0.599999H116.198C116.338 0.599999 116.518 0.606666 116.738 0.619999C116.964 0.626666 117.168 0.646666 117.348 0.68C118.181 0.806666 118.868 1.08333 119.408 1.51C119.954 1.93667 120.358 2.47667 120.618 3.13C120.884 3.77667 121.018 4.49667 121.018 5.29C121.018 6.07667 120.884 6.79667 120.618 7.45C120.351 8.09667 119.944 8.63333 119.398 9.06C118.858 9.48667 118.174 9.76333 117.348 9.89C117.168 9.91667 116.964 9.93667 116.738 9.95C116.511 9.96333 116.331 9.97 116.198 9.97H113.458C113.118 9.97 112.901 9.96 112.808 9.94C112.714 9.91333 112.548 9.81333 112.308 9.64L112.168 9.82C112.394 9.99333 112.531 10.1167 112.578 10.19ZM112.528 7.58C112.441 7.73333 112.301 7.89333 112.108 8.06L112.268 8.22C112.441 8.04667 112.614 7.92 112.788 7.84C112.968 7.76 113.198 7.72 113.478 7.72H116.098C116.231 7.72 116.381 7.71333 116.548 7.7C116.714 7.68667 116.868 7.66 117.008 7.62C117.408 7.52 117.721 7.34333 117.948 7.09C118.181 6.83667 118.344 6.55 118.438 6.23C118.538 5.91 118.588 5.59667 118.588 5.29C118.588 4.98333 118.538 4.67 118.438 4.35C118.344 4.02333 118.181 3.73333 117.948 3.48C117.721 3.22667 117.408 3.05 117.008 2.95C116.868 2.91 116.714 2.88667 116.548 2.88C116.381 2.86667 116.231 2.86 116.098 2.86H113.498C113.231 2.86 113.021 2.81667 112.868 2.73C112.714 2.64333 112.541 2.49 112.348 2.27L112.168 2.41C112.494 2.79 112.658 3.21667 112.658 3.69V6.97C112.658 7.22333 112.614 7.42667 112.528 7.58ZM125.321 10.2C125.394 10.3067 125.431 10.51 125.431 10.81V15H123.021V0.599999H128.971C129.111 0.599999 129.291 0.606666 129.511 0.619999C129.738 0.626666 129.941 0.646666 130.121 0.68C130.954 0.806666 131.634 1.05 132.161 1.41C132.688 1.77 133.091 2.25333 133.371 2.86C133.651 3.46667 133.791 4.16667 133.791 4.96C133.791 5.93333 133.598 6.77333 133.211 7.48C132.831 8.18 132.068 8.57 130.921 8.65L130.961 9.95H126.251C125.824 9.95 125.574 9.93 125.501 9.89C125.428 9.84333 125.271 9.73667 125.031 9.57L124.881 9.75C125.108 9.94333 125.254 10.0933 125.321 10.2ZM127.951 9.95V8.89C128.838 8.89 129.654 8.89 130.401 8.89C131.148 8.89 131.741 8.93333 132.181 9.02C132.628 9.10667 133.024 9.35 133.371 9.75C133.638 10.0567 133.771 10.5467 133.771 11.22C133.771 11.8867 133.771 12.3833 133.771 12.71V15H131.381V12.7C131.381 12.2 131.371 11.78 131.351 11.44C131.338 11.0933 131.264 10.8133 131.131 10.6C130.871 10.1667 130.464 9.95 129.911 9.95C129.358 9.95 128.704 9.95 127.951 9.95ZM125.301 7.58C125.214 7.73333 125.074 7.89333 124.881 8.06L125.041 8.22C125.214 8.04667 125.388 7.92 125.561 7.84C125.741 7.76 125.971 7.72 126.251 7.72H128.871C129.004 7.72 129.154 7.71333 129.321 7.7C129.488 7.68667 129.641 7.66 129.781 7.62C130.181 7.52 130.494 7.34333 130.721 7.09C130.954 6.83667 131.118 6.55 131.211 6.23C131.311 5.91 131.361 5.59667 131.361 5.29C131.361 4.98333 131.311 4.67 131.211 4.35C131.118 4.02333 130.954 3.73333 130.721 3.48C130.494 3.22667 130.181 3.05 129.781 2.95C129.641 2.91 129.488 2.88667 129.321 2.88C129.154 2.86667 129.004 2.86 128.871 2.86H126.271C126.004 2.86 125.794 2.81667 125.641 2.73C125.488 2.64333 125.314 2.49 125.121 2.27L124.941 2.41C125.268 2.79 125.431 3.21667 125.431 3.69V6.97C125.431 7.22333 125.388 7.42667 125.301 7.58ZM146.014 14.36C144.988 14.9867 143.754 15.3 142.314 15.3C140.881 15.3 139.648 14.9867 138.614 14.36C137.588 13.7267 136.798 12.8467 136.244 11.72C135.698 10.5933 135.424 9.28667 135.424 7.8C135.424 6.31333 135.698 5.00667 136.244 3.88C136.798 2.75333 137.588 1.87667 138.614 1.25C139.648 0.616666 140.881 0.3 142.314 0.3C143.754 0.3 144.988 0.616666 146.014 1.25C147.048 1.87667 147.838 2.75333 148.384 3.88C148.938 5.00667 149.214 6.31333 149.214 7.8C149.214 9.28667 148.938 10.5933 148.384 11.72C147.838 12.8467 147.048 13.7267 146.014 14.36ZM139.894 12.36C140.541 12.7933 141.348 13.0167 142.314 13.03C143.281 13.0367 144.084 12.8233 144.724 12.39C145.371 11.9567 145.854 11.3467 146.174 10.56C146.501 9.76667 146.664 8.84667 146.664 7.8C146.664 6.74667 146.501 5.83333 146.174 5.06C145.854 4.28 145.371 3.67333 144.724 3.24C144.084 2.80667 143.281 2.58333 142.314 2.57C141.348 2.56333 140.544 2.77667 139.904 3.21C139.264 3.64333 138.781 4.25333 138.454 5.04C138.134 5.82667 137.974 6.74667 137.974 7.8C137.974 8.84667 138.134 9.76 138.454 10.54C138.774 11.32 139.254 11.9267 139.894 12.36Z" fill="url(#paint0_linear_2412_717)"/>
<path d="M3.87 11.88L2.88 15H0.4L4.94 0.599999H8.47L13.01 15H10.53L9.53 11.88H3.87ZM4.52 9.38C4.34 9.64 4.09333 9.90333 3.78 10.17L3.92 10.34C4.22667 10.0667 4.48 9.88 4.68 9.78C4.88667 9.68 5.14667 9.63 5.46 9.63H7.88C8.24667 9.63 8.53667 9.68 8.75 9.78C8.97 9.88 9.20667 10.05 9.46 10.29L9.62 10.12C9.34 9.84 9.11 9.57333 8.93 9.32C8.75667 9.06667 8.58333 8.71667 8.41 8.27L6.99 3.91C6.85667 3.57 6.79 3.09667 6.79 2.49L6.8 2.13H6.57C6.57 2.91667 6.51 3.50667 6.39 3.9L4.97 8.31C4.85 8.75667 4.7 9.11333 4.52 9.38ZM16.988 6.1C17.048 6.42667 17.078 6.72333 17.078 6.99V15H14.818V0.599999H16.988L21.678 10.17C21.758 10.3233 21.808 10.51 21.828 10.73C21.848 10.95 21.8613 11.27 21.868 11.69H22.098C22.1046 11.27 22.118 10.95 22.138 10.73C22.158 10.51 22.2046 10.3233 22.278 10.17L26.948 0.599999H29.118V15H26.868V6.78C26.868 6.5 26.8813 6.27 26.908 6.09C26.9346 5.90333 26.978 5.64667 27.038 5.32C27.0513 5.26667 27.0646 5.2 27.078 5.12C27.098 5.04 27.118 4.94667 27.138 4.84L26.908 4.8C26.8613 5.05333 26.8346 5.2 26.828 5.24C26.768 5.57333 26.7146 5.83 26.668 6.01C26.628 6.19 26.558 6.39333 26.458 6.62L22.448 15H21.488L17.678 7.01C17.538 6.74333 17.4113 6.43667 17.298 6.09C17.1913 5.74333 17.0746 5.31667 16.948 4.81L16.708 4.87C16.8413 5.36333 16.9346 5.77333 16.988 6.1ZM41.2273 12.74V15H31.9273V0.599999H41.2273V2.86H34.9773C34.8107 2.86 34.634 2.82333 34.4473 2.75C34.2673 2.67 34.1073 2.57 33.9673 2.45L33.8373 2.64C33.9707 2.74 34.0873 2.87667 34.1873 3.05C34.2873 3.22333 34.3373 3.39 34.3373 3.55V5.75C34.3373 5.93667 34.3007 6.09667 34.2273 6.23C34.154 6.35667 34.0473 6.48333 33.9073 6.61L34.0473 6.79C34.174 6.67667 34.3173 6.58667 34.4773 6.52C34.644 6.44667 34.8007 6.41 34.9473 6.41H40.0273V8.67H35.0273C34.8007 8.67 34.6173 8.65 34.4773 8.61C34.3373 8.56333 34.2007 8.48 34.0673 8.36L33.9073 8.55C34.0607 8.66333 34.1707 8.79 34.2373 8.93C34.304 9.07 34.3373 9.24 34.3373 9.44V12.21C34.3373 12.37 34.2973 12.52 34.2173 12.66C34.1373 12.8 34.034 12.92 33.9073 13.02L34.0473 13.19C34.3473 12.89 34.6707 12.74 35.0173 12.74H41.2273ZM45.9266 10.2C45.9999 10.3067 46.0366 10.51 46.0366 10.81V15H43.6266V0.599999H49.5766C49.7166 0.599999 49.8966 0.606666 50.1166 0.619999C50.3432 0.626666 50.5466 0.646666 50.7266 0.68C51.5599 0.806666 52.2399 1.05 52.7666 1.41C53.2932 1.77 53.6966 2.25333 53.9766 2.86C54.2566 3.46667 54.3966 4.16667 54.3966 4.96C54.3966 5.93333 54.2032 6.77333 53.8166 7.48C53.4366 8.18 52.6732 8.57 51.5266 8.65L51.5666 9.95H46.8566C46.4299 9.95 46.1799 9.93 46.1066 9.89C46.0332 9.84333 45.8766 9.73667 45.6366 9.57L45.4866 9.75C45.7132 9.94333 45.8599 10.0933 45.9266 10.2ZM48.5566 9.95V8.89C49.4432 8.89 50.2599 8.89 51.0066 8.89C51.7532 8.89 52.3466 8.93333 52.7866 9.02C53.2332 9.10667 53.6299 9.35 53.9766 9.75C54.2432 10.0567 54.3766 10.5467 54.3766 11.22C54.3766 11.8867 54.3766 12.3833 54.3766 12.71V15H51.9866V12.7C51.9866 12.2 51.9766 11.78 51.9566 11.44C51.9432 11.0933 51.8699 10.8133 51.7366 10.6C51.4766 10.1667 51.0699 9.95 50.5166 9.95C49.9632 9.95 49.3099 9.95 48.5566 9.95ZM45.9066 7.58C45.8199 7.73333 45.6799 7.89333 45.4866 8.06L45.6466 8.22C45.8199 8.04667 45.9932 7.92 46.1666 7.84C46.3466 7.76 46.5766 7.72 46.8566 7.72H49.4766C49.6099 7.72 49.7599 7.71333 49.9266 7.7C50.0932 7.68667 50.2466 7.66 50.3866 7.62C50.7866 7.52 51.0999 7.34333 51.3266 7.09C51.5599 6.83667 51.7232 6.55 51.8166 6.23C51.9166 5.91 51.9666 5.59667 51.9666 5.29C51.9666 4.98333 51.9166 4.67 51.8166 4.35C51.7232 4.02333 51.5599 3.73333 51.3266 3.48C51.0999 3.22667 50.7866 3.05 50.3866 2.95C50.2466 2.91 50.0932 2.88667 49.9266 2.88C49.7599 2.86667 49.6099 2.86 49.4766 2.86H46.8766C46.6099 2.86 46.3999 2.81667 46.2466 2.73C46.0932 2.64333 45.9199 2.49 45.7266 2.27L45.5466 2.41C45.8732 2.79 46.0366 3.21667 46.0366 3.69V6.97C46.0366 7.22333 45.9932 7.42667 45.9066 7.58ZM59.4397 0.599999V15H57.0297V0.599999H59.4397ZM72.6752 14.06C71.5685 14.8867 70.1852 15.3 68.5252 15.3C67.0918 15.3 65.8585 14.9867 64.8252 14.36C63.7985 13.7267 63.0085 12.8467 62.4552 11.72C61.9085 10.5933 61.6352 9.28667 61.6352 7.8C61.6352 6.31333 61.9085 5.00667 62.4552 3.88C63.0085 2.75333 63.7985 1.87667 64.8252 1.25C65.8585 0.616666 67.0918 0.3 68.5252 0.3C70.1852 0.3 71.5685 0.696666 72.6752 1.49C73.7818 2.28333 74.5585 3.52667 75.0052 5.22L72.5752 5.25C72.2685 4.39 71.7852 3.73 71.1252 3.27C70.4652 2.80333 69.5985 2.57 68.5252 2.57C67.5585 2.57 66.7518 2.78667 66.1052 3.22C65.4652 3.65333 64.9818 4.26333 64.6552 5.05C64.3352 5.83 64.1718 6.74667 64.1652 7.8C64.1652 8.84667 64.3252 9.76333 64.6452 10.55C64.9718 11.33 65.4585 11.94 66.1052 12.38C66.7518 12.8133 67.5585 13.03 68.5252 13.03C69.5985 13.03 70.4652 12.7967 71.1252 12.33C71.7852 11.8633 72.2685 11.2033 72.5752 10.35L75.0052 10.38C74.5585 12 73.7818 13.2267 72.6752 14.06ZM79.2802 11.88L78.2902 15H75.8102L80.3502 0.599999H83.8802L88.4202 15H85.9402L84.9402 11.88H79.2802ZM79.9302 9.38C79.7502 9.64 79.5035 9.90333 79.1902 10.17L79.3302 10.34C79.6368 10.0667 79.8902 9.88 80.0902 9.78C80.2968 9.68 80.5568 9.63 80.8702 9.63H83.2902C83.6568 9.63 83.9468 9.68 84.1602 9.78C84.3802 9.88 84.6168 10.05 84.8702 10.29L85.0302 10.12C84.7502 9.84 84.5202 9.57333 84.3402 9.32C84.1668 9.06667 83.9935 8.71667 83.8202 8.27L82.4002 3.91C82.2668 3.57 82.2002 3.09667 82.2002 2.49L82.2102 2.13H81.9802C81.9802 2.91667 81.9202 3.50667 81.8002 3.9L80.3802 8.31C80.2602 8.75667 80.1102 9.11333 79.9302 9.38ZM92.4981 5.03C92.6115 5.72333 92.6681 6.42 92.6681 7.12V15H90.2281V0.599999H92.6681L98.1181 8.86C98.5115 9.49333 98.8115 10.0467 99.0181 10.52C99.2315 10.9867 99.5015 11.6633 99.8281 12.55L100.048 12.48C99.8215 11.7 99.6481 11.04 99.5281 10.5C99.4081 9.95333 99.3481 9.48333 99.3481 9.09V0.599999H101.788V15H99.3481L94.1081 7.05C93.6948 6.40333 93.3415 5.74667 93.0481 5.08C92.7548 4.40667 92.4915 3.69667 92.2581 2.95L92.0381 3.03C92.2381 3.66333 92.3915 4.33 92.4981 5.03ZM112.578 10.19C112.631 10.2633 112.658 10.4833 112.658 10.85V15H110.248V0.599999H116.198C116.338 0.599999 116.518 0.606666 116.738 0.619999C116.964 0.626666 117.168 0.646666 117.348 0.68C118.181 0.806666 118.868 1.08333 119.408 1.51C119.954 1.93667 120.358 2.47667 120.618 3.13C120.884 3.77667 121.018 4.49667 121.018 5.29C121.018 6.07667 120.884 6.79667 120.618 7.45C120.351 8.09667 119.944 8.63333 119.398 9.06C118.858 9.48667 118.174 9.76333 117.348 9.89C117.168 9.91667 116.964 9.93667 116.738 9.95C116.511 9.96333 116.331 9.97 116.198 9.97H113.458C113.118 9.97 112.901 9.96 112.808 9.94C112.714 9.91333 112.548 9.81333 112.308 9.64L112.168 9.82C112.394 9.99333 112.531 10.1167 112.578 10.19ZM112.528 7.58C112.441 7.73333 112.301 7.89333 112.108 8.06L112.268 8.22C112.441 8.04667 112.614 7.92 112.788 7.84C112.968 7.76 113.198 7.72 113.478 7.72H116.098C116.231 7.72 116.381 7.71333 116.548 7.7C116.714 7.68667 116.868 7.66 117.008 7.62C117.408 7.52 117.721 7.34333 117.948 7.09C118.181 6.83667 118.344 6.55 118.438 6.23C118.538 5.91 118.588 5.59667 118.588 5.29C118.588 4.98333 118.538 4.67 118.438 4.35C118.344 4.02333 118.181 3.73333 117.948 3.48C117.721 3.22667 117.408 3.05 117.008 2.95C116.868 2.91 116.714 2.88667 116.548 2.88C116.381 2.86667 116.231 2.86 116.098 2.86H113.498C113.231 2.86 113.021 2.81667 112.868 2.73C112.714 2.64333 112.541 2.49 112.348 2.27L112.168 2.41C112.494 2.79 112.658 3.21667 112.658 3.69V6.97C112.658 7.22333 112.614 7.42667 112.528 7.58ZM125.321 10.2C125.394 10.3067 125.431 10.51 125.431 10.81V15H123.021V0.599999H128.971C129.111 0.599999 129.291 0.606666 129.511 0.619999C129.738 0.626666 129.941 0.646666 130.121 0.68C130.954 0.806666 131.634 1.05 132.161 1.41C132.688 1.77 133.091 2.25333 133.371 2.86C133.651 3.46667 133.791 4.16667 133.791 4.96C133.791 5.93333 133.598 6.77333 133.211 7.48C132.831 8.18 132.068 8.57 130.921 8.65L130.961 9.95H126.251C125.824 9.95 125.574 9.93 125.501 9.89C125.428 9.84333 125.271 9.73667 125.031 9.57L124.881 9.75C125.108 9.94333 125.254 10.0933 125.321 10.2ZM127.951 9.95V8.89C128.838 8.89 129.654 8.89 130.401 8.89C131.148 8.89 131.741 8.93333 132.181 9.02C132.628 9.10667 133.024 9.35 133.371 9.75C133.638 10.0567 133.771 10.5467 133.771 11.22C133.771 11.8867 133.771 12.3833 133.771 12.71V15H131.381V12.7C131.381 12.2 131.371 11.78 131.351 11.44C131.338 11.0933 131.264 10.8133 131.131 10.6C130.871 10.1667 130.464 9.95 129.911 9.95C129.358 9.95 128.704 9.95 127.951 9.95ZM125.301 7.58C125.214 7.73333 125.074 7.89333 124.881 8.06L125.041 8.22C125.214 8.04667 125.388 7.92 125.561 7.84C125.741 7.76 125.971 7.72 126.251 7.72H128.871C129.004 7.72 129.154 7.71333 129.321 7.7C129.488 7.68667 129.641 7.66 129.781 7.62C130.181 7.52 130.494 7.34333 130.721 7.09C130.954 6.83667 131.118 6.55 131.211 6.23C131.311 5.91 131.361 5.59667 131.361 5.29C131.361 4.98333 131.311 4.67 131.211 4.35C131.118 4.02333 130.954 3.73333 130.721 3.48C130.494 3.22667 130.181 3.05 129.781 2.95C129.641 2.91 129.488 2.88667 129.321 2.88C129.154 2.86667 129.004 2.86 128.871 2.86H126.271C126.004 2.86 125.794 2.81667 125.641 2.73C125.488 2.64333 125.314 2.49 125.121 2.27L124.941 2.41C125.268 2.79 125.431 3.21667 125.431 3.69V6.97C125.431 7.22333 125.388 7.42667 125.301 7.58ZM146.014 14.36C144.988 14.9867 143.754 15.3 142.314 15.3C140.881 15.3 139.648 14.9867 138.614 14.36C137.588 13.7267 136.798 12.8467 136.244 11.72C135.698 10.5933 135.424 9.28667 135.424 7.8C135.424 6.31333 135.698 5.00667 136.244 3.88C136.798 2.75333 137.588 1.87667 138.614 1.25C139.648 0.616666 140.881 0.3 142.314 0.3C143.754 0.3 144.988 0.616666 146.014 1.25C147.048 1.87667 147.838 2.75333 148.384 3.88C148.938 5.00667 149.214 6.31333 149.214 7.8C149.214 9.28667 148.938 10.5933 148.384 11.72C147.838 12.8467 147.048 13.7267 146.014 14.36ZM139.894 12.36C140.541 12.7933 141.348 13.0167 142.314 13.03C143.281 13.0367 144.084 12.8233 144.724 12.39C145.371 11.9567 145.854 11.3467 146.174 10.56C146.501 9.76667 146.664 8.84667 146.664 7.8C146.664 6.74667 146.501 5.83333 146.174 5.06C145.854 4.28 145.371 3.67333 144.724 3.24C144.084 2.80667 143.281 2.58333 142.314 2.57C141.348 2.56333 140.544 2.77667 139.904 3.21C139.264 3.64333 138.781 4.25333 138.454 5.04C138.134 5.82667 137.974 6.74667 137.974 7.8C137.974 8.84667 138.134 9.76 138.454 10.54C138.774 11.32 139.254 11.9267 139.894 12.36Z" fill="white" fill-opacity="0.5"/>
<path d="M8.12 31.156C6.816 31.156 5.916 30.644 5.42 29.62L6.608 28.924C6.88 29.516 7.388 29.812 8.132 29.812C8.612 29.812 8.98 29.696 9.236 29.464C9.5 29.224 9.632 28.888 9.632 28.456V22.6H11.012V28.456C11.012 29.32 10.74 29.988 10.196 30.46C9.652 30.924 8.96 31.156 8.12 31.156ZM17.2111 25H18.5071V31H17.2111V30.136C16.7231 30.816 16.0231 31.156 15.1111 31.156C14.2871 31.156 13.5831 30.852 12.9991 30.244C12.4151 29.628 12.1231 28.88 12.1231 28C12.1231 27.112 12.4151 26.364 12.9991 25.756C13.5831 25.148 14.2871 24.844 15.1111 24.844C16.0231 24.844 16.7231 25.18 17.2111 25.852V25ZM13.9591 29.38C14.3191 29.74 14.7711 29.92 15.3151 29.92C15.8591 29.92 16.3111 29.74 16.6711 29.38C17.0311 29.012 17.2111 28.552 17.2111 28C17.2111 27.448 17.0311 26.992 16.6711 26.632C16.3111 26.264 15.8591 26.08 15.3151 26.08C14.7711 26.08 14.3191 26.264 13.9591 26.632C13.5991 26.992 13.4191 27.448 13.4191 28C13.4191 28.552 13.5991 29.012 13.9591 29.38ZM23.1737 24.844C23.8617 24.844 24.4177 25.064 24.8417 25.504C25.2657 25.944 25.4777 26.548 25.4777 27.316V31H24.1817V27.448C24.1817 27 24.0617 26.656 23.8217 26.416C23.5817 26.176 23.2537 26.056 22.8377 26.056C22.3817 26.056 22.0137 26.2 21.7337 26.488C21.4537 26.768 21.3137 27.2 21.3137 27.784V31H20.0177V25H21.3137V25.768C21.7057 25.152 22.3257 24.844 23.1737 24.844ZM28.0972 23.86C27.9372 24.02 27.7452 24.1 27.5212 24.1C27.2972 24.1 27.1012 24.02 26.9332 23.86C26.7732 23.692 26.6932 23.496 26.6932 23.272C26.6932 23.048 26.7732 22.856 26.9332 22.696C27.0932 22.528 27.2892 22.444 27.5212 22.444C27.7532 22.444 27.9492 22.528 28.1092 22.696C28.2692 22.856 28.3492 23.048 28.3492 23.272C28.3492 23.496 28.2652 23.692 28.0972 23.86ZM26.8732 31V25H28.1692V31H26.8732ZM33.022 26.248H31.534V29.128C31.534 29.376 31.59 29.556 31.702 29.668C31.814 29.772 31.978 29.832 32.194 29.848C32.418 29.856 32.694 29.852 33.022 29.836V31C32.03 31.12 31.318 31.036 30.886 30.748C30.454 30.452 30.238 29.912 30.238 29.128V26.248H29.134V25H30.238V23.704L31.534 23.32V25H33.022V26.248ZM36.7833 31.156C35.9033 31.156 35.1553 30.852 34.5393 30.244C33.9233 29.636 33.6153 28.888 33.6153 28C33.6153 27.112 33.9233 26.364 34.5393 25.756C35.1553 25.148 35.9033 24.844 36.7833 24.844C37.6713 24.844 38.4193 25.148 39.0273 25.756C39.6433 26.364 39.9513 27.112 39.9513 28C39.9513 28.888 39.6433 29.636 39.0273 30.244C38.4193 30.852 37.6713 31.156 36.7833 31.156ZM35.4513 29.356C35.8113 29.716 36.2553 29.896 36.7833 29.896C37.3113 29.896 37.7553 29.716 38.1153 29.356C38.4753 28.996 38.6553 28.544 38.6553 28C38.6553 27.456 38.4753 27.004 38.1153 26.644C37.7553 26.284 37.3113 26.104 36.7833 26.104C36.2553 26.104 35.8113 26.284 35.4513 26.644C35.0913 27.004 34.9113 27.456 34.9113 28C34.9113 28.544 35.0913 28.996 35.4513 29.356ZM42.4192 26.008C42.7472 25.264 43.3632 24.892 44.2672 24.892V26.296C43.7712 26.264 43.3392 26.384 42.9712 26.656C42.6032 26.92 42.4192 27.36 42.4192 27.976V31H41.1232V25H42.4192V26.008ZM46.4488 23.86C46.2888 24.02 46.0968 24.1 45.8728 24.1C45.6488 24.1 45.4528 24.02 45.2848 23.86C45.1248 23.692 45.0448 23.496 45.0448 23.272C45.0448 23.048 45.1248 22.856 45.2848 22.696C45.4448 22.528 45.6408 22.444 45.8728 22.444C46.1048 22.444 46.3008 22.528 46.4608 22.696C46.6208 22.856 46.7008 23.048 46.7008 23.272C46.7008 23.496 46.6168 23.692 46.4488 23.86ZM45.2248 31V25H46.5208V31H45.2248ZM52.7775 25H54.0735V31H52.7775V30.136C52.2895 30.816 51.5895 31.156 50.6775 31.156C49.8535 31.156 49.1495 30.852 48.5655 30.244C47.9815 29.628 47.6895 28.88 47.6895 28C47.6895 27.112 47.9815 26.364 48.5655 25.756C49.1495 25.148 49.8535 24.844 50.6775 24.844C51.5895 24.844 52.2895 25.18 52.7775 25.852V25ZM49.5255 29.38C49.8855 29.74 50.3375 29.92 50.8815 29.92C51.4255 29.92 51.8775 29.74 52.2375 29.38C52.5975 29.012 52.7775 28.552 52.7775 28C52.7775 27.448 52.5975 26.992 52.2375 26.632C51.8775 26.264 51.4255 26.08 50.8815 26.08C50.3375 26.08 49.8855 26.264 49.5255 26.632C49.1655 26.992 48.9855 27.448 48.9855 28C48.9855 28.552 49.1655 29.012 49.5255 29.38ZM55.5841 31V22.24H56.8801V31H55.5841ZM68.3689 30.58L67.2529 31.228L66.4489 30.364C65.7849 30.892 65.0049 31.156 64.1089 31.156C63.2529 31.156 62.5569 30.936 62.0209 30.496C61.4929 30.056 61.2289 29.456 61.2289 28.696C61.2289 28.192 61.3529 27.728 61.6009 27.304C61.8569 26.88 62.2249 26.54 62.7049 26.284C62.3849 25.844 62.2249 25.356 62.2249 24.82C62.2249 24.116 62.4689 23.544 62.9569 23.104C63.4529 22.664 64.0609 22.444 64.7809 22.444C65.3569 22.444 65.8769 22.596 66.3409 22.9C66.8049 23.204 67.1489 23.636 67.3729 24.196L66.1969 24.868C66.0849 24.532 65.9049 24.268 65.6569 24.076C65.4089 23.884 65.1209 23.788 64.7929 23.788C64.4569 23.788 64.1729 23.888 63.9409 24.088C63.7169 24.28 63.6049 24.536 63.6049 24.856C63.6049 25.024 63.6409 25.192 63.7129 25.36C63.7849 25.528 63.8609 25.668 63.9409 25.78C64.0289 25.884 64.1569 26.024 64.3249 26.2L66.3649 28.408C66.5649 28 66.7089 27.512 66.7969 26.944L67.9729 27.616C67.8289 28.288 67.5969 28.88 67.2769 29.392L68.3689 30.58ZM64.1809 29.872C64.7169 29.872 65.1809 29.724 65.5729 29.428L63.5089 27.208C62.9169 27.504 62.6209 27.964 62.6209 28.588C62.6209 28.98 62.7569 29.292 63.0289 29.524C63.3009 29.756 63.6849 29.872 64.1809 29.872ZM80.5245 22.6V31H79.1445V25.012L76.5885 29.236H76.4205L73.8645 25V31H72.4845V22.6H73.9725L76.5045 26.8L79.0485 22.6H80.5245ZM86.8674 25H88.1634V31H86.8674V30.136C86.3794 30.816 85.6794 31.156 84.7674 31.156C83.9434 31.156 83.2394 30.852 82.6554 30.244C82.0714 29.628 81.7794 28.88 81.7794 28C81.7794 27.112 82.0714 26.364 82.6554 25.756C83.2394 25.148 83.9434 24.844 84.7674 24.844C85.6794 24.844 86.3794 25.18 86.8674 25.852V25ZM83.6154 29.38C83.9754 29.74 84.4274 29.92 84.9714 29.92C85.5154 29.92 85.9674 29.74 86.3274 29.38C86.6874 29.012 86.8674 28.552 86.8674 28C86.8674 27.448 86.6874 26.992 86.3274 26.632C85.9674 26.264 85.5154 26.08 84.9714 26.08C84.4274 26.08 83.9754 26.264 83.6154 26.632C83.2554 26.992 83.0754 27.448 83.0754 28C83.0754 28.552 83.2554 29.012 83.6154 29.38ZM90.898 23.86C90.738 24.02 90.546 24.1 90.322 24.1C90.098 24.1 89.902 24.02 89.734 23.86C89.574 23.692 89.494 23.496 89.494 23.272C89.494 23.048 89.574 22.856 89.734 22.696C89.894 22.528 90.09 22.444 90.322 22.444C90.554 22.444 90.75 22.528 90.91 22.696C91.07 22.856 91.15 23.048 91.15 23.272C91.15 23.496 91.066 23.692 90.898 23.86ZM89.674 31V25H90.97V31H89.674ZM95.6308 24.844C96.3188 24.844 96.8748 25.064 97.2988 25.504C97.7228 25.944 97.9348 26.548 97.9348 27.316V31H96.6388V27.448C96.6388 27 96.5188 26.656 96.2788 26.416C96.0388 26.176 95.7108 26.056 95.2948 26.056C94.8388 26.056 94.4708 26.2 94.1908 26.488C93.9108 26.768 93.7708 27.2 93.7708 27.784V31H92.4748V25H93.7708V25.768C94.1628 25.152 94.7828 24.844 95.6308 24.844ZM102.678 26.248H101.19V29.128C101.19 29.376 101.246 29.556 101.358 29.668C101.47 29.772 101.634 29.832 101.85 29.848C102.074 29.856 102.35 29.852 102.678 29.836V31C101.686 31.12 100.974 31.036 100.542 30.748C100.11 30.452 99.8942 29.912 99.8942 29.128V26.248H98.7902V25H99.8942V23.704L101.19 23.32V25H102.678V26.248ZM104.628 28.552C104.724 29.008 104.944 29.36 105.288 29.608C105.632 29.848 106.052 29.968 106.548 29.968C107.236 29.968 107.752 29.72 108.096 29.224L109.164 29.848C108.572 30.72 107.696 31.156 106.536 31.156C105.56 31.156 104.772 30.86 104.172 30.268C103.572 29.668 103.272 28.912 103.272 28C103.272 27.104 103.568 26.356 104.16 25.756C104.752 25.148 105.512 24.844 106.44 24.844C107.32 24.844 108.04 25.152 108.6 25.768C109.168 26.384 109.452 27.132 109.452 28.012C109.452 28.148 109.436 28.328 109.404 28.552H104.628ZM104.616 27.496H108.144C108.056 27.008 107.852 26.64 107.532 26.392C107.22 26.144 106.852 26.02 106.428 26.02C105.948 26.02 105.548 26.152 105.228 26.416C104.908 26.68 104.704 27.04 104.616 27.496ZM113.748 24.844C114.436 24.844 114.992 25.064 115.416 25.504C115.84 25.944 116.052 26.548 116.052 27.316V31H114.756V27.448C114.756 27 114.636 26.656 114.396 26.416C114.156 26.176 113.828 26.056 113.412 26.056C112.956 26.056 112.588 26.2 112.308 26.488C112.028 26.768 111.888 27.2 111.888 27.784V31H110.592V25H111.888V25.768C112.28 25.152 112.9 24.844 113.748 24.844ZM122.199 25H123.495V31H122.199V30.136C121.711 30.816 121.011 31.156 120.099 31.156C119.275 31.156 118.571 30.852 117.987 30.244C117.403 29.628 117.111 28.88 117.111 28C117.111 27.112 117.403 26.364 117.987 25.756C118.571 25.148 119.275 24.844 120.099 24.844C121.011 24.844 121.711 25.18 122.199 25.852V25ZM118.947 29.38C119.307 29.74 119.759 29.92 120.303 29.92C120.847 29.92 121.299 29.74 121.659 29.38C122.019 29.012 122.199 28.552 122.199 28C122.199 27.448 122.019 26.992 121.659 26.632C121.299 26.264 120.847 26.08 120.303 26.08C119.759 26.08 119.307 26.264 118.947 26.632C118.587 26.992 118.407 27.448 118.407 28C118.407 28.552 118.587 29.012 118.947 29.38ZM128.162 24.844C128.85 24.844 129.406 25.064 129.83 25.504C130.254 25.944 130.466 26.548 130.466 27.316V31H129.17V27.448C129.17 27 129.05 26.656 128.81 26.416C128.57 26.176 128.242 26.056 127.826 26.056C127.37 26.056 127.002 26.2 126.722 26.488C126.442 26.768 126.302 27.2 126.302 27.784V31H125.006V25H126.302V25.768C126.694 25.152 127.314 24.844 128.162 24.844ZM134.693 31.156C133.789 31.156 133.033 30.852 132.425 30.244C131.825 29.636 131.525 28.888 131.525 28C131.525 27.104 131.825 26.356 132.425 25.756C133.033 25.148 133.789 24.844 134.693 24.844C135.277 24.844 135.809 24.984 136.289 25.264C136.769 25.544 137.129 25.92 137.369 26.392L136.253 27.04C136.117 26.752 135.909 26.528 135.629 26.368C135.357 26.2 135.041 26.116 134.681 26.116C134.153 26.116 133.709 26.296 133.349 26.656C132.997 27.016 132.821 27.464 132.821 28C132.821 28.536 132.997 28.984 133.349 29.344C133.709 29.704 134.153 29.884 134.681 29.884C135.033 29.884 135.349 29.8 135.629 29.632C135.917 29.464 136.133 29.24 136.277 28.96L137.393 29.596C137.137 30.076 136.769 30.456 136.289 30.736C135.809 31.016 135.277 31.156 134.693 31.156ZM139.256 28.552C139.352 29.008 139.572 29.36 139.916 29.608C140.26 29.848 140.68 29.968 141.176 29.968C141.864 29.968 142.38 29.72 142.724 29.224L143.792 29.848C143.2 30.72 142.324 31.156 141.164 31.156C140.188 31.156 139.4 30.86 138.8 30.268C138.2 29.668 137.9 28.912 137.9 28C137.9 27.104 138.196 26.356 138.788 25.756C139.38 25.148 140.14 24.844 141.068 24.844C141.948 24.844 142.668 25.152 143.228 25.768C143.796 26.384 144.08 27.132 144.08 28.012C144.08 28.148 144.064 28.328 144.032 28.552H139.256ZM139.244 27.496H142.772C142.684 27.008 142.48 26.64 142.16 26.392C141.848 26.144 141.48 26.02 141.056 26.02C140.576 26.02 140.176 26.152 139.856 26.416C139.536 26.68 139.332 27.04 139.244 27.496Z" fill="url(#paint1_linear_2412_717)"/>
<path d="M8.12 31.156C6.816 31.156 5.916 30.644 5.42 29.62L6.608 28.924C6.88 29.516 7.388 29.812 8.132 29.812C8.612 29.812 8.98 29.696 9.236 29.464C9.5 29.224 9.632 28.888 9.632 28.456V22.6H11.012V28.456C11.012 29.32 10.74 29.988 10.196 30.46C9.652 30.924 8.96 31.156 8.12 31.156ZM17.2111 25H18.5071V31H17.2111V30.136C16.7231 30.816 16.0231 31.156 15.1111 31.156C14.2871 31.156 13.5831 30.852 12.9991 30.244C12.4151 29.628 12.1231 28.88 12.1231 28C12.1231 27.112 12.4151 26.364 12.9991 25.756C13.5831 25.148 14.2871 24.844 15.1111 24.844C16.0231 24.844 16.7231 25.18 17.2111 25.852V25ZM13.9591 29.38C14.3191 29.74 14.7711 29.92 15.3151 29.92C15.8591 29.92 16.3111 29.74 16.6711 29.38C17.0311 29.012 17.2111 28.552 17.2111 28C17.2111 27.448 17.0311 26.992 16.6711 26.632C16.3111 26.264 15.8591 26.08 15.3151 26.08C14.7711 26.08 14.3191 26.264 13.9591 26.632C13.5991 26.992 13.4191 27.448 13.4191 28C13.4191 28.552 13.5991 29.012 13.9591 29.38ZM23.1737 24.844C23.8617 24.844 24.4177 25.064 24.8417 25.504C25.2657 25.944 25.4777 26.548 25.4777 27.316V31H24.1817V27.448C24.1817 27 24.0617 26.656 23.8217 26.416C23.5817 26.176 23.2537 26.056 22.8377 26.056C22.3817 26.056 22.0137 26.2 21.7337 26.488C21.4537 26.768 21.3137 27.2 21.3137 27.784V31H20.0177V25H21.3137V25.768C21.7057 25.152 22.3257 24.844 23.1737 24.844ZM28.0972 23.86C27.9372 24.02 27.7452 24.1 27.5212 24.1C27.2972 24.1 27.1012 24.02 26.9332 23.86C26.7732 23.692 26.6932 23.496 26.6932 23.272C26.6932 23.048 26.7732 22.856 26.9332 22.696C27.0932 22.528 27.2892 22.444 27.5212 22.444C27.7532 22.444 27.9492 22.528 28.1092 22.696C28.2692 22.856 28.3492 23.048 28.3492 23.272C28.3492 23.496 28.2652 23.692 28.0972 23.86ZM26.8732 31V25H28.1692V31H26.8732ZM33.022 26.248H31.534V29.128C31.534 29.376 31.59 29.556 31.702 29.668C31.814 29.772 31.978 29.832 32.194 29.848C32.418 29.856 32.694 29.852 33.022 29.836V31C32.03 31.12 31.318 31.036 30.886 30.748C30.454 30.452 30.238 29.912 30.238 29.128V26.248H29.134V25H30.238V23.704L31.534 23.32V25H33.022V26.248ZM36.7833 31.156C35.9033 31.156 35.1553 30.852 34.5393 30.244C33.9233 29.636 33.6153 28.888 33.6153 28C33.6153 27.112 33.9233 26.364 34.5393 25.756C35.1553 25.148 35.9033 24.844 36.7833 24.844C37.6713 24.844 38.4193 25.148 39.0273 25.756C39.6433 26.364 39.9513 27.112 39.9513 28C39.9513 28.888 39.6433 29.636 39.0273 30.244C38.4193 30.852 37.6713 31.156 36.7833 31.156ZM35.4513 29.356C35.8113 29.716 36.2553 29.896 36.7833 29.896C37.3113 29.896 37.7553 29.716 38.1153 29.356C38.4753 28.996 38.6553 28.544 38.6553 28C38.6553 27.456 38.4753 27.004 38.1153 26.644C37.7553 26.284 37.3113 26.104 36.7833 26.104C36.2553 26.104 35.8113 26.284 35.4513 26.644C35.0913 27.004 34.9113 27.456 34.9113 28C34.9113 28.544 35.0913 28.996 35.4513 29.356ZM42.4192 26.008C42.7472 25.264 43.3632 24.892 44.2672 24.892V26.296C43.7712 26.264 43.3392 26.384 42.9712 26.656C42.6032 26.92 42.4192 27.36 42.4192 27.976V31H41.1232V25H42.4192V26.008ZM46.4488 23.86C46.2888 24.02 46.0968 24.1 45.8728 24.1C45.6488 24.1 45.4528 24.02 45.2848 23.86C45.1248 23.692 45.0448 23.496 45.0448 23.272C45.0448 23.048 45.1248 22.856 45.2848 22.696C45.4448 22.528 45.6408 22.444 45.8728 22.444C46.1048 22.444 46.3008 22.528 46.4608 22.696C46.6208 22.856 46.7008 23.048 46.7008 23.272C46.7008 23.496 46.6168 23.692 46.4488 23.86ZM45.2248 31V25H46.5208V31H45.2248ZM52.7775 25H54.0735V31H52.7775V30.136C52.2895 30.816 51.5895 31.156 50.6775 31.156C49.8535 31.156 49.1495 30.852 48.5655 30.244C47.9815 29.628 47.6895 28.88 47.6895 28C47.6895 27.112 47.9815 26.364 48.5655 25.756C49.1495 25.148 49.8535 24.844 50.6775 24.844C51.5895 24.844 52.2895 25.18 52.7775 25.852V25ZM49.5255 29.38C49.8855 29.74 50.3375 29.92 50.8815 29.92C51.4255 29.92 51.8775 29.74 52.2375 29.38C52.5975 29.012 52.7775 28.552 52.7775 28C52.7775 27.448 52.5975 26.992 52.2375 26.632C51.8775 26.264 51.4255 26.08 50.8815 26.08C50.3375 26.08 49.8855 26.264 49.5255 26.632C49.1655 26.992 48.9855 27.448 48.9855 28C48.9855 28.552 49.1655 29.012 49.5255 29.38ZM55.5841 31V22.24H56.8801V31H55.5841ZM68.3689 30.58L67.2529 31.228L66.4489 30.364C65.7849 30.892 65.0049 31.156 64.1089 31.156C63.2529 31.156 62.5569 30.936 62.0209 30.496C61.4929 30.056 61.2289 29.456 61.2289 28.696C61.2289 28.192 61.3529 27.728 61.6009 27.304C61.8569 26.88 62.2249 26.54 62.7049 26.284C62.3849 25.844 62.2249 25.356 62.2249 24.82C62.2249 24.116 62.4689 23.544 62.9569 23.104C63.4529 22.664 64.0609 22.444 64.7809 22.444C65.3569 22.444 65.8769 22.596 66.3409 22.9C66.8049 23.204 67.1489 23.636 67.3729 24.196L66.1969 24.868C66.0849 24.532 65.9049 24.268 65.6569 24.076C65.4089 23.884 65.1209 23.788 64.7929 23.788C64.4569 23.788 64.1729 23.888 63.9409 24.088C63.7169 24.28 63.6049 24.536 63.6049 24.856C63.6049 25.024 63.6409 25.192 63.7129 25.36C63.7849 25.528 63.8609 25.668 63.9409 25.78C64.0289 25.884 64.1569 26.024 64.3249 26.2L66.3649 28.408C66.5649 28 66.7089 27.512 66.7969 26.944L67.9729 27.616C67.8289 28.288 67.5969 28.88 67.2769 29.392L68.3689 30.58ZM64.1809 29.872C64.7169 29.872 65.1809 29.724 65.5729 29.428L63.5089 27.208C62.9169 27.504 62.6209 27.964 62.6209 28.588C62.6209 28.98 62.7569 29.292 63.0289 29.524C63.3009 29.756 63.6849 29.872 64.1809 29.872ZM80.5245 22.6V31H79.1445V25.012L76.5885 29.236H76.4205L73.8645 25V31H72.4845V22.6H73.9725L76.5045 26.8L79.0485 22.6H80.5245ZM86.8674 25H88.1634V31H86.8674V30.136C86.3794 30.816 85.6794 31.156 84.7674 31.156C83.9434 31.156 83.2394 30.852 82.6554 30.244C82.0714 29.628 81.7794 28.88 81.7794 28C81.7794 27.112 82.0714 26.364 82.6554 25.756C83.2394 25.148 83.9434 24.844 84.7674 24.844C85.6794 24.844 86.3794 25.18 86.8674 25.852V25ZM83.6154 29.38C83.9754 29.74 84.4274 29.92 84.9714 29.92C85.5154 29.92 85.9674 29.74 86.3274 29.38C86.6874 29.012 86.8674 28.552 86.8674 28C86.8674 27.448 86.6874 26.992 86.3274 26.632C85.9674 26.264 85.5154 26.08 84.9714 26.08C84.4274 26.08 83.9754 26.264 83.6154 26.632C83.2554 26.992 83.0754 27.448 83.0754 28C83.0754 28.552 83.2554 29.012 83.6154 29.38ZM90.898 23.86C90.738 24.02 90.546 24.1 90.322 24.1C90.098 24.1 89.902 24.02 89.734 23.86C89.574 23.692 89.494 23.496 89.494 23.272C89.494 23.048 89.574 22.856 89.734 22.696C89.894 22.528 90.09 22.444 90.322 22.444C90.554 22.444 90.75 22.528 90.91 22.696C91.07 22.856 91.15 23.048 91.15 23.272C91.15 23.496 91.066 23.692 90.898 23.86ZM89.674 31V25H90.97V31H89.674ZM95.6308 24.844C96.3188 24.844 96.8748 25.064 97.2988 25.504C97.7228 25.944 97.9348 26.548 97.9348 27.316V31H96.6388V27.448C96.6388 27 96.5188 26.656 96.2788 26.416C96.0388 26.176 95.7108 26.056 95.2948 26.056C94.8388 26.056 94.4708 26.2 94.1908 26.488C93.9108 26.768 93.7708 27.2 93.7708 27.784V31H92.4748V25H93.7708V25.768C94.1628 25.152 94.7828 24.844 95.6308 24.844ZM102.678 26.248H101.19V29.128C101.19 29.376 101.246 29.556 101.358 29.668C101.47 29.772 101.634 29.832 101.85 29.848C102.074 29.856 102.35 29.852 102.678 29.836V31C101.686 31.12 100.974 31.036 100.542 30.748C100.11 30.452 99.8942 29.912 99.8942 29.128V26.248H98.7902V25H99.8942V23.704L101.19 23.32V25H102.678V26.248ZM104.628 28.552C104.724 29.008 104.944 29.36 105.288 29.608C105.632 29.848 106.052 29.968 106.548 29.968C107.236 29.968 107.752 29.72 108.096 29.224L109.164 29.848C108.572 30.72 107.696 31.156 106.536 31.156C105.56 31.156 104.772 30.86 104.172 30.268C103.572 29.668 103.272 28.912 103.272 28C103.272 27.104 103.568 26.356 104.16 25.756C104.752 25.148 105.512 24.844 106.44 24.844C107.32 24.844 108.04 25.152 108.6 25.768C109.168 26.384 109.452 27.132 109.452 28.012C109.452 28.148 109.436 28.328 109.404 28.552H104.628ZM104.616 27.496H108.144C108.056 27.008 107.852 26.64 107.532 26.392C107.22 26.144 106.852 26.02 106.428 26.02C105.948 26.02 105.548 26.152 105.228 26.416C104.908 26.68 104.704 27.04 104.616 27.496ZM113.748 24.844C114.436 24.844 114.992 25.064 115.416 25.504C115.84 25.944 116.052 26.548 116.052 27.316V31H114.756V27.448C114.756 27 114.636 26.656 114.396 26.416C114.156 26.176 113.828 26.056 113.412 26.056C112.956 26.056 112.588 26.2 112.308 26.488C112.028 26.768 111.888 27.2 111.888 27.784V31H110.592V25H111.888V25.768C112.28 25.152 112.9 24.844 113.748 24.844ZM122.199 25H123.495V31H122.199V30.136C121.711 30.816 121.011 31.156 120.099 31.156C119.275 31.156 118.571 30.852 117.987 30.244C117.403 29.628 117.111 28.88 117.111 28C117.111 27.112 117.403 26.364 117.987 25.756C118.571 25.148 119.275 24.844 120.099 24.844C121.011 24.844 121.711 25.18 122.199 25.852V25ZM118.947 29.38C119.307 29.74 119.759 29.92 120.303 29.92C120.847 29.92 121.299 29.74 121.659 29.38C122.019 29.012 122.199 28.552 122.199 28C122.199 27.448 122.019 26.992 121.659 26.632C121.299 26.264 120.847 26.08 120.303 26.08C119.759 26.08 119.307 26.264 118.947 26.632C118.587 26.992 118.407 27.448 118.407 28C118.407 28.552 118.587 29.012 118.947 29.38ZM128.162 24.844C128.85 24.844 129.406 25.064 129.83 25.504C130.254 25.944 130.466 26.548 130.466 27.316V31H129.17V27.448C129.17 27 129.05 26.656 128.81 26.416C128.57 26.176 128.242 26.056 127.826 26.056C127.37 26.056 127.002 26.2 126.722 26.488C126.442 26.768 126.302 27.2 126.302 27.784V31H125.006V25H126.302V25.768C126.694 25.152 127.314 24.844 128.162 24.844ZM134.693 31.156C133.789 31.156 133.033 30.852 132.425 30.244C131.825 29.636 131.525 28.888 131.525 28C131.525 27.104 131.825 26.356 132.425 25.756C133.033 25.148 133.789 24.844 134.693 24.844C135.277 24.844 135.809 24.984 136.289 25.264C136.769 25.544 137.129 25.92 137.369 26.392L136.253 27.04C136.117 26.752 135.909 26.528 135.629 26.368C135.357 26.2 135.041 26.116 134.681 26.116C134.153 26.116 133.709 26.296 133.349 26.656C132.997 27.016 132.821 27.464 132.821 28C132.821 28.536 132.997 28.984 133.349 29.344C133.709 29.704 134.153 29.884 134.681 29.884C135.033 29.884 135.349 29.8 135.629 29.632C135.917 29.464 136.133 29.24 136.277 28.96L137.393 29.596C137.137 30.076 136.769 30.456 136.289 30.736C135.809 31.016 135.277 31.156 134.693 31.156ZM139.256 28.552C139.352 29.008 139.572 29.36 139.916 29.608C140.26 29.848 140.68 29.968 141.176 29.968C141.864 29.968 142.38 29.72 142.724 29.224L143.792 29.848C143.2 30.72 142.324 31.156 141.164 31.156C140.188 31.156 139.4 30.86 138.8 30.268C138.2 29.668 137.9 28.912 137.9 28C137.9 27.104 138.196 26.356 138.788 25.756C139.38 25.148 140.14 24.844 141.068 24.844C141.948 24.844 142.668 25.152 143.228 25.768C143.796 26.384 144.08 27.132 144.08 28.012C144.08 28.148 144.064 28.328 144.032 28.552H139.256ZM139.244 27.496H142.772C142.684 27.008 142.48 26.64 142.16 26.392C141.848 26.144 141.48 26.02 141.056 26.02C140.576 26.02 140.176 26.152 139.856 26.416C139.536 26.68 139.332 27.04 139.244 27.496Z" fill="white" fill-opacity="0.5"/>
<defs>
<linearGradient id="paint0_linear_2412_717" x1="65.4197" y1="3.02632" x2="65.4197" y2="16.6579" gradientUnits="userSpaceOnUse">
<stop stop-color="#424446"/>
<stop offset="0.413557" stop-color="white"/>
<stop offset="0.429587" stop-color="#DDDDDD"/>
<stop offset="1" stop-color="#DDDDDD"/>
</linearGradient>
<linearGradient id="paint1_linear_2412_717" x1="66.0584" y1="24.1579" x2="66.0584" y2="31.9474" gradientUnits="userSpaceOnUse">
<stop stop-color="#424446"/>
<stop offset="0.413557" stop-color="white"/>
<stop offset="0.429587" stop-color="#DDDDDD"/>
<stop offset="1" stop-color="#DDDDDD"/>
</linearGradient>
</defs>
</svg>
