<svg width="240" height="54" viewBox="0 0 240 54" fill="none" xmlns="http://www.w3.org/2000/svg">
<path d="M8.48 53.26C6.29333 53.26 4.88 52.3733 4.24 50.6L6.34 49.46C6.64667 50.5 7.42 51.02 8.66 51.02C9.48667 51.02 10.1467 50.8267 10.64 50.44C11.1333 50.04 11.4467 49.48 11.58 48.76L13.3 39H15.6L13.88 48.78C13.6133 50.3 12.9933 51.4267 12.02 52.16C11.06 52.8933 9.88 53.26 8.48 53.26ZM25.1933 43H27.3533L25.5933 53H23.4333L23.6333 51.82C22.6999 52.78 21.4799 53.26 19.9733 53.26C18.5199 53.26 17.3999 52.7133 16.6133 51.62C15.8399 50.5133 15.5866 49.2333 15.8533 47.78C16.1199 46.2867 16.7799 45.0733 17.8333 44.14C18.8999 43.2067 20.1333 42.74 21.5333 42.74C23.0933 42.74 24.2199 43.3667 24.9133 44.62L25.1933 43ZM20.6133 51.2C21.4666 51.2 22.2333 50.94 22.9133 50.42C23.5933 49.8867 24.0399 49.2 24.2533 48.36L24.3533 47.78C24.4466 46.86 24.2333 46.1333 23.7133 45.6C23.1933 45.0667 22.5066 44.8 21.6533 44.8C20.7866 44.8 20.0066 45.08 19.3133 45.64C18.6199 46.2 18.1866 46.9667 18.0133 47.94C17.8533 48.8733 18.0199 49.6533 18.5133 50.28C19.0066 50.8933 19.7066 51.2 20.6133 51.2ZM35.0705 42.74C36.2171 42.74 37.0905 43.1133 37.6905 43.86C38.3038 44.5933 38.5038 45.5933 38.2905 46.86L37.2105 53H35.0505L36.0905 47.08C36.2238 46.32 36.1238 45.7467 35.7905 45.36C35.4705 44.96 34.9571 44.76 34.2505 44.76C33.5305 44.76 32.8971 44.98 32.3505 45.42C31.8038 45.8467 31.4371 46.5 31.2505 47.38L30.2705 53H28.1105L29.8705 43H32.0305L31.8105 44.2C32.6505 43.2267 33.7371 42.74 35.0705 42.74ZM42.5972 41.5C42.2105 41.5 41.9039 41.3667 41.6772 41.1C41.4639 40.82 41.3905 40.4933 41.4572 40.12C41.5239 39.7467 41.7105 39.4267 42.0172 39.16C42.3239 38.88 42.6705 38.74 43.0572 38.74C43.4439 38.74 43.7505 38.8733 43.9772 39.14C44.2039 39.4067 44.2839 39.7333 44.2172 40.12C44.1505 40.4933 43.9639 40.82 43.6572 41.1C43.3505 41.3667 42.9972 41.5 42.5972 41.5ZM39.4972 53L41.2572 43H43.4172L41.6572 53H39.4972ZM48.6652 45.08L47.8252 49.88C47.7585 50.2933 47.8052 50.5933 47.9652 50.78C48.1252 50.9667 48.3852 51.0667 48.7452 51.08C49.1185 51.0933 49.5718 51.0867 50.1052 51.06L49.7652 53C48.1785 53.2 47.0385 53.0533 46.3452 52.56C45.6652 52.0533 45.4385 51.16 45.6652 49.88L46.5052 45.08H44.6652L45.0452 43H46.8852L47.2652 40.84L49.5252 40.2L49.0252 43H51.5252L51.1452 45.08H48.6652ZM56.2136 53.26C54.6403 53.26 53.4203 52.7267 52.5536 51.66C51.6869 50.58 51.4003 49.2733 51.6936 47.74C51.9736 46.26 52.6869 45.06 53.8336 44.14C54.9803 43.2067 56.3003 42.74 57.7936 42.74C59.2736 42.74 60.4403 43.2733 61.2936 44.34C62.1469 45.4067 62.4403 46.6933 62.1736 48.2C61.9069 49.6933 61.2003 50.9133 60.0536 51.86C58.9203 52.7933 57.6403 53.26 56.2136 53.26ZM56.3736 51.16C57.2403 51.16 58.0203 50.8733 58.7136 50.3C59.4203 49.7267 59.8603 48.9467 60.0336 47.96C60.2069 47.0133 60.0403 46.26 59.5336 45.7C59.0269 45.1267 58.3469 44.84 57.4936 44.84C56.6269 44.84 55.8469 45.1267 55.1536 45.7C54.4603 46.26 54.0269 47.0267 53.8536 48C53.6936 48.9733 53.8603 49.7467 54.3536 50.32C54.8469 50.88 55.5203 51.16 56.3736 51.16ZM66.9463 44.5C67.7463 43.34 68.8729 42.78 70.3263 42.82L69.9063 45.16C69.4263 45.12 68.9596 45.1667 68.5063 45.3C68.0529 45.4333 67.6196 45.7067 67.2063 46.12C66.8063 46.5333 66.5329 47.06 66.3863 47.7L65.4463 53H63.2863L65.0463 43H67.2063L66.9463 44.5ZM73.2417 41.5C72.8551 41.5 72.5484 41.3667 72.3217 41.1C72.1084 40.82 72.0351 40.4933 72.1017 40.12C72.1684 39.7467 72.3551 39.4267 72.6617 39.16C72.9684 38.88 73.3151 38.74 73.7017 38.74C74.0884 38.74 74.3951 38.8733 74.6217 39.14C74.8484 39.4067 74.9284 39.7333 74.8617 40.12C74.7951 40.4933 74.6084 40.82 74.3017 41.1C73.9951 41.3667 73.6417 41.5 73.2417 41.5ZM70.1417 53L71.9017 43H74.0617L72.3017 53H70.1417ZM84.5097 43H86.6697L84.9097 53H82.7497L82.9497 51.82C82.0164 52.78 80.7964 53.26 79.2897 53.26C77.8364 53.26 76.7164 52.7133 75.9297 51.62C75.1564 50.5133 74.903 49.2333 75.1697 47.78C75.4364 46.2867 76.0964 45.0733 77.1497 44.14C78.2164 43.2067 79.4497 42.74 80.8497 42.74C82.4097 42.74 83.5364 43.3667 84.2297 44.62L84.5097 43ZM79.9297 51.2C80.783 51.2 81.5497 50.94 82.2297 50.42C82.9097 49.8867 83.3564 49.2 83.5697 48.36L83.6697 47.78C83.763 46.86 83.5497 46.1333 83.0297 45.6C82.5097 45.0667 81.823 44.8 80.9697 44.8C80.103 44.8 79.323 45.08 78.6297 45.64C77.9364 46.2 77.503 46.9667 77.3297 47.94C77.1697 48.8733 77.3364 49.6533 77.8297 50.28C78.323 50.8933 79.023 51.2 79.9297 51.2ZM87.4469 53L88.5269 46.82L90.0069 38.4H92.1669L90.6669 46.88L89.6069 53H87.4469ZM107.354 46.24L109.194 47.4C108.754 48.5067 108.174 49.5067 107.454 50.4L109.034 52.5L107.074 53.52L105.874 51.92C104.648 52.8133 103.268 53.26 101.734 53.26C100.268 53.26 99.1477 52.8533 98.3744 52.04C97.6144 51.2133 97.3477 50.1733 97.5744 48.92C97.8944 47.24 98.981 45.9533 100.834 45.06C100.381 44.2333 100.234 43.3533 100.394 42.42C100.581 41.3 101.108 40.4067 101.974 39.74C102.841 39.0733 103.881 38.74 105.094 38.74C106.121 38.74 106.994 38.9933 107.714 39.5C108.434 39.9933 108.948 40.7133 109.254 41.66L107.194 42.76C106.834 41.5733 106.081 40.98 104.934 40.98C104.374 40.98 103.874 41.1333 103.434 41.44C103.008 41.7467 102.754 42.1867 102.674 42.76C102.568 43.4533 102.834 44.2267 103.474 45.08L106.174 48.68C106.601 48.04 106.994 47.2267 107.354 46.24ZM102.154 51.12C103.061 51.12 103.894 50.8467 104.654 50.3L101.894 46.64C100.734 47.1467 100.074 47.9 99.9144 48.9C99.7944 49.5667 99.9344 50.1067 100.334 50.52C100.734 50.92 101.341 51.12 102.154 51.12ZM131.65 39L129.19 53H126.89L128.65 43.04L123.13 50.06H122.85L119.87 42.84L118.09 53H115.79L118.25 39H120.67L123.55 46.1L129.03 39H131.65ZM141.541 43H143.701L141.941 53H139.781L139.981 51.82C139.048 52.78 137.828 53.26 136.321 53.26C134.868 53.26 133.748 52.7133 132.961 51.62C132.188 50.5133 131.934 49.2333 132.201 47.78C132.468 46.2867 133.128 45.0733 134.181 44.14C135.248 43.2067 136.481 42.74 137.881 42.74C139.441 42.74 140.568 43.3667 141.261 44.62L141.541 43ZM136.961 51.2C137.814 51.2 138.581 50.94 139.261 50.42C139.941 49.8867 140.388 49.2 140.601 48.36L140.701 47.78C140.794 46.86 140.581 46.1333 140.061 45.6C139.541 45.0667 138.854 44.8 138.001 44.8C137.134 44.8 136.354 45.08 135.661 45.64C134.968 46.2 134.534 46.9667 134.361 47.94C134.201 48.8733 134.368 49.6533 134.861 50.28C135.354 50.8933 136.054 51.2 136.961 51.2ZM147.558 41.5C147.171 41.5 146.865 41.3667 146.638 41.1C146.425 40.82 146.351 40.4933 146.418 40.12C146.485 39.7467 146.671 39.4267 146.978 39.16C147.285 38.88 147.631 38.74 148.018 38.74C148.405 38.74 148.711 38.8733 148.938 39.14C149.165 39.4067 149.245 39.7333 149.178 40.12C149.111 40.4933 148.925 40.82 148.618 41.1C148.311 41.3667 147.958 41.5 147.558 41.5ZM144.458 53L146.218 43H148.378L146.618 53H144.458ZM156.086 42.74C157.233 42.74 158.106 43.1133 158.706 43.86C159.319 44.5933 159.519 45.5933 159.306 46.86L158.226 53H156.066L157.106 47.08C157.239 46.32 157.139 45.7467 156.806 45.36C156.486 44.96 155.973 44.76 155.266 44.76C154.546 44.76 153.913 44.98 153.366 45.42C152.819 45.8467 152.453 46.5 152.266 47.38L151.286 53H149.126L150.886 43H153.046L152.826 44.2C153.666 43.2267 154.753 42.74 156.086 42.74ZM165.013 45.08L164.173 49.88C164.106 50.2933 164.153 50.5933 164.313 50.78C164.473 50.9667 164.733 51.0667 165.093 51.08C165.466 51.0933 165.919 51.0867 166.453 51.06L166.113 53C164.526 53.2 163.386 53.0533 162.693 52.56C162.013 52.0533 161.786 51.16 162.013 49.88L162.853 45.08H161.013L161.393 43H163.233L163.613 40.84L165.873 40.2L165.373 43H167.873L167.493 45.08H165.013ZM173.981 42.74C175.475 42.74 176.635 43.2533 177.461 44.28C178.301 45.3067 178.581 46.5533 178.301 48.02C178.181 48.5 178.101 48.8 178.061 48.92H170.101C170.115 49.6933 170.368 50.28 170.861 50.68C171.355 51.08 172.001 51.28 172.801 51.28C173.988 51.28 174.928 50.86 175.621 50.02L177.201 51.22C176.108 52.58 174.581 53.26 172.621 53.26C171.008 53.26 169.775 52.7333 168.921 51.68C168.068 50.6267 167.768 49.3333 168.021 47.8C168.275 46.3333 168.961 45.1267 170.081 44.18C171.201 43.22 172.501 42.74 173.981 42.74ZM170.401 47.14H176.261C176.275 46.3133 176.055 45.7 175.601 45.3C175.161 44.9 174.575 44.7 173.841 44.7C173.055 44.7 172.355 44.92 171.741 45.36C171.141 45.7867 170.695 46.38 170.401 47.14ZM186.223 42.74C187.369 42.74 188.243 43.1133 188.843 43.86C189.456 44.5933 189.656 45.5933 189.443 46.86L188.363 53H186.203L187.243 47.08C187.376 46.32 187.276 45.7467 186.943 45.36C186.623 44.96 186.109 44.76 185.403 44.76C184.683 44.76 184.049 44.98 183.503 45.42C182.956 45.8467 182.589 46.5 182.403 47.38L181.423 53H179.263L181.023 43H183.183L182.963 44.2C183.803 43.2267 184.889 42.74 186.223 42.74ZM200.35 43H202.51L200.75 53H198.59L198.79 51.82C197.856 52.78 196.636 53.26 195.13 53.26C193.676 53.26 192.556 52.7133 191.77 51.62C190.996 50.5133 190.743 49.2333 191.01 47.78C191.276 46.2867 191.936 45.0733 192.99 44.14C194.056 43.2067 195.29 42.74 196.69 42.74C198.25 42.74 199.376 43.3667 200.07 44.62L200.35 43ZM195.77 51.2C196.623 51.2 197.39 50.94 198.07 50.42C198.75 49.8867 199.196 49.2 199.41 48.36L199.51 47.78C199.603 46.86 199.39 46.1333 198.87 45.6C198.35 45.0667 197.663 44.8 196.81 44.8C195.943 44.8 195.163 45.08 194.47 45.64C193.776 46.2 193.343 46.9667 193.17 47.94C193.01 48.8733 193.176 49.6533 193.67 50.28C194.163 50.8933 194.863 51.2 195.77 51.2ZM210.227 42.74C211.373 42.74 212.247 43.1133 212.847 43.86C213.46 44.5933 213.66 45.5933 213.447 46.86L212.367 53H210.207L211.247 47.08C211.38 46.32 211.28 45.7467 210.947 45.36C210.627 44.96 210.113 44.76 209.407 44.76C208.687 44.76 208.053 44.98 207.507 45.42C206.96 45.8467 206.593 46.5 206.407 47.38L205.427 53H203.267L205.027 43H207.187L206.967 44.2C207.807 43.2267 208.893 42.74 210.227 42.74ZM219.513 53.26C217.993 53.26 216.8 52.7267 215.933 51.66C215.067 50.5933 214.76 49.3 215.013 47.78C215.267 46.3133 215.953 45.1067 217.073 44.16C218.207 43.2133 219.527 42.74 221.033 42.74C222.047 42.74 222.913 42.9733 223.633 43.44C224.367 43.9067 224.887 44.54 225.193 45.34L223.253 46.34C222.867 45.3533 222.06 44.86 220.833 44.86C219.94 44.86 219.147 45.1467 218.453 45.72C217.76 46.2933 217.333 47.0333 217.173 47.94C217.027 48.8467 217.193 49.6067 217.673 50.22C218.153 50.8333 218.84 51.14 219.733 51.14C220.32 51.14 220.86 51 221.353 50.72C221.86 50.44 222.273 50.06 222.593 49.58L224.333 50.7C223.827 51.5267 223.147 52.16 222.293 52.6C221.44 53.04 220.513 53.26 219.513 53.26ZM231.638 42.74C233.131 42.74 234.291 43.2533 235.118 44.28C235.958 45.3067 236.238 46.5533 235.957 48.02C235.838 48.5 235.758 48.8 235.718 48.92H227.758C227.771 49.6933 228.024 50.28 228.518 50.68C229.011 51.08 229.658 51.28 230.458 51.28C231.644 51.28 232.584 50.86 233.278 50.02L234.858 51.22C233.764 52.58 232.238 53.26 230.278 53.26C228.664 53.26 227.431 52.7333 226.578 51.68C225.724 50.6267 225.424 49.3333 225.678 47.8C225.931 46.3333 226.618 45.1267 227.738 44.18C228.858 43.22 230.158 42.74 231.638 42.74ZM228.058 47.14H233.918C233.931 46.3133 233.711 45.7 233.258 45.3C232.818 44.9 232.231 44.7 231.498 44.7C230.711 44.7 230.011 44.92 229.398 45.36C228.798 45.7867 228.351 46.38 228.058 47.14Z" fill="url(#paint0_linear_2412_717)"/>
<path d="M8.48 53.26C6.29333 53.26 4.88 52.3733 4.24 50.6L6.34 49.46C6.64667 50.5 7.42 51.02 8.66 51.02C9.48667 51.02 10.1467 50.8267 10.64 50.44C11.1333 50.04 11.4467 49.48 11.58 48.76L13.3 39H15.6L13.88 48.78C13.6133 50.3 12.9933 51.4267 12.02 52.16C11.06 52.8933 9.88 53.26 8.48 53.26ZM25.1933 43H27.3533L25.5933 53H23.4333L23.6333 51.82C22.6999 52.78 21.4799 53.26 19.9733 53.26C18.5199 53.26 17.3999 52.7133 16.6133 51.62C15.8399 50.5133 15.5866 49.2333 15.8533 47.78C16.1199 46.2867 16.7799 45.0733 17.8333 44.14C18.8999 43.2067 20.1333 42.74 21.5333 42.74C23.0933 42.74 24.2199 43.3667 24.9133 44.62L25.1933 43ZM20.6133 51.2C21.4666 51.2 22.2333 50.94 22.9133 50.42C23.5933 49.8867 24.0399 49.2 24.2533 48.36L24.3533 47.78C24.4466 46.86 24.2333 46.1333 23.7133 45.6C23.1933 45.0667 22.5066 44.8 21.6533 44.8C20.7866 44.8 20.0066 45.08 19.3133 45.64C18.6199 46.2 18.1866 46.9667 18.0133 47.94C17.8533 48.8733 18.0199 49.6533 18.5133 50.28C19.0066 50.8933 19.7066 51.2 20.6133 51.2ZM35.0705 42.74C36.2171 42.74 37.0905 43.1133 37.6905 43.86C38.3038 44.5933 38.5038 45.5933 38.2905 46.86L37.2105 53H35.0505L36.0905 47.08C36.2238 46.32 36.1238 45.7467 35.7905 45.36C35.4705 44.96 34.9571 44.76 34.2505 44.76C33.5305 44.76 32.8971 44.98 32.3505 45.42C31.8038 45.8467 31.4371 46.5 31.2505 47.38L30.2705 53H28.1105L29.8705 43H32.0305L31.8105 44.2C32.6505 43.2267 33.7371 42.74 35.0705 42.74ZM42.5972 41.5C42.2105 41.5 41.9039 41.3667 41.6772 41.1C41.4639 40.82 41.3905 40.4933 41.4572 40.12C41.5239 39.7467 41.7105 39.4267 42.0172 39.16C42.3239 38.88 42.6705 38.74 43.0572 38.74C43.4439 38.74 43.7505 38.8733 43.9772 39.14C44.2039 39.4067 44.2839 39.7333 44.2172 40.12C44.1505 40.4933 43.9639 40.82 43.6572 41.1C43.3505 41.3667 42.9972 41.5 42.5972 41.5ZM39.4972 53L41.2572 43H43.4172L41.6572 53H39.4972ZM48.6652 45.08L47.8252 49.88C47.7585 50.2933 47.8052 50.5933 47.9652 50.78C48.1252 50.9667 48.3852 51.0667 48.7452 51.08C49.1185 51.0933 49.5718 51.0867 50.1052 51.06L49.7652 53C48.1785 53.2 47.0385 53.0533 46.3452 52.56C45.6652 52.0533 45.4385 51.16 45.6652 49.88L46.5052 45.08H44.6652L45.0452 43H46.8852L47.2652 40.84L49.5252 40.2L49.0252 43H51.5252L51.1452 45.08H48.6652ZM56.2136 53.26C54.6403 53.26 53.4203 52.7267 52.5536 51.66C51.6869 50.58 51.4003 49.2733 51.6936 47.74C51.9736 46.26 52.6869 45.06 53.8336 44.14C54.9803 43.2067 56.3003 42.74 57.7936 42.74C59.2736 42.74 60.4403 43.2733 61.2936 44.34C62.1469 45.4067 62.4403 46.6933 62.1736 48.2C61.9069 49.6933 61.2003 50.9133 60.0536 51.86C58.9203 52.7933 57.6403 53.26 56.2136 53.26ZM56.3736 51.16C57.2403 51.16 58.0203 50.8733 58.7136 50.3C59.4203 49.7267 59.8603 48.9467 60.0336 47.96C60.2069 47.0133 60.0403 46.26 59.5336 45.7C59.0269 45.1267 58.3469 44.84 57.4936 44.84C56.6269 44.84 55.8469 45.1267 55.1536 45.7C54.4603 46.26 54.0269 47.0267 53.8536 48C53.6936 48.9733 53.8603 49.7467 54.3536 50.32C54.8469 50.88 55.5203 51.16 56.3736 51.16ZM66.9463 44.5C67.7463 43.34 68.8729 42.78 70.3263 42.82L69.9063 45.16C69.4263 45.12 68.9596 45.1667 68.5063 45.3C68.0529 45.4333 67.6196 45.7067 67.2063 46.12C66.8063 46.5333 66.5329 47.06 66.3863 47.7L65.4463 53H63.2863L65.0463 43H67.2063L66.9463 44.5ZM73.2417 41.5C72.8551 41.5 72.5484 41.3667 72.3217 41.1C72.1084 40.82 72.0351 40.4933 72.1017 40.12C72.1684 39.7467 72.3551 39.4267 72.6617 39.16C72.9684 38.88 73.3151 38.74 73.7017 38.74C74.0884 38.74 74.3951 38.8733 74.6217 39.14C74.8484 39.4067 74.9284 39.7333 74.8617 40.12C74.7951 40.4933 74.6084 40.82 74.3017 41.1C73.9951 41.3667 73.6417 41.5 73.2417 41.5ZM70.1417 53L71.9017 43H74.0617L72.3017 53H70.1417ZM84.5097 43H86.6697L84.9097 53H82.7497L82.9497 51.82C82.0164 52.78 80.7964 53.26 79.2897 53.26C77.8364 53.26 76.7164 52.7133 75.9297 51.62C75.1564 50.5133 74.903 49.2333 75.1697 47.78C75.4364 46.2867 76.0964 45.0733 77.1497 44.14C78.2164 43.2067 79.4497 42.74 80.8497 42.74C82.4097 42.74 83.5364 43.3667 84.2297 44.62L84.5097 43ZM79.9297 51.2C80.783 51.2 81.5497 50.94 82.2297 50.42C82.9097 49.8867 83.3564 49.2 83.5697 48.36L83.6697 47.78C83.763 46.86 83.5497 46.1333 83.0297 45.6C82.5097 45.0667 81.823 44.8 80.9697 44.8C80.103 44.8 79.323 45.08 78.6297 45.64C77.9364 46.2 77.503 46.9667 77.3297 47.94C77.1697 48.8733 77.3364 49.6533 77.8297 50.28C78.323 50.8933 79.023 51.2 79.9297 51.2ZM87.4469 53L88.5269 46.82L90.0069 38.4H92.1669L90.6669 46.88L89.6069 53H87.4469ZM107.354 46.24L109.194 47.4C108.754 48.5067 108.174 49.5067 107.454 50.4L109.034 52.5L107.074 53.52L105.874 51.92C104.648 52.8133 103.268 53.26 101.734 53.26C100.268 53.26 99.1477 52.8533 98.3744 52.04C97.6144 51.2133 97.3477 50.1733 97.5744 48.92C97.8944 47.24 98.981 45.9533 100.834 45.06C100.381 44.2333 100.234 43.3533 100.394 42.42C100.581 41.3 101.108 40.4067 101.974 39.74C102.841 39.0733 103.881 38.74 105.094 38.74C106.121 38.74 106.994 38.9933 107.714 39.5C108.434 39.9933 108.948 40.7133 109.254 41.66L107.194 42.76C106.834 41.5733 106.081 40.98 104.934 40.98C104.374 40.98 103.874 41.1333 103.434 41.44C103.008 41.7467 102.754 42.1867 102.674 42.76C102.568 43.4533 102.834 44.2267 103.474 45.08L106.174 48.68C106.601 48.04 106.994 47.2267 107.354 46.24ZM102.154 51.12C103.061 51.12 103.894 50.8467 104.654 50.3L101.894 46.64C100.734 47.1467 100.074 47.9 99.9144 48.9C99.7944 49.5667 99.9344 50.1067 100.334 50.52C100.734 50.92 101.341 51.12 102.154 51.12ZM131.65 39L129.19 53H126.89L128.65 43.04L123.13 50.06H122.85L119.87 42.84L118.09 53H115.79L118.25 39H120.67L123.55 46.1L129.03 39H131.65ZM141.541 43H143.701L141.941 53H139.781L139.981 51.82C139.048 52.78 137.828 53.26 136.321 53.26C134.868 53.26 133.748 52.7133 132.961 51.62C132.188 50.5133 131.934 49.2333 132.201 47.78C132.468 46.2867 133.128 45.0733 134.181 44.14C135.248 43.2067 136.481 42.74 137.881 42.74C139.441 42.74 140.568 43.3667 141.261 44.62L141.541 43ZM136.961 51.2C137.814 51.2 138.581 50.94 139.261 50.42C139.941 49.8867 140.388 49.2 140.601 48.36L140.701 47.78C140.794 46.86 140.581 46.1333 140.061 45.6C139.541 45.0667 138.854 44.8 138.001 44.8C137.134 44.8 136.354 45.08 135.661 45.64C134.968 46.2 134.534 46.9667 134.361 47.94C134.201 48.8733 134.368 49.6533 134.861 50.28C135.354 50.8933 136.054 51.2 136.961 51.2ZM147.558 41.5C147.171 41.5 146.865 41.3667 146.638 41.1C146.425 40.82 146.351 40.4933 146.418 40.12C146.485 39.7467 146.671 39.4267 146.978 39.16C147.285 38.88 147.631 38.74 148.018 38.74C148.405 38.74 148.711 38.8733 148.938 39.14C149.165 39.4067 149.245 39.7333 149.178 40.12C149.111 40.4933 148.925 40.82 148.618 41.1C148.311 41.3667 147.958 41.5 147.558 41.5ZM144.458 53L146.218 43H148.378L146.618 53H144.458ZM156.086 42.74C157.233 42.74 158.106 43.1133 158.706 43.86C159.319 44.5933 159.519 45.5933 159.306 46.86L158.226 53H156.066L157.106 47.08C157.239 46.32 157.139 45.7467 156.806 45.36C156.486 44.96 155.973 44.76 155.266 44.76C154.546 44.76 153.913 44.98 153.366 45.42C152.819 45.8467 152.453 46.5 152.266 47.38L151.286 53H149.126L150.886 43H153.046L152.826 44.2C153.666 43.2267 154.753 42.74 156.086 42.74ZM165.013 45.08L164.173 49.88C164.106 50.2933 164.153 50.5933 164.313 50.78C164.473 50.9667 164.733 51.0667 165.093 51.08C165.466 51.0933 165.919 51.0867 166.453 51.06L166.113 53C164.526 53.2 163.386 53.0533 162.693 52.56C162.013 52.0533 161.786 51.16 162.013 49.88L162.853 45.08H161.013L161.393 43H163.233L163.613 40.84L165.873 40.2L165.373 43H167.873L167.493 45.08H165.013ZM173.981 42.74C175.475 42.74 176.635 43.2533 177.461 44.28C178.301 45.3067 178.581 46.5533 178.301 48.02C178.181 48.5 178.101 48.8 178.061 48.92H170.101C170.115 49.6933 170.368 50.28 170.861 50.68C171.355 51.08 172.001 51.28 172.801 51.28C173.988 51.28 174.928 50.86 175.621 50.02L177.201 51.22C176.108 52.58 174.581 53.26 172.621 53.26C171.008 53.26 169.775 52.7333 168.921 51.68C168.068 50.6267 167.768 49.3333 168.021 47.8C168.275 46.3333 168.961 45.1267 170.081 44.18C171.201 43.22 172.501 42.74 173.981 42.74ZM170.401 47.14H176.261C176.275 46.3133 176.055 45.7 175.601 45.3C175.161 44.9 174.575 44.7 173.841 44.7C173.055 44.7 172.355 44.92 171.741 45.36C171.141 45.7867 170.695 46.38 170.401 47.14ZM186.223 42.74C187.369 42.74 188.243 43.1133 188.843 43.86C189.456 44.5933 189.656 45.5933 189.443 46.86L188.363 53H186.203L187.243 47.08C187.376 46.32 187.276 45.7467 186.943 45.36C186.623 44.96 186.109 44.76 185.403 44.76C184.683 44.76 184.049 44.98 183.503 45.42C182.956 45.8467 182.589 46.5 182.403 47.38L181.423 53H179.263L181.023 43H183.183L182.963 44.2C183.803 43.2267 184.889 42.74 186.223 42.74ZM200.35 43H202.51L200.75 53H198.59L198.79 51.82C197.856 52.78 196.636 53.26 195.13 53.26C193.676 53.26 192.556 52.7133 191.77 51.62C190.996 50.5133 190.743 49.2333 191.01 47.78C191.276 46.2867 191.936 45.0733 192.99 44.14C194.056 43.2067 195.29 42.74 196.69 42.74C198.25 42.74 199.376 43.3667 200.07 44.62L200.35 43ZM195.77 51.2C196.623 51.2 197.39 50.94 198.07 50.42C198.75 49.8867 199.196 49.2 199.41 48.36L199.51 47.78C199.603 46.86 199.39 46.1333 198.87 45.6C198.35 45.0667 197.663 44.8 196.81 44.8C195.943 44.8 195.163 45.08 194.47 45.64C193.776 46.2 193.343 46.9667 193.17 47.94C193.01 48.8733 193.176 49.6533 193.67 50.28C194.163 50.8933 194.863 51.2 195.77 51.2ZM210.227 42.74C211.373 42.74 212.247 43.1133 212.847 43.86C213.46 44.5933 213.66 45.5933 213.447 46.86L212.367 53H210.207L211.247 47.08C211.38 46.32 211.28 45.7467 210.947 45.36C210.627 44.96 210.113 44.76 209.407 44.76C208.687 44.76 208.053 44.98 207.507 45.42C206.96 45.8467 206.593 46.5 206.407 47.38L205.427 53H203.267L205.027 43H207.187L206.967 44.2C207.807 43.2267 208.893 42.74 210.227 42.74ZM219.513 53.26C217.993 53.26 216.8 52.7267 215.933 51.66C215.067 50.5933 214.76 49.3 215.013 47.78C215.267 46.3133 215.953 45.1067 217.073 44.16C218.207 43.2133 219.527 42.74 221.033 42.74C222.047 42.74 222.913 42.9733 223.633 43.44C224.367 43.9067 224.887 44.54 225.193 45.34L223.253 46.34C222.867 45.3533 222.06 44.86 220.833 44.86C219.94 44.86 219.147 45.1467 218.453 45.72C217.76 46.2933 217.333 47.0333 217.173 47.94C217.027 48.8467 217.193 49.6067 217.673 50.22C218.153 50.8333 218.84 51.14 219.733 51.14C220.32 51.14 220.86 51 221.353 50.72C221.86 50.44 222.273 50.06 222.593 49.58L224.333 50.7C223.827 51.5267 223.147 52.16 222.293 52.6C221.44 53.04 220.513 53.26 219.513 53.26ZM231.638 42.74C233.131 42.74 234.291 43.2533 235.118 44.28C235.958 45.3067 236.238 46.5533 235.957 48.02C235.838 48.5 235.758 48.8 235.718 48.92H227.758C227.771 49.6933 228.024 50.28 228.518 50.68C229.011 51.08 229.658 51.28 230.458 51.28C231.644 51.28 232.584 50.86 233.278 50.02L234.858 51.22C233.764 52.58 232.238 53.26 230.278 53.26C228.664 53.26 227.431 52.7333 226.578 51.68C225.724 50.6267 225.424 49.3333 225.678 47.8C225.931 46.3333 226.618 45.1267 227.738 44.18C228.858 43.22 230.158 42.74 231.638 42.74ZM228.058 47.14H233.918C233.931 46.3133 233.711 45.7 233.258 45.3C232.818 44.9 232.231 44.7 231.498 44.7C230.711 44.7 230.011 44.92 229.398 45.36C228.798 45.7867 228.351 46.38 228.058 47.14Z" fill="white" fill-opacity="0.5"/>
<path d="M6.192 19.008L4.608 24H0.64L7.904 0.959999H13.552L20.816 24H16.848L15.248 19.008H6.192ZM7.232 15.008C6.944 15.424 6.54933 15.8453 6.048 16.272L6.272 16.544C6.76267 16.1067 7.168 15.808 7.488 15.648C7.81867 15.488 8.23467 15.408 8.736 15.408H12.608C13.1947 15.408 13.6587 15.488 14 15.648C14.352 15.808 14.7307 16.08 15.136 16.464L15.392 16.192C14.944 15.744 14.576 15.3173 14.288 14.912C14.0107 14.5067 13.7333 13.9467 13.456 13.232L11.184 6.256C10.9707 5.712 10.864 4.95467 10.864 3.984L10.88 3.408H10.512C10.512 4.66667 10.416 5.61067 10.224 6.24L7.952 13.296C7.76 14.0107 7.52 14.5813 7.232 15.008ZM27.1808 9.76C27.2768 10.2827 27.3248 10.7573 27.3248 11.184V24H23.7088V0.959999H27.1808L34.6848 16.272C34.8128 16.5173 34.8928 16.816 34.9248 17.168C34.9568 17.52 34.9781 18.032 34.9888 18.704H35.3568C35.3674 18.032 35.3888 17.52 35.4208 17.168C35.4528 16.816 35.5274 16.5173 35.6448 16.272L43.1168 0.959999H46.5888V24H42.9888V10.848C42.9888 10.4 43.0101 10.032 43.0528 9.744C43.0954 9.44533 43.1648 9.03467 43.2608 8.512C43.2821 8.42667 43.3034 8.32 43.3248 8.192C43.3568 8.064 43.3888 7.91467 43.4208 7.744L43.0528 7.68C42.9781 8.08533 42.9354 8.32 42.9248 8.384C42.8288 8.91733 42.7434 9.328 42.6688 9.616C42.6048 9.904 42.4928 10.2293 42.3328 10.592L35.9168 24H34.3808L28.2848 11.216C28.0608 10.7893 27.8581 10.2987 27.6768 9.744C27.5061 9.18933 27.3194 8.50667 27.1168 7.696L26.7328 7.792C26.9461 8.58133 27.0954 9.23733 27.1808 9.76ZM65.9638 20.384V24H51.0838V0.959999H65.9638V4.576H55.9638C55.6971 4.576 55.4144 4.51733 55.1158 4.4C54.8278 4.272 54.5718 4.112 54.3478 3.92L54.1398 4.224C54.3531 4.384 54.5398 4.60267 54.6998 4.88C54.8598 5.15733 54.9398 5.424 54.9398 5.68V9.2C54.9398 9.49867 54.8811 9.75467 54.7638 9.968C54.6464 10.1707 54.4758 10.3733 54.2518 10.576L54.4758 10.864C54.6784 10.6827 54.9078 10.5387 55.1638 10.432C55.4304 10.3147 55.6811 10.256 55.9158 10.256H64.0438V13.872H56.0438C55.6811 13.872 55.3878 13.84 55.1638 13.776C54.9398 13.7013 54.7211 13.568 54.5078 13.376L54.2518 13.68C54.4971 13.8613 54.6731 14.064 54.7798 14.288C54.8864 14.512 54.9398 14.784 54.9398 15.104V19.536C54.9398 19.792 54.8758 20.032 54.7478 20.256C54.6198 20.48 54.4544 20.672 54.2518 20.832L54.4758 21.104C54.9558 20.624 55.4731 20.384 56.0278 20.384H65.9638ZM73.4825 16.32C73.5998 16.4907 73.6585 16.816 73.6585 17.296V24H69.8025V0.959999H79.3225C79.5465 0.959999 79.8345 0.970666 80.1865 0.991999C80.5492 1.00267 80.8745 1.03467 81.1625 1.088C82.4958 1.29067 83.5838 1.68 84.4265 2.256C85.2692 2.832 85.9145 3.60533 86.3625 4.576C86.8105 5.54667 87.0345 6.66667 87.0345 7.936C87.0345 9.49333 86.7252 10.8373 86.1065 11.968C85.4985 13.088 84.2772 13.712 82.4425 13.84L82.5065 15.92H74.9705C74.2878 15.92 73.8878 15.888 73.7705 15.824C73.6532 15.7493 73.4025 15.5787 73.0185 15.312L72.7785 15.6C73.1412 15.9093 73.3758 16.1493 73.4825 16.32ZM77.6905 15.92V14.224C79.1092 14.224 80.4158 14.224 81.6105 14.224C82.8052 14.224 83.7545 14.2933 84.4585 14.432C85.1732 14.5707 85.8078 14.96 86.3625 15.6C86.7892 16.0907 87.0025 16.8747 87.0025 17.952C87.0025 19.0187 87.0025 19.8133 87.0025 20.336V24H83.1785V20.32C83.1785 19.52 83.1625 18.848 83.1305 18.304C83.1092 17.7493 82.9918 17.3013 82.7785 16.96C82.3625 16.2667 81.7118 15.92 80.8265 15.92C79.9412 15.92 78.8958 15.92 77.6905 15.92ZM73.4505 12.128C73.3118 12.3733 73.0878 12.6293 72.7785 12.896L73.0345 13.152C73.3118 12.8747 73.5892 12.672 73.8665 12.544C74.1545 12.416 74.5225 12.352 74.9705 12.352H79.1625C79.3758 12.352 79.6158 12.3413 79.8825 12.32C80.1492 12.2987 80.3945 12.256 80.6185 12.192C81.2585 12.032 81.7598 11.7493 82.1225 11.344C82.4958 10.9387 82.7572 10.48 82.9065 9.968C83.0665 9.456 83.1465 8.95467 83.1465 8.464C83.1465 7.97333 83.0665 7.472 82.9065 6.96C82.7572 6.43733 82.4958 5.97333 82.1225 5.568C81.7598 5.16267 81.2585 4.88 80.6185 4.72C80.3945 4.656 80.1492 4.61867 79.8825 4.608C79.6158 4.58667 79.3758 4.576 79.1625 4.576H75.0025C74.5758 4.576 74.2398 4.50666 73.9945 4.368C73.7492 4.22933 73.4718 3.984 73.1625 3.632L72.8745 3.856C73.3972 4.464 73.6585 5.14667 73.6585 5.904V11.152C73.6585 11.5573 73.5892 11.8827 73.4505 12.128ZM95.1035 0.959999V24H91.2475V0.959999H95.1035ZM116.28 22.496C114.51 23.8187 112.296 24.48 109.64 24.48C107.347 24.48 105.374 23.9787 103.72 22.976C102.078 21.9627 100.814 20.5547 99.9283 18.752C99.0536 16.9493 98.6163 14.8587 98.6163 12.48C98.6163 10.1013 99.0536 8.01067 99.9283 6.208C100.814 4.40533 102.078 3.00267 103.72 2C105.374 0.986666 107.347 0.48 109.64 0.48C112.296 0.48 114.51 1.11467 116.28 2.384C118.051 3.65333 119.294 5.64267 120.008 8.352L116.12 8.4C115.63 7.024 114.856 5.968 113.8 5.232C112.744 4.48533 111.358 4.112 109.64 4.112C108.094 4.112 106.803 4.45867 105.768 5.152C104.744 5.84533 103.971 6.82133 103.448 8.08C102.936 9.328 102.675 10.7947 102.664 12.48C102.664 14.1547 102.92 15.6213 103.432 16.88C103.955 18.128 104.734 19.104 105.768 19.808C106.803 20.5013 108.094 20.848 109.64 20.848C111.358 20.848 112.744 20.4747 113.8 19.728C114.856 18.9813 115.63 17.9253 116.12 16.56L120.008 16.608C119.294 19.2 118.051 21.1627 116.28 22.496ZM126.848 19.008L125.264 24H121.296L128.56 0.959999H134.208L141.472 24H137.504L135.904 19.008H126.848ZM127.888 15.008C127.6 15.424 127.206 15.8453 126.704 16.272L126.928 16.544C127.419 16.1067 127.824 15.808 128.144 15.648C128.475 15.488 128.891 15.408 129.392 15.408H133.264C133.851 15.408 134.315 15.488 134.656 15.648C135.008 15.808 135.387 16.08 135.792 16.464L136.048 16.192C135.6 15.744 135.232 15.3173 134.944 14.912C134.667 14.5067 134.39 13.9467 134.112 13.232L131.84 6.256C131.627 5.712 131.52 4.95467 131.52 3.984L131.536 3.408H131.168C131.168 4.66667 131.072 5.61067 130.88 6.24L128.608 13.296C128.416 14.0107 128.176 14.5813 127.888 15.008ZM147.997 8.048C148.178 9.15733 148.269 10.272 148.269 11.392V24H144.365V0.959999H148.269L156.989 14.176C157.618 15.1893 158.098 16.0747 158.429 16.832C158.77 17.5787 159.202 18.6613 159.725 20.08L160.077 19.968C159.714 18.72 159.437 17.664 159.245 16.8C159.053 15.9253 158.957 15.1733 158.957 14.544V0.959999H162.861V24H158.957L150.573 11.28C149.912 10.2453 149.346 9.19467 148.877 8.128C148.408 7.05067 147.986 5.91467 147.613 4.72L147.261 4.848C147.581 5.86133 147.826 6.928 147.997 8.048ZM180.124 16.304C180.21 16.4213 180.252 16.7733 180.252 17.36V24H176.396V0.959999H185.916C186.14 0.959999 186.428 0.970666 186.78 0.991999C187.143 1.00267 187.468 1.03467 187.756 1.088C189.09 1.29067 190.188 1.73333 191.052 2.416C191.927 3.09867 192.572 3.96267 192.988 5.008C193.415 6.04267 193.628 7.19467 193.628 8.464C193.628 9.72267 193.415 10.8747 192.988 11.92C192.562 12.9547 191.911 13.8133 191.036 14.496C190.172 15.1787 189.079 15.6213 187.756 15.824C187.468 15.8667 187.143 15.8987 186.78 15.92C186.418 15.9413 186.13 15.952 185.916 15.952H181.532C180.988 15.952 180.642 15.936 180.492 15.904C180.343 15.8613 180.076 15.7013 179.692 15.424L179.468 15.712C179.831 15.9893 180.05 16.1867 180.124 16.304ZM180.044 12.128C179.906 12.3733 179.682 12.6293 179.372 12.896L179.628 13.152C179.906 12.8747 180.183 12.672 180.46 12.544C180.748 12.416 181.116 12.352 181.564 12.352H185.756C185.97 12.352 186.21 12.3413 186.476 12.32C186.743 12.2987 186.988 12.256 187.212 12.192C187.852 12.032 188.354 11.7493 188.716 11.344C189.09 10.9387 189.351 10.48 189.5 9.968C189.66 9.456 189.74 8.95467 189.74 8.464C189.74 7.97333 189.66 7.472 189.5 6.96C189.351 6.43733 189.09 5.97333 188.716 5.568C188.354 5.16267 187.852 4.88 187.212 4.72C186.988 4.656 186.743 4.61867 186.476 4.608C186.21 4.58667 185.97 4.576 185.756 4.576H181.596C181.17 4.576 180.834 4.50666 180.588 4.368C180.343 4.22933 180.066 3.984 179.756 3.632L179.468 3.856C179.991 4.464 180.252 5.14667 180.252 5.904V11.152C180.252 11.5573 180.183 11.8827 180.044 12.128ZM200.514 16.32C200.631 16.4907 200.69 16.816 200.69 17.296V24H196.834V0.959999H206.354C206.578 0.959999 206.866 0.970666 207.218 0.991999C207.58 1.00267 207.906 1.03467 208.194 1.088C209.527 1.29067 210.615 1.68 211.458 2.256C212.3 2.832 212.946 3.60533 213.394 4.576C213.842 5.54667 214.066 6.66667 214.066 7.936C214.066 9.49333 213.756 10.8373 213.138 11.968C212.53 13.088 211.308 13.712 209.474 13.84L209.538 15.92H202.002C201.319 15.92 200.919 15.888 200.802 15.824C200.684 15.7493 200.434 15.5787 200.05 15.312L199.81 15.6C200.172 15.9093 200.407 16.1493 200.514 16.32ZM204.722 15.92V14.224C206.14 14.224 207.447 14.224 208.642 14.224C209.836 14.224 210.786 14.2933 211.49 14.432C212.204 14.5707 212.839 14.96 213.394 15.6C213.82 16.0907 214.034 16.8747 214.034 17.952C214.034 19.0187 214.034 19.8133 214.034 20.336V24H210.21V20.32C210.21 19.52 210.194 18.848 210.162 18.304C210.14 17.7493 210.023 17.3013 209.81 16.96C209.394 16.2667 208.743 15.92 207.858 15.92C206.972 15.92 205.927 15.92 204.722 15.92ZM200.482 12.128C200.343 12.3733 200.119 12.6293 199.81 12.896L200.066 13.152C200.343 12.8747 200.62 12.672 200.898 12.544C201.186 12.416 201.554 12.352 202.002 12.352H206.194C206.407 12.352 206.647 12.3413 206.914 12.32C207.18 12.2987 207.426 12.256 207.65 12.192C208.29 12.032 208.791 11.7493 209.154 11.344C209.527 10.9387 209.788 10.48 209.938 9.968C210.098 9.456 210.178 8.95467 210.178 8.464C210.178 7.97333 210.098 7.472 209.938 6.96C209.788 6.43733 209.527 5.97333 209.154 5.568C208.791 5.16267 208.29 4.88 207.65 4.72C207.426 4.656 207.18 4.61867 206.914 4.608C206.647 4.58667 206.407 4.576 206.194 4.576H202.034C201.607 4.576 201.271 4.50666 201.026 4.368C200.78 4.22933 200.503 3.984 200.194 3.632L199.906 3.856C200.428 4.464 200.69 5.14667 200.69 5.904V11.152C200.69 11.5573 200.62 11.8827 200.482 12.128ZM233.623 22.976C231.98 23.9787 230.007 24.48 227.703 24.48C225.409 24.48 223.436 23.9787 221.783 22.976C220.14 21.9627 218.876 20.5547 217.991 18.752C217.116 16.9493 216.679 14.8587 216.679 12.48C216.679 10.1013 217.116 8.01067 217.991 6.208C218.876 4.40533 220.14 3.00267 221.783 2C223.436 0.986666 225.409 0.48 227.703 0.48C230.007 0.48 231.98 0.986666 233.623 2C235.276 3.00267 236.54 4.40533 237.415 6.208C238.3 8.01067 238.743 10.1013 238.743 12.48C238.743 14.8587 238.3 16.9493 237.415 18.752C236.54 20.5547 235.276 21.9627 233.623 22.976ZM223.831 19.776C224.865 20.4693 226.156 20.8267 227.703 20.848C229.249 20.8587 230.535 20.5173 231.559 19.824C232.593 19.1307 233.367 18.1547 233.879 16.896C234.401 15.6267 234.663 14.1547 234.663 12.48C234.663 10.7947 234.401 9.33333 233.879 8.096C233.367 6.848 232.593 5.87733 231.559 5.184C230.535 4.49067 229.249 4.13333 227.703 4.112C226.156 4.10133 224.871 4.44267 223.847 5.136C222.823 5.82933 222.049 6.80533 221.527 8.064C221.015 9.32267 220.759 10.7947 220.759 12.48C220.759 14.1547 221.015 15.616 221.527 16.864C222.039 18.112 222.807 19.0827 223.831 19.776Z" fill="url(#paint1_linear_2412_717)"/>
<path d="M6.192 19.008L4.608 24H0.64L7.904 0.959999H13.552L20.816 24H16.848L15.248 19.008H6.192ZM7.232 15.008C6.944 15.424 6.54933 15.8453 6.048 16.272L6.272 16.544C6.76267 16.1067 7.168 15.808 7.488 15.648C7.81867 15.488 8.23467 15.408 8.736 15.408H12.608C13.1947 15.408 13.6587 15.488 14 15.648C14.352 15.808 14.7307 16.08 15.136 16.464L15.392 16.192C14.944 15.744 14.576 15.3173 14.288 14.912C14.0107 14.5067 13.7333 13.9467 13.456 13.232L11.184 6.256C10.9707 5.712 10.864 4.95467 10.864 3.984L10.88 3.408H10.512C10.512 4.66667 10.416 5.61067 10.224 6.24L7.952 13.296C7.76 14.0107 7.52 14.5813 7.232 15.008ZM27.1808 9.76C27.2768 10.2827 27.3248 10.7573 27.3248 11.184V24H23.7088V0.959999H27.1808L34.6848 16.272C34.8128 16.5173 34.8928 16.816 34.9248 17.168C34.9568 17.52 34.9781 18.032 34.9888 18.704H35.3568C35.3674 18.032 35.3888 17.52 35.4208 17.168C35.4528 16.816 35.5274 16.5173 35.6448 16.272L43.1168 0.959999H46.5888V24H42.9888V10.848C42.9888 10.4 43.0101 10.032 43.0528 9.744C43.0954 9.44533 43.1648 9.03467 43.2608 8.512C43.2821 8.42667 43.3034 8.32 43.3248 8.192C43.3568 8.064 43.3888 7.91467 43.4208 7.744L43.0528 7.68C42.9781 8.08533 42.9354 8.32 42.9248 8.384C42.8288 8.91733 42.7434 9.328 42.6688 9.616C42.6048 9.904 42.4928 10.2293 42.3328 10.592L35.9168 24H34.3808L28.2848 11.216C28.0608 10.7893 27.8581 10.2987 27.6768 9.744C27.5061 9.18933 27.3194 8.50667 27.1168 7.696L26.7328 7.792C26.9461 8.58133 27.0954 9.23733 27.1808 9.76ZM65.9638 20.384V24H51.0838V0.959999H65.9638V4.576H55.9638C55.6971 4.576 55.4144 4.51733 55.1158 4.4C54.8278 4.272 54.5718 4.112 54.3478 3.92L54.1398 4.224C54.3531 4.384 54.5398 4.60267 54.6998 4.88C54.8598 5.15733 54.9398 5.424 54.9398 5.68V9.2C54.9398 9.49867 54.8811 9.75467 54.7638 9.968C54.6464 10.1707 54.4758 10.3733 54.2518 10.576L54.4758 10.864C54.6784 10.6827 54.9078 10.5387 55.1638 10.432C55.4304 10.3147 55.6811 10.256 55.9158 10.256H64.0438V13.872H56.0438C55.6811 13.872 55.3878 13.84 55.1638 13.776C54.9398 13.7013 54.7211 13.568 54.5078 13.376L54.2518 13.68C54.4971 13.8613 54.6731 14.064 54.7798 14.288C54.8864 14.512 54.9398 14.784 54.9398 15.104V19.536C54.9398 19.792 54.8758 20.032 54.7478 20.256C54.6198 20.48 54.4544 20.672 54.2518 20.832L54.4758 21.104C54.9558 20.624 55.4731 20.384 56.0278 20.384H65.9638ZM73.4825 16.32C73.5998 16.4907 73.6585 16.816 73.6585 17.296V24H69.8025V0.959999H79.3225C79.5465 0.959999 79.8345 0.970666 80.1865 0.991999C80.5492 1.00267 80.8745 1.03467 81.1625 1.088C82.4958 1.29067 83.5838 1.68 84.4265 2.256C85.2692 2.832 85.9145 3.60533 86.3625 4.576C86.8105 5.54667 87.0345 6.66667 87.0345 7.936C87.0345 9.49333 86.7252 10.8373 86.1065 11.968C85.4985 13.088 84.2772 13.712 82.4425 13.84L82.5065 15.92H74.9705C74.2878 15.92 73.8878 15.888 73.7705 15.824C73.6532 15.7493 73.4025 15.5787 73.0185 15.312L72.7785 15.6C73.1412 15.9093 73.3758 16.1493 73.4825 16.32ZM77.6905 15.92V14.224C79.1092 14.224 80.4158 14.224 81.6105 14.224C82.8052 14.224 83.7545 14.2933 84.4585 14.432C85.1732 14.5707 85.8078 14.96 86.3625 15.6C86.7892 16.0907 87.0025 16.8747 87.0025 17.952C87.0025 19.0187 87.0025 19.8133 87.0025 20.336V24H83.1785V20.32C83.1785 19.52 83.1625 18.848 83.1305 18.304C83.1092 17.7493 82.9918 17.3013 82.7785 16.96C82.3625 16.2667 81.7118 15.92 80.8265 15.92C79.9412 15.92 78.8958 15.92 77.6905 15.92ZM73.4505 12.128C73.3118 12.3733 73.0878 12.6293 72.7785 12.896L73.0345 13.152C73.3118 12.8747 73.5892 12.672 73.8665 12.544C74.1545 12.416 74.5225 12.352 74.9705 12.352H79.1625C79.3758 12.352 79.6158 12.3413 79.8825 12.32C80.1492 12.2987 80.3945 12.256 80.6185 12.192C81.2585 12.032 81.7598 11.7493 82.1225 11.344C82.4958 10.9387 82.7572 10.48 82.9065 9.968C83.0665 9.456 83.1465 8.95467 83.1465 8.464C83.1465 7.97333 83.0665 7.472 82.9065 6.96C82.7572 6.43733 82.4958 5.97333 82.1225 5.568C81.7598 5.16267 81.2585 4.88 80.6185 4.72C80.3945 4.656 80.1492 4.61867 79.8825 4.608C79.6158 4.58667 79.3758 4.576 79.1625 4.576H75.0025C74.5758 4.576 74.2398 4.50666 73.9945 4.368C73.7492 4.22933 73.4718 3.984 73.1625 3.632L72.8745 3.856C73.3972 4.464 73.6585 5.14667 73.6585 5.904V11.152C73.6585 11.5573 73.5892 11.8827 73.4505 12.128ZM95.1035 0.959999V24H91.2475V0.959999H95.1035ZM116.28 22.496C114.51 23.8187 112.296 24.48 109.64 24.48C107.347 24.48 105.374 23.9787 103.72 22.976C102.078 21.9627 100.814 20.5547 99.9283 18.752C99.0536 16.9493 98.6163 14.8587 98.6163 12.48C98.6163 10.1013 99.0536 8.01067 99.9283 6.208C100.814 4.40533 102.078 3.00267 103.72 2C105.374 0.986666 107.347 0.48 109.64 0.48C112.296 0.48 114.51 1.11467 116.28 2.384C118.051 3.65333 119.294 5.64267 120.008 8.352L116.12 8.4C115.63 7.024 114.856 5.968 113.8 5.232C112.744 4.48533 111.358 4.112 109.64 4.112C108.094 4.112 106.803 4.45867 105.768 5.152C104.744 5.84533 103.971 6.82133 103.448 8.08C102.936 9.328 102.675 10.7947 102.664 12.48C102.664 14.1547 102.92 15.6213 103.432 16.88C103.955 18.128 104.734 19.104 105.768 19.808C106.803 20.5013 108.094 20.848 109.64 20.848C111.358 20.848 112.744 20.4747 113.8 19.728C114.856 18.9813 115.63 17.9253 116.12 16.56L120.008 16.608C119.294 19.2 118.051 21.1627 116.28 22.496ZM126.848 19.008L125.264 24H121.296L128.56 0.959999H134.208L141.472 24H137.504L135.904 19.008H126.848ZM127.888 15.008C127.6 15.424 127.206 15.8453 126.704 16.272L126.928 16.544C127.419 16.1067 127.824 15.808 128.144 15.648C128.475 15.488 128.891 15.408 129.392 15.408H133.264C133.851 15.408 134.315 15.488 134.656 15.648C135.008 15.808 135.387 16.08 135.792 16.464L136.048 16.192C135.6 15.744 135.232 15.3173 134.944 14.912C134.667 14.5067 134.39 13.9467 134.112 13.232L131.84 6.256C131.627 5.712 131.52 4.95467 131.52 3.984L131.536 3.408H131.168C131.168 4.66667 131.072 5.61067 130.88 6.24L128.608 13.296C128.416 14.0107 128.176 14.5813 127.888 15.008ZM147.997 8.048C148.178 9.15733 148.269 10.272 148.269 11.392V24H144.365V0.959999H148.269L156.989 14.176C157.618 15.1893 158.098 16.0747 158.429 16.832C158.77 17.5787 159.202 18.6613 159.725 20.08L160.077 19.968C159.714 18.72 159.437 17.664 159.245 16.8C159.053 15.9253 158.957 15.1733 158.957 14.544V0.959999H162.861V24H158.957L150.573 11.28C149.912 10.2453 149.346 9.19467 148.877 8.128C148.408 7.05067 147.986 5.91467 147.613 4.72L147.261 4.848C147.581 5.86133 147.826 6.928 147.997 8.048ZM180.124 16.304C180.21 16.4213 180.252 16.7733 180.252 17.36V24H176.396V0.959999H185.916C186.14 0.959999 186.428 0.970666 186.78 0.991999C187.143 1.00267 187.468 1.03467 187.756 1.088C189.09 1.29067 190.188 1.73333 191.052 2.416C191.927 3.09867 192.572 3.96267 192.988 5.008C193.415 6.04267 193.628 7.19467 193.628 8.464C193.628 9.72267 193.415 10.8747 192.988 11.92C192.562 12.9547 191.911 13.8133 191.036 14.496C190.172 15.1787 189.079 15.6213 187.756 15.824C187.468 15.8667 187.143 15.8987 186.78 15.92C186.418 15.9413 186.13 15.952 185.916 15.952H181.532C180.988 15.952 180.642 15.936 180.492 15.904C180.343 15.8613 180.076 15.7013 179.692 15.424L179.468 15.712C179.831 15.9893 180.05 16.1867 180.124 16.304ZM180.044 12.128C179.906 12.3733 179.682 12.6293 179.372 12.896L179.628 13.152C179.906 12.8747 180.183 12.672 180.46 12.544C180.748 12.416 181.116 12.352 181.564 12.352H185.756C185.97 12.352 186.21 12.3413 186.476 12.32C186.743 12.2987 186.988 12.256 187.212 12.192C187.852 12.032 188.354 11.7493 188.716 11.344C189.09 10.9387 189.351 10.48 189.5 9.968C189.66 9.456 189.74 8.95467 189.74 8.464C189.74 7.97333 189.66 7.472 189.5 6.96C189.351 6.43733 189.09 5.97333 188.716 5.568C188.354 5.16267 187.852 4.88 187.212 4.72C186.988 4.656 186.743 4.61867 186.476 4.608C186.21 4.58667 185.97 4.576 185.756 4.576H181.596C181.17 4.576 180.834 4.50666 180.588 4.368C180.343 4.22933 180.066 3.984 179.756 3.632L179.468 3.856C179.991 4.464 180.252 5.14667 180.252 5.904V11.152C180.252 11.5573 180.183 11.8827 180.044 12.128ZM200.514 16.32C200.631 16.4907 200.69 16.816 200.69 17.296V24H196.834V0.959999H206.354C206.578 0.959999 206.866 0.970666 207.218 0.991999C207.58 1.00267 207.906 1.03467 208.194 1.088C209.527 1.29067 210.615 1.68 211.458 2.256C212.3 2.832 212.946 3.60533 213.394 4.576C213.842 5.54667 214.066 6.66667 214.066 7.936C214.066 9.49333 213.756 10.8373 213.138 11.968C212.53 13.088 211.308 13.712 209.474 13.84L209.538 15.92H202.002C201.319 15.92 200.919 15.888 200.802 15.824C200.684 15.7493 200.434 15.5787 200.05 15.312L199.81 15.6C200.172 15.9093 200.407 16.1493 200.514 16.32ZM204.722 15.92V14.224C206.14 14.224 207.447 14.224 208.642 14.224C209.836 14.224 210.786 14.2933 211.49 14.432C212.204 14.5707 212.839 14.96 213.394 15.6C213.82 16.0907 214.034 16.8747 214.034 17.952C214.034 19.0187 214.034 19.8133 214.034 20.336V24H210.21V20.32C210.21 19.52 210.194 18.848 210.162 18.304C210.14 17.7493 210.023 17.3013 209.81 16.96C209.394 16.2667 208.743 15.92 207.858 15.92C206.972 15.92 205.927 15.92 204.722 15.92ZM200.482 12.128C200.343 12.3733 200.119 12.6293 199.81 12.896L200.066 13.152C200.343 12.8747 200.62 12.672 200.898 12.544C201.186 12.416 201.554 12.352 202.002 12.352H206.194C206.407 12.352 206.647 12.3413 206.914 12.32C207.18 12.2987 207.426 12.256 207.65 12.192C208.29 12.032 208.791 11.7493 209.154 11.344C209.527 10.9387 209.788 10.48 209.938 9.968C210.098 9.456 210.178 8.95467 210.178 8.464C210.178 7.97333 210.098 7.472 209.938 6.96C209.788 6.43733 209.527 5.97333 209.154 5.568C208.791 5.16267 208.29 4.88 207.65 4.72C207.426 4.656 207.18 4.61867 206.914 4.608C206.647 4.58667 206.407 4.576 206.194 4.576H202.034C201.607 4.576 201.271 4.50666 201.026 4.368C200.78 4.22933 200.503 3.984 200.194 3.632L199.906 3.856C200.428 4.464 200.69 5.14667 200.69 5.904V11.152C200.69 11.5573 200.62 11.8827 200.482 12.128ZM233.623 22.976C231.98 23.9787 230.007 24.48 227.703 24.48C225.409 24.48 223.436 23.9787 221.783 22.976C220.14 21.9627 218.876 20.5547 217.991 18.752C217.116 16.9493 216.679 14.8587 216.679 12.48C216.679 10.1013 217.116 8.01067 217.991 6.208C218.876 4.40533 220.14 3.00267 221.783 2C223.436 0.986666 225.409 0.48 227.703 0.48C230.007 0.48 231.98 0.986666 233.623 2C235.276 3.00267 236.54 4.40533 237.415 6.208C238.3 8.01067 238.743 10.1013 238.743 12.48C238.743 14.8587 238.3 16.9493 237.415 18.752C236.54 20.5547 235.276 21.9627 233.623 22.976ZM223.831 19.776C224.865 20.4693 226.156 20.8267 227.703 20.848C229.249 20.8587 230.535 20.5173 231.559 19.824C232.593 19.1307 233.367 18.1547 233.879 16.896C234.401 15.6267 234.663 14.1547 234.663 12.48C234.663 10.7947 234.401 9.33333 233.879 8.096C233.367 6.848 232.593 5.87733 231.559 5.184C230.535 4.49067 229.249 4.13333 227.703 4.112C226.156 4.10133 224.871 4.44267 223.847 5.136C222.823 5.82933 222.049 6.80533 221.527 8.064C221.015 9.32267 220.759 10.7947 220.759 12.48C220.759 14.1547 221.015 15.616 221.527 16.864C222.039 18.112 222.807 19.0827 223.831 19.776Z" fill="white" fill-opacity="0.5"/>
<defs>
<linearGradient id="paint0_linear_2412_717" x1="105.619" y1="41.0263" x2="105.619" y2="54.6579" gradientUnits="userSpaceOnUse">
<stop stop-color="#424446"/>
<stop offset="0.413557" stop-color="white"/>
<stop offset="0.429587" stop-color="#DDDDDD"/>
<stop offset="1" stop-color="#DDDDDD"/>
</linearGradient>
<linearGradient id="paint1_linear_2412_717" x1="104.672" y1="4.32895" x2="104.672" y2="26.7237" gradientUnits="userSpaceOnUse">
<stop stop-color="#424446"/>
<stop offset="0.413557" stop-color="white"/>
<stop offset="0.429587" stop-color="#DDDDDD"/>
<stop offset="1" stop-color="#DDDDDD"/>
</linearGradient>
</defs>
</svg>
